<svg width="1521" height="2020" viewBox="0 0 1521 2020" fill="none" xmlns="http://www.w3.org/2000/svg">
<path d="M202.533 937.207C214.919 934.73 224.684 939.499 231.95 928.269C241.033 914.232 226.996 842.393 213.784 834.136C203.215 827.53 173.323 839.09 160.111 839.09C146.9 839.09 127.743 842.723 120.476 834.136C111.393 823.401 104.787 797.803 104.787 784.591C104.787 771.38 116.348 760.646 113.87 747.434C111.889 736.865 105.062 705.321 100.659 683.852C93.5022 659.63 78.1987 592.196 84.144 572.379C91.5756 547.607 132.862 490.631 144.423 499.714C155.983 508.797 154.471 542.169 165.892 549.258C189.838 564.121 198.095 531.091 218.738 564.121C239.382 597.15 203.875 586.415 231.95 615.316C260.025 644.217 300.486 642.565 319.478 659.906C334.671 673.778 372.325 875.422 379.756 891.937C387.188 908.451 408.797 891.937 424.346 891.937C438.867 891.937 482.729 868.604 512.699 885.331C520.222 889.529 527.562 972.859 544.903 972.859C566.372 972.859 519.305 882.854 539.123 873.771C554.977 866.504 643.991 853.953 711.701 843.218C735.097 841.567 753.029 846.102 771.979 850.65C792.623 855.604 799.229 891.111 792.623 909.277C786.017 927.443 775.282 947.261 776.934 963.775C778.255 976.987 823.175 1261.04 828.129 1275.08C833.084 1289.11 854.344 1334.16 833.084 1344.44C823.733 1348.96 640.519 1385.89 506.093 1412.96C503.206 1413.55 486 1418.24 484.624 1429.49C482.103 1450.1 554.057 1772.81 549.032 1773.82C542.335 1775.17 434.382 1868.31 426.823 1863C409.629 1850.92 416.914 1775.52 401.225 1768.04C385.536 1760.56 368.683 1752.52 366.853 1741.47C364.967 1730.08 384.711 1716.02 390.491 1711.06C396.271 1706.11 348.289 1493.7 340.121 1446C339.395 1441.76 335.575 1412.96 327.735 1403.07C319.896 1393.17 231.948 1384.38 229.473 1372.51C227.073 1361 314.055 1358.48 319.478 1341.96C324.901 1325.45 313.698 1321.32 313.698 1303.98C313.698 1286.64 378.919 1239.72 353.333 1218.93C326.909 1197.46 305.44 1233.79 291.403 1202.41C280.173 1177.31 286.448 1154.52 274.888 1138.83C263.328 1123.14 246.131 1118.87 245.471 1099.05C244.645 1074.28 267.457 1069.47 261.677 1048C255.896 1026.53 246.813 1022.4 250.942 997.63C254.245 977.813 289.201 936.526 303.789 921.663" stroke="black" stroke-width="16.5147" stroke-linecap="round" stroke-dasharray="16.51 46.24"/>
<mask id="path-2-outside-1_123_2417" maskUnits="userSpaceOnUse" x="288.189" y="895.746" width="49" height="28" fill="black">
<rect fill="white" x="288.189" y="895.746" width="49" height="28"/>
<path d="M297.36 916.746C296.739 916.746 296.263 916.587 295.933 916.27C295.616 915.94 295.457 915.471 295.457 914.863V904.657C295.457 904.049 295.616 903.587 295.933 903.27C296.263 902.94 296.739 902.774 297.36 902.774H304.078C304.554 902.774 304.91 902.893 305.148 903.131C305.386 903.369 305.505 903.712 305.505 904.162C305.505 904.624 305.386 904.981 305.148 905.232C304.91 905.47 304.554 905.589 304.078 905.589H298.945V908.244H303.642C304.104 908.244 304.454 908.363 304.692 908.601C304.943 908.839 305.069 909.189 305.069 909.651C305.069 910.114 304.943 910.464 304.692 910.701C304.454 910.939 304.104 911.058 303.642 911.058H298.945V913.932H304.078C304.554 913.932 304.91 914.057 305.148 914.308C305.386 914.546 305.505 914.89 305.505 915.339C305.505 915.801 305.386 916.151 305.148 916.389C304.91 916.627 304.554 916.746 304.078 916.746H297.36ZM309.137 916.924C308.582 916.924 308.152 916.772 307.848 916.468C307.545 916.165 307.393 915.722 307.393 915.141V908.581C307.393 908.013 307.538 907.577 307.829 907.273C308.132 906.969 308.562 906.817 309.117 906.817C309.672 906.817 310.094 906.969 310.385 907.273C310.676 907.577 310.821 908.013 310.821 908.581V909.512L310.603 908.7C310.92 908.079 311.369 907.603 311.951 907.273C312.545 906.943 313.219 906.778 313.972 906.778C314.752 906.778 315.392 906.93 315.894 907.233C316.396 907.524 316.773 907.986 317.024 908.621C317.275 909.242 317.4 910.028 317.4 910.979V915.141C317.4 915.722 317.249 916.165 316.945 916.468C316.641 916.772 316.205 916.924 315.637 916.924C315.069 916.924 314.633 916.772 314.329 916.468C314.025 916.165 313.873 915.722 313.873 915.141V911.118C313.873 910.523 313.767 910.1 313.556 909.849C313.358 909.598 313.06 909.473 312.664 909.473C312.136 909.473 311.713 909.645 311.396 909.988C311.079 910.318 310.92 910.768 310.92 911.336V915.141C310.92 916.33 310.326 916.924 309.137 916.924ZM323.216 916.964C322.384 916.964 321.644 916.759 320.996 916.349C320.362 915.94 319.86 915.352 319.49 914.586C319.133 913.819 318.955 912.914 318.955 911.871C318.955 910.801 319.133 909.889 319.49 909.136C319.86 908.383 320.362 907.802 320.996 907.392C321.644 906.982 322.384 906.778 323.216 906.778C323.942 906.778 324.596 906.949 325.178 907.293C325.759 907.636 326.149 908.079 326.347 908.621H326.129V904.38C326.129 903.798 326.281 903.356 326.585 903.052C326.889 902.748 327.325 902.596 327.893 902.596C328.448 902.596 328.877 902.748 329.181 903.052C329.498 903.356 329.657 903.798 329.657 904.38V915.141C329.657 915.722 329.505 916.165 329.201 916.468C328.91 916.772 328.481 916.924 327.913 916.924C327.358 916.924 326.928 916.772 326.624 916.468C326.321 916.165 326.169 915.722 326.169 915.141V914.011L326.387 914.982C326.202 915.577 325.812 916.059 325.217 916.429C324.636 916.785 323.969 916.964 323.216 916.964ZM324.345 914.368C324.702 914.368 325.019 914.282 325.297 914.11C325.574 913.925 325.786 913.654 325.931 913.298C326.089 912.928 326.169 912.452 326.169 911.871C326.169 910.986 325.997 910.351 325.653 909.968C325.31 909.572 324.874 909.374 324.345 909.374C323.989 909.374 323.672 909.46 323.394 909.631C323.117 909.803 322.899 910.074 322.74 910.444C322.582 910.801 322.502 911.276 322.502 911.871C322.502 912.743 322.674 913.377 323.018 913.773C323.361 914.17 323.804 914.368 324.345 914.368Z"/>
</mask>
<path d="M297.36 916.746C296.739 916.746 296.263 916.587 295.933 916.27C295.616 915.94 295.457 915.471 295.457 914.863V904.657C295.457 904.049 295.616 903.587 295.933 903.27C296.263 902.94 296.739 902.774 297.36 902.774H304.078C304.554 902.774 304.91 902.893 305.148 903.131C305.386 903.369 305.505 903.712 305.505 904.162C305.505 904.624 305.386 904.981 305.148 905.232C304.91 905.47 304.554 905.589 304.078 905.589H298.945V908.244H303.642C304.104 908.244 304.454 908.363 304.692 908.601C304.943 908.839 305.069 909.189 305.069 909.651C305.069 910.114 304.943 910.464 304.692 910.701C304.454 910.939 304.104 911.058 303.642 911.058H298.945V913.932H304.078C304.554 913.932 304.91 914.057 305.148 914.308C305.386 914.546 305.505 914.89 305.505 915.339C305.505 915.801 305.386 916.151 305.148 916.389C304.91 916.627 304.554 916.746 304.078 916.746H297.36ZM309.137 916.924C308.582 916.924 308.152 916.772 307.848 916.468C307.545 916.165 307.393 915.722 307.393 915.141V908.581C307.393 908.013 307.538 907.577 307.829 907.273C308.132 906.969 308.562 906.817 309.117 906.817C309.672 906.817 310.094 906.969 310.385 907.273C310.676 907.577 310.821 908.013 310.821 908.581V909.512L310.603 908.7C310.92 908.079 311.369 907.603 311.951 907.273C312.545 906.943 313.219 906.778 313.972 906.778C314.752 906.778 315.392 906.93 315.894 907.233C316.396 907.524 316.773 907.986 317.024 908.621C317.275 909.242 317.4 910.028 317.4 910.979V915.141C317.4 915.722 317.249 916.165 316.945 916.468C316.641 916.772 316.205 916.924 315.637 916.924C315.069 916.924 314.633 916.772 314.329 916.468C314.025 916.165 313.873 915.722 313.873 915.141V911.118C313.873 910.523 313.767 910.1 313.556 909.849C313.358 909.598 313.06 909.473 312.664 909.473C312.136 909.473 311.713 909.645 311.396 909.988C311.079 910.318 310.92 910.768 310.92 911.336V915.141C310.92 916.33 310.326 916.924 309.137 916.924ZM323.216 916.964C322.384 916.964 321.644 916.759 320.996 916.349C320.362 915.94 319.86 915.352 319.49 914.586C319.133 913.819 318.955 912.914 318.955 911.871C318.955 910.801 319.133 909.889 319.49 909.136C319.86 908.383 320.362 907.802 320.996 907.392C321.644 906.982 322.384 906.778 323.216 906.778C323.942 906.778 324.596 906.949 325.178 907.293C325.759 907.636 326.149 908.079 326.347 908.621H326.129V904.38C326.129 903.798 326.281 903.356 326.585 903.052C326.889 902.748 327.325 902.596 327.893 902.596C328.448 902.596 328.877 902.748 329.181 903.052C329.498 903.356 329.657 903.798 329.657 904.38V915.141C329.657 915.722 329.505 916.165 329.201 916.468C328.91 916.772 328.481 916.924 327.913 916.924C327.358 916.924 326.928 916.772 326.624 916.468C326.321 916.165 326.169 915.722 326.169 915.141V914.011L326.387 914.982C326.202 915.577 325.812 916.059 325.217 916.429C324.636 916.785 323.969 916.964 323.216 916.964ZM324.345 914.368C324.702 914.368 325.019 914.282 325.297 914.11C325.574 913.925 325.786 913.654 325.931 913.298C326.089 912.928 326.169 912.452 326.169 911.871C326.169 910.986 325.997 910.351 325.653 909.968C325.31 909.572 324.874 909.374 324.345 909.374C323.989 909.374 323.672 909.46 323.394 909.631C323.117 909.803 322.899 910.074 322.74 910.444C322.582 910.801 322.502 911.276 322.502 911.871C322.502 912.743 322.674 913.377 323.018 913.773C323.361 914.17 323.804 914.368 324.345 914.368Z" fill="black"/>
<path d="M295.933 916.27L291.168 920.845L291.261 920.942L291.358 921.036L295.933 916.27ZM295.933 903.27L300.604 907.941L300.604 907.941L295.933 903.27ZM305.148 905.232L309.819 909.903L309.882 909.84L309.944 909.775L305.148 905.232ZM298.945 905.589V898.983H292.339V905.589H298.945ZM298.945 908.244H292.339V914.85H298.945V908.244ZM304.692 908.601L300.021 913.272L300.084 913.335L300.149 913.396L304.692 908.601ZM304.692 910.701L300.149 905.906L300.084 905.967L300.021 906.03L304.692 910.701ZM298.945 911.058V904.452H292.339V911.058H298.945ZM298.945 913.932H292.339V920.538H298.945V913.932ZM305.148 914.308L300.353 918.851L300.414 918.916L300.477 918.979L305.148 914.308ZM305.148 916.389L300.477 911.718L305.148 916.389ZM297.36 916.746V910.14C297.824 910.14 299.223 910.272 300.508 911.505L295.933 916.27L291.358 921.036C293.303 922.903 295.653 923.352 297.36 923.352V916.746ZM295.933 916.27L300.698 911.695C301.908 912.955 302.063 914.34 302.063 914.863H295.457H288.851C288.851 916.602 289.324 918.925 291.168 920.845L295.933 916.27ZM295.457 914.863H302.063V904.657H295.457H288.851V914.863H295.457ZM295.457 904.657H302.063C302.063 905.162 301.914 906.63 300.604 907.941L295.933 903.27L291.262 898.599C289.317 900.543 288.851 902.937 288.851 904.657H295.457ZM295.933 903.27L300.604 907.941C299.329 909.216 297.894 909.38 297.36 909.38V902.774V896.169C295.584 896.169 293.197 896.663 291.262 898.599L295.933 903.27ZM297.36 902.774V909.38H304.078V902.774V896.169H297.36V902.774ZM304.078 902.774V909.38C303.535 909.38 301.915 909.24 300.477 907.802L305.148 903.131L309.819 898.46C307.906 896.547 305.572 896.169 304.078 896.169V902.774ZM305.148 903.131L300.477 907.802C299.104 906.429 298.899 904.857 298.899 904.162H305.505H312.111C312.111 902.568 311.668 900.309 309.819 898.46L305.148 903.131ZM305.505 904.162H298.899C298.899 903.517 299.081 902.031 300.353 900.689L305.148 905.232L309.944 909.775C311.691 907.93 312.111 905.731 312.111 904.162H305.505ZM305.148 905.232L300.477 900.561C301.915 899.123 303.535 898.983 304.078 898.983V905.589V912.194C305.572 912.194 307.906 911.816 309.819 909.903L305.148 905.232ZM304.078 905.589V898.983H298.945V905.589V912.194H304.078V905.589ZM298.945 905.589H292.339V908.244H298.945H305.551V905.589H298.945ZM298.945 908.244V914.85H303.642V908.244V901.638H298.945V908.244ZM303.642 908.244V914.85C303.024 914.85 301.427 914.678 300.021 913.272L304.692 908.601L309.363 903.93C307.481 902.048 305.185 901.638 303.642 901.638V908.244ZM304.692 908.601L300.149 913.396C298.683 912.008 298.463 910.366 298.463 909.651H305.069H311.675C311.675 908.012 311.203 905.67 309.235 903.805L304.692 908.601ZM305.069 909.651H298.463C298.463 908.936 298.683 907.295 300.149 905.906L304.692 910.701L309.235 915.497C311.203 913.633 311.675 911.291 311.675 909.651H305.069ZM304.692 910.701L300.021 906.03C301.427 904.624 303.024 904.452 303.642 904.452V911.058V917.664C305.185 917.664 307.481 917.254 309.363 915.373L304.692 910.701ZM303.642 911.058V904.452H298.945V911.058V917.664H303.642V911.058ZM298.945 911.058H292.339V913.932H298.945H305.551V911.058H298.945ZM298.945 913.932V920.538H304.078V913.932V907.326H298.945V913.932ZM304.078 913.932V920.538C303.441 920.538 301.774 920.352 300.353 918.851L305.148 914.308L309.944 909.765C308.046 907.762 305.666 907.326 304.078 907.326V913.932ZM305.148 914.308L300.477 918.979C299.104 917.607 298.899 916.034 298.899 915.339H305.505H312.111C312.111 913.745 311.668 911.486 309.819 909.637L305.148 914.308ZM305.505 915.339H298.899C298.899 914.72 299.071 913.124 300.477 911.718L305.148 916.389L309.819 921.06C311.701 919.178 312.111 916.882 312.111 915.339H305.505ZM305.148 916.389L300.477 911.718C301.915 910.28 303.535 910.14 304.078 910.14V916.746V923.352C305.572 923.352 307.906 922.974 309.819 921.06L305.148 916.389ZM304.078 916.746V910.14H297.36V916.746V923.352H304.078V916.746ZM307.848 916.468L312.519 911.797V911.797L307.848 916.468ZM307.829 907.273L303.158 902.602L303.106 902.654L303.055 902.707L307.829 907.273ZM310.385 907.273L305.611 911.839L305.611 911.839L310.385 907.273ZM310.821 909.512L304.441 911.224L317.427 909.512H310.821ZM310.603 908.7L304.72 905.696L303.565 907.958L304.223 910.412L310.603 908.7ZM311.951 907.273L308.743 901.498L308.715 901.514L308.687 901.53L311.951 907.273ZM315.894 907.233L312.474 912.885L312.529 912.918L312.585 912.95L315.894 907.233ZM317.024 908.621L310.882 911.052L310.891 911.074L310.9 911.096L317.024 908.621ZM316.945 916.468L312.274 911.797V911.797L316.945 916.468ZM314.329 916.468L319 911.797V911.797L314.329 916.468ZM313.556 909.849L308.371 913.943L308.436 914.025L308.503 914.104L313.556 909.849ZM311.396 909.988L316.161 914.563L316.206 914.516L316.25 914.469L311.396 909.988ZM309.137 916.924V910.318C309.801 910.318 311.253 910.53 312.519 911.797L307.848 916.468L303.177 921.139C305.052 923.014 307.363 923.53 309.137 923.53V916.924ZM307.848 916.468L312.519 911.797C313.841 913.119 313.998 914.605 313.998 915.141H307.393H300.787C300.787 916.839 301.248 919.21 303.177 921.139L307.848 916.468ZM307.393 915.141H313.998V908.581H307.393H300.787V915.141H307.393ZM307.393 908.581H313.998C313.998 909.104 313.851 910.534 312.602 911.839L307.829 907.273L303.055 902.707C301.225 904.62 300.787 906.922 300.787 908.581H307.393ZM307.829 907.273L312.5 911.944C311.233 913.211 309.781 913.423 309.117 913.423V906.817V900.211C307.343 900.211 305.032 900.727 303.158 902.602L307.829 907.273ZM309.117 906.817V913.423C308.47 913.423 306.929 913.217 305.611 911.839L310.385 907.273L315.159 902.707C313.26 900.721 310.873 900.211 309.117 900.211V906.817ZM310.385 907.273L305.611 911.839C304.363 910.534 304.215 909.104 304.215 908.581H310.821H317.427C317.427 906.922 316.988 904.62 315.159 902.707L310.385 907.273ZM310.821 908.581H304.215V909.512H310.821H317.427V908.581H310.821ZM310.821 909.512L317.201 907.801L316.983 906.988L310.603 908.7L304.223 910.412L304.441 911.224L310.821 909.512ZM310.603 908.7L316.486 911.704C316.378 911.916 316.214 912.165 315.98 912.413C315.745 912.663 315.481 912.865 315.214 913.017L311.951 907.273L308.687 901.53C306.934 902.526 305.597 903.977 304.72 905.696L310.603 908.7ZM311.951 907.273L315.159 913.048C314.67 913.319 314.219 913.383 313.972 913.383V906.778V900.172C312.219 900.172 310.421 900.566 308.743 901.498L311.951 907.273ZM313.972 906.778V913.383C313.93 913.383 313.289 913.378 312.474 912.885L315.894 907.233L319.315 901.582C317.495 900.481 315.573 900.172 313.972 900.172V906.778ZM315.894 907.233L312.585 912.95C311.582 912.37 311.078 911.547 310.882 911.052L317.024 908.621L323.166 906.189C322.468 904.425 321.211 902.678 319.204 901.517L315.894 907.233ZM317.024 908.621L310.9 911.096C310.853 910.981 310.824 910.888 310.807 910.825C310.791 910.762 310.784 910.725 310.783 910.717C310.782 910.71 310.785 910.727 310.788 910.772C310.792 910.818 310.795 910.886 310.795 910.979H317.4H324.006C324.006 909.508 323.821 907.809 323.148 906.145L317.024 908.621ZM317.4 910.979H310.795V915.141H317.4H324.006V910.979H317.4ZM317.4 915.141H310.795C310.795 914.605 310.952 913.119 312.274 911.797L316.945 916.468L321.616 921.139C323.545 919.21 324.006 916.839 324.006 915.141H317.4ZM316.945 916.468L312.274 911.797C313.568 910.503 315.037 910.318 315.637 910.318V916.924V923.53C317.372 923.53 319.713 923.042 321.616 921.139L316.945 916.468ZM315.637 916.924V910.318C316.236 910.318 317.705 910.503 319 911.797L314.329 916.468L309.658 921.139C311.56 923.042 313.901 923.53 315.637 923.53V916.924ZM314.329 916.468L319 911.797C320.321 913.119 320.479 914.605 320.479 915.141H313.873H307.267C307.267 916.839 307.728 919.21 309.658 921.139L314.329 916.468ZM313.873 915.141H320.479V911.118H313.873H307.267V915.141H313.873ZM313.873 911.118H320.479C320.479 910.09 320.365 907.68 318.609 905.594L313.556 909.849L308.503 914.104C307.784 913.251 307.5 912.416 307.385 911.957C307.269 911.494 307.267 911.179 307.267 911.118H313.873ZM313.556 909.849L318.741 905.756C316.993 903.542 314.549 902.867 312.664 902.867V909.473V916.079C312.176 916.079 311.442 916.002 310.615 915.653C309.747 915.286 308.968 914.699 308.371 913.943L313.556 909.849ZM312.664 909.473V902.867C310.558 902.867 308.279 903.626 306.542 905.507L311.396 909.988L316.25 914.469C315.766 914.993 315.148 915.433 314.437 915.722C313.744 916.003 313.119 916.079 312.664 916.079V909.473ZM311.396 909.988L306.63 905.413C304.864 907.254 304.314 909.494 304.314 911.336H310.92H317.526C317.526 912.041 317.294 913.383 316.161 914.563L311.396 909.988ZM310.92 911.336H304.314V915.141H310.92H317.526V911.336H310.92ZM310.92 915.141H304.314C304.314 914.717 304.425 913.186 305.803 911.807C307.182 910.429 308.713 910.318 309.137 910.318V916.924V923.53C310.749 923.53 313.172 923.122 315.145 921.149C317.118 919.176 317.526 916.753 317.526 915.141H310.92ZM320.996 916.349L317.412 921.899L317.438 921.915L317.465 921.932L320.996 916.349ZM319.49 914.586L313.501 917.374L313.521 917.416L313.541 917.458L319.49 914.586ZM319.49 909.136L313.561 906.223L313.54 906.266L313.52 906.308L319.49 909.136ZM320.996 907.392L317.465 901.809L317.438 901.826L317.412 901.843L320.996 907.392ZM326.347 908.621V915.227H335.798L332.551 906.351L326.347 908.621ZM326.129 908.621H319.523V915.227H326.129V908.621ZM326.585 903.052L331.256 907.723L331.256 907.723L326.585 903.052ZM329.181 903.052L324.51 907.723L324.56 907.773L324.61 907.821L329.181 903.052ZM329.201 916.468L324.53 911.797L324.478 911.849L324.427 911.902L329.201 916.468ZM326.624 916.468L331.296 911.797V911.797L326.624 916.468ZM326.169 914.011L332.614 912.564L319.563 914.011H326.169ZM326.387 914.982L332.694 916.944L333.219 915.258L332.832 913.535L326.387 914.982ZM325.217 916.429L328.672 922.059L328.69 922.048L328.707 922.038L325.217 916.429ZM325.297 914.11L328.774 919.727L328.868 919.668L328.961 919.607L325.297 914.11ZM325.931 913.298L319.859 910.695L319.836 910.75L319.813 910.805L325.931 913.298ZM325.653 909.968L320.661 914.295L320.698 914.337L320.735 914.378L325.653 909.968ZM323.394 909.631L319.917 904.015L319.917 904.015L323.394 909.631ZM322.74 910.444L328.777 913.127L328.795 913.087L328.812 913.046L322.74 910.444ZM323.018 913.773L318.026 918.1L323.018 913.773ZM323.216 916.964V910.358C323.345 910.358 323.549 910.375 323.799 910.444C324.053 910.514 324.302 910.624 324.528 910.767L320.996 916.349L317.465 921.932C319.26 923.068 321.246 923.57 323.216 923.57V916.964ZM320.996 916.349L324.58 910.8C324.814 910.952 325.013 911.13 325.168 911.312C325.319 911.489 325.402 911.637 325.439 911.714L319.49 914.586L313.541 917.458C314.37 919.174 315.634 920.75 317.412 921.899L320.996 916.349ZM319.49 914.586L325.479 911.798C325.544 911.938 325.566 912.033 325.57 912.055C325.574 912.074 325.561 912.019 325.561 911.871H318.955H312.349C312.349 913.657 312.654 915.554 313.501 917.374L319.49 914.586ZM318.955 911.871H325.561C325.561 911.699 325.576 911.633 325.572 911.653C325.567 911.675 325.542 911.791 325.46 911.964L319.49 909.136L313.52 906.308C312.643 908.159 312.349 910.091 312.349 911.871H318.955ZM319.49 909.136L325.419 912.048C325.378 912.132 325.293 912.279 325.144 912.453C324.991 912.63 324.8 912.799 324.58 912.941L320.996 907.392L317.412 901.843C315.663 902.973 314.399 904.518 313.561 906.223L319.49 909.136ZM320.996 907.392L324.528 912.974C324.302 913.117 324.053 913.227 323.799 913.298C323.549 913.367 323.345 913.383 323.216 913.383V906.778V900.172C321.246 900.172 319.26 900.674 317.465 901.809L320.996 907.392ZM323.216 906.778V913.383C323.055 913.383 322.833 913.364 322.573 913.296C322.311 913.227 322.053 913.119 321.817 912.98L325.178 907.293L328.538 901.606C326.862 900.615 325.031 900.172 323.216 900.172V906.778ZM325.178 907.293L321.817 912.98C321.594 912.848 321.274 912.618 320.948 912.248C320.614 911.868 320.332 911.407 320.143 910.89L326.347 908.621L332.551 906.351C331.741 904.139 330.199 902.587 328.538 901.606L325.178 907.293ZM326.347 908.621V902.015H326.129V908.621V915.227H326.347V908.621ZM326.129 908.621H332.735V904.38H326.129H319.523V908.621H326.129ZM326.129 904.38H332.735C332.735 904.915 332.577 906.401 331.256 907.723L326.585 903.052L321.914 898.381C319.985 900.31 319.523 902.682 319.523 904.38H326.129ZM326.585 903.052L331.256 907.723C329.961 909.018 328.492 909.202 327.893 909.202V902.596V895.99C326.157 895.99 323.816 896.478 321.914 898.381L326.585 903.052ZM327.893 902.596V909.202C327.229 909.202 325.777 908.99 324.51 907.723L329.181 903.052L333.852 898.381C331.977 896.506 329.667 895.99 327.893 895.99V902.596ZM329.181 903.052L324.61 907.821C323.246 906.513 323.051 904.991 323.051 904.38H329.657H336.262C336.262 902.605 335.75 900.198 333.752 898.283L329.181 903.052ZM329.657 904.38H323.051V915.141H329.657H336.262V904.38H329.657ZM329.657 915.141H323.051C323.051 914.605 323.208 913.119 324.53 911.797L329.201 916.468L333.872 921.139C335.801 919.21 336.262 916.839 336.262 915.141H329.657ZM329.201 916.468L324.427 911.902C325.773 910.495 327.333 910.318 327.913 910.318V916.924V923.53C329.628 923.53 332.047 923.049 333.974 921.035L329.201 916.468ZM327.913 916.924V910.318C328.577 910.318 330.029 910.53 331.296 911.797L326.624 916.468L321.953 921.139C323.828 923.014 326.139 923.53 327.913 923.53V916.924ZM326.624 916.468L331.296 911.797C332.617 913.119 332.775 914.605 332.775 915.141H326.169H319.563C319.563 916.839 320.024 919.21 321.953 921.139L326.624 916.468ZM326.169 915.141H332.775V914.011H326.169H319.563V915.141H326.169ZM326.169 914.011L319.723 915.458L319.941 916.429L326.387 914.982L332.832 913.535L332.614 912.564L326.169 914.011ZM326.387 914.982L320.079 913.02C320.234 912.523 320.486 912.048 320.818 911.637C321.143 911.235 321.478 910.975 321.728 910.82L325.217 916.429L328.707 922.038C330.469 920.941 331.979 919.243 332.694 916.944L326.387 914.982ZM325.217 916.429L321.762 910.798C322.022 910.639 322.3 910.522 322.575 910.448C322.846 910.376 323.068 910.358 323.216 910.358V916.964V923.57C325.057 923.57 326.945 923.119 328.672 922.059L325.217 916.429ZM324.345 914.368V920.974C325.812 920.974 327.355 920.605 328.774 919.727L325.297 914.11L321.82 908.493C322.683 907.959 323.592 907.762 324.345 907.762V914.368ZM325.297 914.11L328.961 919.607C330.502 918.579 331.484 917.176 332.049 915.79L325.931 913.298L319.813 910.805C320.087 910.133 320.647 909.271 321.632 908.614L325.297 914.11ZM325.931 913.298L332.003 915.9C332.634 914.427 332.775 912.981 332.775 911.871H326.169H319.563C319.563 911.869 319.562 911.763 319.593 911.577C319.624 911.393 319.694 911.081 319.859 910.695L325.931 913.298ZM326.169 911.871H332.775C332.775 910.434 332.553 907.768 330.572 905.559L325.653 909.968L320.735 914.378C320.054 913.619 319.775 912.869 319.664 912.458C319.555 912.056 319.563 911.824 319.563 911.871H326.169ZM325.653 909.968L330.645 905.642C329.036 903.785 326.773 902.768 324.345 902.768V909.374V915.98C323.765 915.98 323.061 915.866 322.335 915.536C321.608 915.206 321.052 914.746 320.661 914.295L325.653 909.968ZM324.345 909.374V902.768C322.879 902.768 321.336 903.137 319.917 904.015L323.394 909.631L326.871 915.248C326.008 915.783 325.099 915.98 324.345 915.98V909.374ZM323.394 909.631L319.917 904.015C318.24 905.053 317.235 906.519 316.668 907.842L322.74 910.444L328.812 913.046C328.562 913.629 327.993 914.553 326.871 915.248L323.394 909.631ZM322.74 910.444L316.704 907.761C316.026 909.286 315.897 910.789 315.897 911.871H322.502H329.108C329.108 911.857 329.11 911.962 329.078 912.154C329.046 912.343 328.97 912.692 328.777 913.127L322.74 910.444ZM322.502 911.871H315.897C315.897 913.355 316.143 915.927 318.026 918.1L323.018 913.773L328.01 909.447C328.632 910.165 328.897 910.867 329.007 911.273C329.114 911.668 329.108 911.901 329.108 911.871H322.502ZM323.018 913.773L318.026 918.1C319.67 919.997 321.96 920.974 324.345 920.974V914.368V907.762C324.896 907.762 325.585 907.867 326.307 908.19C327.035 908.516 327.603 908.977 328.01 909.447L323.018 913.773Z" fill="white" mask="url(#path-2-outside-1_123_2417)"/>
<mask id="path-4-outside-2_123_2417" maskUnits="userSpaceOnUse" x="157.723" y="922.169" width="63" height="28" fill="black">
<rect fill="white" x="157.723" y="922.169" width="63" height="28"/>
<path d="M170.184 943.387C169.655 943.387 169.1 943.348 168.519 943.269C167.951 943.202 167.409 943.097 166.894 942.951C166.379 942.806 165.916 942.634 165.507 942.436C165.15 942.264 164.899 942.04 164.754 941.762C164.608 941.472 164.555 941.168 164.595 940.851C164.635 940.534 164.747 940.256 164.932 940.018C165.117 939.767 165.361 939.602 165.665 939.523C165.969 939.431 166.313 939.47 166.696 939.642C167.198 939.88 167.766 940.065 168.4 940.197C169.034 940.329 169.629 940.395 170.184 940.395C171.056 940.395 171.663 940.283 172.007 940.058C172.364 939.82 172.542 939.53 172.542 939.186C172.542 938.882 172.416 938.638 172.165 938.453C171.928 938.268 171.498 938.109 170.877 937.977L168.559 937.482C167.29 937.218 166.346 936.755 165.725 936.095C165.104 935.434 164.793 934.582 164.793 933.538C164.793 932.851 164.932 932.23 165.209 931.675C165.5 931.107 165.903 930.625 166.418 930.229C166.947 929.832 167.568 929.528 168.281 929.317C169.008 929.092 169.814 928.98 170.699 928.98C171.386 928.98 172.08 929.059 172.78 929.218C173.493 929.363 174.108 929.588 174.623 929.892C174.927 930.05 175.145 930.268 175.277 930.546C175.409 930.823 175.462 931.114 175.435 931.418C175.409 931.708 175.303 931.966 175.118 932.19C174.947 932.415 174.709 932.567 174.405 932.646C174.114 932.712 173.764 932.66 173.354 932.488C172.971 932.316 172.535 932.19 172.047 932.111C171.571 932.019 171.108 931.972 170.659 931.972C170.17 931.972 169.754 932.032 169.411 932.151C169.067 932.257 168.803 932.415 168.618 932.626C168.446 932.838 168.36 933.082 168.36 933.36C168.36 933.637 168.473 933.875 168.697 934.073C168.935 934.258 169.365 934.417 169.986 934.549L172.284 935.044C173.566 935.322 174.524 935.777 175.158 936.412C175.792 937.046 176.109 937.872 176.109 938.889C176.109 939.576 175.97 940.197 175.693 940.752C175.416 941.307 175.019 941.782 174.504 942.179C173.989 942.562 173.368 942.859 172.641 943.07C171.914 943.282 171.095 943.387 170.184 943.387ZM182.62 943.387C181.629 943.387 180.81 943.235 180.163 942.932C179.529 942.628 179.053 942.172 178.736 941.564C178.419 940.943 178.26 940.17 178.26 939.246V936.015H177.587C177.164 936.015 176.834 935.903 176.596 935.678C176.371 935.454 176.259 935.13 176.259 934.707C176.259 934.285 176.371 933.967 176.596 933.756C176.834 933.531 177.164 933.419 177.587 933.419H178.26V932.19C178.26 931.609 178.412 931.167 178.716 930.863C179.02 930.559 179.456 930.407 180.024 930.407C180.592 930.407 181.028 930.559 181.332 930.863C181.636 931.167 181.788 931.609 181.788 932.19V933.419H183.413C183.849 933.419 184.179 933.531 184.404 933.756C184.642 933.967 184.761 934.285 184.761 934.707C184.761 935.13 184.642 935.454 184.404 935.678C184.179 935.903 183.849 936.015 183.413 936.015H181.788V939.127C181.788 939.615 181.9 939.979 182.125 940.217C182.363 940.441 182.733 940.554 183.235 940.554C183.42 940.554 183.598 940.534 183.77 940.494C183.941 940.454 184.1 940.435 184.245 940.435C184.457 940.421 184.628 940.487 184.761 940.633C184.893 940.765 184.959 941.075 184.959 941.564C184.959 941.961 184.899 942.297 184.78 942.575C184.662 942.839 184.45 943.031 184.146 943.15C183.961 943.216 183.71 943.269 183.393 943.308C183.076 943.361 182.818 943.387 182.62 943.387ZM189.334 943.387C188.581 943.387 187.914 943.249 187.333 942.971C186.764 942.694 186.315 942.317 185.985 941.842C185.668 941.353 185.509 940.798 185.509 940.177C185.509 939.464 185.694 938.902 186.064 938.492C186.434 938.083 187.029 937.792 187.848 937.621C188.667 937.436 189.757 937.343 191.118 937.343H192.208V939.008H191.118C190.602 939.008 190.173 939.047 189.83 939.127C189.499 939.193 189.255 939.305 189.096 939.464C188.938 939.609 188.859 939.8 188.859 940.038C188.859 940.342 188.964 940.593 189.176 940.791C189.4 940.989 189.717 941.089 190.127 941.089C190.457 941.089 190.748 941.016 190.999 940.871C191.263 940.725 191.474 940.527 191.633 940.276C191.792 940.012 191.871 939.708 191.871 939.364V937.066C191.871 936.59 191.745 936.253 191.494 936.055C191.256 935.857 190.84 935.758 190.246 935.758C189.929 935.758 189.572 935.797 189.176 935.877C188.779 935.943 188.337 936.068 187.848 936.253C187.491 936.385 187.187 936.405 186.936 936.313C186.685 936.22 186.487 936.062 186.342 935.837C186.21 935.612 186.143 935.368 186.143 935.104C186.157 934.839 186.243 934.588 186.401 934.351C186.573 934.113 186.831 933.928 187.174 933.796C187.808 933.558 188.389 933.399 188.918 933.32C189.46 933.241 189.955 933.201 190.404 933.201C191.488 933.201 192.379 933.36 193.08 933.677C193.793 933.981 194.322 934.456 194.665 935.104C195.022 935.738 195.2 936.557 195.2 937.561V941.564C195.2 942.146 195.061 942.588 194.784 942.892C194.507 943.196 194.104 943.348 193.575 943.348C193.033 943.348 192.617 943.196 192.327 942.892C192.049 942.588 191.91 942.146 191.91 941.564V941.049L192.029 941.326C191.963 941.749 191.811 942.112 191.574 942.416C191.336 942.72 191.025 942.958 190.642 943.13C190.259 943.302 189.823 943.387 189.334 943.387ZM199.012 943.348C198.431 943.348 197.982 943.196 197.665 942.892C197.361 942.588 197.209 942.146 197.209 941.564V935.005C197.209 934.436 197.354 934 197.645 933.697C197.949 933.393 198.378 933.241 198.933 933.241C199.488 933.241 199.911 933.393 200.201 933.697C200.492 934 200.637 934.436 200.637 935.005V935.817H200.439C200.571 935.024 200.908 934.397 201.45 933.934C202.005 933.472 202.692 933.228 203.511 933.201C203.894 933.188 204.178 933.287 204.363 933.498C204.561 933.697 204.667 934.073 204.68 934.628C204.68 935.104 204.581 935.48 204.383 935.758C204.185 936.035 203.808 936.2 203.253 936.253L202.797 936.293C202.097 936.359 201.589 936.557 201.271 936.887C200.954 937.204 200.796 937.68 200.796 938.314V941.564C200.796 942.146 200.644 942.588 200.34 942.892C200.036 943.196 199.594 943.348 199.012 943.348ZM211.495 943.387C210.504 943.387 209.685 943.235 209.038 942.932C208.404 942.628 207.928 942.172 207.611 941.564C207.294 940.943 207.135 940.17 207.135 939.246V936.015H206.461C206.039 936.015 205.708 935.903 205.471 935.678C205.246 935.454 205.134 935.13 205.134 934.707C205.134 934.285 205.246 933.967 205.471 933.756C205.708 933.531 206.039 933.419 206.461 933.419H207.135V932.19C207.135 931.609 207.287 931.167 207.591 930.863C207.895 930.559 208.331 930.407 208.899 930.407C209.467 930.407 209.903 930.559 210.207 930.863C210.511 931.167 210.663 931.609 210.663 932.19V933.419H212.288C212.724 933.419 213.054 933.531 213.279 933.756C213.517 933.967 213.635 934.285 213.635 934.707C213.635 935.13 213.517 935.454 213.279 935.678C213.054 935.903 212.724 936.015 212.288 936.015H210.663V939.127C210.663 939.615 210.775 939.979 211 940.217C211.238 940.441 211.607 940.554 212.109 940.554C212.294 940.554 212.473 940.534 212.645 940.494C212.816 940.454 212.975 940.435 213.12 940.435C213.332 940.421 213.503 940.487 213.635 940.633C213.768 940.765 213.834 941.075 213.834 941.564C213.834 941.961 213.774 942.297 213.655 942.575C213.536 942.839 213.325 943.031 213.021 943.15C212.836 943.216 212.585 943.269 212.268 943.308C211.951 943.361 211.693 943.387 211.495 943.387Z"/>
</mask>
<path d="M170.184 943.387C169.655 943.387 169.1 943.348 168.519 943.269C167.951 943.202 167.409 943.097 166.894 942.951C166.379 942.806 165.916 942.634 165.507 942.436C165.15 942.264 164.899 942.04 164.754 941.762C164.608 941.472 164.555 941.168 164.595 940.851C164.635 940.534 164.747 940.256 164.932 940.018C165.117 939.767 165.361 939.602 165.665 939.523C165.969 939.431 166.313 939.47 166.696 939.642C167.198 939.88 167.766 940.065 168.4 940.197C169.034 940.329 169.629 940.395 170.184 940.395C171.056 940.395 171.663 940.283 172.007 940.058C172.364 939.82 172.542 939.53 172.542 939.186C172.542 938.882 172.416 938.638 172.165 938.453C171.928 938.268 171.498 938.109 170.877 937.977L168.559 937.482C167.29 937.218 166.346 936.755 165.725 936.095C165.104 935.434 164.793 934.582 164.793 933.538C164.793 932.851 164.932 932.23 165.209 931.675C165.5 931.107 165.903 930.625 166.418 930.229C166.947 929.832 167.568 929.528 168.281 929.317C169.008 929.092 169.814 928.98 170.699 928.98C171.386 928.98 172.08 929.059 172.78 929.218C173.493 929.363 174.108 929.588 174.623 929.892C174.927 930.05 175.145 930.268 175.277 930.546C175.409 930.823 175.462 931.114 175.435 931.418C175.409 931.708 175.303 931.966 175.118 932.19C174.947 932.415 174.709 932.567 174.405 932.646C174.114 932.712 173.764 932.66 173.354 932.488C172.971 932.316 172.535 932.19 172.047 932.111C171.571 932.019 171.108 931.972 170.659 931.972C170.17 931.972 169.754 932.032 169.411 932.151C169.067 932.257 168.803 932.415 168.618 932.626C168.446 932.838 168.36 933.082 168.36 933.36C168.36 933.637 168.473 933.875 168.697 934.073C168.935 934.258 169.365 934.417 169.986 934.549L172.284 935.044C173.566 935.322 174.524 935.777 175.158 936.412C175.792 937.046 176.109 937.872 176.109 938.889C176.109 939.576 175.97 940.197 175.693 940.752C175.416 941.307 175.019 941.782 174.504 942.179C173.989 942.562 173.368 942.859 172.641 943.07C171.914 943.282 171.095 943.387 170.184 943.387ZM182.62 943.387C181.629 943.387 180.81 943.235 180.163 942.932C179.529 942.628 179.053 942.172 178.736 941.564C178.419 940.943 178.26 940.17 178.26 939.246V936.015H177.587C177.164 936.015 176.834 935.903 176.596 935.678C176.371 935.454 176.259 935.13 176.259 934.707C176.259 934.285 176.371 933.967 176.596 933.756C176.834 933.531 177.164 933.419 177.587 933.419H178.26V932.19C178.26 931.609 178.412 931.167 178.716 930.863C179.02 930.559 179.456 930.407 180.024 930.407C180.592 930.407 181.028 930.559 181.332 930.863C181.636 931.167 181.788 931.609 181.788 932.19V933.419H183.413C183.849 933.419 184.179 933.531 184.404 933.756C184.642 933.967 184.761 934.285 184.761 934.707C184.761 935.13 184.642 935.454 184.404 935.678C184.179 935.903 183.849 936.015 183.413 936.015H181.788V939.127C181.788 939.615 181.9 939.979 182.125 940.217C182.363 940.441 182.733 940.554 183.235 940.554C183.42 940.554 183.598 940.534 183.77 940.494C183.941 940.454 184.1 940.435 184.245 940.435C184.457 940.421 184.628 940.487 184.761 940.633C184.893 940.765 184.959 941.075 184.959 941.564C184.959 941.961 184.899 942.297 184.78 942.575C184.662 942.839 184.45 943.031 184.146 943.15C183.961 943.216 183.71 943.269 183.393 943.308C183.076 943.361 182.818 943.387 182.62 943.387ZM189.334 943.387C188.581 943.387 187.914 943.249 187.333 942.971C186.764 942.694 186.315 942.317 185.985 941.842C185.668 941.353 185.509 940.798 185.509 940.177C185.509 939.464 185.694 938.902 186.064 938.492C186.434 938.083 187.029 937.792 187.848 937.621C188.667 937.436 189.757 937.343 191.118 937.343H192.208V939.008H191.118C190.602 939.008 190.173 939.047 189.83 939.127C189.499 939.193 189.255 939.305 189.096 939.464C188.938 939.609 188.859 939.8 188.859 940.038C188.859 940.342 188.964 940.593 189.176 940.791C189.4 940.989 189.717 941.089 190.127 941.089C190.457 941.089 190.748 941.016 190.999 940.871C191.263 940.725 191.474 940.527 191.633 940.276C191.792 940.012 191.871 939.708 191.871 939.364V937.066C191.871 936.59 191.745 936.253 191.494 936.055C191.256 935.857 190.84 935.758 190.246 935.758C189.929 935.758 189.572 935.797 189.176 935.877C188.779 935.943 188.337 936.068 187.848 936.253C187.491 936.385 187.187 936.405 186.936 936.313C186.685 936.22 186.487 936.062 186.342 935.837C186.21 935.612 186.143 935.368 186.143 935.104C186.157 934.839 186.243 934.588 186.401 934.351C186.573 934.113 186.831 933.928 187.174 933.796C187.808 933.558 188.389 933.399 188.918 933.32C189.46 933.241 189.955 933.201 190.404 933.201C191.488 933.201 192.379 933.36 193.08 933.677C193.793 933.981 194.322 934.456 194.665 935.104C195.022 935.738 195.2 936.557 195.2 937.561V941.564C195.2 942.146 195.061 942.588 194.784 942.892C194.507 943.196 194.104 943.348 193.575 943.348C193.033 943.348 192.617 943.196 192.327 942.892C192.049 942.588 191.91 942.146 191.91 941.564V941.049L192.029 941.326C191.963 941.749 191.811 942.112 191.574 942.416C191.336 942.72 191.025 942.958 190.642 943.13C190.259 943.302 189.823 943.387 189.334 943.387ZM199.012 943.348C198.431 943.348 197.982 943.196 197.665 942.892C197.361 942.588 197.209 942.146 197.209 941.564V935.005C197.209 934.436 197.354 934 197.645 933.697C197.949 933.393 198.378 933.241 198.933 933.241C199.488 933.241 199.911 933.393 200.201 933.697C200.492 934 200.637 934.436 200.637 935.005V935.817H200.439C200.571 935.024 200.908 934.397 201.45 933.934C202.005 933.472 202.692 933.228 203.511 933.201C203.894 933.188 204.178 933.287 204.363 933.498C204.561 933.697 204.667 934.073 204.68 934.628C204.68 935.104 204.581 935.48 204.383 935.758C204.185 936.035 203.808 936.2 203.253 936.253L202.797 936.293C202.097 936.359 201.589 936.557 201.271 936.887C200.954 937.204 200.796 937.68 200.796 938.314V941.564C200.796 942.146 200.644 942.588 200.34 942.892C200.036 943.196 199.594 943.348 199.012 943.348ZM211.495 943.387C210.504 943.387 209.685 943.235 209.038 942.932C208.404 942.628 207.928 942.172 207.611 941.564C207.294 940.943 207.135 940.17 207.135 939.246V936.015H206.461C206.039 936.015 205.708 935.903 205.471 935.678C205.246 935.454 205.134 935.13 205.134 934.707C205.134 934.285 205.246 933.967 205.471 933.756C205.708 933.531 206.039 933.419 206.461 933.419H207.135V932.19C207.135 931.609 207.287 931.167 207.591 930.863C207.895 930.559 208.331 930.407 208.899 930.407C209.467 930.407 209.903 930.559 210.207 930.863C210.511 931.167 210.663 931.609 210.663 932.19V933.419H212.288C212.724 933.419 213.054 933.531 213.279 933.756C213.517 933.967 213.635 934.285 213.635 934.707C213.635 935.13 213.517 935.454 213.279 935.678C213.054 935.903 212.724 936.015 212.288 936.015H210.663V939.127C210.663 939.615 210.775 939.979 211 940.217C211.238 940.441 211.607 940.554 212.109 940.554C212.294 940.554 212.473 940.534 212.645 940.494C212.816 940.454 212.975 940.435 213.12 940.435C213.332 940.421 213.503 940.487 213.635 940.633C213.768 940.765 213.834 941.075 213.834 941.564C213.834 941.961 213.774 942.297 213.655 942.575C213.536 942.839 213.325 943.031 213.021 943.15C212.836 943.216 212.585 943.269 212.268 943.308C211.951 943.361 211.693 943.387 211.495 943.387Z" fill="black"/>
<path d="M168.519 943.269L169.412 936.723L169.347 936.714L169.282 936.707L168.519 943.269ZM165.507 942.436L168.384 936.49L168.372 936.484L165.507 942.436ZM164.754 941.762L158.845 944.717L158.873 944.772L158.902 944.828L164.754 941.762ZM164.595 940.851L171.15 941.67H171.15L164.595 940.851ZM164.932 940.018L170.146 944.074L170.199 944.006L170.25 943.937L164.932 940.018ZM165.665 939.523L167.333 945.915L167.461 945.881L167.589 945.843L165.665 939.523ZM166.696 939.642L169.524 933.672L169.461 933.642L169.398 933.614L166.696 939.642ZM168.4 940.197L169.747 933.73H169.747L168.4 940.197ZM172.007 940.058L175.622 945.587L175.647 945.571L175.671 945.554L172.007 940.058ZM172.165 938.453L168.11 943.667L168.178 943.72L168.247 943.771L172.165 938.453ZM170.877 937.977L169.497 944.437L169.503 944.438L170.877 937.977ZM168.559 937.482L169.939 931.022L169.922 931.018L169.906 931.015L168.559 937.482ZM165.725 936.095L170.538 931.57L170.538 931.57L165.725 936.095ZM165.209 931.675L159.329 928.666L159.315 928.694L159.301 928.721L165.209 931.675ZM166.418 930.229L162.455 924.944L162.423 924.968L162.391 924.993L166.418 930.229ZM168.281 929.317L170.158 935.651L170.195 935.64L170.232 935.628L168.281 929.317ZM172.78 929.218L171.321 935.661L171.391 935.676L171.461 935.691L172.78 929.218ZM174.623 929.892L171.267 935.582L171.415 935.669L171.567 935.748L174.623 929.892ZM175.277 930.546L169.313 933.386L169.313 933.386L175.277 930.546ZM175.435 931.418L182.014 932.016L182.015 932.003L182.016 931.99L175.435 931.418ZM175.118 932.19L170.019 927.991L169.943 928.083L169.871 928.178L175.118 932.19ZM174.405 932.646L175.869 939.088L175.971 939.065L176.072 939.038L174.405 932.646ZM173.354 932.488L170.652 938.516L170.726 938.549L170.8 938.58L173.354 932.488ZM172.047 932.111L170.786 938.596L170.887 938.615L170.989 938.632L172.047 932.111ZM169.411 932.151L171.353 938.465L171.463 938.431L171.572 938.393L169.411 932.151ZM168.618 932.626L163.647 928.276L163.567 928.367L163.491 928.461L168.618 932.626ZM168.697 934.073L164.327 939.026L164.48 939.162L164.642 939.288L168.697 934.073ZM169.986 934.549L171.377 928.091L171.369 928.089L171.36 928.088L169.986 934.549ZM172.284 935.044L173.682 928.588L173.676 928.587L172.284 935.044ZM175.693 940.752L181.601 943.706L181.601 943.706L175.693 940.752ZM174.504 942.179L178.446 947.48L178.489 947.447L178.532 947.415L174.504 942.179ZM172.641 943.07L174.486 949.413H174.486L172.641 943.07ZM170.184 943.387V936.782C169.984 936.782 169.729 936.767 169.412 936.723L168.519 943.269L167.626 949.814C168.472 949.929 169.326 949.993 170.184 949.993V943.387ZM168.519 943.269L169.282 936.707C169.039 936.679 168.843 936.638 168.687 936.594L166.894 942.951L165.101 949.309C165.975 949.556 166.863 949.726 167.756 949.83L168.519 943.269ZM166.894 942.951L168.687 936.594C168.481 936.536 168.39 936.493 168.384 936.49L165.507 942.436L162.629 948.383C163.442 948.776 164.276 949.077 165.101 949.309L166.894 942.951ZM165.507 942.436L168.372 936.484C168.954 936.764 169.935 937.418 170.605 938.697L164.754 941.762L158.902 944.828C159.863 946.662 161.346 947.765 162.641 948.388L165.507 942.436ZM164.754 941.762L170.662 938.808C171.09 939.663 171.275 940.67 171.15 941.67L164.595 940.851L158.04 940.031C157.836 941.666 158.127 943.281 158.845 944.717L164.754 941.762ZM164.595 940.851L171.15 941.67C171.051 942.458 170.736 943.316 170.146 944.074L164.932 940.018L159.718 935.963C158.758 937.197 158.218 938.609 158.04 940.031L164.595 940.851ZM164.932 940.018L170.25 943.937C169.53 944.914 168.482 945.615 167.333 945.915L165.665 939.523L163.998 933.131C162.241 933.589 160.704 934.621 159.614 936.1L164.932 940.018ZM165.665 939.523L167.589 945.843C165.932 946.347 164.591 945.937 163.994 945.67L166.696 939.642L169.398 933.614C168.035 933.003 166.007 932.514 163.742 933.203L165.665 939.523ZM166.696 939.642L163.868 945.612C164.912 946.107 165.989 946.442 167.053 946.664L168.4 940.197L169.747 933.73C169.542 933.687 169.483 933.653 169.524 933.672L166.696 939.642ZM168.4 940.197L167.053 946.664C168.058 946.873 169.108 947.001 170.184 947.001V940.395V933.789C170.149 933.789 170.01 933.785 169.747 933.73L168.4 940.197ZM170.184 940.395V947.001C171.184 947.001 173.531 946.954 175.622 945.587L172.007 940.058L168.392 934.529C168.833 934.241 169.226 934.074 169.494 933.979C169.766 933.882 169.976 933.836 170.093 933.815C170.309 933.775 170.367 933.789 170.184 933.789V940.395ZM172.007 940.058L175.671 945.554C177.349 944.436 179.148 942.295 179.148 939.186H172.542H165.936C165.936 938.148 166.224 937.109 166.778 936.207C167.3 935.356 167.924 934.841 168.343 934.562L172.007 940.058ZM172.542 939.186H179.148C179.148 936.719 177.973 934.526 176.084 933.135L172.165 938.453L168.247 943.771C167.662 943.34 167.034 942.694 166.571 941.792C166.106 940.885 165.936 939.971 165.936 939.186H172.542ZM172.165 938.453L176.221 933.238C174.717 932.069 173 931.675 172.252 931.516L170.877 937.977L169.503 944.438C169.612 944.462 169.549 944.456 169.377 944.392C169.285 944.358 169.127 944.295 168.927 944.192C168.732 944.091 168.44 943.924 168.11 943.667L172.165 938.453ZM170.877 937.977L172.258 931.517L169.939 931.022L168.559 937.482L167.178 943.942L169.497 944.437L170.877 937.977ZM168.559 937.482L169.906 931.015C169.692 930.97 169.682 930.944 169.803 931.004C169.934 931.068 170.222 931.235 170.538 931.57L165.725 936.095L160.912 940.619C162.782 942.609 165.163 943.522 167.211 943.949L168.559 937.482ZM165.725 936.095L170.538 931.57C170.841 931.892 171.082 932.284 171.233 932.699C171.378 933.098 171.399 933.403 171.399 933.538H164.793H158.187C158.187 935.99 158.965 938.548 160.912 940.619L165.725 936.095ZM164.793 933.538H171.399C171.399 933.765 171.347 934.172 171.118 934.629L165.209 931.675L159.301 928.721C158.517 930.288 158.187 931.937 158.187 933.538H164.793ZM165.209 931.675L171.09 934.684C170.927 935.003 170.691 935.276 170.446 935.465L166.418 930.229L162.391 924.993C161.115 925.974 160.073 927.211 159.329 928.666L165.209 931.675ZM166.418 930.229L170.382 935.513C170.208 935.643 170.102 935.667 170.158 935.651L168.281 929.317L166.405 922.983C165.033 923.39 163.685 924.021 162.455 924.944L166.418 930.229ZM168.281 929.317L170.232 935.628C170.233 935.628 170.369 935.586 170.699 935.586V928.98V922.374C169.258 922.374 167.783 922.557 166.33 923.006L168.281 929.317ZM170.699 928.98V935.586C170.874 935.586 171.078 935.606 171.321 935.661L172.78 929.218L174.239 922.775C173.081 922.513 171.898 922.374 170.699 922.374V928.98ZM172.78 929.218L171.461 935.691C171.607 935.721 171.503 935.721 171.267 935.582L174.623 929.892L177.979 924.202C176.712 923.455 175.379 923.006 174.098 922.745L172.78 929.218ZM174.623 929.892L171.567 935.748C170.754 935.324 169.868 934.552 169.313 933.386L175.277 930.546L181.241 927.706C180.422 925.985 179.099 924.776 177.678 924.035L174.623 929.892ZM175.277 930.546L169.313 933.386C168.943 932.609 168.778 931.723 168.854 930.845L175.435 931.418L182.016 931.99C182.146 930.505 181.875 929.037 181.241 927.706L175.277 930.546ZM175.435 931.418L168.857 930.82C168.95 929.793 169.357 928.794 170.019 927.991L175.118 932.19L180.218 936.39C181.249 935.137 181.868 933.624 182.014 932.016L175.435 931.418ZM175.118 932.19L169.871 928.178C170.693 927.102 171.783 926.503 172.737 926.254L174.405 932.646L176.072 939.038C177.634 938.631 179.2 937.728 180.366 936.203L175.118 932.19ZM174.405 932.646L172.941 926.205C174.506 925.849 175.638 926.282 175.909 926.396L173.354 932.488L170.8 938.58C171.89 939.037 173.723 939.576 175.869 939.088L174.405 932.646ZM173.354 932.488L176.057 926.46C175.065 926.015 174.062 925.746 173.104 925.591L172.047 932.111L170.989 938.632C171.009 938.635 170.878 938.617 170.652 938.516L173.354 932.488ZM172.047 932.111L173.307 925.627C172.449 925.46 171.563 925.367 170.659 925.367V931.972V938.578C170.654 938.578 170.693 938.578 170.786 938.596L172.047 932.111ZM170.659 931.972V925.367C169.672 925.367 168.482 925.482 167.25 925.908L169.411 932.151L171.572 938.393C171.027 938.582 170.669 938.578 170.659 938.578V931.972ZM169.411 932.151L167.468 925.837C166.276 926.204 164.836 926.917 163.647 928.276L168.618 932.626L173.59 936.976C172.77 937.913 171.859 938.309 171.353 938.465L169.411 932.151ZM168.618 932.626L163.491 928.461C162.343 929.873 161.755 931.596 161.755 933.36H168.36H174.966C174.966 934.569 174.549 935.802 173.745 936.792L168.618 932.626ZM168.36 933.36H161.755C161.755 935.696 162.809 937.687 164.327 939.026L168.697 934.073L173.068 929.12C173.536 929.533 174.041 930.127 174.418 930.925C174.801 931.737 174.966 932.578 174.966 933.36H168.36ZM168.697 934.073L164.642 939.288C166.146 940.457 167.862 940.851 168.611 941.01L169.986 934.549L171.36 928.088C171.251 928.064 171.314 928.07 171.486 928.134C171.578 928.168 171.735 928.231 171.935 928.334C172.131 928.435 172.422 928.602 172.753 928.859L168.697 934.073ZM169.986 934.549L168.594 941.006L170.893 941.502L172.284 935.044L173.676 928.587L171.377 928.091L169.986 934.549ZM172.284 935.044L170.887 941.501C171.142 941.556 171.199 941.594 171.125 941.559C171.045 941.521 170.79 941.386 170.487 941.083L175.158 936.412L179.829 931.741C177.973 929.885 175.663 929.017 173.682 928.588L172.284 935.044ZM175.158 936.412L170.487 941.083C170.159 940.755 169.882 940.338 169.705 939.875C169.533 939.427 169.503 939.07 169.503 938.889H176.109H182.715C182.715 936.376 181.872 933.784 179.829 931.741L175.158 936.412ZM176.109 938.889H169.503C169.503 938.662 169.556 938.255 169.785 937.797L175.693 940.752L181.601 943.706C182.385 942.139 182.715 940.49 182.715 938.889H176.109ZM175.693 940.752L169.785 937.797C169.975 937.417 170.239 937.125 170.476 936.943L174.504 942.179L178.532 947.415C179.799 946.439 180.856 945.197 181.601 943.706L175.693 940.752ZM174.504 942.179L170.562 936.878C170.78 936.716 170.899 936.697 170.796 936.727L172.641 943.07L174.486 949.413C175.836 949.021 177.198 948.408 178.446 947.48L174.504 942.179ZM172.641 943.07L170.796 936.727C170.776 936.733 170.594 936.782 170.184 936.782V943.387V949.993C171.597 949.993 173.052 949.83 174.486 949.413L172.641 943.07ZM180.163 942.932L177.308 948.889L177.332 948.9L177.356 948.911L180.163 942.932ZM178.736 941.564L172.853 944.568L172.866 944.594L172.879 944.62L178.736 941.564ZM178.26 936.015H184.866V929.409H178.26V936.015ZM176.596 935.678L171.925 940.349L171.991 940.416L172.06 940.481L176.596 935.678ZM176.596 933.756L181.123 938.566L181.131 938.559L176.596 933.756ZM178.26 933.419V940.025H184.866V933.419H178.26ZM181.332 930.863L176.661 935.534L176.661 935.534L181.332 930.863ZM181.788 933.419H175.182V940.025H181.788V933.419ZM184.404 933.756L179.733 938.427L179.87 938.564L180.015 938.693L184.404 933.756ZM184.404 935.678L179.868 930.876L179.8 930.941L179.733 931.007L184.404 935.678ZM181.788 936.015V929.409H175.182V936.015H181.788ZM182.125 940.217L177.322 944.752L177.452 944.89L177.589 945.019L182.125 940.217ZM183.77 940.494L185.255 946.931L185.255 946.931L183.77 940.494ZM184.245 940.435V947.04H184.452L184.657 947.028L184.245 940.435ZM184.761 940.633L179.873 945.076L179.978 945.193L180.09 945.304L184.761 940.633ZM184.78 942.575L190.804 945.286L190.829 945.232L190.852 945.177L184.78 942.575ZM184.146 943.15L186.368 949.371L186.461 949.337L186.553 949.301L184.146 943.15ZM183.393 943.308L182.574 936.753L182.44 936.77L182.307 936.792L183.393 943.308ZM182.62 943.387V936.782C182.456 936.782 182.414 936.768 182.468 936.778C182.523 936.789 182.708 936.829 182.97 936.952L180.163 942.932L177.356 948.911C179.152 949.755 181.011 949.993 182.62 949.993V943.387ZM180.163 942.932L183.017 936.974C183.289 937.104 183.6 937.304 183.901 937.593C184.203 937.882 184.432 938.201 184.593 938.509L178.736 941.564L172.879 944.62C173.875 946.529 175.422 947.985 177.308 948.889L180.163 942.932ZM178.736 941.564L184.619 938.56C184.906 939.122 184.866 939.453 184.866 939.246H178.26H171.655C171.655 940.888 171.932 942.764 172.853 944.568L178.736 941.564ZM178.26 939.246H184.866V936.015H178.26H171.655V939.246H178.26ZM178.26 936.015V929.409H177.587V936.015V942.621H178.26V936.015ZM177.587 936.015V929.409C178.34 929.409 179.816 929.634 181.131 930.876L176.596 935.678L172.06 940.481C173.851 942.172 175.988 942.621 177.587 942.621V936.015ZM176.596 935.678L181.267 931.007C182.649 932.389 182.865 933.978 182.865 934.707H176.259H169.653C169.653 936.283 170.093 938.518 171.925 940.349L176.596 935.678ZM176.259 934.707H182.865C182.865 935.409 182.659 937.121 181.123 938.566L176.596 933.756L172.068 928.946C170.083 930.814 169.653 933.16 169.653 934.707H176.259ZM176.596 933.756L181.131 938.559C179.816 939.801 178.34 940.025 177.587 940.025V933.419V926.813C175.988 926.813 173.851 927.262 172.06 928.954L176.596 933.756ZM177.587 933.419V940.025H178.26V933.419V926.813H177.587V933.419ZM178.26 933.419H184.866V932.19H178.26H171.655V933.419H178.26ZM178.26 932.19H184.866C184.866 932.726 184.709 934.212 183.387 935.534L178.716 930.863L174.045 926.192C172.116 928.121 171.655 930.492 171.655 932.19H178.26ZM178.716 930.863L183.387 935.534C182.093 936.829 180.624 937.013 180.024 937.013V930.407V923.801C178.289 923.801 175.948 924.289 174.045 926.192L178.716 930.863ZM180.024 930.407V937.013C179.425 937.013 177.956 936.829 176.661 935.534L181.332 930.863L186.003 926.192C184.101 924.289 181.76 923.801 180.024 923.801V930.407ZM181.332 930.863L176.661 935.534C175.34 934.212 175.182 932.726 175.182 932.19H181.788H188.394C188.394 930.492 187.932 928.121 186.003 926.192L181.332 930.863ZM181.788 932.19H175.182V933.419H181.788H188.394V932.19H181.788ZM181.788 933.419V940.025H183.413V933.419V926.813H181.788V933.419ZM183.413 933.419V940.025C182.764 940.025 181.15 939.845 179.733 938.427L184.404 933.756L189.075 929.085C187.208 927.218 184.934 926.813 183.413 926.813V933.419ZM184.404 933.756L180.015 938.693C178.418 937.274 178.155 935.518 178.155 934.707H184.761H191.366C191.366 933.052 190.865 930.661 188.793 928.819L184.404 933.756ZM184.761 934.707H178.155C178.155 933.873 178.426 932.238 179.868 930.876L184.404 935.678L188.94 940.481C190.857 938.67 191.366 936.387 191.366 934.707H184.761ZM184.404 935.678L179.733 931.007C181.15 929.59 182.764 929.409 183.413 929.409V936.015V942.621C184.934 942.621 187.208 942.216 189.075 940.349L184.404 935.678ZM183.413 936.015V929.409H181.788V936.015V942.621H183.413V936.015ZM181.788 936.015H175.182V939.127H181.788H188.394V936.015H181.788ZM181.788 939.127H175.182C175.182 940.484 175.479 942.801 177.322 944.752L182.125 940.217L186.927 935.681C188.322 937.157 188.394 938.747 188.394 939.127H181.788ZM182.125 940.217L177.589 945.019C179.569 946.889 181.922 947.159 183.235 947.159V940.554V933.948C183.544 933.948 185.157 933.994 186.661 935.414L182.125 940.217ZM183.235 940.554V947.159C183.895 947.159 184.573 947.088 185.255 946.931L183.77 940.494L182.284 934.057C182.623 933.979 182.944 933.948 183.235 933.948V940.554ZM183.77 940.494L185.255 946.931C185.039 946.981 184.692 947.04 184.245 947.04V940.435V933.829C183.508 933.829 182.844 933.928 182.284 934.057L183.77 940.494ZM184.245 940.435L184.657 947.028C183.958 947.071 183.086 946.995 182.161 946.64C181.221 946.278 180.452 945.714 179.873 945.076L184.761 940.633L189.649 936.189C188.051 934.432 185.866 933.715 183.833 933.842L184.245 940.435ZM184.761 940.633L180.09 945.304C179.412 944.627 179.029 943.936 178.818 943.465C178.605 942.988 178.5 942.586 178.448 942.339C178.393 942.083 178.372 941.885 178.363 941.775C178.353 941.66 178.353 941.586 178.353 941.564H184.959H191.565C191.565 941.077 191.536 940.37 191.37 939.59C191.237 938.962 190.833 937.363 189.432 935.962L184.761 940.633ZM184.959 941.564H178.353C178.353 941.333 178.383 940.732 178.709 939.973L184.78 942.575L190.852 945.177C191.415 943.863 191.565 942.589 191.565 941.564H184.959ZM184.78 942.575L178.756 939.864C179.064 939.18 179.518 938.547 180.097 938.022C180.664 937.507 181.25 937.189 181.739 936.998L184.146 943.15L186.553 949.301C188.246 948.639 189.885 947.33 190.804 945.286L184.78 942.575ZM184.146 943.15L181.924 936.929C182.183 936.836 182.375 936.792 182.458 936.775C182.549 936.756 182.593 936.751 182.574 936.753L183.393 943.308L184.213 949.863C184.75 949.796 185.537 949.668 186.368 949.371L184.146 943.15ZM183.393 943.308L182.307 936.792C182.254 936.801 182.251 936.8 182.288 936.796C182.32 936.793 182.438 936.782 182.62 936.782V943.387V949.993C183.335 949.993 183.995 949.905 184.479 949.824L183.393 943.308ZM187.333 942.971L184.434 948.907L184.46 948.92L184.487 948.933L187.333 942.971ZM185.985 941.842L180.443 945.437L180.5 945.524L180.559 945.61L185.985 941.842ZM186.064 938.492L190.966 942.92L186.064 938.492ZM187.848 937.621L189.203 944.086L189.253 944.075L189.303 944.064L187.848 937.621ZM192.208 937.343H198.814V930.737H192.208V937.343ZM192.208 939.008V945.614H198.814V939.008H192.208ZM189.83 939.127L191.125 945.604L191.22 945.585L191.315 945.563L189.83 939.127ZM189.096 939.464L193.56 944.333L193.666 944.236L193.767 944.135L189.096 939.464ZM189.176 940.791L184.658 945.611L184.73 945.679L184.805 945.745L189.176 940.791ZM190.999 940.871L187.815 935.082L187.752 935.117L187.689 935.154L190.999 940.871ZM191.633 940.276L197.218 943.804L197.259 943.74L197.297 943.675L191.633 940.276ZM191.494 936.055L187.265 941.13L187.332 941.186L187.401 941.24L191.494 936.055ZM189.176 935.877L190.262 942.393L190.367 942.375L190.471 942.354L189.176 935.877ZM187.848 936.253L190.142 942.448L190.164 942.44L190.186 942.431L187.848 936.253ZM186.936 936.313L184.653 942.511L186.936 936.313ZM186.342 935.837L180.648 939.186L180.719 939.307L180.796 939.426L186.342 935.837ZM186.143 935.104L179.546 934.774L179.538 934.939V935.104H186.143ZM186.401 934.351L181.046 930.483L180.973 930.583L180.905 930.686L186.401 934.351ZM187.174 933.796L184.855 927.61L184.829 927.62L184.803 927.63L187.174 933.796ZM188.918 933.32L187.961 926.784L187.95 926.786L187.938 926.787L188.918 933.32ZM193.08 933.677L190.355 939.694L190.423 939.725L190.491 939.754L193.08 933.677ZM194.665 935.104L188.83 938.2L188.868 938.272L188.908 938.342L194.665 935.104ZM194.784 942.892L189.906 938.438L189.906 938.438L194.784 942.892ZM192.327 942.892L187.448 947.346L187.5 947.403L187.553 947.458L192.327 942.892ZM191.91 941.049L197.982 938.447L185.305 941.049H191.91ZM192.029 941.326L198.556 942.346L198.849 940.47L198.101 938.724L192.029 941.326ZM191.574 942.416L196.776 946.488L196.776 946.488L191.574 942.416ZM190.642 943.13L187.94 937.102H187.94L190.642 943.13ZM189.334 943.387V936.782C189.4 936.782 189.732 936.797 190.178 937.01L187.333 942.971L184.487 948.933C186.095 949.7 187.762 949.993 189.334 949.993V943.387ZM187.333 942.971L190.231 937.035C190.581 937.206 191.04 937.539 191.411 938.074L185.985 941.842L180.559 945.61C181.591 947.095 182.947 948.181 184.434 948.907L187.333 942.971ZM185.985 941.842L191.527 938.247C191.951 938.9 192.115 939.61 192.115 940.177H185.509H178.903C178.903 941.986 179.385 943.806 180.443 945.437L185.985 941.842ZM185.509 940.177H192.115C192.115 940.607 191.984 941.794 190.966 942.92L186.064 938.492L181.162 934.065C179.405 936.01 178.903 938.32 178.903 940.177H185.509ZM186.064 938.492L190.966 942.92C190.486 943.452 190.001 943.749 189.689 943.902C189.532 943.979 189.408 944.024 189.329 944.05C189.251 944.076 189.206 944.085 189.203 944.086L187.848 937.621L186.492 931.155C184.971 931.474 182.84 932.207 181.162 934.065L186.064 938.492ZM187.848 937.621L189.303 944.064C189.443 944.032 189.985 943.949 191.118 943.949V937.343V930.737C189.529 930.737 187.891 930.839 186.393 931.177L187.848 937.621ZM191.118 937.343V943.949H192.208V937.343V930.737H191.118V937.343ZM192.208 937.343H185.602V939.008H192.208H198.814V937.343H192.208ZM192.208 939.008V932.402H191.118V939.008V945.614H192.208V939.008ZM191.118 939.008V932.402C190.31 932.402 189.342 932.46 188.344 932.69L189.83 939.127L191.315 945.563C191.226 945.584 191.155 945.596 191.108 945.604C191.06 945.611 191.029 945.614 191.016 945.615C190.995 945.617 191.025 945.614 191.118 945.614V939.008ZM189.83 939.127L188.534 932.649C187.527 932.85 185.861 933.357 184.425 934.792L189.096 939.464L193.767 944.135C192.649 945.253 191.471 945.535 191.125 945.604L189.83 939.127ZM189.096 939.464L184.633 934.594C182.956 936.131 182.253 938.167 182.253 940.038H188.859H195.464C195.464 940.66 195.359 941.428 195.022 942.242C194.679 943.071 194.165 943.779 193.56 944.333L189.096 939.464ZM188.859 940.038H182.253C182.253 942.068 183.043 944.097 184.658 945.611L189.176 940.791L193.694 935.972C194.22 936.465 194.697 937.109 195.026 937.891C195.352 938.666 195.464 939.412 195.464 940.038H188.859ZM189.176 940.791L184.805 945.745C186.618 947.344 188.702 947.694 190.127 947.694V941.089V934.483C190.733 934.483 192.182 934.635 193.546 935.838L189.176 940.791ZM190.127 941.089V947.694C191.455 947.694 192.919 947.392 194.309 946.587L190.999 940.871L187.689 935.154C188.577 934.64 189.459 934.483 190.127 934.483V941.089ZM190.999 940.871L194.182 946.659C195.409 945.984 196.453 945.014 197.218 943.804L191.633 940.276L186.048 936.749C186.496 936.04 187.117 935.467 187.815 935.082L190.999 940.871ZM191.633 940.276L197.297 943.675C198.141 942.269 198.477 940.764 198.477 939.364H191.871H185.265C185.265 938.652 185.442 937.754 185.968 936.877L191.633 940.276ZM191.871 939.364H198.477V937.066H191.871H185.265V939.364H191.871ZM191.871 937.066H198.477C198.477 935.584 198.08 932.838 195.588 930.87L191.494 936.055L187.401 941.24C185.41 939.668 185.265 937.596 185.265 937.066H191.871ZM191.494 936.055L195.723 930.98C193.61 929.22 191.157 929.152 190.246 929.152V935.758V942.364C190.211 942.364 189.919 942.364 189.474 942.258C189.047 942.157 188.17 941.884 187.265 941.13L191.494 936.055ZM190.246 935.758V929.152C189.394 929.152 188.593 929.256 187.88 929.399L189.176 935.877L190.471 942.354C190.505 942.347 190.503 942.349 190.47 942.353C190.437 942.356 190.36 942.364 190.246 942.364V935.758ZM189.176 935.877L188.09 929.361C187.161 929.515 186.29 929.779 185.51 930.075L187.848 936.253L190.186 942.431C190.277 942.397 190.331 942.381 190.349 942.375C190.367 942.37 190.337 942.38 190.262 942.393L189.176 935.877ZM187.848 936.253L185.553 930.058C186.059 929.871 187.477 929.472 189.22 930.114L186.936 936.313L184.653 942.511C186.898 943.338 188.923 942.899 190.142 942.448L187.848 936.253ZM186.936 936.313L189.22 930.114C190.31 930.516 191.257 931.273 191.888 932.248L186.342 935.837L180.796 939.426C181.717 940.85 183.06 941.925 184.653 942.511L186.936 936.313ZM186.342 935.837L192.035 932.488C192.509 933.293 192.749 934.208 192.749 935.104H186.143H179.538C179.538 936.528 179.91 937.932 180.648 939.186L186.342 935.837ZM186.143 935.104L192.741 935.434C192.69 936.455 192.345 937.343 191.898 938.015L186.401 934.351L180.905 930.686C180.14 931.833 179.623 933.224 179.546 934.774L186.143 935.104ZM186.401 934.351L191.756 938.218C191.007 939.256 190.094 939.75 189.545 939.961L187.174 933.796L184.803 927.63C183.567 928.106 182.139 928.97 181.046 930.483L186.401 934.351ZM187.174 933.796L189.493 939.981C189.804 939.865 189.929 939.848 189.898 939.853L188.918 933.32L187.938 926.787C186.85 926.951 185.813 927.251 184.855 927.61L187.174 933.796ZM188.918 933.32L189.874 939.856C190.165 939.814 190.335 939.807 190.404 939.807V933.201V926.595C189.575 926.595 188.754 926.668 187.961 926.784L188.918 933.32ZM190.404 933.201V939.807C190.515 939.807 190.597 939.811 190.652 939.816C190.708 939.82 190.733 939.825 190.729 939.824C190.726 939.823 190.69 939.817 190.628 939.798C190.565 939.779 190.471 939.747 190.355 939.694L193.08 933.677L195.805 927.659C193.973 926.83 192.069 926.595 190.404 926.595V933.201ZM193.08 933.677L190.491 939.754C190.238 939.647 189.916 939.463 189.592 939.172C189.264 938.876 189.009 938.538 188.83 938.2L194.665 935.104L200.5 932.007C199.405 929.943 197.686 928.459 195.668 927.599L193.08 933.677ZM194.665 935.104L188.908 938.342C188.719 938.007 188.642 937.736 188.612 937.599C188.583 937.467 188.594 937.442 188.594 937.561H195.2H201.806C201.806 935.833 201.507 933.793 200.423 931.865L194.665 935.104ZM195.2 937.561H188.594V941.564H195.2H201.806V937.561H195.2ZM195.2 941.564H188.594C188.594 941.176 188.686 939.774 189.906 938.438L194.784 942.892L199.662 947.346C201.437 945.403 201.806 943.115 201.806 941.564H195.2ZM194.784 942.892L189.906 938.438C191.213 937.005 192.808 936.742 193.575 936.742V943.348V949.954C195.399 949.954 197.8 949.386 199.662 947.346L194.784 942.892ZM193.575 943.348V936.742C194.289 936.742 195.811 936.978 197.1 938.326L192.327 942.892L187.553 947.458C189.423 949.413 191.778 949.954 193.575 949.954V943.348ZM192.327 942.892L197.205 938.438C198.425 939.774 198.516 941.176 198.516 941.564H191.91H185.305C185.305 943.115 185.674 945.403 187.448 947.346L192.327 942.892ZM191.91 941.564H198.516V941.049H191.91H185.305V941.564H191.91ZM191.91 941.049L185.839 943.651L185.958 943.929L192.029 941.326L198.101 938.724L197.982 938.447L191.91 941.049ZM192.029 941.326L185.503 940.307C185.591 939.74 185.841 939.023 186.371 938.345L191.574 942.416L196.776 946.488C197.781 945.202 198.335 943.758 198.556 942.346L192.029 941.326ZM191.574 942.416L186.371 938.345C186.853 937.73 187.431 937.33 187.94 937.102L190.642 943.13L193.344 949.158C194.619 948.586 195.819 947.71 196.776 946.488L191.574 942.416ZM190.642 943.13L187.94 937.102C188.535 936.835 189.043 936.782 189.334 936.782V943.387V949.993C190.603 949.993 191.983 949.768 193.344 949.158L190.642 943.13ZM197.665 942.892L192.994 947.563L193.043 947.613L193.094 947.661L197.665 942.892ZM197.645 933.697L192.974 929.026L192.922 929.077L192.871 929.131L197.645 933.697ZM200.201 933.697L195.428 938.263L195.428 938.263L200.201 933.697ZM200.637 935.817V942.423H207.243V935.817H200.637ZM200.439 935.817L193.923 934.731L192.641 942.423H200.439V935.817ZM201.45 933.934L197.221 928.86L197.191 928.885L197.161 928.91L201.45 933.934ZM203.511 933.201L203.724 939.804L203.731 939.803L203.738 939.803L203.511 933.201ZM204.363 933.498L199.392 937.848L199.536 938.014L199.692 938.17L204.363 933.498ZM204.68 934.628H211.286V934.549L211.284 934.471L204.68 934.628ZM204.383 935.758L209.758 939.597L209.758 939.597L204.383 935.758ZM203.253 936.253L203.825 942.834L203.852 942.832L203.879 942.829L203.253 936.253ZM202.797 936.293L202.225 929.712L202.201 929.714L202.177 929.716L202.797 936.293ZM201.271 936.887L205.942 941.558L205.99 941.511L206.037 941.462L201.271 936.887ZM200.34 942.892L195.669 938.221V938.221L200.34 942.892ZM199.012 943.348V936.742C199.567 936.742 200.966 936.907 202.235 938.123L197.665 942.892L193.094 947.661C194.997 949.485 197.295 949.954 199.012 949.954V943.348ZM197.665 942.892L202.336 938.221C203.657 939.542 203.815 941.029 203.815 941.564H197.209H190.603C190.603 943.262 191.064 945.634 192.994 947.563L197.665 942.892ZM197.209 941.564H203.815V935.005H197.209H190.603V941.564H197.209ZM197.209 935.005H203.815C203.815 935.528 203.667 936.958 202.418 938.263L197.645 933.697L192.871 929.131C191.042 931.043 190.603 933.345 190.603 935.005H197.209ZM197.645 933.697L202.316 938.368C201.049 939.635 199.597 939.847 198.933 939.847V933.241V926.635C197.159 926.635 194.848 927.151 192.974 929.026L197.645 933.697ZM198.933 933.241V939.847C198.287 939.847 196.745 939.641 195.428 938.263L200.201 933.697L204.975 929.131C203.076 927.145 200.689 926.635 198.933 926.635V933.241ZM200.201 933.697L195.428 938.263C194.179 936.958 194.031 935.528 194.031 935.005H200.637H207.243C207.243 933.345 206.805 931.043 204.975 929.131L200.201 933.697ZM200.637 935.005H194.031V935.817H200.637H207.243V935.005H200.637ZM200.637 935.817V929.211H200.439V935.817V942.423H200.637V935.817ZM200.439 935.817L206.955 936.903C206.917 937.129 206.825 937.477 206.611 937.876C206.392 938.285 206.092 938.657 205.739 938.959L201.45 933.934L197.161 928.91C195.284 930.512 194.276 932.614 193.923 934.731L200.439 935.817ZM201.45 933.934L205.679 939.009C205.352 939.282 204.979 939.492 204.595 939.628C204.221 939.761 203.913 939.797 203.724 939.804L203.511 933.201L203.298 926.599C201.215 926.666 199.057 927.33 197.221 928.86L201.45 933.934ZM203.511 933.201L203.738 939.803C202.905 939.832 200.946 939.625 199.392 937.848L204.363 933.498L209.334 929.148C207.41 926.949 204.883 926.544 203.283 926.599L203.511 933.201ZM204.363 933.498L199.692 938.17C198.735 937.213 198.369 936.208 198.231 935.715C198.087 935.203 198.078 934.849 198.076 934.785L204.68 934.628L211.284 934.471C211.265 933.66 211.165 930.958 209.034 928.827L204.363 933.498ZM204.68 934.628H198.074C198.074 934.255 198.145 933.125 199.007 931.918L204.383 935.758L209.758 939.597C211.017 937.835 211.286 935.952 211.286 934.628H204.68ZM204.383 935.758L199.007 931.918C200.462 929.882 202.456 929.693 202.627 929.677L203.253 936.253L203.879 942.829C205.16 942.707 207.907 942.188 209.758 939.597L204.383 935.758ZM203.253 936.253L202.681 929.672L202.225 929.712L202.797 936.293L203.37 942.874L203.825 942.834L203.253 936.253ZM202.797 936.293L202.177 929.716C200.71 929.854 198.376 930.365 196.506 932.312L201.271 936.887L206.037 941.462C204.801 942.749 203.484 942.863 203.418 942.869L202.797 936.293ZM201.271 936.887L196.6 932.216C194.608 934.209 194.19 936.662 194.19 938.314H200.796H207.402C207.402 938.698 207.301 940.2 205.942 941.558L201.271 936.887ZM200.796 938.314H194.19V941.564H200.796H207.402V938.314H200.796ZM200.796 941.564H194.19C194.19 941.029 194.347 939.542 195.669 938.221L200.34 942.892L205.011 947.563C206.94 945.634 207.402 943.262 207.402 941.564H200.796ZM200.34 942.892L195.669 938.221C196.99 936.899 198.477 936.742 199.012 936.742V943.348V949.954C200.71 949.954 203.082 949.492 205.011 947.563L200.34 942.892ZM209.038 942.932L206.183 948.889L206.207 948.9L206.231 948.911L209.038 942.932ZM207.611 941.564L201.728 944.568L201.741 944.594L201.754 944.62L207.611 941.564ZM207.135 936.015H213.741V929.409H207.135V936.015ZM205.471 935.678L200.8 940.349L200.866 940.416L200.935 940.481L205.471 935.678ZM205.471 933.756L209.998 938.566L210.006 938.559L205.471 933.756ZM207.135 933.419V940.025H213.741V933.419H207.135ZM210.207 930.863L205.536 935.534V935.534L210.207 930.863ZM210.663 933.419H204.057V940.025H210.663V933.419ZM213.279 933.756L208.608 938.427L208.745 938.564L208.89 938.693L213.279 933.756ZM213.279 935.678L208.743 930.876L208.674 930.941L208.608 931.007L213.279 935.678ZM210.663 936.015V929.409H204.057V936.015H210.663ZM211 940.217L206.197 944.752L206.327 944.89L206.464 945.019L211 940.217ZM212.645 940.494L214.13 946.931V946.931L212.645 940.494ZM213.12 940.435V947.04H213.326L213.532 947.028L213.12 940.435ZM213.635 940.633L208.747 945.076L208.853 945.193L208.964 945.304L213.635 940.633ZM213.655 942.575L219.679 945.286L219.704 945.232L219.727 945.177L213.655 942.575ZM213.021 943.15L215.243 949.371L215.336 949.337L215.428 949.301L213.021 943.15ZM212.268 943.308L211.449 936.753L211.315 936.77L211.182 936.792L212.268 943.308ZM211.495 943.387V936.782C211.33 936.782 211.288 936.768 211.342 936.778C211.398 936.789 211.583 936.829 211.845 936.952L209.038 942.932L206.231 948.911C208.027 949.755 209.885 949.993 211.495 949.993V943.387ZM209.038 942.932L211.892 936.974C212.164 937.104 212.475 937.304 212.776 937.593C213.078 937.882 213.307 938.201 213.468 938.509L207.611 941.564L201.754 944.62C202.75 946.529 204.297 947.985 206.183 948.889L209.038 942.932ZM207.611 941.564L213.494 938.56C213.781 939.122 213.741 939.453 213.741 939.246H207.135H200.529C200.529 940.888 200.806 942.764 201.728 944.568L207.611 941.564ZM207.135 939.246H213.741V936.015H207.135H200.529V939.246H207.135ZM207.135 936.015V929.409H206.461V936.015V942.621H207.135V936.015ZM206.461 936.015V929.409C207.215 929.409 208.691 929.634 210.006 930.876L205.471 935.678L200.935 940.481C202.726 942.172 204.863 942.621 206.461 942.621V936.015ZM205.471 935.678L210.142 931.007C211.524 932.389 211.74 933.978 211.74 934.707H205.134H198.528C198.528 936.283 198.968 938.518 200.8 940.349L205.471 935.678ZM205.134 934.707H211.74C211.74 935.409 211.534 937.121 209.998 938.566L205.471 933.756L200.943 928.946C198.958 930.814 198.528 933.16 198.528 934.707H205.134ZM205.471 933.756L210.006 938.559C208.691 939.801 207.215 940.025 206.461 940.025V933.419V926.813C204.863 926.813 202.726 927.262 200.935 928.954L205.471 933.756ZM206.461 933.419V940.025H207.135V933.419V926.813H206.461V933.419ZM207.135 933.419H213.741V932.19H207.135H200.529V933.419H207.135ZM207.135 932.19H213.741C213.741 932.726 213.584 934.212 212.262 935.534L207.591 930.863L202.92 926.192C200.991 928.121 200.529 930.492 200.529 932.19H207.135ZM207.591 930.863L212.262 935.534C210.967 936.829 209.498 937.013 208.899 937.013V930.407V923.801C207.164 923.801 204.823 924.289 202.92 926.192L207.591 930.863ZM208.899 930.407V937.013C208.3 937.013 206.831 936.829 205.536 935.534L210.207 930.863L214.878 926.192C212.976 924.289 210.635 923.801 208.899 923.801V930.407ZM210.207 930.863L205.536 935.534C204.214 934.212 204.057 932.726 204.057 932.19H210.663H217.269C217.269 930.492 216.807 928.121 214.878 926.192L210.207 930.863ZM210.663 932.19H204.057V933.419H210.663H217.269V932.19H210.663ZM210.663 933.419V940.025H212.288V933.419V926.813H210.663V933.419ZM212.288 933.419V940.025C211.639 940.025 210.025 939.845 208.608 938.427L213.279 933.756L217.95 929.085C216.083 927.218 213.808 926.813 212.288 926.813V933.419ZM213.279 933.756L208.89 938.693C207.293 937.274 207.03 935.518 207.03 934.707H213.635H220.241C220.241 933.052 219.74 930.661 217.667 928.819L213.279 933.756ZM213.635 934.707H207.03C207.03 933.873 207.301 932.238 208.743 930.876L213.279 935.678L217.814 940.481C219.732 938.67 220.241 936.387 220.241 934.707H213.635ZM213.279 935.678L208.608 931.007C210.025 929.59 211.639 929.409 212.288 929.409V936.015V942.621C213.808 942.621 216.083 942.216 217.95 940.349L213.279 935.678ZM212.288 936.015V929.409H210.663V936.015V942.621H212.288V936.015ZM210.663 936.015H204.057V939.127H210.663H217.269V936.015H210.663ZM210.663 939.127H204.057C204.057 940.484 204.354 942.801 206.197 944.752L211 940.217L215.802 935.681C217.196 937.157 217.269 938.747 217.269 939.127H210.663ZM211 940.217L206.464 945.019C208.443 946.889 210.796 947.159 212.109 947.159V940.554V933.948C212.418 933.948 214.032 933.994 215.535 935.414L211 940.217ZM212.109 940.554V947.159C212.77 947.159 213.448 947.088 214.13 946.931L212.645 940.494L211.159 934.057C211.498 933.979 211.819 933.948 212.109 933.948V940.554ZM212.645 940.494L214.13 946.931C213.914 946.981 213.567 947.04 213.12 947.04V940.435V933.829C212.382 933.829 211.719 933.928 211.159 934.057L212.645 940.494ZM213.12 940.435L213.532 947.028C212.833 947.071 211.961 946.995 211.036 946.64C210.096 946.278 209.327 945.714 208.747 945.076L213.635 940.633L218.523 936.189C216.926 934.432 214.741 933.715 212.708 933.842L213.12 940.435ZM213.635 940.633L208.964 945.304C208.287 944.627 207.904 943.936 207.693 943.465C207.48 942.988 207.375 942.586 207.323 942.339C207.268 942.083 207.247 941.885 207.238 941.775C207.228 941.66 207.228 941.586 207.228 941.564H213.834H220.439C220.439 941.077 220.411 940.37 220.245 939.59C220.112 938.962 219.708 937.363 218.306 935.962L213.635 940.633ZM213.834 941.564H207.228C207.228 941.333 207.258 940.732 207.584 939.973L213.655 942.575L219.727 945.177C220.29 943.863 220.439 942.589 220.439 941.564H213.834ZM213.655 942.575L207.631 939.864C207.939 939.18 208.392 938.547 208.972 938.022C209.539 937.507 210.125 937.189 210.614 936.998L213.021 943.15L215.428 949.301C217.121 948.639 218.76 947.33 219.679 945.286L213.655 942.575ZM213.021 943.15L210.799 936.929C211.058 936.836 211.25 936.792 211.333 936.775C211.424 936.756 211.468 936.751 211.449 936.753L212.268 943.308L213.087 949.863C213.625 949.796 214.412 949.668 215.243 949.371L213.021 943.15ZM212.268 943.308L211.182 936.792C211.129 936.801 211.126 936.8 211.163 936.796C211.194 936.793 211.313 936.782 211.495 936.782V943.387V949.993C212.21 949.993 212.869 949.905 213.354 949.824L212.268 943.308Z" fill="white" mask="url(#path-4-outside-2_123_2417)"/>
</svg>
