<svg width="804" height="1346" viewBox="0 0 804 1346" fill="none" xmlns="http://www.w3.org/2000/svg">
<path d="M157.547 538.819C157.547 509.616 144.638 459.448 134 414.475C128.413 390.855 115.123 334.926 120.657 312.44C124.041 298.691 115.999 238.847 120.657 219.823C123.391 208.659 139.624 187.993 175.599 216.684C208.85 243.201 262.054 319.153 264.292 312.44C268.281 300.472 221.735 157.434 217.983 140.55C214.844 126.421 201.712 97.5311 205.425 86.3924C211.088 69.4044 237.605 53.076 265.077 45.5782C274.995 42.8712 301.31 30.2067 324.728 23.6014C355.339 14.9671 391.137 18.039 405.571 23.6014C418.252 28.4879 450.263 50.7794 466.534 69.9097C480.537 86.3741 486.377 89.6125 504.469 116.91C514.26 131.683 517.026 149.853 518.431 167.472C521.007 199.785 525.843 242.346 525.843 265.204C525.843 291.248 518.431 312.132 518.431 325.783C518.431 340.696 530.319 384.179 536.648 394.068C561.764 433.313 575.892 458.429 565.689 474.912C558.922 485.843 543.712 483.546 525.659 485.9C495.234 489.869 433.982 482.873 455.019 509.447C462.688 519.133 535.195 501.398 548.421 498.458C576.677 492.179 597.084 478.051 622.2 478.051C644.175 478.051 711.985 483.633 715.602 500.813C718.742 515.726 687.674 554.407 684.992 560.465C676.648 579.302 682.637 610.2 682.637 631.889C682.637 654.856 686.68 650.414 690.393 674.555C696.735 715.791 709.125 764.966 710.893 778.663C714.032 802.995 715.485 827.957 717.957 840.67C723.451 868.926 722.763 875.754 729.73 902.676C734.456 920.938 749.662 935.771 734.439 954.478C722.943 968.606 701.166 963.414 682.637 968.606C665.023 973.543 649.705 979.695 623.77 981.558C622.567 981.645 555.344 994.415 546.851 988.229C523.588 971.284 491.048 705.391 477.781 708.808C455.02 714.672 524.349 992.139 524.874 995.293C527.229 1009.42 536.046 1033.89 540.572 1056.51C546.851 1087.91 553.915 1101.25 553.915 1125.58C553.915 1154.62 558.814 1171.55 565.294 1197.01C571.14 1219.98 589.322 1237.8 586.096 1252.73C580.607 1278.11 547.116 1312.68 525.659 1317.88C503.507 1323.25 470.863 1315.57 457.374 1310.03C441.761 1303.63 442.755 1270.11 440.892 1256.66C438.939 1242.57 426.552 1219.22 422.839 1204.86C410.712 1157.94 413.535 1107.03 410.281 1094.97C406.152 1079.68 401.476 1046.37 392.229 1038.46C382.531 1030.16 372.277 1025.57 354.554 1031.56C330.413 1039.72 293.482 1048.35 268.216 1052.59C262.672 1053.52 252.92 1009.25 247.305 994.508C236.858 967.079 233.691 964.92 231.049 935.209C227.696 897.49 217.046 826.548 212.489 806.919C202.286 762.966 199.084 748.838 195.222 723.721C192.565 706.444 177.954 631.889 171.675 616.192C161.152 589.883 181.094 600.494 163.041 571.453" stroke="black" stroke-width="15.6978" stroke-linecap="round" stroke-dasharray="15.7 43.95"/>
<mask id="path-2-outside-1_81_4414" maskUnits="userSpaceOnUse" x="102.098" y="544.336" width="111" height="29" fill="black">
<rect fill="white" x="102.098" y="544.336" width="111" height="29"/>
<path d="M114.239 565.543C113.736 565.543 113.209 565.506 112.656 565.43C112.116 565.367 111.601 565.267 111.112 565.129C110.622 564.991 110.182 564.827 109.793 564.639C109.454 564.476 109.215 564.262 109.077 563.999C108.939 563.722 108.889 563.433 108.926 563.132C108.964 562.831 109.071 562.567 109.247 562.341C109.423 562.102 109.655 561.945 109.944 561.87C110.233 561.782 110.559 561.82 110.923 561.983C111.4 562.209 111.94 562.385 112.543 562.51C113.146 562.636 113.711 562.699 114.239 562.699C115.067 562.699 115.645 562.592 115.972 562.379C116.311 562.153 116.48 561.876 116.48 561.55C116.48 561.261 116.361 561.029 116.122 560.853C115.896 560.677 115.488 560.526 114.898 560.401L112.694 559.93C111.488 559.679 110.59 559.239 110 558.611C109.41 557.983 109.115 557.173 109.115 556.181C109.115 555.528 109.247 554.938 109.51 554.41C109.787 553.87 110.17 553.412 110.66 553.035C111.162 552.659 111.752 552.37 112.43 552.169C113.121 551.955 113.887 551.849 114.728 551.849C115.381 551.849 116.041 551.924 116.706 552.075C117.384 552.213 117.968 552.426 118.458 552.715C118.747 552.866 118.954 553.073 119.08 553.337C119.205 553.6 119.256 553.877 119.231 554.166C119.205 554.442 119.105 554.687 118.929 554.9C118.766 555.114 118.54 555.258 118.251 555.333C117.975 555.396 117.642 555.346 117.253 555.183C116.888 555.019 116.474 554.9 116.009 554.825C115.557 554.737 115.118 554.693 114.691 554.693C114.226 554.693 113.83 554.749 113.504 554.863C113.177 554.963 112.926 555.114 112.75 555.315C112.587 555.516 112.506 555.748 112.506 556.012C112.506 556.275 112.612 556.501 112.826 556.69C113.052 556.866 113.46 557.016 114.05 557.142L116.235 557.613C117.454 557.876 118.364 558.31 118.967 558.913C119.57 559.515 119.871 560.3 119.871 561.267C119.871 561.92 119.739 562.51 119.475 563.038C119.212 563.565 118.835 564.017 118.345 564.394C117.855 564.758 117.265 565.041 116.574 565.242C115.884 565.443 115.105 565.543 114.239 565.543ZM126.06 565.543C125.118 565.543 124.34 565.399 123.724 565.11C123.121 564.821 122.669 564.388 122.368 563.81C122.067 563.22 121.916 562.485 121.916 561.606V558.536H121.275C120.874 558.536 120.56 558.429 120.334 558.216C120.12 558.002 120.013 557.694 120.013 557.293C120.013 556.891 120.12 556.589 120.334 556.388C120.56 556.175 120.874 556.068 121.275 556.068H121.916V554.9C121.916 554.348 122.06 553.927 122.349 553.638C122.638 553.349 123.052 553.205 123.592 553.205C124.132 553.205 124.547 553.349 124.836 553.638C125.124 553.927 125.269 554.348 125.269 554.9V556.068H126.814C127.228 556.068 127.542 556.175 127.755 556.388C127.981 556.589 128.094 556.891 128.094 557.293C128.094 557.694 127.981 558.002 127.755 558.216C127.542 558.429 127.228 558.536 126.814 558.536H125.269V561.493C125.269 561.958 125.376 562.303 125.589 562.529C125.815 562.743 126.167 562.85 126.644 562.85C126.82 562.85 126.989 562.831 127.153 562.793C127.316 562.755 127.467 562.737 127.605 562.737C127.806 562.724 127.969 562.787 128.094 562.925C128.22 563.05 128.283 563.346 128.283 563.81C128.283 564.187 128.226 564.507 128.113 564.771C128 565.022 127.799 565.204 127.511 565.317C127.335 565.38 127.096 565.43 126.795 565.468C126.493 565.518 126.248 565.543 126.06 565.543ZM132.442 565.543C131.726 565.543 131.092 565.411 130.539 565.148C129.999 564.884 129.572 564.526 129.258 564.074C128.957 563.609 128.806 563.082 128.806 562.492C128.806 561.813 128.982 561.28 129.334 560.89C129.685 560.501 130.25 560.225 131.029 560.062C131.808 559.886 132.844 559.798 134.137 559.798H135.173V561.38H134.137C133.647 561.38 133.239 561.418 132.913 561.493C132.599 561.556 132.366 561.663 132.216 561.813C132.065 561.952 131.99 562.134 131.99 562.36C131.99 562.649 132.09 562.887 132.291 563.076C132.505 563.264 132.806 563.358 133.195 563.358C133.509 563.358 133.786 563.289 134.024 563.151C134.275 563.013 134.476 562.824 134.627 562.586C134.778 562.335 134.853 562.046 134.853 561.719V559.534C134.853 559.082 134.734 558.762 134.495 558.573C134.269 558.385 133.873 558.291 133.308 558.291C133.007 558.291 132.668 558.329 132.291 558.404C131.914 558.467 131.494 558.586 131.029 558.762C130.69 558.887 130.401 558.906 130.162 558.818C129.924 558.73 129.735 558.58 129.597 558.366C129.472 558.153 129.409 557.92 129.409 557.669C129.422 557.418 129.503 557.18 129.654 556.953C129.817 556.727 130.062 556.552 130.389 556.426C130.991 556.2 131.544 556.049 132.046 555.974C132.561 555.899 133.032 555.861 133.459 555.861C134.489 555.861 135.336 556.012 136.002 556.313C136.68 556.602 137.183 557.054 137.509 557.669C137.848 558.272 138.018 559.051 138.018 560.005V563.81C138.018 564.363 137.886 564.783 137.622 565.072C137.358 565.361 136.975 565.506 136.473 565.506C135.958 565.506 135.562 565.361 135.286 565.072C135.022 564.783 134.891 564.363 134.891 563.81V563.32L135.004 563.584C134.941 563.986 134.796 564.331 134.57 564.62C134.344 564.909 134.049 565.135 133.685 565.298C133.321 565.462 132.906 565.543 132.442 565.543ZM141.641 565.506C141.089 565.506 140.662 565.361 140.36 565.072C140.071 564.783 139.927 564.363 139.927 563.81V557.575C139.927 557.035 140.065 556.621 140.341 556.332C140.63 556.043 141.038 555.899 141.566 555.899C142.093 555.899 142.495 556.043 142.771 556.332C143.048 556.621 143.186 557.035 143.186 557.575V558.347H142.997C143.123 557.594 143.443 556.997 143.958 556.558C144.486 556.118 145.139 555.886 145.917 555.861C146.281 555.848 146.551 555.943 146.727 556.143C146.916 556.332 147.016 556.69 147.029 557.217C147.029 557.669 146.934 558.027 146.746 558.291C146.558 558.555 146.2 558.712 145.672 558.762L145.239 558.8C144.574 558.862 144.09 559.051 143.789 559.365C143.487 559.666 143.337 560.118 143.337 560.721V563.81C143.337 564.363 143.192 564.783 142.903 565.072C142.614 565.361 142.194 565.506 141.641 565.506ZM153.507 565.543C152.565 565.543 151.786 565.399 151.171 565.11C150.568 564.821 150.116 564.388 149.814 563.81C149.513 563.22 149.362 562.485 149.362 561.606V558.536H148.722C148.32 558.536 148.006 558.429 147.78 558.216C147.567 558.002 147.46 557.694 147.46 557.293C147.46 556.891 147.567 556.589 147.78 556.388C148.006 556.175 148.32 556.068 148.722 556.068H149.362V554.9C149.362 554.348 149.507 553.927 149.796 553.638C150.084 553.349 150.499 553.205 151.039 553.205C151.579 553.205 151.993 553.349 152.282 553.638C152.571 553.927 152.715 554.348 152.715 554.9V556.068H154.26C154.675 556.068 154.988 556.175 155.202 556.388C155.428 556.589 155.541 556.891 155.541 557.293C155.541 557.694 155.428 558.002 155.202 558.216C154.988 558.429 154.675 558.536 154.26 558.536H152.715V561.493C152.715 561.958 152.822 562.303 153.036 562.529C153.262 562.743 153.613 562.85 154.091 562.85C154.266 562.85 154.436 562.831 154.599 562.793C154.762 562.755 154.913 562.737 155.051 562.737C155.252 562.724 155.415 562.787 155.541 562.925C155.667 563.05 155.729 563.346 155.729 563.81C155.729 564.187 155.673 564.507 155.56 564.771C155.447 565.022 155.246 565.204 154.957 565.317C154.781 565.38 154.543 565.43 154.241 565.468C153.94 565.518 153.695 565.543 153.507 565.543ZM163.508 565.75C163.395 566.077 163.225 566.316 162.999 566.466C162.773 566.617 162.528 566.686 162.264 566.674C162.001 566.674 161.756 566.604 161.53 566.466C161.316 566.341 161.159 566.146 161.059 565.882C160.958 565.631 160.958 565.336 161.059 564.997L165.241 551.962C165.341 551.635 165.504 551.396 165.73 551.246C165.969 551.095 166.214 551.026 166.465 551.039C166.729 551.039 166.974 551.108 167.2 551.246C167.426 551.371 167.589 551.56 167.689 551.811C167.79 552.062 167.784 552.363 167.671 552.715L163.508 565.75ZM176.049 565.336C175.459 565.336 175.006 565.185 174.693 564.884C174.391 564.57 174.24 564.124 174.24 563.547V553.845C174.24 553.268 174.391 552.828 174.693 552.527C175.006 552.213 175.459 552.056 176.049 552.056H182.435C182.887 552.056 183.226 552.169 183.452 552.395C183.678 552.621 183.791 552.947 183.791 553.374C183.791 553.814 183.678 554.153 183.452 554.392C183.226 554.618 182.887 554.731 182.435 554.731H177.556V557.255H182.02C182.46 557.255 182.793 557.368 183.019 557.594C183.257 557.82 183.377 558.153 183.377 558.592C183.377 559.032 183.257 559.365 183.019 559.591C182.793 559.817 182.46 559.93 182.02 559.93H177.556V562.661H182.435C182.887 562.661 183.226 562.78 183.452 563.019C183.678 563.245 183.791 563.572 183.791 563.999C183.791 564.438 183.678 564.771 183.452 564.997C183.226 565.223 182.887 565.336 182.435 565.336H176.049ZM187.243 565.506C186.716 565.506 186.307 565.361 186.019 565.072C185.73 564.783 185.585 564.363 185.585 563.81V557.575C185.585 557.035 185.723 556.621 186 556.332C186.289 556.043 186.697 555.899 187.224 555.899C187.752 555.899 188.154 556.043 188.43 556.332C188.706 556.621 188.844 557.035 188.844 557.575V558.46L188.637 557.688C188.938 557.098 189.365 556.646 189.918 556.332C190.483 556.018 191.124 555.861 191.839 555.861C192.58 555.861 193.189 556.005 193.667 556.294C194.144 556.57 194.502 557.01 194.74 557.613C194.979 558.203 195.098 558.95 195.098 559.854V563.81C195.098 564.363 194.954 564.783 194.665 565.072C194.376 565.361 193.962 565.506 193.422 565.506C192.882 565.506 192.467 565.361 192.178 565.072C191.89 564.783 191.745 564.363 191.745 563.81V559.986C191.745 559.421 191.645 559.019 191.444 558.781C191.255 558.542 190.973 558.423 190.596 558.423C190.094 558.423 189.692 558.586 189.39 558.913C189.089 559.226 188.938 559.653 188.938 560.193V563.81C188.938 564.94 188.373 565.506 187.243 565.506ZM200.626 565.543C199.835 565.543 199.131 565.349 198.516 564.959C197.913 564.57 197.436 564.011 197.085 563.283C196.745 562.554 196.576 561.694 196.576 560.702C196.576 559.685 196.745 558.818 197.085 558.103C197.436 557.387 197.913 556.834 198.516 556.445C199.131 556.056 199.835 555.861 200.626 555.861C201.317 555.861 201.938 556.024 202.491 556.351C203.043 556.677 203.414 557.098 203.602 557.613H203.395V553.582C203.395 553.029 203.539 552.608 203.828 552.319C204.117 552.031 204.532 551.886 205.072 551.886C205.599 551.886 206.007 552.031 206.296 552.319C206.597 552.608 206.748 553.029 206.748 553.582V563.81C206.748 564.363 206.604 564.783 206.315 565.072C206.039 565.361 205.63 565.506 205.09 565.506C204.563 565.506 204.155 565.361 203.866 565.072C203.577 564.783 203.433 564.363 203.433 563.81V562.737L203.64 563.66C203.464 564.225 203.094 564.683 202.528 565.035C201.976 565.374 201.342 565.543 200.626 565.543ZM201.7 563.076C202.039 563.076 202.34 562.994 202.604 562.831C202.868 562.655 203.068 562.397 203.207 562.058C203.357 561.707 203.433 561.255 203.433 560.702C203.433 559.861 203.269 559.258 202.943 558.894C202.616 558.517 202.202 558.329 201.7 558.329C201.361 558.329 201.059 558.41 200.795 558.573C200.532 558.737 200.325 558.994 200.174 559.346C200.023 559.685 199.948 560.137 199.948 560.702C199.948 561.531 200.111 562.134 200.438 562.51C200.764 562.887 201.185 563.076 201.7 563.076Z"/>
</mask>
<path d="M114.239 565.543C113.736 565.543 113.209 565.506 112.656 565.43C112.116 565.367 111.601 565.267 111.112 565.129C110.622 564.991 110.182 564.827 109.793 564.639C109.454 564.476 109.215 564.262 109.077 563.999C108.939 563.722 108.889 563.433 108.926 563.132C108.964 562.831 109.071 562.567 109.247 562.341C109.423 562.102 109.655 561.945 109.944 561.87C110.233 561.782 110.559 561.82 110.923 561.983C111.4 562.209 111.94 562.385 112.543 562.51C113.146 562.636 113.711 562.699 114.239 562.699C115.067 562.699 115.645 562.592 115.972 562.379C116.311 562.153 116.48 561.876 116.48 561.55C116.48 561.261 116.361 561.029 116.122 560.853C115.896 560.677 115.488 560.526 114.898 560.401L112.694 559.93C111.488 559.679 110.59 559.239 110 558.611C109.41 557.983 109.115 557.173 109.115 556.181C109.115 555.528 109.247 554.938 109.51 554.41C109.787 553.87 110.17 553.412 110.66 553.035C111.162 552.659 111.752 552.37 112.43 552.169C113.121 551.955 113.887 551.849 114.728 551.849C115.381 551.849 116.041 551.924 116.706 552.075C117.384 552.213 117.968 552.426 118.458 552.715C118.747 552.866 118.954 553.073 119.08 553.337C119.205 553.6 119.256 553.877 119.231 554.166C119.205 554.442 119.105 554.687 118.929 554.9C118.766 555.114 118.54 555.258 118.251 555.333C117.975 555.396 117.642 555.346 117.253 555.183C116.888 555.019 116.474 554.9 116.009 554.825C115.557 554.737 115.118 554.693 114.691 554.693C114.226 554.693 113.83 554.749 113.504 554.863C113.177 554.963 112.926 555.114 112.75 555.315C112.587 555.516 112.506 555.748 112.506 556.012C112.506 556.275 112.612 556.501 112.826 556.69C113.052 556.866 113.46 557.016 114.05 557.142L116.235 557.613C117.454 557.876 118.364 558.31 118.967 558.913C119.57 559.515 119.871 560.3 119.871 561.267C119.871 561.92 119.739 562.51 119.475 563.038C119.212 563.565 118.835 564.017 118.345 564.394C117.855 564.758 117.265 565.041 116.574 565.242C115.884 565.443 115.105 565.543 114.239 565.543ZM126.06 565.543C125.118 565.543 124.34 565.399 123.724 565.11C123.121 564.821 122.669 564.388 122.368 563.81C122.067 563.22 121.916 562.485 121.916 561.606V558.536H121.275C120.874 558.536 120.56 558.429 120.334 558.216C120.12 558.002 120.013 557.694 120.013 557.293C120.013 556.891 120.12 556.589 120.334 556.388C120.56 556.175 120.874 556.068 121.275 556.068H121.916V554.9C121.916 554.348 122.06 553.927 122.349 553.638C122.638 553.349 123.052 553.205 123.592 553.205C124.132 553.205 124.547 553.349 124.836 553.638C125.124 553.927 125.269 554.348 125.269 554.9V556.068H126.814C127.228 556.068 127.542 556.175 127.755 556.388C127.981 556.589 128.094 556.891 128.094 557.293C128.094 557.694 127.981 558.002 127.755 558.216C127.542 558.429 127.228 558.536 126.814 558.536H125.269V561.493C125.269 561.958 125.376 562.303 125.589 562.529C125.815 562.743 126.167 562.85 126.644 562.85C126.82 562.85 126.989 562.831 127.153 562.793C127.316 562.755 127.467 562.737 127.605 562.737C127.806 562.724 127.969 562.787 128.094 562.925C128.22 563.05 128.283 563.346 128.283 563.81C128.283 564.187 128.226 564.507 128.113 564.771C128 565.022 127.799 565.204 127.511 565.317C127.335 565.38 127.096 565.43 126.795 565.468C126.493 565.518 126.248 565.543 126.06 565.543ZM132.442 565.543C131.726 565.543 131.092 565.411 130.539 565.148C129.999 564.884 129.572 564.526 129.258 564.074C128.957 563.609 128.806 563.082 128.806 562.492C128.806 561.813 128.982 561.28 129.334 560.89C129.685 560.501 130.25 560.225 131.029 560.062C131.808 559.886 132.844 559.798 134.137 559.798H135.173V561.38H134.137C133.647 561.38 133.239 561.418 132.913 561.493C132.599 561.556 132.366 561.663 132.216 561.813C132.065 561.952 131.99 562.134 131.99 562.36C131.99 562.649 132.09 562.887 132.291 563.076C132.505 563.264 132.806 563.358 133.195 563.358C133.509 563.358 133.786 563.289 134.024 563.151C134.275 563.013 134.476 562.824 134.627 562.586C134.778 562.335 134.853 562.046 134.853 561.719V559.534C134.853 559.082 134.734 558.762 134.495 558.573C134.269 558.385 133.873 558.291 133.308 558.291C133.007 558.291 132.668 558.329 132.291 558.404C131.914 558.467 131.494 558.586 131.029 558.762C130.69 558.887 130.401 558.906 130.162 558.818C129.924 558.73 129.735 558.58 129.597 558.366C129.472 558.153 129.409 557.92 129.409 557.669C129.422 557.418 129.503 557.18 129.654 556.953C129.817 556.727 130.062 556.552 130.389 556.426C130.991 556.2 131.544 556.049 132.046 555.974C132.561 555.899 133.032 555.861 133.459 555.861C134.489 555.861 135.336 556.012 136.002 556.313C136.68 556.602 137.183 557.054 137.509 557.669C137.848 558.272 138.018 559.051 138.018 560.005V563.81C138.018 564.363 137.886 564.783 137.622 565.072C137.358 565.361 136.975 565.506 136.473 565.506C135.958 565.506 135.562 565.361 135.286 565.072C135.022 564.783 134.891 564.363 134.891 563.81V563.32L135.004 563.584C134.941 563.986 134.796 564.331 134.57 564.62C134.344 564.909 134.049 565.135 133.685 565.298C133.321 565.462 132.906 565.543 132.442 565.543ZM141.641 565.506C141.089 565.506 140.662 565.361 140.36 565.072C140.071 564.783 139.927 564.363 139.927 563.81V557.575C139.927 557.035 140.065 556.621 140.341 556.332C140.63 556.043 141.038 555.899 141.566 555.899C142.093 555.899 142.495 556.043 142.771 556.332C143.048 556.621 143.186 557.035 143.186 557.575V558.347H142.997C143.123 557.594 143.443 556.997 143.958 556.558C144.486 556.118 145.139 555.886 145.917 555.861C146.281 555.848 146.551 555.943 146.727 556.143C146.916 556.332 147.016 556.69 147.029 557.217C147.029 557.669 146.934 558.027 146.746 558.291C146.558 558.555 146.2 558.712 145.672 558.762L145.239 558.8C144.574 558.862 144.09 559.051 143.789 559.365C143.487 559.666 143.337 560.118 143.337 560.721V563.81C143.337 564.363 143.192 564.783 142.903 565.072C142.614 565.361 142.194 565.506 141.641 565.506ZM153.507 565.543C152.565 565.543 151.786 565.399 151.171 565.11C150.568 564.821 150.116 564.388 149.814 563.81C149.513 563.22 149.362 562.485 149.362 561.606V558.536H148.722C148.32 558.536 148.006 558.429 147.78 558.216C147.567 558.002 147.46 557.694 147.46 557.293C147.46 556.891 147.567 556.589 147.78 556.388C148.006 556.175 148.32 556.068 148.722 556.068H149.362V554.9C149.362 554.348 149.507 553.927 149.796 553.638C150.084 553.349 150.499 553.205 151.039 553.205C151.579 553.205 151.993 553.349 152.282 553.638C152.571 553.927 152.715 554.348 152.715 554.9V556.068H154.26C154.675 556.068 154.988 556.175 155.202 556.388C155.428 556.589 155.541 556.891 155.541 557.293C155.541 557.694 155.428 558.002 155.202 558.216C154.988 558.429 154.675 558.536 154.26 558.536H152.715V561.493C152.715 561.958 152.822 562.303 153.036 562.529C153.262 562.743 153.613 562.85 154.091 562.85C154.266 562.85 154.436 562.831 154.599 562.793C154.762 562.755 154.913 562.737 155.051 562.737C155.252 562.724 155.415 562.787 155.541 562.925C155.667 563.05 155.729 563.346 155.729 563.81C155.729 564.187 155.673 564.507 155.56 564.771C155.447 565.022 155.246 565.204 154.957 565.317C154.781 565.38 154.543 565.43 154.241 565.468C153.94 565.518 153.695 565.543 153.507 565.543ZM163.508 565.75C163.395 566.077 163.225 566.316 162.999 566.466C162.773 566.617 162.528 566.686 162.264 566.674C162.001 566.674 161.756 566.604 161.53 566.466C161.316 566.341 161.159 566.146 161.059 565.882C160.958 565.631 160.958 565.336 161.059 564.997L165.241 551.962C165.341 551.635 165.504 551.396 165.73 551.246C165.969 551.095 166.214 551.026 166.465 551.039C166.729 551.039 166.974 551.108 167.2 551.246C167.426 551.371 167.589 551.56 167.689 551.811C167.79 552.062 167.784 552.363 167.671 552.715L163.508 565.75ZM176.049 565.336C175.459 565.336 175.006 565.185 174.693 564.884C174.391 564.57 174.24 564.124 174.24 563.547V553.845C174.24 553.268 174.391 552.828 174.693 552.527C175.006 552.213 175.459 552.056 176.049 552.056H182.435C182.887 552.056 183.226 552.169 183.452 552.395C183.678 552.621 183.791 552.947 183.791 553.374C183.791 553.814 183.678 554.153 183.452 554.392C183.226 554.618 182.887 554.731 182.435 554.731H177.556V557.255H182.02C182.46 557.255 182.793 557.368 183.019 557.594C183.257 557.82 183.377 558.153 183.377 558.592C183.377 559.032 183.257 559.365 183.019 559.591C182.793 559.817 182.46 559.93 182.02 559.93H177.556V562.661H182.435C182.887 562.661 183.226 562.78 183.452 563.019C183.678 563.245 183.791 563.572 183.791 563.999C183.791 564.438 183.678 564.771 183.452 564.997C183.226 565.223 182.887 565.336 182.435 565.336H176.049ZM187.243 565.506C186.716 565.506 186.307 565.361 186.019 565.072C185.73 564.783 185.585 564.363 185.585 563.81V557.575C185.585 557.035 185.723 556.621 186 556.332C186.289 556.043 186.697 555.899 187.224 555.899C187.752 555.899 188.154 556.043 188.43 556.332C188.706 556.621 188.844 557.035 188.844 557.575V558.46L188.637 557.688C188.938 557.098 189.365 556.646 189.918 556.332C190.483 556.018 191.124 555.861 191.839 555.861C192.58 555.861 193.189 556.005 193.667 556.294C194.144 556.57 194.502 557.01 194.74 557.613C194.979 558.203 195.098 558.95 195.098 559.854V563.81C195.098 564.363 194.954 564.783 194.665 565.072C194.376 565.361 193.962 565.506 193.422 565.506C192.882 565.506 192.467 565.361 192.178 565.072C191.89 564.783 191.745 564.363 191.745 563.81V559.986C191.745 559.421 191.645 559.019 191.444 558.781C191.255 558.542 190.973 558.423 190.596 558.423C190.094 558.423 189.692 558.586 189.39 558.913C189.089 559.226 188.938 559.653 188.938 560.193V563.81C188.938 564.94 188.373 565.506 187.243 565.506ZM200.626 565.543C199.835 565.543 199.131 565.349 198.516 564.959C197.913 564.57 197.436 564.011 197.085 563.283C196.745 562.554 196.576 561.694 196.576 560.702C196.576 559.685 196.745 558.818 197.085 558.103C197.436 557.387 197.913 556.834 198.516 556.445C199.131 556.056 199.835 555.861 200.626 555.861C201.317 555.861 201.938 556.024 202.491 556.351C203.043 556.677 203.414 557.098 203.602 557.613H203.395V553.582C203.395 553.029 203.539 552.608 203.828 552.319C204.117 552.031 204.532 551.886 205.072 551.886C205.599 551.886 206.007 552.031 206.296 552.319C206.597 552.608 206.748 553.029 206.748 553.582V563.81C206.748 564.363 206.604 564.783 206.315 565.072C206.039 565.361 205.63 565.506 205.09 565.506C204.563 565.506 204.155 565.361 203.866 565.072C203.577 564.783 203.433 564.363 203.433 563.81V562.737L203.64 563.66C203.464 564.225 203.094 564.683 202.528 565.035C201.976 565.374 201.342 565.543 200.626 565.543ZM201.7 563.076C202.039 563.076 202.34 562.994 202.604 562.831C202.868 562.655 203.068 562.397 203.207 562.058C203.357 561.707 203.433 561.255 203.433 560.702C203.433 559.861 203.269 559.258 202.943 558.894C202.616 558.517 202.202 558.329 201.7 558.329C201.361 558.329 201.059 558.41 200.795 558.573C200.532 558.737 200.325 558.994 200.174 559.346C200.023 559.685 199.948 560.137 199.948 560.702C199.948 561.531 200.111 562.134 200.438 562.51C200.764 562.887 201.185 563.076 201.7 563.076Z" fill="black"/>
<path d="M112.656 565.43L113.505 559.209L113.443 559.2L113.382 559.193L112.656 565.43ZM109.793 564.639L112.528 558.987L112.517 558.982L109.793 564.639ZM109.077 563.999L103.461 566.807L103.487 566.86L103.515 566.912L109.077 563.999ZM108.926 563.132L115.157 563.911V563.911L108.926 563.132ZM109.247 562.341L114.203 566.196L114.253 566.131L114.302 566.066L109.247 562.341ZM109.944 561.87L111.529 567.946L111.651 567.914L111.772 567.877L109.944 561.87ZM110.923 561.983L113.611 556.308L113.552 556.28L113.492 556.253L110.923 561.983ZM112.543 562.51L113.824 556.363H113.824L112.543 562.51ZM115.972 562.379L119.408 567.634L119.431 567.619L119.455 567.603L115.972 562.379ZM116.122 560.853L112.267 565.809L112.332 565.859L112.398 565.908L116.122 560.853ZM114.898 560.401L113.586 566.541L113.591 566.542L114.898 560.401ZM112.694 559.93L114.006 553.789L113.99 553.786L113.975 553.783L112.694 559.93ZM110 558.611L114.575 554.311L114.575 554.311L110 558.611ZM109.51 554.41L103.92 551.55L103.907 551.576L103.894 551.602L109.51 554.41ZM110.66 553.035L106.892 548.012L106.861 548.035L106.831 548.058L110.66 553.035ZM112.43 552.169L114.214 558.189L114.249 558.179L114.284 558.168L112.43 552.169ZM116.706 552.075L115.32 558.199L115.386 558.214L115.453 558.227L116.706 552.075ZM118.458 552.715L115.268 558.124L115.409 558.207L115.554 558.282L118.458 552.715ZM119.08 553.337L113.411 556.036L113.411 556.036L119.08 553.337ZM119.231 554.166L125.484 554.734L125.485 554.722L125.486 554.71L119.231 554.166ZM118.929 554.9L114.082 550.909L114.01 550.996L113.941 551.086L118.929 554.9ZM118.251 555.333L119.643 561.456L119.74 561.434L119.836 561.409L118.251 555.333ZM117.253 555.183L114.684 560.912L114.754 560.944L114.824 560.973L117.253 555.183ZM116.009 554.825L114.811 560.989L114.907 561.007L115.004 561.023L116.009 554.825ZM113.504 554.863L115.351 560.864L115.455 560.832L115.558 560.796L113.504 554.863ZM112.75 555.315L108.025 551.18L107.949 551.266L107.877 551.355L112.75 555.315ZM112.826 556.69L108.671 561.398L108.817 561.527L108.971 561.646L112.826 556.69ZM114.05 557.142L115.373 551.004L115.365 551.002L115.357 551L114.05 557.142ZM116.235 557.613L117.564 551.476L117.558 551.475L116.235 557.613ZM119.475 563.038L125.092 565.846L125.092 565.846L119.475 563.038ZM118.345 564.394L122.092 569.433L122.133 569.402L122.174 569.371L118.345 564.394ZM116.574 565.242L118.328 571.271H118.328L116.574 565.242ZM114.239 565.543V559.264C114.049 559.264 113.806 559.25 113.505 559.209L112.656 565.43L111.808 571.652C112.611 571.761 113.424 571.822 114.239 571.822V565.543ZM112.656 565.43L113.382 559.193C113.15 559.166 112.964 559.127 112.816 559.086L111.112 565.129L109.407 571.172C110.239 571.407 111.082 571.569 111.931 571.667L112.656 565.43ZM111.112 565.129L112.816 559.086C112.62 559.03 112.534 558.99 112.528 558.987L109.793 564.639L107.058 570.291C107.831 570.665 108.623 570.951 109.407 571.172L111.112 565.129ZM109.793 564.639L112.517 558.982C113.07 559.248 114.002 559.869 114.639 561.085L109.077 563.999L103.515 566.912C104.428 568.656 105.838 569.704 107.069 570.297L109.793 564.639ZM109.077 563.999L114.693 561.191C115.1 562.003 115.276 562.96 115.157 563.911L108.926 563.132L102.696 562.353C102.502 563.907 102.778 565.442 103.461 566.807L109.077 563.999ZM108.926 563.132L115.157 563.911C115.063 564.66 114.764 565.475 114.203 566.196L109.247 562.341L104.29 558.486C103.378 559.659 102.865 561.001 102.696 562.353L108.926 563.132ZM109.247 562.341L114.302 566.066C113.618 566.994 112.621 567.661 111.529 567.946L109.944 561.87L108.359 555.794C106.689 556.23 105.227 557.211 104.192 558.616L109.247 562.341ZM109.944 561.87L111.772 567.877C110.197 568.356 108.922 567.967 108.355 567.713L110.923 561.983L113.492 556.253C112.196 555.672 110.268 555.208 108.115 555.863L109.944 561.87ZM110.923 561.983L108.235 567.658C109.228 568.128 110.252 568.447 111.263 568.658L112.543 562.51L113.824 556.363C113.629 556.323 113.573 556.29 113.611 556.308L110.923 561.983ZM112.543 562.51L111.263 568.658C112.219 568.857 113.216 568.978 114.239 568.978V562.699V556.42C114.206 556.42 114.074 556.415 113.824 556.363L112.543 562.51ZM114.239 562.699V568.978C115.19 568.978 117.42 568.934 119.408 567.634L115.972 562.379L112.535 557.123C112.955 556.849 113.328 556.69 113.583 556.6C113.842 556.508 114.042 556.465 114.153 556.444C114.358 556.406 114.413 556.42 114.239 556.42V562.699ZM115.972 562.379L119.455 567.603C121.049 566.54 122.759 564.505 122.759 561.55H116.48H110.201C110.201 560.563 110.475 559.575 111.001 558.718C111.497 557.909 112.091 557.419 112.489 557.154L115.972 562.379ZM116.48 561.55H122.759C122.759 559.205 121.642 557.121 119.847 555.798L116.122 560.853L112.398 565.908C111.842 565.498 111.245 564.884 110.805 564.027C110.362 563.165 110.201 562.296 110.201 561.55H116.48ZM116.122 560.853L119.977 555.896C118.548 554.784 116.916 554.41 116.205 554.259L114.898 560.401L113.591 566.542C113.695 566.564 113.635 566.559 113.472 566.498C113.385 566.466 113.235 566.406 113.044 566.308C112.858 566.212 112.581 566.054 112.267 565.809L116.122 560.853ZM114.898 560.401L116.21 554.26L114.006 553.789L112.694 559.93L111.382 566.07L113.586 566.541L114.898 560.401ZM112.694 559.93L113.975 553.783C113.771 553.74 113.762 553.716 113.877 553.772C114.002 553.833 114.275 553.992 114.575 554.311L110 558.611L105.425 562.912C107.203 564.803 109.466 565.671 111.413 566.077L112.694 559.93ZM110 558.611L114.575 554.311C114.863 554.617 115.092 554.989 115.236 555.383C115.374 555.762 115.394 556.053 115.394 556.181H109.115H102.836C102.836 558.512 103.575 560.943 105.425 562.912L110 558.611ZM109.115 556.181H115.394C115.394 556.397 115.344 556.784 115.127 557.219L109.51 554.41L103.894 551.602C103.149 553.092 102.836 554.659 102.836 556.181H109.115ZM109.51 554.41L115.1 557.27C114.945 557.574 114.721 557.833 114.488 558.012L110.66 553.035L106.831 548.058C105.619 548.991 104.628 550.167 103.92 551.55L109.51 554.41ZM110.66 553.035L114.427 558.059C114.262 558.182 114.161 558.205 114.214 558.189L112.43 552.169L110.646 546.148C109.343 546.535 108.062 547.135 106.892 548.012L110.66 553.035ZM112.43 552.169L114.284 558.168C114.286 558.168 114.415 558.128 114.728 558.128V551.849V545.569C113.359 545.569 111.956 545.743 110.576 546.17L112.43 552.169ZM114.728 551.849V558.128C114.894 558.128 115.089 558.146 115.32 558.199L116.706 552.075L118.093 545.951C116.993 545.701 115.868 545.569 114.728 545.569V551.849ZM116.706 552.075L115.453 558.227C115.592 558.256 115.492 558.256 115.268 558.124L118.458 552.715L121.648 547.306C120.444 546.597 119.177 546.17 117.96 545.922L116.706 552.075ZM118.458 552.715L115.554 558.282C114.781 557.879 113.938 557.144 113.411 556.036L119.08 553.337L124.749 550.637C123.97 549.002 122.713 547.853 121.363 547.148L118.458 552.715ZM119.08 553.337L113.411 556.036C113.059 555.298 112.902 554.456 112.975 553.622L119.231 554.166L125.486 554.71C125.609 553.298 125.352 551.903 124.749 550.637L119.08 553.337ZM119.231 554.166L112.977 553.597C113.066 552.621 113.453 551.672 114.082 550.909L118.929 554.9L123.776 558.892C124.757 557.701 125.345 556.263 125.484 554.734L119.231 554.166ZM118.929 554.9L113.941 551.086C114.723 550.064 115.759 549.494 116.666 549.258L118.251 555.333L119.836 561.409C121.321 561.022 122.809 560.164 123.917 558.714L118.929 554.9ZM118.251 555.333L116.859 549.21C118.347 548.872 119.423 549.284 119.681 549.392L117.253 555.183L114.824 560.973C115.86 561.408 117.603 561.92 119.643 561.456L118.251 555.333ZM117.253 555.183L119.821 549.453C118.879 549.031 117.925 548.774 117.014 548.627L116.009 554.825L115.004 561.023C115.023 561.026 114.898 561.008 114.684 560.912L117.253 555.183ZM116.009 554.825L117.208 548.661C116.392 548.502 115.55 548.414 114.691 548.414V554.693V560.972C114.685 560.972 114.723 560.971 114.811 560.989L116.009 554.825ZM114.691 554.693V548.414C113.752 548.414 112.621 548.524 111.45 548.929L113.504 554.863L115.558 560.796C115.04 560.975 114.7 560.972 114.691 560.972V554.693ZM113.504 554.863L111.657 548.861C110.524 549.21 109.156 549.887 108.025 551.18L112.75 555.315L117.476 559.449C116.697 560.34 115.831 560.716 115.351 560.864L113.504 554.863ZM112.75 555.315L107.877 551.355C106.786 552.698 106.226 554.335 106.226 556.012H112.506H118.785C118.785 557.161 118.388 558.333 117.624 559.274L112.75 555.315ZM112.506 556.012H106.226C106.226 558.232 107.228 560.125 108.671 561.398L112.826 556.69L116.98 551.981C117.425 552.374 117.905 552.938 118.264 553.698C118.628 554.469 118.785 555.268 118.785 556.012H112.506ZM112.826 556.69L108.971 561.646C110.4 562.758 112.032 563.132 112.744 563.283L114.05 557.142L115.357 551C115.253 550.978 115.313 550.984 115.476 551.044C115.564 551.076 115.714 551.136 115.904 551.234C116.09 551.33 116.367 551.489 116.681 551.733L112.826 556.69ZM114.05 557.142L112.727 563.28L114.912 563.751L116.235 557.613L117.558 551.475L115.373 551.004L114.05 557.142ZM116.235 557.613L114.907 563.75C115.149 563.802 115.204 563.839 115.134 563.805C115.058 563.769 114.815 563.64 114.527 563.353L118.967 558.913L123.407 554.473C121.643 552.709 119.446 551.883 117.564 551.476L116.235 557.613ZM118.967 558.913L114.527 563.353C114.215 563.041 113.952 562.645 113.783 562.204C113.62 561.779 113.592 561.439 113.592 561.267H119.871H126.15C126.15 558.878 125.349 556.415 123.407 554.473L118.967 558.913ZM119.871 561.267H113.592C113.592 561.052 113.642 560.664 113.859 560.23L119.475 563.038L125.092 565.846C125.836 564.356 126.15 562.789 126.15 561.267H119.871ZM119.475 563.038L113.859 560.23C114.04 559.868 114.291 559.591 114.517 559.417L118.345 564.394L122.174 569.371C123.379 568.444 124.383 567.263 125.092 565.846L119.475 563.038ZM118.345 564.394L114.598 559.355C114.805 559.202 114.919 559.184 114.821 559.213L116.574 565.242L118.328 571.271C119.612 570.898 120.906 570.315 122.092 569.433L118.345 564.394ZM116.574 565.242L114.821 559.213C114.802 559.218 114.629 559.264 114.239 559.264V565.543V571.822C115.582 571.822 116.965 571.668 118.328 571.271L116.574 565.242ZM123.724 565.11L121.011 570.773L121.034 570.783L121.056 570.794L123.724 565.11ZM122.368 563.81L116.776 566.666L116.788 566.69L116.801 566.715L122.368 563.81ZM121.916 558.536H128.195V552.257H121.916V558.536ZM120.334 558.216L115.894 562.656L115.957 562.719L116.022 562.781L120.334 558.216ZM120.334 556.388L124.637 560.961L124.645 560.953L120.334 556.388ZM121.916 556.068V562.347H128.195V556.068H121.916ZM124.836 553.638L120.396 558.078L120.396 558.078L124.836 553.638ZM125.269 556.068H118.99V562.347H125.269V556.068ZM127.755 556.388L123.315 560.828L123.446 560.959L123.584 561.081L127.755 556.388ZM127.755 558.216L123.444 553.651L123.379 553.712L123.315 553.776L127.755 558.216ZM125.269 558.536V552.257H118.99V558.536H125.269ZM125.589 562.529L121.024 566.841L121.147 566.971L121.278 567.094L125.589 562.529ZM127.153 562.793L128.565 568.911L128.565 568.911L127.153 562.793ZM127.605 562.737V569.016H127.801L127.996 569.003L127.605 562.737ZM128.094 562.925L123.448 567.149L123.549 567.259L123.654 567.365L128.094 562.925ZM128.113 564.771L133.839 567.348L133.863 567.296L133.885 567.244L128.113 564.771ZM127.511 565.317L129.622 571.231L129.711 571.199L129.799 571.165L127.511 565.317ZM126.795 565.468L126.016 559.237L125.889 559.253L125.762 559.274L126.795 565.468ZM126.06 565.543V559.264C125.903 559.264 125.864 559.252 125.915 559.261C125.968 559.271 126.143 559.309 126.392 559.426L123.724 565.11L121.056 570.794C122.764 571.595 124.53 571.822 126.06 571.822V565.543ZM123.724 565.11L126.438 559.447C126.696 559.571 126.992 559.761 127.278 560.035C127.565 560.31 127.782 560.614 127.935 560.906L122.368 563.81L116.801 566.715C117.748 568.529 119.218 569.913 121.011 570.773L123.724 565.11ZM122.368 563.81L127.96 560.955C128.233 561.489 128.195 561.803 128.195 561.606H121.916H115.637C115.637 563.167 115.9 564.951 116.776 566.666L122.368 563.81ZM121.916 561.606H128.195V558.536H121.916H115.637V561.606H121.916ZM121.916 558.536V552.257H121.275V558.536V564.815H121.916V558.536ZM121.275 558.536V552.257C121.991 552.257 123.395 552.47 124.645 553.651L120.334 558.216L116.022 562.781C117.724 564.388 119.756 564.815 121.275 564.815V558.536ZM120.334 558.216L124.774 553.776C126.087 555.089 126.292 556.599 126.292 557.293H120.013H113.734C113.734 558.79 114.153 560.915 115.894 562.656L120.334 558.216ZM120.013 557.293H126.292C126.292 557.959 126.097 559.587 124.637 560.961L120.334 556.388L116.03 551.816C114.143 553.592 113.734 555.822 113.734 557.293H120.013ZM120.334 556.388L124.645 560.953C123.395 562.134 121.991 562.347 121.275 562.347V556.068V549.789C119.756 549.789 117.724 550.216 116.022 551.823L120.334 556.388ZM121.275 556.068V562.347H121.916V556.068V549.789H121.275V556.068ZM121.916 556.068H128.195V554.9H121.916H115.637V556.068H121.916ZM121.916 554.9H128.195C128.195 555.409 128.045 556.822 126.789 558.078L122.349 553.638L117.909 549.198C116.075 551.032 115.637 553.286 115.637 554.9H121.916ZM122.349 553.638L126.789 558.078C125.558 559.309 124.162 559.484 123.592 559.484V553.205V546.926C121.943 546.926 119.717 547.39 117.909 549.198L122.349 553.638ZM123.592 553.205V559.484C123.023 559.484 121.626 559.309 120.396 558.078L124.836 553.638L129.276 549.198C127.467 547.39 125.242 546.926 123.592 546.926V553.205ZM124.836 553.638L120.396 558.078C119.14 556.822 118.99 555.409 118.99 554.9H125.269H131.548C131.548 553.286 131.109 551.032 129.276 549.198L124.836 553.638ZM125.269 554.9H118.99V556.068H125.269H131.548V554.9H125.269ZM125.269 556.068V562.347H126.814V556.068V549.789H125.269V556.068ZM126.814 556.068V562.347C126.197 562.347 124.663 562.176 123.315 560.828L127.755 556.388L132.195 551.948C130.421 550.174 128.259 549.789 126.814 549.789V556.068ZM127.755 556.388L123.584 561.081C122.066 559.732 121.815 558.063 121.815 557.293H128.094H134.374C134.374 555.719 133.897 553.446 131.927 551.695L127.755 556.388ZM128.094 557.293H121.815C121.815 556.499 122.073 554.945 123.444 553.651L127.755 558.216L132.067 562.781C133.89 561.059 134.374 558.889 134.374 557.293H128.094ZM127.755 558.216L123.315 553.776C124.663 552.428 126.197 552.257 126.814 552.257V558.536V564.815C128.259 564.815 130.421 564.43 132.195 562.656L127.755 558.216ZM126.814 558.536V552.257H125.269V558.536V564.815H126.814V558.536ZM125.269 558.536H118.99V561.493H125.269H131.548V558.536H125.269ZM125.269 561.493H118.99C118.99 562.783 119.272 564.985 121.024 566.841L125.589 562.529L130.154 558.218C131.479 559.621 131.548 561.132 131.548 561.493H125.269ZM125.589 562.529L121.278 567.094C123.159 568.871 125.396 569.129 126.644 569.129V562.85V556.57C126.938 556.57 128.471 556.614 129.901 557.964L125.589 562.529ZM126.644 562.85V569.129C127.272 569.129 127.916 569.061 128.565 568.911L127.153 562.793L125.741 556.675C126.063 556.6 126.368 556.57 126.644 556.57V562.85ZM127.153 562.793L128.565 568.911C128.359 568.959 128.03 569.016 127.605 569.016V562.737V556.457C126.903 556.457 126.273 556.552 125.741 556.675L127.153 562.793ZM127.605 562.737L127.996 569.003C127.332 569.045 126.503 568.973 125.624 568.635C124.73 568.291 123.999 567.754 123.448 567.149L128.094 562.925L132.741 558.701C131.222 557.031 129.145 556.349 127.213 556.47L127.605 562.737ZM128.094 562.925L123.654 567.365C123.011 566.721 122.647 566.065 122.446 565.617C122.243 565.164 122.144 564.782 122.094 564.547C122.042 564.303 122.022 564.116 122.013 564.011C122.004 563.901 122.004 563.831 122.004 563.81H128.283H134.562C134.562 563.347 134.535 562.675 134.377 561.934C134.25 561.337 133.866 559.817 132.534 558.485L128.094 562.925ZM128.283 563.81H122.004C122.004 563.59 122.033 563.019 122.342 562.297L128.113 564.771L133.885 567.244C134.42 565.996 134.562 564.784 134.562 563.81H128.283ZM128.113 564.771L122.387 562.194C122.68 561.544 123.111 560.942 123.661 560.443C124.201 559.954 124.758 559.652 125.222 559.47L127.511 565.317L129.799 571.165C131.407 570.535 132.965 569.29 133.839 567.348L128.113 564.771ZM127.511 565.317L125.399 559.404C125.644 559.316 125.827 559.274 125.906 559.258C125.992 559.239 126.034 559.235 126.016 559.237L126.795 565.468L127.574 571.699C128.085 571.635 128.832 571.513 129.622 571.231L127.511 565.317ZM126.795 565.468L125.762 559.274C125.712 559.283 125.709 559.282 125.744 559.278C125.774 559.275 125.887 559.264 126.06 559.264V565.543V571.822C126.74 571.822 127.366 571.738 127.827 571.662L126.795 565.468ZM130.539 565.148L127.784 570.79L127.809 570.802L127.835 570.814L130.539 565.148ZM129.258 564.074L123.99 567.491L124.044 567.574L124.101 567.656L129.258 564.074ZM131.029 560.062L132.318 566.207L132.365 566.197L132.412 566.187L131.029 560.062ZM135.173 559.798H141.452V553.519H135.173V559.798ZM135.173 561.38V567.659H141.452V561.38H135.173ZM132.913 561.493L134.144 567.65L134.235 567.632L134.325 567.612L132.913 561.493ZM132.216 561.813L136.459 566.442L136.559 566.35L136.656 566.253L132.216 561.813ZM132.291 563.076L127.997 567.656L128.066 567.721L128.137 567.784L132.291 563.076ZM134.024 563.151L130.998 557.649L130.938 557.682L130.878 557.717L134.024 563.151ZM134.627 562.586L139.936 565.939L139.974 565.878L140.011 565.816L134.627 562.586ZM134.495 558.573L130.475 563.397L130.539 563.45L130.604 563.502L134.495 558.573ZM132.291 558.404L133.323 564.598L133.423 564.581L133.523 564.561L132.291 558.404ZM131.029 558.762L133.21 564.65L133.23 564.642L133.251 564.635L131.029 558.762ZM129.597 558.366L124.185 561.55L124.253 561.665L124.326 561.777L129.597 558.366ZM129.409 557.669L123.138 557.356L123.13 557.512V557.669H129.409ZM129.654 556.953L124.564 553.277L124.495 553.373L124.429 553.47L129.654 556.953ZM130.389 556.426L128.184 550.547L128.159 550.556L128.134 550.565L130.389 556.426ZM132.046 555.974L131.137 549.761L131.126 549.763L131.115 549.764L132.046 555.974ZM136.002 556.313L133.412 562.033L133.476 562.062L133.541 562.09L136.002 556.313ZM137.509 557.669L131.962 560.612L131.999 560.68L132.036 560.748L137.509 557.669ZM137.622 565.072L132.985 560.839L132.985 560.839L137.622 565.072ZM135.286 565.072L130.649 569.306L130.698 569.36L130.749 569.413L135.286 565.072ZM134.891 563.32L140.662 560.847L128.612 563.32H134.891ZM135.004 563.584L141.207 564.554L141.486 562.77L140.775 561.111L135.004 563.584ZM134.57 564.62L139.515 568.49L139.515 568.49L134.57 564.62ZM133.685 565.298L131.117 559.569L131.117 559.569L133.685 565.298ZM132.442 565.543V559.264C132.504 559.264 132.82 559.279 133.244 559.481L130.539 565.148L127.835 570.814C129.363 571.544 130.947 571.822 132.442 571.822V565.543ZM130.539 565.148L133.295 559.505C133.627 559.668 134.063 559.984 134.416 560.492L129.258 564.074L124.101 567.656C125.082 569.068 126.371 570.1 127.784 570.79L130.539 565.148ZM129.258 564.074L134.526 560.657C134.929 561.278 135.085 561.953 135.085 562.492H128.806H122.527C122.527 564.211 122.985 565.941 123.99 567.491L129.258 564.074ZM128.806 562.492H135.085C135.085 562.9 134.96 564.029 133.993 565.099L129.334 560.89L124.674 556.682C123.004 558.531 122.527 560.727 122.527 562.492H128.806ZM129.334 560.89L133.993 565.099C133.537 565.605 133.076 565.887 132.779 566.032C132.63 566.105 132.512 566.149 132.437 566.173C132.362 566.198 132.32 566.207 132.318 566.207L131.029 560.062L129.74 553.916C128.295 554.219 126.269 554.915 124.674 556.682L129.334 560.89ZM131.029 560.062L132.412 566.187C132.546 566.156 133.06 566.077 134.137 566.077V559.798V553.519C132.627 553.519 131.07 553.615 129.646 553.937L131.029 560.062ZM134.137 559.798V566.077H135.173V559.798V553.519H134.137V559.798ZM135.173 559.798H128.894V561.38H135.173H141.452V559.798H135.173ZM135.173 561.38V555.101H134.137V561.38V567.659H135.173V561.38ZM134.137 561.38V555.101C133.369 555.101 132.449 555.156 131.501 555.375L132.913 561.493L134.325 567.612C134.24 567.631 134.173 567.643 134.128 567.65C134.082 567.657 134.052 567.66 134.041 567.661C134.02 567.663 134.049 567.659 134.137 567.659V561.38ZM132.913 561.493L131.681 555.336C130.724 555.527 129.141 556.009 127.776 557.373L132.216 561.813L136.656 566.253C135.592 567.317 134.473 567.585 134.144 567.65L132.913 561.493ZM132.216 561.813L127.973 557.185C126.379 558.645 125.711 560.581 125.711 562.36H131.99H138.269C138.269 562.95 138.168 563.681 137.848 564.454C137.522 565.243 137.034 565.915 136.459 566.442L132.216 561.813ZM131.99 562.36H125.711C125.711 564.289 126.462 566.217 127.997 567.656L132.291 563.076L136.586 558.495C137.086 558.964 137.539 559.575 137.852 560.319C138.162 561.055 138.269 561.764 138.269 562.36H131.99ZM132.291 563.076L128.137 567.784C129.86 569.304 131.841 569.637 133.195 569.637V563.358V557.079C133.771 557.079 135.149 557.223 136.445 558.367L132.291 563.076ZM133.195 563.358V569.637C134.458 569.637 135.849 569.35 137.17 568.585L134.024 563.151L130.878 557.717C131.722 557.228 132.56 557.079 133.195 557.079V563.358ZM134.024 563.151L137.05 568.653C138.216 568.011 139.209 567.09 139.936 565.939L134.627 562.586L129.318 559.233C129.744 558.559 130.334 558.014 130.998 557.649L134.024 563.151ZM134.627 562.586L140.011 565.816C140.813 564.48 141.132 563.05 141.132 561.719H134.853H128.574C128.574 561.042 128.742 560.189 129.243 559.355L134.627 562.586ZM134.853 561.719H141.132V559.534H134.853H128.574V561.719H134.853ZM134.853 559.534H141.132C141.132 558.125 140.755 555.516 138.386 553.645L134.495 558.573L130.604 563.502C128.712 562.008 128.574 560.039 128.574 559.534H134.853ZM134.495 558.573L138.515 553.75C136.507 552.076 134.174 552.012 133.308 552.012V558.291V564.57C133.276 564.57 132.997 564.571 132.574 564.47C132.169 564.373 131.335 564.114 130.475 563.397L134.495 558.573ZM133.308 558.291V552.012C132.499 552.012 131.737 552.111 131.06 552.247L132.291 558.404L133.523 564.561C133.555 564.555 133.553 564.556 133.521 564.56C133.49 564.563 133.417 564.57 133.308 564.57V558.291ZM132.291 558.404L131.259 552.21C130.376 552.357 129.549 552.608 128.807 552.889L131.029 558.762L133.251 564.635C133.338 564.602 133.389 564.586 133.406 564.581C133.424 564.576 133.395 564.586 133.323 564.598L132.291 558.404ZM131.029 558.762L128.848 552.874C129.329 552.696 130.676 552.316 132.333 552.926L130.162 558.818L127.992 564.71C130.126 565.497 132.051 565.079 133.21 564.65L131.029 558.762ZM130.162 558.818L132.333 552.926C133.369 553.308 134.269 554.028 134.869 554.955L129.597 558.366L124.326 561.777C125.202 563.132 126.478 564.153 127.992 564.71L130.162 558.818ZM129.597 558.366L135.01 555.183C135.46 555.948 135.688 556.817 135.688 557.669H129.409H123.13C123.13 559.023 123.484 560.357 124.185 561.55L129.597 558.366ZM129.409 557.669L135.68 557.983C135.632 558.954 135.304 559.798 134.878 560.436L129.654 556.953L124.429 553.47C123.702 554.561 123.211 555.882 123.138 557.356L129.409 557.669ZM129.654 556.953L134.744 560.63C134.032 561.616 133.164 562.086 132.643 562.287L130.389 556.426L128.134 550.565C126.96 551.017 125.602 551.839 124.564 553.277L129.654 556.953ZM130.389 556.426L132.593 562.305C132.888 562.195 133.007 562.179 132.978 562.184L132.046 555.974L131.115 549.764C130.08 549.919 129.095 550.205 128.184 550.547L130.389 556.426ZM132.046 555.974L132.955 562.187C133.232 562.146 133.394 562.14 133.459 562.14V555.861V549.582C132.67 549.582 131.89 549.651 131.137 549.761L132.046 555.974ZM133.459 555.861V562.14C133.564 562.14 133.642 562.144 133.695 562.148C133.748 562.152 133.771 562.157 133.768 562.156C133.765 562.156 133.731 562.149 133.671 562.132C133.611 562.114 133.522 562.083 133.412 562.033L136.002 556.313L138.592 550.593C136.851 549.805 135.041 549.582 133.459 549.582V555.861ZM136.002 556.313L133.541 562.09C133.301 561.987 132.995 561.813 132.687 561.536C132.375 561.255 132.133 560.933 131.962 560.612L137.509 557.669L143.056 554.726C142.014 552.763 140.381 551.353 138.463 550.536L136.002 556.313ZM137.509 557.669L132.036 560.748C131.857 560.429 131.784 560.172 131.755 560.041C131.728 559.916 131.739 559.892 131.739 560.005H138.018H144.297C144.297 558.363 144.013 556.424 142.982 554.591L137.509 557.669ZM138.018 560.005H131.739V563.81H138.018H144.297V560.005H138.018ZM138.018 563.81H131.739C131.739 563.441 131.826 562.108 132.985 560.839L137.622 565.072L142.259 569.306C143.946 567.459 144.297 565.284 144.297 563.81H138.018ZM137.622 565.072L132.985 560.839C134.228 559.477 135.744 559.226 136.473 559.226V565.506V571.785C138.207 571.785 140.488 571.245 142.259 569.306L137.622 565.072ZM136.473 565.506V559.226C137.152 559.226 138.599 559.451 139.824 560.732L135.286 565.072L130.749 569.413C132.526 571.271 134.764 571.785 136.473 571.785V565.506ZM135.286 565.072L139.923 560.839C141.083 562.108 141.17 563.441 141.17 563.81H134.891H128.612C128.612 565.284 128.962 567.459 130.649 569.306L135.286 565.072ZM134.891 563.81H141.17V563.32H134.891H128.612V563.81H134.891ZM134.891 563.32L129.119 565.794L129.232 566.058L135.004 563.584L140.775 561.111L140.662 560.847L134.891 563.32ZM135.004 563.584L128.8 562.615C128.884 562.076 129.122 561.394 129.626 560.75L134.57 564.62L139.515 568.49C140.471 567.268 140.998 565.896 141.207 564.554L135.004 563.584ZM134.57 564.62L129.626 560.75C130.083 560.166 130.633 559.785 131.117 559.569L133.685 565.298L136.254 571.028C137.465 570.485 138.606 569.652 139.515 568.49L134.57 564.62ZM133.685 565.298L131.117 559.569C131.682 559.315 132.165 559.264 132.442 559.264V565.543V571.822C133.648 571.822 134.96 571.608 136.254 571.028L133.685 565.298ZM140.36 565.072L135.92 569.512L135.967 569.56L136.016 569.606L140.36 565.072ZM140.341 556.332L135.901 551.892L135.852 551.941L135.804 551.992L140.341 556.332ZM142.771 556.332L138.234 560.672L138.234 560.672L142.771 556.332ZM143.186 558.347V564.627H149.465V558.347H143.186ZM142.997 558.347L136.804 557.315L135.585 564.627H142.997V558.347ZM143.958 556.558L139.938 551.734L139.91 551.758L139.881 551.782L143.958 556.558ZM145.917 555.861L146.12 562.137L146.134 562.136L145.917 555.861ZM146.727 556.143L142.002 560.278L142.139 560.436L142.287 560.583L146.727 556.143ZM147.029 557.217H153.308V557.142L153.306 557.068L147.029 557.217ZM146.746 558.291L151.856 561.941V561.941L146.746 558.291ZM145.672 558.762L146.216 565.017L146.242 565.015L146.268 565.013L145.672 558.762ZM145.239 558.8L144.695 552.544L144.672 552.546L144.649 552.548L145.239 558.8ZM143.789 559.365L148.229 563.805L148.274 563.759L148.318 563.713L143.789 559.365ZM142.903 565.072L138.463 560.632L142.903 565.072ZM141.641 565.506V559.226C142.168 559.226 143.499 559.383 144.705 560.539L140.36 565.072L136.016 569.606C137.825 571.339 140.009 571.785 141.641 571.785V565.506ZM140.36 565.072L144.8 560.632C146.056 561.888 146.206 563.301 146.206 563.81H139.927H133.648C133.648 565.424 134.086 567.679 135.92 569.512L140.36 565.072ZM139.927 563.81H146.206V557.575H139.927H133.648V563.81H139.927ZM139.927 557.575H146.206C146.206 558.072 146.065 559.432 144.879 560.672L140.341 556.332L135.804 551.992C134.065 553.81 133.648 555.998 133.648 557.575H139.927ZM140.341 556.332L144.781 560.772C143.577 561.976 142.197 562.178 141.566 562.178V555.899V549.619C139.88 549.619 137.683 550.11 135.901 551.892L140.341 556.332ZM141.566 555.899V562.178C140.951 562.178 139.487 561.982 138.234 560.672L142.771 556.332L147.309 551.992C145.504 550.104 143.235 549.619 141.566 549.619V555.899ZM142.771 556.332L138.234 560.672C137.047 559.432 136.907 558.072 136.907 557.575H143.186H149.465C149.465 555.998 149.048 553.81 147.309 551.992L142.771 556.332ZM143.186 557.575H136.907V558.347H143.186H149.465V557.575H143.186ZM143.186 558.347V552.068H142.997V558.347V564.627H143.186V558.347ZM142.997 558.347L149.191 559.38C149.155 559.595 149.068 559.926 148.864 560.305C148.655 560.694 148.371 561.047 148.035 561.334L143.958 556.558L139.881 551.782C138.098 553.305 137.139 555.303 136.804 557.315L142.997 558.347ZM143.958 556.558L147.978 561.382C147.667 561.641 147.313 561.84 146.948 561.97C146.592 562.096 146.3 562.131 146.12 562.137L145.917 555.861L145.715 549.585C143.735 549.649 141.684 550.28 139.938 551.734L143.958 556.558ZM145.917 555.861L146.134 562.136C145.341 562.164 143.48 561.967 142.002 560.278L146.727 556.143L151.453 552.009C149.623 549.918 147.222 549.533 145.701 549.586L145.917 555.861ZM146.727 556.143L142.287 560.583C141.378 559.674 141.03 558.719 140.898 558.25C140.762 557.763 140.753 557.427 140.751 557.367L147.029 557.217L153.306 557.068C153.288 556.297 153.193 553.729 151.167 551.703L146.727 556.143ZM147.029 557.217H140.75C140.75 556.863 140.817 555.789 141.637 554.641L146.746 558.291L151.856 561.941C153.052 560.265 153.308 558.476 153.308 557.217H147.029ZM146.746 558.291L141.637 554.641C143.019 552.706 144.914 552.527 145.077 552.511L145.672 558.762L146.268 565.013C147.485 564.897 150.096 564.404 151.856 561.941L146.746 558.291ZM145.672 558.762L145.128 552.506L144.695 552.544L145.239 558.8L145.783 565.055L146.216 565.017L145.672 558.762ZM145.239 558.8L144.649 552.548C143.255 552.68 141.036 553.165 139.259 555.016L143.789 559.365L148.318 563.713C147.144 564.937 145.892 565.045 145.829 565.051L145.239 558.8ZM143.789 559.365L139.349 554.925C137.454 556.819 137.057 559.15 137.057 560.721H143.337H149.616C149.616 561.086 149.52 562.513 148.229 563.805L143.789 559.365ZM143.337 560.721H137.057V563.81H143.337H149.616V560.721H143.337ZM143.337 563.81H137.057C137.057 563.301 137.207 561.888 138.463 560.632L142.903 565.072L147.343 569.512C149.177 567.679 149.616 565.424 149.616 563.81H143.337ZM142.903 565.072L138.463 560.632C139.719 559.376 141.132 559.226 141.641 559.226V565.506V571.785C143.255 571.785 145.509 571.346 147.343 569.512L142.903 565.072ZM151.171 565.11L148.457 570.773L148.48 570.783L148.503 570.794L151.171 565.11ZM149.814 563.81L144.222 566.666L144.235 566.69L144.248 566.715L149.814 563.81ZM149.362 558.536H155.641V552.257H149.362V558.536ZM147.78 558.216L143.34 562.656L143.403 562.719L143.469 562.781L147.78 558.216ZM147.78 556.388L152.084 560.961L152.091 560.953L147.78 556.388ZM149.362 556.068V562.347H155.641V556.068H149.362ZM152.282 553.638L147.842 558.078V558.078L152.282 553.638ZM152.715 556.068H146.436V562.347H152.715V556.068ZM155.202 556.388L150.762 560.828L150.892 560.959L151.03 561.081L155.202 556.388ZM155.202 558.216L150.891 553.651L150.825 553.712L150.762 553.776L155.202 558.216ZM152.715 558.536V552.257H146.436V558.536H152.715ZM153.036 562.529L148.471 566.841L148.594 566.971L148.724 567.094L153.036 562.529ZM154.599 562.793L156.011 568.911L156.011 568.911L154.599 562.793ZM155.051 562.737V569.016H155.247L155.443 569.003L155.051 562.737ZM155.541 562.925L150.895 567.149L150.995 567.259L151.101 567.365L155.541 562.925ZM155.56 564.771L161.286 567.348L161.309 567.296L161.331 567.244L155.56 564.771ZM154.957 565.317L157.069 571.231L157.158 571.199L157.245 571.165L154.957 565.317ZM154.241 565.468L153.462 559.237L153.335 559.253L153.209 559.274L154.241 565.468ZM153.507 565.543V559.264C153.35 559.264 153.31 559.252 153.361 559.261C153.414 559.271 153.59 559.309 153.839 559.426L151.171 565.11L148.503 570.794C150.21 571.595 151.976 571.822 153.507 571.822V565.543ZM151.171 565.11L153.884 559.447C154.142 559.571 154.438 559.761 154.724 560.035C155.011 560.31 155.229 560.614 155.381 560.906L149.814 563.81L144.248 566.715C145.194 568.529 146.664 569.913 148.457 570.773L151.171 565.11ZM149.814 563.81L155.407 560.955C155.68 561.489 155.641 561.803 155.641 561.606H149.362H143.083C143.083 563.167 143.347 564.951 144.222 566.666L149.814 563.81ZM149.362 561.606H155.641V558.536H149.362H143.083V561.606H149.362ZM149.362 558.536V552.257H148.722V558.536V564.815H149.362V558.536ZM148.722 558.536V552.257C149.438 552.257 150.841 552.47 152.091 553.651L147.78 558.216L143.469 562.781C145.171 564.388 147.202 564.815 148.722 564.815V558.536ZM147.78 558.216L152.22 553.776C153.534 555.089 153.739 556.599 153.739 557.293H147.46H141.181C141.181 558.79 141.599 560.915 143.34 562.656L147.78 558.216ZM147.46 557.293H153.739C153.739 557.959 153.544 559.587 152.084 560.961L147.78 556.388L143.477 551.816C141.59 553.592 141.181 555.822 141.181 557.293H147.46ZM147.78 556.388L152.091 560.953C150.841 562.134 149.438 562.347 148.722 562.347V556.068V549.789C147.202 549.789 145.171 550.216 143.469 551.823L147.78 556.388ZM148.722 556.068V562.347H149.362V556.068V549.789H148.722V556.068ZM149.362 556.068H155.641V554.9H149.362H143.083V556.068H149.362ZM149.362 554.9H155.641C155.641 555.409 155.492 556.822 154.236 558.078L149.796 553.638L145.356 549.198C143.522 551.032 143.083 553.286 143.083 554.9H149.362ZM149.796 553.638L154.236 558.078C153.005 559.309 151.609 559.484 151.039 559.484V553.205V546.926C149.389 546.926 147.164 547.39 145.356 549.198L149.796 553.638ZM151.039 553.205V559.484C150.469 559.484 149.073 559.309 147.842 558.078L152.282 553.638L156.722 549.198C154.914 547.39 152.689 546.926 151.039 546.926V553.205ZM152.282 553.638L147.842 558.078C146.586 556.822 146.436 555.409 146.436 554.9H152.715H158.995C158.995 553.286 158.556 551.032 156.722 549.198L152.282 553.638ZM152.715 554.9H146.436V556.068H152.715H158.995V554.9H152.715ZM152.715 556.068V562.347H154.26V556.068V549.789H152.715V556.068ZM154.26 556.068V562.347C153.644 562.347 152.109 562.176 150.762 560.828L155.202 556.388L159.642 551.948C157.868 550.174 155.705 549.789 154.26 549.789V556.068ZM155.202 556.388L151.03 561.081C149.513 559.732 149.262 558.063 149.262 557.293H155.541H161.82C161.82 555.719 161.343 553.446 159.374 551.695L155.202 556.388ZM155.541 557.293H149.262C149.262 556.499 149.52 554.945 150.891 553.651L155.202 558.216L159.513 562.781C161.336 561.059 161.82 558.889 161.82 557.293H155.541ZM155.202 558.216L150.762 553.776C152.109 552.428 153.644 552.257 154.26 552.257V558.536V564.815C155.705 564.815 157.868 564.43 159.642 562.656L155.202 558.216ZM154.26 558.536V552.257H152.715V558.536V564.815H154.26V558.536ZM152.715 558.536H146.436V561.493H152.715H158.995V558.536H152.715ZM152.715 561.493H146.436C146.436 562.783 146.718 564.985 148.471 566.841L153.036 562.529L157.601 558.218C158.926 559.621 158.995 561.132 158.995 561.493H152.715ZM153.036 562.529L148.724 567.094C150.606 568.871 152.843 569.129 154.091 569.129V562.85V556.57C154.384 556.57 155.918 556.614 157.347 557.964L153.036 562.529ZM154.091 562.85V569.129C154.718 569.129 155.363 569.061 156.011 568.911L154.599 562.793L153.187 556.675C153.509 556.6 153.815 556.57 154.091 556.57V562.85ZM154.599 562.793L156.011 568.911C155.806 568.959 155.476 569.016 155.051 569.016V562.737V556.457C154.35 556.457 153.719 556.552 153.187 556.675L154.599 562.793ZM155.051 562.737L155.443 569.003C154.778 569.045 153.949 568.973 153.07 568.635C152.177 568.291 151.445 567.754 150.895 567.149L155.541 562.925L160.187 558.701C158.668 557.031 156.592 556.349 154.66 556.47L155.051 562.737ZM155.541 562.925L151.101 567.365C150.457 566.721 150.093 566.065 149.893 565.617C149.69 565.164 149.591 564.782 149.541 564.547C149.489 564.303 149.469 564.116 149.46 564.011C149.451 563.901 149.45 563.831 149.45 563.81H155.729H162.009C162.009 563.347 161.982 562.675 161.824 561.934C161.697 561.337 161.313 559.817 159.981 558.485L155.541 562.925ZM155.729 563.81H149.45C149.45 563.59 149.479 563.019 149.788 562.297L155.56 564.771L161.331 567.244C161.866 565.996 162.009 564.784 162.009 563.81H155.729ZM155.56 564.771L149.834 562.194C150.126 561.544 150.557 560.942 151.108 560.443C151.647 559.954 152.204 559.652 152.669 559.47L154.957 565.317L157.245 571.165C158.854 570.535 160.412 569.29 161.286 567.348L155.56 564.771ZM154.957 565.317L152.845 559.404C153.091 559.316 153.273 559.274 153.353 559.258C153.439 559.239 153.48 559.235 153.462 559.237L154.241 565.468L155.02 571.699C155.531 571.635 156.279 571.513 157.069 571.231L154.957 565.317ZM154.241 565.468L153.209 559.274C153.159 559.283 153.156 559.282 153.191 559.278C153.221 559.275 153.334 559.264 153.507 559.264V565.543V571.822C154.186 571.822 154.813 571.738 155.274 571.662L154.241 565.468ZM163.508 565.75L169.441 567.804L169.466 567.733L169.489 567.661L163.508 565.75ZM162.264 566.674L162.563 560.402L162.414 560.394H162.264V566.674ZM161.53 566.466L164.804 561.108L164.759 561.081L164.713 561.054L161.53 566.466ZM161.059 565.882L166.926 563.647L166.908 563.599L166.889 563.55L161.059 565.882ZM161.059 564.997L155.08 563.079L155.058 563.146L155.038 563.213L161.059 564.997ZM165.241 551.962L171.22 553.88L171.231 553.844L171.242 553.808L165.241 551.962ZM165.73 551.246L162.377 545.937L162.312 545.978L162.247 546.021L165.73 551.246ZM166.465 551.039L166.151 557.31L166.308 557.318H166.465V551.039ZM167.2 551.246L163.925 556.604L164.037 556.671L164.15 556.735L167.2 551.246ZM167.689 551.811L161.859 554.143V554.143L167.689 551.811ZM167.671 552.715L161.693 550.794L161.689 550.805L167.671 552.715ZM163.508 565.75L157.574 563.697C157.786 563.083 158.323 562.037 159.516 561.242L162.999 566.466L166.482 571.691C168.127 570.594 169.003 569.071 169.441 567.804L163.508 565.75ZM162.999 566.466L159.516 561.242C160.371 560.671 161.446 560.348 162.563 560.402L162.264 566.674L161.966 572.946C163.611 573.024 165.174 572.563 166.482 571.691L162.999 566.466ZM162.264 566.674V560.394C163.162 560.394 164.049 560.647 164.804 561.108L161.53 566.466L158.255 571.824C159.463 572.562 160.84 572.953 162.264 572.953V566.674ZM161.53 566.466L164.713 561.054C165.899 561.751 166.594 562.773 166.926 563.647L161.059 565.882L155.191 568.118C155.725 569.519 156.734 570.93 158.346 571.878L161.53 566.466ZM161.059 565.882L166.889 563.55C167.455 564.966 167.256 566.184 167.079 566.781L161.059 564.997L155.038 563.213C154.661 564.488 154.462 566.297 155.229 568.214L161.059 565.882ZM161.059 564.997L167.038 566.915L171.22 553.88L165.241 551.962L159.262 550.043L155.08 563.079L161.059 564.997ZM165.241 551.962L171.242 553.808C171.029 554.5 170.474 555.63 169.213 556.47L165.73 551.246L162.247 546.021C160.535 547.163 159.653 548.77 159.239 550.115L165.241 551.962ZM165.73 551.246L169.083 556.555C168.367 557.007 167.348 557.37 166.151 557.31L166.465 551.039L166.779 544.767C165.08 544.682 163.571 545.183 162.377 545.937L165.73 551.246ZM166.465 551.039V557.318C165.568 557.318 164.681 557.065 163.925 556.604L167.2 551.246L170.474 545.888C169.267 545.15 167.89 544.759 166.465 544.759V551.039ZM167.2 551.246L164.15 556.735C163.053 556.125 162.269 555.166 161.859 554.143L167.689 551.811L173.519 549.479C172.909 547.954 171.799 546.618 170.249 545.757L167.2 551.246ZM167.689 551.811L161.859 554.143C161.248 552.613 161.521 551.327 161.693 550.794L167.671 552.715L173.649 554.637C174.046 553.4 174.332 551.511 173.519 549.479L167.689 551.811ZM167.671 552.715L161.689 550.805L157.526 563.84L163.508 565.75L169.489 567.661L173.652 554.625L167.671 552.715ZM174.693 564.884L170.163 569.232L170.252 569.325L170.344 569.414L174.693 564.884ZM174.693 552.527L179.133 556.967V556.967L174.693 552.527ZM183.452 554.392L187.892 558.832L187.952 558.772L188.01 558.71L183.452 554.392ZM177.556 554.731V548.452H171.277V554.731H177.556ZM177.556 557.255H171.277V563.534H177.556V557.255ZM183.019 557.594L178.579 562.034L178.639 562.094L178.7 562.152L183.019 557.594ZM183.019 559.591L178.7 555.032L178.639 555.091L178.579 555.151L183.019 559.591ZM177.556 559.93V553.651H171.277V559.93H177.556ZM177.556 562.661H171.277V568.94H177.556V562.661ZM183.452 563.019L178.894 567.337L178.952 567.399L179.012 567.459L183.452 563.019ZM176.049 565.336V559.057C176.49 559.057 177.82 559.182 179.041 560.354L174.693 564.884L170.344 569.414C172.193 571.188 174.427 571.615 176.049 571.615V565.336ZM174.693 564.884L179.222 560.535C180.372 561.733 180.52 563.049 180.52 563.547H174.24H167.961C167.961 565.199 168.411 567.407 170.163 569.232L174.693 564.884ZM174.24 563.547H180.52V553.845H174.24H167.961V563.547H174.24ZM174.24 553.845H180.52C180.52 554.325 180.378 555.721 179.133 556.967L174.693 552.527L170.253 548.087C168.404 549.935 167.961 552.21 167.961 553.845H174.24ZM174.693 552.527L179.133 556.967C177.921 558.178 176.557 558.335 176.049 558.335V552.056V545.777C174.361 545.777 172.092 546.247 170.253 548.087L174.693 552.527ZM176.049 552.056V558.335H182.435V552.056V545.777H176.049V552.056ZM182.435 552.056V558.335C181.919 558.335 180.379 558.202 179.012 556.835L183.452 552.395L187.892 547.955C186.073 546.136 183.855 545.777 182.435 545.777V552.056ZM183.452 552.395L179.012 556.835C177.707 555.53 177.512 554.036 177.512 553.374H183.791H190.07C190.07 551.859 189.649 549.712 187.892 547.955L183.452 552.395ZM183.791 553.374H177.512C177.512 552.762 177.685 551.349 178.894 550.073L183.452 554.392L188.01 558.71C189.671 556.957 190.07 554.866 190.07 553.374H183.791ZM183.452 554.392L179.012 549.952C180.379 548.585 181.919 548.452 182.435 548.452V554.731V561.01C183.855 561.01 186.073 560.651 187.892 558.832L183.452 554.392ZM182.435 554.731V548.452H177.556V554.731V561.01H182.435V554.731ZM177.556 554.731H171.277V557.255H177.556H183.835V554.731H177.556ZM177.556 557.255V563.534H182.02V557.255V550.976H177.556V557.255ZM182.02 557.255V563.534C181.432 563.534 179.915 563.371 178.579 562.034L183.019 557.594L187.459 553.154C185.67 551.365 183.487 550.976 182.02 550.976V557.255ZM183.019 557.594L178.7 562.152C177.307 560.832 177.097 559.272 177.097 558.592H183.377H189.656C189.656 557.034 189.208 554.808 187.337 553.036L183.019 557.594ZM183.377 558.592H177.097C177.097 557.913 177.307 556.352 178.7 555.032L183.019 559.591L187.337 564.149C189.208 562.377 189.656 560.151 189.656 558.592H183.377ZM183.019 559.591L178.579 555.151C179.915 553.814 181.432 553.651 182.02 553.651V559.93V566.209C183.487 566.209 185.67 565.819 187.459 564.031L183.019 559.591ZM182.02 559.93V553.651H177.556V559.93V566.209H182.02V559.93ZM177.556 559.93H171.277V562.661H177.556H183.835V559.93H177.556ZM177.556 562.661V568.94H182.435V562.661V556.382H177.556V562.661ZM182.435 562.661V568.94C181.83 568.94 180.245 568.764 178.894 567.337L183.452 563.019L188.01 558.701C186.207 556.797 183.944 556.382 182.435 556.382V562.661ZM183.452 563.019L179.012 567.459C177.707 566.154 177.512 564.66 177.512 563.999H183.791H190.07C190.07 562.483 189.649 560.336 187.892 558.579L183.452 563.019ZM183.791 563.999H177.512C177.512 563.411 177.675 561.894 179.012 560.557L183.452 564.997L187.892 569.437C189.681 567.648 190.07 565.466 190.07 563.999H183.791ZM183.452 564.997L179.012 560.557C180.379 559.19 181.919 559.057 182.435 559.057V565.336V571.615C183.855 571.615 186.073 571.256 187.892 569.437L183.452 564.997ZM182.435 565.336V559.057H176.049V565.336V571.615H182.435V565.336ZM186.019 565.072L190.459 560.632L186.019 565.072ZM186 556.332L181.56 551.892L181.51 551.941L181.462 551.992L186 556.332ZM188.43 556.332L183.892 560.672V560.672L188.43 556.332ZM188.844 558.46L182.78 560.088L195.123 558.46H188.844ZM188.637 557.688L183.045 554.833L181.947 556.983L182.572 559.315L188.637 557.688ZM189.918 556.332L186.869 550.843L186.842 550.858L186.816 550.872L189.918 556.332ZM193.667 556.294L190.415 561.666L190.468 561.698L190.521 561.728L193.667 556.294ZM194.74 557.613L188.902 559.924L188.91 559.945L188.919 559.966L194.74 557.613ZM194.665 565.072L190.225 560.632L194.665 565.072ZM192.178 565.072L196.618 560.632L192.178 565.072ZM191.444 558.781L186.515 562.671L186.577 562.749L186.641 562.825L191.444 558.781ZM189.39 558.913L193.92 563.261L193.963 563.217L194.004 563.172L189.39 558.913ZM187.243 565.506V559.226C187.874 559.226 189.254 559.428 190.459 560.632L186.019 565.072L181.579 569.512C183.361 571.294 185.557 571.785 187.243 571.785V565.506ZM186.019 565.072L190.459 560.632C191.715 561.888 191.864 563.301 191.864 563.81H185.585H179.306C179.306 565.424 179.745 567.679 181.579 569.512L186.019 565.072ZM185.585 563.81H191.864V557.575H185.585H179.306V563.81H185.585ZM185.585 557.575H191.864C191.864 558.072 191.724 559.432 190.537 560.672L186 556.332L181.462 551.992C179.723 553.81 179.306 555.998 179.306 557.575H185.585ZM186 556.332L190.44 560.772C189.236 561.976 187.855 562.178 187.224 562.178V555.899V549.619C185.538 549.619 183.342 550.11 181.56 551.892L186 556.332ZM187.224 555.899V562.178C186.61 562.178 185.145 561.982 183.892 560.672L188.43 556.332L192.967 551.992C191.162 550.104 188.893 549.619 187.224 549.619V555.899ZM188.43 556.332L183.892 560.672C182.706 559.432 182.565 558.072 182.565 557.575H188.844H195.123C195.123 555.998 194.706 553.81 192.967 551.992L188.43 556.332ZM188.844 557.575H182.565V558.46H188.844H195.123V557.575H188.844ZM188.844 558.46L194.909 556.833L194.702 556.061L188.637 557.688L182.572 559.315L182.78 560.088L188.844 558.46ZM188.637 557.688L194.229 560.544C194.126 560.745 193.971 560.982 193.748 561.218C193.524 561.455 193.274 561.647 193.02 561.791L189.918 556.332L186.816 550.872C185.15 551.819 183.879 553.199 183.045 554.833L188.637 557.688ZM189.918 556.332L192.967 561.821C192.502 562.079 192.074 562.14 191.839 562.14V555.861V549.582C190.173 549.582 188.464 549.957 186.869 550.843L189.918 556.332ZM191.839 555.861V562.14C191.8 562.14 191.19 562.135 190.415 561.666L193.667 556.294L196.918 550.922C195.188 549.876 193.361 549.582 191.839 549.582V555.861ZM193.667 556.294L190.521 561.728C189.568 561.177 189.088 560.395 188.902 559.924L194.74 557.613L200.579 555.302C199.915 553.625 198.72 551.964 196.813 550.86L193.667 556.294ZM194.74 557.613L188.919 559.966C188.874 559.856 188.847 559.768 188.831 559.708C188.815 559.648 188.809 559.613 188.808 559.606C188.807 559.599 188.81 559.615 188.813 559.658C188.816 559.701 188.819 559.766 188.819 559.854H195.098H201.377C201.377 558.456 201.201 556.841 200.562 555.259L194.74 557.613ZM195.098 559.854H188.819V563.81H195.098H201.377V559.854H195.098ZM195.098 563.81H188.819C188.819 563.301 188.969 561.888 190.225 560.632L194.665 565.072L199.105 569.512C200.939 567.679 201.377 565.424 201.377 563.81H195.098ZM194.665 565.072L190.225 560.632C191.456 559.402 192.852 559.226 193.422 559.226V565.506V571.785C195.071 571.785 197.297 571.321 199.105 569.512L194.665 565.072ZM193.422 565.506V559.226C193.991 559.226 195.388 559.402 196.618 560.632L192.178 565.072L187.738 569.512C189.547 571.321 191.772 571.785 193.422 571.785V565.506ZM192.178 565.072L196.618 560.632C197.875 561.888 198.024 563.301 198.024 563.81H191.745H185.466C185.466 565.424 185.905 567.679 187.738 569.512L192.178 565.072ZM191.745 563.81H198.024V559.986H191.745H185.466V563.81H191.745ZM191.745 559.986H198.024C198.024 559.009 197.916 556.718 196.247 554.736L191.444 558.781L186.641 562.825C185.958 562.014 185.687 561.22 185.578 560.784C185.468 560.344 185.466 560.045 185.466 559.986H191.745ZM191.444 558.781L196.372 554.89C194.711 552.785 192.388 552.144 190.596 552.144V558.423V564.702C190.132 564.702 189.435 564.629 188.648 564.297C187.824 563.949 187.083 563.391 186.515 562.671L191.444 558.781ZM190.596 558.423V552.144C188.594 552.144 186.428 552.865 184.777 554.654L189.39 558.913L194.004 563.172C193.544 563.67 192.957 564.088 192.281 564.363C191.623 564.63 191.029 564.702 190.596 564.702V558.423ZM189.39 558.913L184.861 554.564C183.181 556.313 182.659 558.443 182.659 560.193H188.938H195.218C195.218 560.864 194.997 562.14 193.92 563.261L189.39 558.913ZM188.938 560.193H182.659V563.81H188.938H195.218V560.193H188.938ZM188.938 563.81H182.659C182.659 563.407 182.764 561.952 184.075 560.642C185.385 559.331 186.84 559.226 187.243 559.226V565.506V571.785C188.776 571.785 191.079 571.397 192.955 569.522C194.83 567.646 195.218 565.343 195.218 563.81H188.938ZM198.516 564.959L195.11 570.234L195.134 570.25L195.159 570.266L198.516 564.959ZM197.085 563.283L191.392 565.933L191.411 565.973L191.43 566.013L197.085 563.283ZM197.085 558.103L191.449 555.334L191.429 555.374L191.41 555.415L197.085 558.103ZM198.516 556.445L195.159 551.139L195.134 551.154L195.11 551.17L198.516 556.445ZM203.602 557.613V563.892H212.586L209.499 555.455L203.602 557.613ZM203.395 557.613H197.116V563.892H203.395V557.613ZM203.828 552.319L208.268 556.759L208.268 556.759L203.828 552.319ZM206.296 552.319L201.856 556.759L201.903 556.807L201.951 556.853L206.296 552.319ZM206.315 565.072L201.875 560.632L201.825 560.682L201.777 560.732L206.315 565.072ZM203.866 565.072L208.306 560.632L203.866 565.072ZM203.433 562.737L209.559 561.361L197.154 562.737H203.433ZM203.64 563.66L209.636 565.525L210.134 563.922L209.767 562.284L203.64 563.66ZM202.528 565.035L205.813 570.386L205.829 570.376L205.846 570.366L202.528 565.035ZM202.604 562.831L205.909 568.17L205.999 568.114L206.087 568.055L202.604 562.831ZM203.207 562.058L197.435 559.585L197.413 559.637L197.392 559.689L203.207 562.058ZM202.943 558.894L198.198 563.006L198.232 563.046L198.268 563.085L202.943 558.894ZM200.795 558.573L197.49 553.235L197.49 553.235L200.795 558.573ZM200.174 559.346L205.912 561.896L205.929 561.858L205.945 561.819L200.174 559.346ZM200.626 565.543V559.264C200.749 559.264 200.942 559.28 201.18 559.346C201.421 559.413 201.659 559.517 201.873 559.653L198.516 564.959L195.159 570.266C196.866 571.345 198.753 571.822 200.626 571.822V565.543ZM198.516 564.959L201.923 559.685C202.145 559.828 202.334 559.998 202.481 560.171C202.625 560.34 202.704 560.48 202.739 560.553L197.085 563.283L191.43 566.013C192.218 567.644 193.419 569.142 195.11 570.234L198.516 564.959ZM197.085 563.283L202.777 560.633C202.839 560.766 202.86 560.856 202.864 560.877C202.867 560.895 202.855 560.843 202.855 560.702H196.576H190.297C190.297 562.4 190.587 564.203 191.392 565.933L197.085 563.283ZM196.576 560.702H202.855C202.855 560.539 202.869 560.476 202.865 560.495C202.861 560.516 202.837 560.626 202.759 560.791L197.085 558.103L191.41 555.415C190.576 557.174 190.297 559.01 190.297 560.702H196.576ZM197.085 558.103L202.72 560.871C202.681 560.95 202.601 561.091 202.458 561.255C202.313 561.423 202.132 561.584 201.923 561.72L198.516 556.445L195.11 551.17C193.446 552.244 192.245 553.713 191.449 555.334L197.085 558.103ZM198.516 556.445L201.873 561.751C201.659 561.887 201.421 561.992 201.18 562.058C200.942 562.124 200.749 562.14 200.626 562.14V555.861V549.582C198.753 549.582 196.866 550.059 195.159 551.139L198.516 556.445ZM200.626 555.861V562.14C200.473 562.14 200.262 562.121 200.015 562.056C199.765 561.991 199.521 561.889 199.296 561.757L202.491 556.351L205.685 550.945C204.092 550.003 202.352 549.582 200.626 549.582V555.861ZM202.491 556.351L199.296 561.757C199.085 561.631 198.78 561.412 198.471 561.061C198.153 560.7 197.885 560.261 197.705 559.77L203.602 557.613L209.499 555.455C208.73 553.353 207.263 551.877 205.685 550.945L202.491 556.351ZM203.602 557.613V551.334H203.395V557.613V563.892H203.602V557.613ZM203.395 557.613H209.674V553.582H203.395H197.116V557.613H203.395ZM203.395 553.582H209.674C209.674 554.091 209.524 555.503 208.268 556.759L203.828 552.319L199.388 547.879C197.554 549.713 197.116 551.967 197.116 553.582H203.395ZM203.828 552.319L208.268 556.759C207.038 557.99 205.641 558.165 205.072 558.165V551.886V545.607C203.422 545.607 201.197 546.071 199.388 547.879L203.828 552.319ZM205.072 551.886V558.165C204.44 558.165 203.06 557.964 201.856 556.759L206.296 552.319L210.736 547.879C208.954 546.098 206.758 545.607 205.072 545.607V551.886ZM206.296 552.319L201.951 556.853C200.654 555.61 200.469 554.163 200.469 553.582H206.748H213.027C213.027 551.895 212.54 549.607 210.64 547.786L206.296 552.319ZM206.748 553.582H200.469V563.81H206.748H213.027V553.582H206.748ZM206.748 563.81H200.469C200.469 563.301 200.619 561.888 201.875 560.632L206.315 565.072L210.755 569.512C212.589 567.679 213.027 565.424 213.027 563.81H206.748ZM206.315 565.072L201.777 560.732C203.056 559.395 204.54 559.226 205.09 559.226V565.506V571.785C206.721 571.785 209.021 571.327 210.852 569.413L206.315 565.072ZM205.09 565.506V559.226C205.722 559.226 207.102 559.428 208.306 560.632L203.866 565.072L199.426 569.512C201.208 571.294 203.404 571.785 205.09 571.785V565.506ZM203.866 565.072L208.306 560.632C209.562 561.888 209.712 563.301 209.712 563.81H203.433H197.154C197.154 565.424 197.592 567.679 199.426 569.512L203.866 565.072ZM203.433 563.81H209.712V562.737H203.433H197.154V563.81H203.433ZM203.433 562.737L197.306 564.112L197.513 565.035L203.64 563.66L209.767 562.284L209.559 561.361L203.433 562.737ZM203.64 563.66L197.644 561.794C197.791 561.322 198.031 560.871 198.347 560.48C198.656 560.098 198.974 559.851 199.211 559.703L202.528 565.035L205.846 570.366C207.52 569.324 208.956 567.71 209.636 565.525L203.64 563.66ZM202.528 565.035L199.244 559.683C199.491 559.531 199.756 559.42 200.017 559.35C200.274 559.281 200.485 559.264 200.626 559.264V565.543V571.822C202.376 571.822 204.171 571.394 205.813 570.386L202.528 565.035ZM201.7 563.076V569.355C203.094 569.355 204.561 569.004 205.909 568.17L202.604 562.831L199.299 557.492C200.12 556.984 200.984 556.796 201.7 556.796V563.076ZM202.604 562.831L206.087 568.055C207.551 567.079 208.485 565.745 209.022 564.427L203.207 562.058L197.392 559.689C197.652 559.05 198.184 558.231 199.121 557.606L202.604 562.831ZM203.207 562.058L208.978 564.532C209.578 563.132 209.712 561.757 209.712 560.702H203.433H197.154C197.154 560.7 197.153 560.599 197.182 560.423C197.212 560.248 197.278 559.951 197.435 559.585L203.207 562.058ZM203.433 560.702H209.712C209.712 559.336 209.501 556.802 207.618 554.702L202.943 558.894L198.268 563.085C197.621 562.363 197.355 561.651 197.249 561.26C197.146 560.878 197.154 560.657 197.154 560.702H203.433ZM202.943 558.894L207.688 554.781C206.158 553.016 204.007 552.049 201.7 552.049V558.329V564.608C201.148 564.608 200.479 564.5 199.789 564.186C199.098 563.872 198.569 563.435 198.198 563.006L202.943 558.894ZM201.7 558.329V552.049C200.306 552.049 198.839 552.4 197.49 553.235L200.795 558.573L204.1 563.912C203.28 564.42 202.416 564.608 201.7 564.608V558.329ZM200.795 558.573L197.49 553.235C195.896 554.221 194.941 555.615 194.402 556.872L200.174 559.346L205.945 561.819C205.708 562.373 205.167 563.252 204.1 563.912L200.795 558.573ZM200.174 559.346L194.436 556.796C193.791 558.246 193.669 559.674 193.669 560.702H199.948H206.227C206.227 560.689 206.228 560.789 206.198 560.971C206.168 561.151 206.095 561.483 205.912 561.896L200.174 559.346ZM199.948 560.702H193.669C193.669 562.113 193.903 564.558 195.692 566.623L200.438 562.51L205.183 558.398C205.774 559.081 206.026 559.748 206.131 560.134C206.233 560.51 206.227 560.731 206.227 560.702H199.948ZM200.438 562.51L195.692 566.623C197.256 568.427 199.432 569.355 201.7 569.355V563.076V556.796C202.223 556.796 202.877 556.896 203.564 557.203C204.256 557.513 204.796 557.952 205.183 558.398L200.438 562.51Z" fill="white" mask="url(#path-2-outside-1_81_4414)"/>
</svg>
