<svg width="1521" height="2020" viewBox="0 0 1521 2020" fill="none" xmlns="http://www.w3.org/2000/svg">
<path d="M219.047 860.819C219.047 831.616 206.138 781.448 195.5 736.475C189.913 712.855 176.623 656.926 182.157 634.44C185.541 620.691 177.499 560.847 182.157 541.823C184.891 530.659 201.124 509.993 237.099 538.684C270.35 565.201 323.554 641.153 325.792 634.44C329.781 622.472 283.235 479.434 279.483 462.55C276.344 448.421 263.212 419.531 266.925 408.392C272.588 391.404 299.105 375.076 326.577 367.578C336.495 364.871 362.81 352.207 386.228 345.601C416.839 336.967 452.637 340.039 467.071 345.601C479.752 350.488 511.763 372.779 528.034 391.91C542.037 408.374 547.877 411.612 565.969 438.91C575.76 453.683 578.526 471.853 579.931 489.472C582.507 521.785 587.343 564.346 587.343 587.204C587.343 613.248 579.931 634.132 579.931 647.783C579.931 662.696 591.819 706.179 598.148 716.068C623.264 755.313 637.392 780.429 627.189 796.912C620.422 807.843 605.212 805.546 587.159 807.9C556.734 811.869 495.482 804.873 516.519 831.447C524.188 841.133 596.695 823.398 609.921 820.458C638.177 814.179 658.584 800.051 683.7 800.051C705.675 800.051 773.485 805.633 777.102 822.813C780.242 837.726 749.174 876.407 746.492 882.465C738.148 901.302 744.137 932.2 744.137 953.889C744.137 976.856 748.18 972.414 751.893 996.555C758.235 1037.79 770.625 1086.97 772.393 1100.66C775.532 1124.99 776.985 1149.96 779.457 1162.67C784.951 1190.93 784.263 1197.75 791.23 1224.68C795.956 1242.94 811.162 1257.77 795.939 1276.48C784.443 1290.61 762.666 1285.41 744.137 1290.61C726.523 1295.54 711.205 1301.69 685.27 1303.56C684.067 1303.64 616.844 1316.41 608.351 1310.23C585.088 1293.28 552.548 1027.39 539.281 1030.81C516.52 1036.67 585.849 1314.14 586.374 1317.29C588.729 1331.42 597.546 1355.89 602.072 1378.51C608.351 1409.91 615.415 1423.25 615.415 1447.58C615.415 1476.62 620.314 1493.55 626.794 1519.01C632.64 1541.98 650.822 1559.8 647.596 1574.73C642.107 1600.11 608.616 1634.68 587.159 1639.88C565.007 1645.25 532.363 1637.57 518.874 1632.03C503.261 1625.63 504.255 1592.11 502.392 1578.66C500.439 1564.57 488.052 1541.22 484.339 1526.86C472.212 1479.94 475.035 1429.03 471.781 1416.97C467.652 1401.68 462.976 1368.37 453.729 1360.46C444.031 1352.16 433.777 1347.57 416.054 1353.56C391.913 1361.72 354.982 1370.35 329.716 1374.59C324.172 1375.52 314.42 1331.25 308.805 1316.51C298.358 1289.08 295.191 1286.92 292.549 1257.21C289.196 1219.49 278.546 1148.55 273.989 1128.92C263.786 1084.97 260.584 1070.84 256.722 1045.72C254.065 1028.44 239.454 953.889 233.175 938.192C222.652 911.883 242.594 922.494 224.541 893.453" stroke="black" stroke-width="15.6978" stroke-linecap="round" stroke-dasharray="15.7 43.95"/>
<mask id="path-2-outside-1_81_4413" maskUnits="userSpaceOnUse" x="163.598" y="866.336" width="111" height="29" fill="black">
<rect fill="white" x="163.598" y="866.336" width="111" height="29"/>
<path d="M175.739 887.543C175.236 887.543 174.709 887.506 174.156 887.43C173.616 887.367 173.101 887.267 172.612 887.129C172.122 886.991 171.682 886.827 171.293 886.639C170.954 886.476 170.715 886.262 170.577 885.999C170.439 885.722 170.389 885.433 170.426 885.132C170.464 884.831 170.571 884.567 170.747 884.341C170.923 884.102 171.155 883.945 171.444 883.87C171.733 883.782 172.059 883.82 172.423 883.983C172.9 884.209 173.44 884.385 174.043 884.51C174.646 884.636 175.211 884.699 175.739 884.699C176.567 884.699 177.145 884.592 177.472 884.379C177.811 884.153 177.98 883.876 177.98 883.55C177.98 883.261 177.861 883.029 177.622 882.853C177.396 882.677 176.988 882.526 176.398 882.401L174.194 881.93C172.988 881.679 172.09 881.239 171.5 880.611C170.91 879.983 170.615 879.173 170.615 878.181C170.615 877.528 170.747 876.938 171.01 876.41C171.287 875.87 171.67 875.412 172.16 875.035C172.662 874.659 173.252 874.37 173.93 874.169C174.621 873.955 175.387 873.849 176.228 873.849C176.881 873.849 177.541 873.924 178.206 874.075C178.884 874.213 179.468 874.426 179.958 874.715C180.247 874.866 180.454 875.073 180.58 875.337C180.705 875.6 180.756 875.877 180.731 876.166C180.705 876.442 180.605 876.687 180.429 876.9C180.266 877.114 180.04 877.258 179.751 877.333C179.475 877.396 179.142 877.346 178.753 877.183C178.388 877.019 177.974 876.9 177.509 876.825C177.057 876.737 176.618 876.693 176.191 876.693C175.726 876.693 175.33 876.749 175.004 876.863C174.677 876.963 174.426 877.114 174.25 877.315C174.087 877.516 174.006 877.748 174.006 878.012C174.006 878.275 174.112 878.501 174.326 878.69C174.552 878.866 174.96 879.016 175.55 879.142L177.735 879.613C178.954 879.876 179.864 880.31 180.467 880.913C181.07 881.515 181.371 882.3 181.371 883.267C181.371 883.92 181.239 884.51 180.975 885.038C180.712 885.565 180.335 886.017 179.845 886.394C179.355 886.758 178.765 887.041 178.074 887.242C177.384 887.443 176.605 887.543 175.739 887.543ZM187.56 887.543C186.618 887.543 185.84 887.399 185.224 887.11C184.621 886.821 184.169 886.388 183.868 885.81C183.567 885.22 183.416 884.485 183.416 883.606V880.536H182.775C182.374 880.536 182.06 880.429 181.834 880.216C181.62 880.002 181.513 879.694 181.513 879.293C181.513 878.891 181.62 878.589 181.834 878.388C182.06 878.175 182.374 878.068 182.775 878.068H183.416V876.9C183.416 876.348 183.56 875.927 183.849 875.638C184.138 875.349 184.552 875.205 185.092 875.205C185.632 875.205 186.047 875.349 186.336 875.638C186.624 875.927 186.769 876.348 186.769 876.9V878.068H188.314C188.728 878.068 189.042 878.175 189.255 878.388C189.481 878.589 189.594 878.891 189.594 879.293C189.594 879.694 189.481 880.002 189.255 880.216C189.042 880.429 188.728 880.536 188.314 880.536H186.769V883.493C186.769 883.958 186.876 884.303 187.089 884.529C187.315 884.743 187.667 884.85 188.144 884.85C188.32 884.85 188.489 884.831 188.653 884.793C188.816 884.755 188.967 884.737 189.105 884.737C189.306 884.724 189.469 884.787 189.594 884.925C189.72 885.05 189.783 885.346 189.783 885.81C189.783 886.187 189.726 886.507 189.613 886.771C189.5 887.022 189.299 887.204 189.011 887.317C188.835 887.38 188.596 887.43 188.295 887.468C187.993 887.518 187.748 887.543 187.56 887.543ZM193.942 887.543C193.226 887.543 192.592 887.411 192.039 887.148C191.499 886.884 191.072 886.526 190.758 886.074C190.457 885.609 190.306 885.082 190.306 884.492C190.306 883.813 190.482 883.28 190.834 882.89C191.185 882.501 191.75 882.225 192.529 882.062C193.308 881.886 194.344 881.798 195.637 881.798H196.673V883.38H195.637C195.147 883.38 194.739 883.418 194.413 883.493C194.099 883.556 193.866 883.663 193.716 883.813C193.565 883.952 193.49 884.134 193.49 884.36C193.49 884.649 193.59 884.887 193.791 885.076C194.005 885.264 194.306 885.358 194.695 885.358C195.009 885.358 195.286 885.289 195.524 885.151C195.775 885.013 195.976 884.824 196.127 884.586C196.278 884.335 196.353 884.046 196.353 883.719V881.534C196.353 881.082 196.234 880.762 195.995 880.573C195.769 880.385 195.373 880.291 194.808 880.291C194.507 880.291 194.168 880.329 193.791 880.404C193.414 880.467 192.994 880.586 192.529 880.762C192.19 880.887 191.901 880.906 191.662 880.818C191.424 880.73 191.235 880.58 191.097 880.366C190.972 880.153 190.909 879.92 190.909 879.669C190.922 879.418 191.003 879.18 191.154 878.953C191.317 878.727 191.562 878.552 191.889 878.426C192.491 878.2 193.044 878.049 193.546 877.974C194.061 877.899 194.532 877.861 194.959 877.861C195.989 877.861 196.836 878.012 197.502 878.313C198.18 878.602 198.683 879.054 199.009 879.669C199.348 880.272 199.518 881.051 199.518 882.005V885.81C199.518 886.363 199.386 886.783 199.122 887.072C198.858 887.361 198.475 887.506 197.973 887.506C197.458 887.506 197.062 887.361 196.786 887.072C196.522 886.783 196.391 886.363 196.391 885.81V885.32L196.504 885.584C196.441 885.986 196.296 886.331 196.07 886.62C195.844 886.909 195.549 887.135 195.185 887.298C194.821 887.462 194.406 887.543 193.942 887.543ZM203.141 887.506C202.589 887.506 202.162 887.361 201.86 887.072C201.571 886.783 201.427 886.363 201.427 885.81V879.575C201.427 879.035 201.565 878.621 201.841 878.332C202.13 878.043 202.538 877.899 203.066 877.899C203.593 877.899 203.995 878.043 204.271 878.332C204.548 878.621 204.686 879.035 204.686 879.575V880.347H204.497C204.623 879.594 204.943 878.997 205.458 878.558C205.986 878.118 206.639 877.886 207.417 877.861C207.781 877.848 208.051 877.943 208.227 878.143C208.416 878.332 208.516 878.69 208.529 879.217C208.529 879.669 208.434 880.027 208.246 880.291C208.058 880.555 207.7 880.712 207.172 880.762L206.739 880.8C206.074 880.862 205.59 881.051 205.289 881.365C204.987 881.666 204.837 882.118 204.837 882.721V885.81C204.837 886.363 204.692 886.783 204.403 887.072C204.114 887.361 203.694 887.506 203.141 887.506ZM215.007 887.543C214.065 887.543 213.286 887.399 212.671 887.11C212.068 886.821 211.616 886.388 211.314 885.81C211.013 885.22 210.862 884.485 210.862 883.606V880.536H210.222C209.82 880.536 209.506 880.429 209.28 880.216C209.067 880.002 208.96 879.694 208.96 879.293C208.96 878.891 209.067 878.589 209.28 878.388C209.506 878.175 209.82 878.068 210.222 878.068H210.862V876.9C210.862 876.348 211.007 875.927 211.296 875.638C211.584 875.349 211.999 875.205 212.539 875.205C213.079 875.205 213.493 875.349 213.782 875.638C214.071 875.927 214.215 876.348 214.215 876.9V878.068H215.76C216.175 878.068 216.488 878.175 216.702 878.388C216.928 878.589 217.041 878.891 217.041 879.293C217.041 879.694 216.928 880.002 216.702 880.216C216.488 880.429 216.175 880.536 215.76 880.536H214.215V883.493C214.215 883.958 214.322 884.303 214.536 884.529C214.762 884.743 215.113 884.85 215.591 884.85C215.766 884.85 215.936 884.831 216.099 884.793C216.262 884.755 216.413 884.737 216.551 884.737C216.752 884.724 216.915 884.787 217.041 884.925C217.167 885.05 217.229 885.346 217.229 885.81C217.229 886.187 217.173 886.507 217.06 886.771C216.947 887.022 216.746 887.204 216.457 887.317C216.281 887.38 216.043 887.43 215.741 887.468C215.44 887.518 215.195 887.543 215.007 887.543ZM225.008 887.75C224.895 888.077 224.725 888.316 224.499 888.466C224.273 888.617 224.028 888.686 223.764 888.674C223.501 888.674 223.256 888.604 223.03 888.466C222.816 888.341 222.659 888.146 222.559 887.882C222.458 887.631 222.458 887.336 222.559 886.997L226.741 873.962C226.841 873.635 227.004 873.396 227.23 873.246C227.469 873.095 227.714 873.026 227.965 873.039C228.229 873.039 228.474 873.108 228.7 873.246C228.926 873.371 229.089 873.56 229.189 873.811C229.29 874.062 229.284 874.363 229.171 874.715L225.008 887.75ZM237.549 887.336C236.959 887.336 236.506 887.185 236.193 886.884C235.891 886.57 235.74 886.124 235.74 885.547V875.845C235.74 875.268 235.891 874.828 236.193 874.527C236.506 874.213 236.959 874.056 237.549 874.056H243.935C244.387 874.056 244.726 874.169 244.952 874.395C245.178 874.621 245.291 874.947 245.291 875.374C245.291 875.814 245.178 876.153 244.952 876.392C244.726 876.618 244.387 876.731 243.935 876.731H239.056V879.255H243.52C243.96 879.255 244.293 879.368 244.519 879.594C244.757 879.82 244.877 880.153 244.877 880.592C244.877 881.032 244.757 881.365 244.519 881.591C244.293 881.817 243.96 881.93 243.52 881.93H239.056V884.661H243.935C244.387 884.661 244.726 884.78 244.952 885.019C245.178 885.245 245.291 885.572 245.291 885.999C245.291 886.438 245.178 886.771 244.952 886.997C244.726 887.223 244.387 887.336 243.935 887.336H237.549ZM248.743 887.506C248.216 887.506 247.807 887.361 247.519 887.072C247.23 886.783 247.085 886.363 247.085 885.81V879.575C247.085 879.035 247.223 878.621 247.5 878.332C247.789 878.043 248.197 877.899 248.724 877.899C249.252 877.899 249.654 878.043 249.93 878.332C250.206 878.621 250.344 879.035 250.344 879.575V880.46L250.137 879.688C250.438 879.098 250.865 878.646 251.418 878.332C251.983 878.018 252.624 877.861 253.339 877.861C254.08 877.861 254.689 878.005 255.167 878.294C255.644 878.57 256.002 879.01 256.24 879.613C256.479 880.203 256.598 880.95 256.598 881.854V885.81C256.598 886.363 256.454 886.783 256.165 887.072C255.876 887.361 255.462 887.506 254.922 887.506C254.382 887.506 253.967 887.361 253.678 887.072C253.39 886.783 253.245 886.363 253.245 885.81V881.986C253.245 881.421 253.145 881.019 252.944 880.781C252.755 880.542 252.473 880.423 252.096 880.423C251.594 880.423 251.192 880.586 250.89 880.913C250.589 881.226 250.438 881.653 250.438 882.193V885.81C250.438 886.94 249.873 887.506 248.743 887.506ZM262.126 887.543C261.335 887.543 260.631 887.349 260.016 886.959C259.413 886.57 258.936 886.011 258.585 885.283C258.245 884.554 258.076 883.694 258.076 882.702C258.076 881.685 258.245 880.818 258.585 880.103C258.936 879.387 259.413 878.834 260.016 878.445C260.631 878.056 261.335 877.861 262.126 877.861C262.817 877.861 263.438 878.024 263.991 878.351C264.543 878.677 264.914 879.098 265.102 879.613H264.895V875.582C264.895 875.029 265.039 874.608 265.328 874.319C265.617 874.031 266.032 873.886 266.572 873.886C267.099 873.886 267.507 874.031 267.796 874.319C268.097 874.608 268.248 875.029 268.248 875.582V885.81C268.248 886.363 268.104 886.783 267.815 887.072C267.539 887.361 267.13 887.506 266.59 887.506C266.063 887.506 265.655 887.361 265.366 887.072C265.077 886.783 264.933 886.363 264.933 885.81V884.737L265.14 885.66C264.964 886.225 264.594 886.683 264.028 887.035C263.476 887.374 262.842 887.543 262.126 887.543ZM263.2 885.076C263.539 885.076 263.84 884.994 264.104 884.831C264.368 884.655 264.568 884.397 264.707 884.058C264.857 883.707 264.933 883.255 264.933 882.702C264.933 881.861 264.769 881.258 264.443 880.894C264.116 880.517 263.702 880.329 263.2 880.329C262.861 880.329 262.559 880.41 262.295 880.573C262.032 880.737 261.825 880.994 261.674 881.346C261.523 881.685 261.448 882.137 261.448 882.702C261.448 883.531 261.611 884.134 261.938 884.51C262.264 884.887 262.685 885.076 263.2 885.076Z"/>
</mask>
<path d="M175.739 887.543C175.236 887.543 174.709 887.506 174.156 887.43C173.616 887.367 173.101 887.267 172.612 887.129C172.122 886.991 171.682 886.827 171.293 886.639C170.954 886.476 170.715 886.262 170.577 885.999C170.439 885.722 170.389 885.433 170.426 885.132C170.464 884.831 170.571 884.567 170.747 884.341C170.923 884.102 171.155 883.945 171.444 883.87C171.733 883.782 172.059 883.82 172.423 883.983C172.9 884.209 173.44 884.385 174.043 884.51C174.646 884.636 175.211 884.699 175.739 884.699C176.567 884.699 177.145 884.592 177.472 884.379C177.811 884.153 177.98 883.876 177.98 883.55C177.98 883.261 177.861 883.029 177.622 882.853C177.396 882.677 176.988 882.526 176.398 882.401L174.194 881.93C172.988 881.679 172.09 881.239 171.5 880.611C170.91 879.983 170.615 879.173 170.615 878.181C170.615 877.528 170.747 876.938 171.01 876.41C171.287 875.87 171.67 875.412 172.16 875.035C172.662 874.659 173.252 874.37 173.93 874.169C174.621 873.955 175.387 873.849 176.228 873.849C176.881 873.849 177.541 873.924 178.206 874.075C178.884 874.213 179.468 874.426 179.958 874.715C180.247 874.866 180.454 875.073 180.58 875.337C180.705 875.6 180.756 875.877 180.731 876.166C180.705 876.442 180.605 876.687 180.429 876.9C180.266 877.114 180.04 877.258 179.751 877.333C179.475 877.396 179.142 877.346 178.753 877.183C178.388 877.019 177.974 876.9 177.509 876.825C177.057 876.737 176.618 876.693 176.191 876.693C175.726 876.693 175.33 876.749 175.004 876.863C174.677 876.963 174.426 877.114 174.25 877.315C174.087 877.516 174.006 877.748 174.006 878.012C174.006 878.275 174.112 878.501 174.326 878.69C174.552 878.866 174.96 879.016 175.55 879.142L177.735 879.613C178.954 879.876 179.864 880.31 180.467 880.913C181.07 881.515 181.371 882.3 181.371 883.267C181.371 883.92 181.239 884.51 180.975 885.038C180.712 885.565 180.335 886.017 179.845 886.394C179.355 886.758 178.765 887.041 178.074 887.242C177.384 887.443 176.605 887.543 175.739 887.543ZM187.56 887.543C186.618 887.543 185.84 887.399 185.224 887.11C184.621 886.821 184.169 886.388 183.868 885.81C183.567 885.22 183.416 884.485 183.416 883.606V880.536H182.775C182.374 880.536 182.06 880.429 181.834 880.216C181.62 880.002 181.513 879.694 181.513 879.293C181.513 878.891 181.62 878.589 181.834 878.388C182.06 878.175 182.374 878.068 182.775 878.068H183.416V876.9C183.416 876.348 183.56 875.927 183.849 875.638C184.138 875.349 184.552 875.205 185.092 875.205C185.632 875.205 186.047 875.349 186.336 875.638C186.624 875.927 186.769 876.348 186.769 876.9V878.068H188.314C188.728 878.068 189.042 878.175 189.255 878.388C189.481 878.589 189.594 878.891 189.594 879.293C189.594 879.694 189.481 880.002 189.255 880.216C189.042 880.429 188.728 880.536 188.314 880.536H186.769V883.493C186.769 883.958 186.876 884.303 187.089 884.529C187.315 884.743 187.667 884.85 188.144 884.85C188.32 884.85 188.489 884.831 188.653 884.793C188.816 884.755 188.967 884.737 189.105 884.737C189.306 884.724 189.469 884.787 189.594 884.925C189.72 885.05 189.783 885.346 189.783 885.81C189.783 886.187 189.726 886.507 189.613 886.771C189.5 887.022 189.299 887.204 189.011 887.317C188.835 887.38 188.596 887.43 188.295 887.468C187.993 887.518 187.748 887.543 187.56 887.543ZM193.942 887.543C193.226 887.543 192.592 887.411 192.039 887.148C191.499 886.884 191.072 886.526 190.758 886.074C190.457 885.609 190.306 885.082 190.306 884.492C190.306 883.813 190.482 883.28 190.834 882.89C191.185 882.501 191.75 882.225 192.529 882.062C193.308 881.886 194.344 881.798 195.637 881.798H196.673V883.38H195.637C195.147 883.38 194.739 883.418 194.413 883.493C194.099 883.556 193.866 883.663 193.716 883.813C193.565 883.952 193.49 884.134 193.49 884.36C193.49 884.649 193.59 884.887 193.791 885.076C194.005 885.264 194.306 885.358 194.695 885.358C195.009 885.358 195.286 885.289 195.524 885.151C195.775 885.013 195.976 884.824 196.127 884.586C196.278 884.335 196.353 884.046 196.353 883.719V881.534C196.353 881.082 196.234 880.762 195.995 880.573C195.769 880.385 195.373 880.291 194.808 880.291C194.507 880.291 194.168 880.329 193.791 880.404C193.414 880.467 192.994 880.586 192.529 880.762C192.19 880.887 191.901 880.906 191.662 880.818C191.424 880.73 191.235 880.58 191.097 880.366C190.972 880.153 190.909 879.92 190.909 879.669C190.922 879.418 191.003 879.18 191.154 878.953C191.317 878.727 191.562 878.552 191.889 878.426C192.491 878.2 193.044 878.049 193.546 877.974C194.061 877.899 194.532 877.861 194.959 877.861C195.989 877.861 196.836 878.012 197.502 878.313C198.18 878.602 198.683 879.054 199.009 879.669C199.348 880.272 199.518 881.051 199.518 882.005V885.81C199.518 886.363 199.386 886.783 199.122 887.072C198.858 887.361 198.475 887.506 197.973 887.506C197.458 887.506 197.062 887.361 196.786 887.072C196.522 886.783 196.391 886.363 196.391 885.81V885.32L196.504 885.584C196.441 885.986 196.296 886.331 196.07 886.62C195.844 886.909 195.549 887.135 195.185 887.298C194.821 887.462 194.406 887.543 193.942 887.543ZM203.141 887.506C202.589 887.506 202.162 887.361 201.86 887.072C201.571 886.783 201.427 886.363 201.427 885.81V879.575C201.427 879.035 201.565 878.621 201.841 878.332C202.13 878.043 202.538 877.899 203.066 877.899C203.593 877.899 203.995 878.043 204.271 878.332C204.548 878.621 204.686 879.035 204.686 879.575V880.347H204.497C204.623 879.594 204.943 878.997 205.458 878.558C205.986 878.118 206.639 877.886 207.417 877.861C207.781 877.848 208.051 877.943 208.227 878.143C208.416 878.332 208.516 878.69 208.529 879.217C208.529 879.669 208.434 880.027 208.246 880.291C208.058 880.555 207.7 880.712 207.172 880.762L206.739 880.8C206.074 880.862 205.59 881.051 205.289 881.365C204.987 881.666 204.837 882.118 204.837 882.721V885.81C204.837 886.363 204.692 886.783 204.403 887.072C204.114 887.361 203.694 887.506 203.141 887.506ZM215.007 887.543C214.065 887.543 213.286 887.399 212.671 887.11C212.068 886.821 211.616 886.388 211.314 885.81C211.013 885.22 210.862 884.485 210.862 883.606V880.536H210.222C209.82 880.536 209.506 880.429 209.28 880.216C209.067 880.002 208.96 879.694 208.96 879.293C208.96 878.891 209.067 878.589 209.28 878.388C209.506 878.175 209.82 878.068 210.222 878.068H210.862V876.9C210.862 876.348 211.007 875.927 211.296 875.638C211.584 875.349 211.999 875.205 212.539 875.205C213.079 875.205 213.493 875.349 213.782 875.638C214.071 875.927 214.215 876.348 214.215 876.9V878.068H215.76C216.175 878.068 216.488 878.175 216.702 878.388C216.928 878.589 217.041 878.891 217.041 879.293C217.041 879.694 216.928 880.002 216.702 880.216C216.488 880.429 216.175 880.536 215.76 880.536H214.215V883.493C214.215 883.958 214.322 884.303 214.536 884.529C214.762 884.743 215.113 884.85 215.591 884.85C215.766 884.85 215.936 884.831 216.099 884.793C216.262 884.755 216.413 884.737 216.551 884.737C216.752 884.724 216.915 884.787 217.041 884.925C217.167 885.05 217.229 885.346 217.229 885.81C217.229 886.187 217.173 886.507 217.06 886.771C216.947 887.022 216.746 887.204 216.457 887.317C216.281 887.38 216.043 887.43 215.741 887.468C215.44 887.518 215.195 887.543 215.007 887.543ZM225.008 887.75C224.895 888.077 224.725 888.316 224.499 888.466C224.273 888.617 224.028 888.686 223.764 888.674C223.501 888.674 223.256 888.604 223.03 888.466C222.816 888.341 222.659 888.146 222.559 887.882C222.458 887.631 222.458 887.336 222.559 886.997L226.741 873.962C226.841 873.635 227.004 873.396 227.23 873.246C227.469 873.095 227.714 873.026 227.965 873.039C228.229 873.039 228.474 873.108 228.7 873.246C228.926 873.371 229.089 873.56 229.189 873.811C229.29 874.062 229.284 874.363 229.171 874.715L225.008 887.75ZM237.549 887.336C236.959 887.336 236.506 887.185 236.193 886.884C235.891 886.57 235.74 886.124 235.74 885.547V875.845C235.74 875.268 235.891 874.828 236.193 874.527C236.506 874.213 236.959 874.056 237.549 874.056H243.935C244.387 874.056 244.726 874.169 244.952 874.395C245.178 874.621 245.291 874.947 245.291 875.374C245.291 875.814 245.178 876.153 244.952 876.392C244.726 876.618 244.387 876.731 243.935 876.731H239.056V879.255H243.52C243.96 879.255 244.293 879.368 244.519 879.594C244.757 879.82 244.877 880.153 244.877 880.592C244.877 881.032 244.757 881.365 244.519 881.591C244.293 881.817 243.96 881.93 243.52 881.93H239.056V884.661H243.935C244.387 884.661 244.726 884.78 244.952 885.019C245.178 885.245 245.291 885.572 245.291 885.999C245.291 886.438 245.178 886.771 244.952 886.997C244.726 887.223 244.387 887.336 243.935 887.336H237.549ZM248.743 887.506C248.216 887.506 247.807 887.361 247.519 887.072C247.23 886.783 247.085 886.363 247.085 885.81V879.575C247.085 879.035 247.223 878.621 247.5 878.332C247.789 878.043 248.197 877.899 248.724 877.899C249.252 877.899 249.654 878.043 249.93 878.332C250.206 878.621 250.344 879.035 250.344 879.575V880.46L250.137 879.688C250.438 879.098 250.865 878.646 251.418 878.332C251.983 878.018 252.624 877.861 253.339 877.861C254.08 877.861 254.689 878.005 255.167 878.294C255.644 878.57 256.002 879.01 256.24 879.613C256.479 880.203 256.598 880.95 256.598 881.854V885.81C256.598 886.363 256.454 886.783 256.165 887.072C255.876 887.361 255.462 887.506 254.922 887.506C254.382 887.506 253.967 887.361 253.678 887.072C253.39 886.783 253.245 886.363 253.245 885.81V881.986C253.245 881.421 253.145 881.019 252.944 880.781C252.755 880.542 252.473 880.423 252.096 880.423C251.594 880.423 251.192 880.586 250.89 880.913C250.589 881.226 250.438 881.653 250.438 882.193V885.81C250.438 886.94 249.873 887.506 248.743 887.506ZM262.126 887.543C261.335 887.543 260.631 887.349 260.016 886.959C259.413 886.57 258.936 886.011 258.585 885.283C258.245 884.554 258.076 883.694 258.076 882.702C258.076 881.685 258.245 880.818 258.585 880.103C258.936 879.387 259.413 878.834 260.016 878.445C260.631 878.056 261.335 877.861 262.126 877.861C262.817 877.861 263.438 878.024 263.991 878.351C264.543 878.677 264.914 879.098 265.102 879.613H264.895V875.582C264.895 875.029 265.039 874.608 265.328 874.319C265.617 874.031 266.032 873.886 266.572 873.886C267.099 873.886 267.507 874.031 267.796 874.319C268.097 874.608 268.248 875.029 268.248 875.582V885.81C268.248 886.363 268.104 886.783 267.815 887.072C267.539 887.361 267.13 887.506 266.59 887.506C266.063 887.506 265.655 887.361 265.366 887.072C265.077 886.783 264.933 886.363 264.933 885.81V884.737L265.14 885.66C264.964 886.225 264.594 886.683 264.028 887.035C263.476 887.374 262.842 887.543 262.126 887.543ZM263.2 885.076C263.539 885.076 263.84 884.994 264.104 884.831C264.368 884.655 264.568 884.397 264.707 884.058C264.857 883.707 264.933 883.255 264.933 882.702C264.933 881.861 264.769 881.258 264.443 880.894C264.116 880.517 263.702 880.329 263.2 880.329C262.861 880.329 262.559 880.41 262.295 880.573C262.032 880.737 261.825 880.994 261.674 881.346C261.523 881.685 261.448 882.137 261.448 882.702C261.448 883.531 261.611 884.134 261.938 884.51C262.264 884.887 262.685 885.076 263.2 885.076Z" fill="black"/>
<path d="M174.156 887.43L175.005 881.209L174.943 881.2L174.882 881.193L174.156 887.43ZM171.293 886.639L174.028 880.987L174.017 880.982L171.293 886.639ZM170.577 885.999L164.961 888.807L164.987 888.86L165.015 888.912L170.577 885.999ZM170.426 885.132L176.657 885.911V885.911L170.426 885.132ZM170.747 884.341L175.703 888.196L175.753 888.131L175.802 888.066L170.747 884.341ZM171.444 883.87L173.029 889.946L173.151 889.914L173.272 889.877L171.444 883.87ZM172.423 883.983L175.111 878.308L175.052 878.28L174.992 878.253L172.423 883.983ZM174.043 884.51L175.324 878.363H175.324L174.043 884.51ZM177.472 884.379L180.908 889.634L180.931 889.619L180.955 889.603L177.472 884.379ZM177.622 882.853L173.767 887.809L173.832 887.859L173.898 887.908L177.622 882.853ZM176.398 882.401L175.086 888.541L175.091 888.542L176.398 882.401ZM174.194 881.93L175.506 875.789L175.49 875.786L175.475 875.783L174.194 881.93ZM171.5 880.611L176.075 876.311L176.075 876.311L171.5 880.611ZM171.01 876.41L165.42 873.55L165.407 873.576L165.394 873.602L171.01 876.41ZM172.16 875.035L168.392 870.012L168.361 870.035L168.331 870.058L172.16 875.035ZM173.93 874.169L175.714 880.189L175.749 880.179L175.784 880.168L173.93 874.169ZM178.206 874.075L176.82 880.199L176.886 880.214L176.953 880.227L178.206 874.075ZM179.958 874.715L176.768 880.124L176.909 880.207L177.054 880.282L179.958 874.715ZM180.58 875.337L174.911 878.036L174.911 878.036L180.58 875.337ZM180.731 876.166L186.984 876.734L186.985 876.722L186.986 876.71L180.731 876.166ZM180.429 876.9L175.582 872.909L175.51 872.996L175.441 873.086L180.429 876.9ZM179.751 877.333L181.143 883.456L181.24 883.434L181.336 883.409L179.751 877.333ZM178.753 877.183L176.184 882.912L176.254 882.944L176.324 882.973L178.753 877.183ZM177.509 876.825L176.311 882.989L176.407 883.007L176.504 883.023L177.509 876.825ZM175.004 876.863L176.851 882.864L176.955 882.832L177.058 882.796L175.004 876.863ZM174.25 877.315L169.525 873.18L169.449 873.266L169.377 873.355L174.25 877.315ZM174.326 878.69L170.171 883.398L170.317 883.527L170.471 883.646L174.326 878.69ZM175.55 879.142L176.873 873.004L176.865 873.002L176.857 873L175.55 879.142ZM177.735 879.613L179.064 873.476L179.058 873.475L177.735 879.613ZM180.975 885.038L186.592 887.846L186.592 887.846L180.975 885.038ZM179.845 886.394L183.592 891.433L183.633 891.402L183.674 891.371L179.845 886.394ZM178.074 887.242L179.828 893.271H179.828L178.074 887.242ZM175.739 887.543V881.264C175.549 881.264 175.306 881.25 175.005 881.209L174.156 887.43L173.308 893.652C174.111 893.761 174.924 893.822 175.739 893.822V887.543ZM174.156 887.43L174.882 881.193C174.65 881.166 174.464 881.127 174.316 881.086L172.612 887.129L170.907 893.172C171.739 893.407 172.582 893.569 173.431 893.667L174.156 887.43ZM172.612 887.129L174.316 881.086C174.12 881.03 174.034 880.99 174.028 880.987L171.293 886.639L168.558 892.291C169.331 892.665 170.123 892.951 170.907 893.172L172.612 887.129ZM171.293 886.639L174.017 880.982C174.57 881.248 175.502 881.869 176.139 883.085L170.577 885.999L165.015 888.912C165.928 890.656 167.338 891.704 168.569 892.297L171.293 886.639ZM170.577 885.999L176.193 883.191C176.6 884.003 176.776 884.96 176.657 885.911L170.426 885.132L164.196 884.353C164.002 885.907 164.278 887.442 164.961 888.807L170.577 885.999ZM170.426 885.132L176.657 885.911C176.563 886.66 176.264 887.475 175.703 888.196L170.747 884.341L165.79 880.486C164.878 881.659 164.365 883.001 164.196 884.353L170.426 885.132ZM170.747 884.341L175.802 888.066C175.118 888.994 174.121 889.661 173.029 889.946L171.444 883.87L169.859 877.794C168.189 878.23 166.727 879.211 165.692 880.616L170.747 884.341ZM171.444 883.87L173.272 889.877C171.697 890.356 170.422 889.967 169.855 889.713L172.423 883.983L174.992 878.253C173.696 877.672 171.768 877.208 169.615 877.863L171.444 883.87ZM172.423 883.983L169.735 889.658C170.728 890.128 171.752 890.447 172.763 890.658L174.043 884.51L175.324 878.363C175.129 878.323 175.073 878.29 175.111 878.308L172.423 883.983ZM174.043 884.51L172.763 890.658C173.719 890.857 174.716 890.978 175.739 890.978V884.699V878.42C175.706 878.42 175.574 878.415 175.324 878.363L174.043 884.51ZM175.739 884.699V890.978C176.69 890.978 178.92 890.934 180.908 889.634L177.472 884.379L174.035 879.123C174.455 878.849 174.828 878.69 175.083 878.6C175.342 878.508 175.542 878.465 175.653 878.444C175.858 878.406 175.913 878.42 175.739 878.42V884.699ZM177.472 884.379L180.955 889.603C182.549 888.54 184.259 886.505 184.259 883.55H177.98H171.701C171.701 882.563 171.975 881.575 172.501 880.718C172.997 879.909 173.591 879.419 173.989 879.154L177.472 884.379ZM177.98 883.55H184.259C184.259 881.205 183.142 879.121 181.347 877.798L177.622 882.853L173.898 887.908C173.342 887.498 172.745 886.884 172.305 886.027C171.862 885.165 171.701 884.296 171.701 883.55H177.98ZM177.622 882.853L181.477 877.896C180.048 876.784 178.416 876.41 177.705 876.259L176.398 882.401L175.091 888.542C175.195 888.564 175.135 888.559 174.972 888.498C174.885 888.466 174.735 888.406 174.544 888.308C174.358 888.212 174.081 888.054 173.767 887.809L177.622 882.853ZM176.398 882.401L177.71 876.26L175.506 875.789L174.194 881.93L172.882 888.07L175.086 888.541L176.398 882.401ZM174.194 881.93L175.475 875.783C175.271 875.74 175.262 875.716 175.377 875.772C175.502 875.833 175.775 875.992 176.075 876.311L171.5 880.611L166.925 884.912C168.703 886.803 170.966 887.671 172.913 888.077L174.194 881.93ZM171.5 880.611L176.075 876.311C176.363 876.617 176.592 876.989 176.736 877.383C176.874 877.762 176.894 878.053 176.894 878.181H170.615H164.336C164.336 880.512 165.075 882.943 166.925 884.912L171.5 880.611ZM170.615 878.181H176.894C176.894 878.397 176.844 878.784 176.627 879.219L171.01 876.41L165.394 873.602C164.649 875.092 164.336 876.659 164.336 878.181H170.615ZM171.01 876.41L176.6 879.27C176.445 879.574 176.221 879.833 175.988 880.012L172.16 875.035L168.331 870.058C167.119 870.991 166.128 872.167 165.42 873.55L171.01 876.41ZM172.16 875.035L175.927 880.059C175.762 880.182 175.661 880.205 175.714 880.189L173.93 874.169L172.146 868.148C170.843 868.535 169.562 869.135 168.392 870.012L172.16 875.035ZM173.93 874.169L175.784 880.168C175.786 880.168 175.915 880.128 176.228 880.128V873.849V867.569C174.859 867.569 173.456 867.743 172.076 868.17L173.93 874.169ZM176.228 873.849V880.128C176.394 880.128 176.589 880.146 176.82 880.199L178.206 874.075L179.593 867.951C178.493 867.701 177.368 867.569 176.228 867.569V873.849ZM178.206 874.075L176.953 880.227C177.092 880.256 176.992 880.256 176.768 880.124L179.958 874.715L183.148 869.306C181.944 868.597 180.677 868.17 179.46 867.922L178.206 874.075ZM179.958 874.715L177.054 880.282C176.281 879.879 175.438 879.144 174.911 878.036L180.58 875.337L186.249 872.637C185.47 871.002 184.213 869.853 182.863 869.148L179.958 874.715ZM180.58 875.337L174.911 878.036C174.559 877.298 174.402 876.456 174.475 875.622L180.731 876.166L186.986 876.71C187.109 875.298 186.852 873.903 186.249 872.637L180.58 875.337ZM180.731 876.166L174.477 875.597C174.566 874.621 174.953 873.672 175.582 872.909L180.429 876.9L185.276 880.892C186.257 879.701 186.845 878.263 186.984 876.734L180.731 876.166ZM180.429 876.9L175.441 873.086C176.223 872.064 177.259 871.494 178.166 871.258L179.751 877.333L181.336 883.409C182.821 883.022 184.309 882.164 185.417 880.714L180.429 876.9ZM179.751 877.333L178.359 871.21C179.847 870.872 180.923 871.284 181.181 871.392L178.753 877.183L176.324 882.973C177.36 883.408 179.103 883.92 181.143 883.456L179.751 877.333ZM178.753 877.183L181.321 871.453C180.379 871.031 179.425 870.774 178.514 870.627L177.509 876.825L176.504 883.023C176.523 883.026 176.398 883.008 176.184 882.912L178.753 877.183ZM177.509 876.825L178.708 870.661C177.892 870.502 177.05 870.414 176.191 870.414V876.693V882.972C176.185 882.972 176.223 882.971 176.311 882.989L177.509 876.825ZM176.191 876.693V870.414C175.252 870.414 174.121 870.524 172.95 870.929L175.004 876.863L177.058 882.796C176.54 882.975 176.2 882.972 176.191 882.972V876.693ZM175.004 876.863L173.157 870.861C172.024 871.21 170.656 871.887 169.525 873.18L174.25 877.315L178.976 881.449C178.197 882.34 177.331 882.716 176.851 882.864L175.004 876.863ZM174.25 877.315L169.377 873.355C168.286 874.698 167.726 876.335 167.726 878.012H174.006H180.285C180.285 879.161 179.888 880.333 179.124 881.274L174.25 877.315ZM174.006 878.012H167.726C167.726 880.232 168.728 882.125 170.171 883.398L174.326 878.69L178.48 873.981C178.925 874.374 179.405 874.938 179.764 875.698C180.128 876.469 180.285 877.268 180.285 878.012H174.006ZM174.326 878.69L170.471 883.646C171.9 884.758 173.532 885.132 174.244 885.283L175.55 879.142L176.857 873C176.753 872.978 176.813 872.984 176.976 873.044C177.064 873.076 177.214 873.136 177.404 873.234C177.59 873.33 177.867 873.489 178.181 873.733L174.326 878.69ZM175.55 879.142L174.227 885.28L176.412 885.751L177.735 879.613L179.058 873.475L176.873 873.004L175.55 879.142ZM177.735 879.613L176.407 885.75C176.649 885.802 176.704 885.839 176.634 885.805C176.558 885.769 176.315 885.64 176.027 885.353L180.467 880.913L184.907 876.473C183.143 874.709 180.946 873.883 179.064 873.476L177.735 879.613ZM180.467 880.913L176.027 885.353C175.715 885.041 175.452 884.645 175.283 884.204C175.12 883.779 175.092 883.439 175.092 883.267H181.371H187.65C187.65 880.878 186.849 878.415 184.907 876.473L180.467 880.913ZM181.371 883.267H175.092C175.092 883.052 175.142 882.664 175.359 882.23L180.975 885.038L186.592 887.846C187.336 886.356 187.65 884.789 187.65 883.267H181.371ZM180.975 885.038L175.359 882.23C175.54 881.868 175.791 881.591 176.017 881.417L179.845 886.394L183.674 891.371C184.879 890.444 185.883 889.263 186.592 887.846L180.975 885.038ZM179.845 886.394L176.098 881.355C176.305 881.202 176.419 881.184 176.321 881.213L178.074 887.242L179.828 893.271C181.112 892.898 182.406 892.315 183.592 891.433L179.845 886.394ZM178.074 887.242L176.321 881.213C176.302 881.218 176.129 881.264 175.739 881.264V887.543V893.822C177.082 893.822 178.465 893.668 179.828 893.271L178.074 887.242ZM185.224 887.11L182.511 892.773L182.534 892.783L182.556 892.794L185.224 887.11ZM183.868 885.81L178.276 888.666L178.288 888.69L178.301 888.715L183.868 885.81ZM183.416 880.536H189.695V874.257H183.416V880.536ZM181.834 880.216L177.394 884.656L177.457 884.719L177.522 884.781L181.834 880.216ZM181.834 878.388L186.137 882.961L186.145 882.953L181.834 878.388ZM183.416 878.068V884.347H189.695V878.068H183.416ZM186.336 875.638L181.896 880.078L181.896 880.078L186.336 875.638ZM186.769 878.068H180.49V884.347H186.769V878.068ZM189.255 878.388L184.815 882.828L184.946 882.959L185.084 883.081L189.255 878.388ZM189.255 880.216L184.944 875.651L184.879 875.712L184.815 875.776L189.255 880.216ZM186.769 880.536V874.257H180.49V880.536H186.769ZM187.089 884.529L182.524 888.841L182.647 888.971L182.778 889.094L187.089 884.529ZM188.653 884.793L190.065 890.911L190.065 890.911L188.653 884.793ZM189.105 884.737V891.016H189.301L189.496 891.003L189.105 884.737ZM189.594 884.925L184.948 889.149L185.049 889.259L185.154 889.365L189.594 884.925ZM189.613 886.771L195.339 889.348L195.363 889.296L195.385 889.244L189.613 886.771ZM189.011 887.317L191.122 893.231L191.211 893.199L191.299 893.165L189.011 887.317ZM188.295 887.468L187.516 881.237L187.389 881.253L187.262 881.274L188.295 887.468ZM187.56 887.543V881.264C187.403 881.264 187.364 881.252 187.415 881.261C187.468 881.271 187.643 881.309 187.892 881.426L185.224 887.11L182.556 892.794C184.264 893.595 186.03 893.822 187.56 893.822V887.543ZM185.224 887.11L187.938 881.447C188.196 881.571 188.492 881.761 188.778 882.035C189.065 882.31 189.282 882.614 189.435 882.906L183.868 885.81L178.301 888.715C179.248 890.529 180.718 891.913 182.511 892.773L185.224 887.11ZM183.868 885.81L189.46 882.955C189.733 883.489 189.695 883.803 189.695 883.606H183.416H177.137C177.137 885.167 177.4 886.951 178.276 888.666L183.868 885.81ZM183.416 883.606H189.695V880.536H183.416H177.137V883.606H183.416ZM183.416 880.536V874.257H182.775V880.536V886.815H183.416V880.536ZM182.775 880.536V874.257C183.491 874.257 184.895 874.47 186.145 875.651L181.834 880.216L177.522 884.781C179.224 886.388 181.256 886.815 182.775 886.815V880.536ZM181.834 880.216L186.274 875.776C187.587 877.089 187.792 878.599 187.792 879.293H181.513H175.234C175.234 880.79 175.653 882.915 177.394 884.656L181.834 880.216ZM181.513 879.293H187.792C187.792 879.959 187.597 881.587 186.137 882.961L181.834 878.388L177.53 873.816C175.643 875.592 175.234 877.822 175.234 879.293H181.513ZM181.834 878.388L186.145 882.953C184.895 884.134 183.491 884.347 182.775 884.347V878.068V871.789C181.256 871.789 179.224 872.216 177.522 873.823L181.834 878.388ZM182.775 878.068V884.347H183.416V878.068V871.789H182.775V878.068ZM183.416 878.068H189.695V876.9H183.416H177.137V878.068H183.416ZM183.416 876.9H189.695C189.695 877.409 189.545 878.822 188.289 880.078L183.849 875.638L179.409 871.198C177.575 873.032 177.137 875.286 177.137 876.9H183.416ZM183.849 875.638L188.289 880.078C187.058 881.309 185.662 881.484 185.092 881.484V875.205V868.926C183.443 868.926 181.217 869.39 179.409 871.198L183.849 875.638ZM185.092 875.205V881.484C184.523 881.484 183.126 881.309 181.896 880.078L186.336 875.638L190.776 871.198C188.967 869.39 186.742 868.926 185.092 868.926V875.205ZM186.336 875.638L181.896 880.078C180.64 878.822 180.49 877.409 180.49 876.9H186.769H193.048C193.048 875.286 192.609 873.032 190.776 871.198L186.336 875.638ZM186.769 876.9H180.49V878.068H186.769H193.048V876.9H186.769ZM186.769 878.068V884.347H188.314V878.068V871.789H186.769V878.068ZM188.314 878.068V884.347C187.697 884.347 186.163 884.176 184.815 882.828L189.255 878.388L193.695 873.948C191.921 872.174 189.759 871.789 188.314 871.789V878.068ZM189.255 878.388L185.084 883.081C183.566 881.732 183.315 880.063 183.315 879.293H189.594H195.874C195.874 877.719 195.397 875.446 193.427 873.695L189.255 878.388ZM189.594 879.293H183.315C183.315 878.499 183.573 876.945 184.944 875.651L189.255 880.216L193.567 884.781C195.39 883.059 195.874 880.889 195.874 879.293H189.594ZM189.255 880.216L184.815 875.776C186.163 874.428 187.697 874.257 188.314 874.257V880.536V886.815C189.759 886.815 191.921 886.43 193.695 884.656L189.255 880.216ZM188.314 880.536V874.257H186.769V880.536V886.815H188.314V880.536ZM186.769 880.536H180.49V883.493H186.769H193.048V880.536H186.769ZM186.769 883.493H180.49C180.49 884.783 180.772 886.985 182.524 888.841L187.089 884.529L191.654 880.218C192.979 881.621 193.048 883.132 193.048 883.493H186.769ZM187.089 884.529L182.778 889.094C184.659 890.871 186.896 891.129 188.144 891.129V884.85V878.57C188.438 878.57 189.971 878.614 191.401 879.964L187.089 884.529ZM188.144 884.85V891.129C188.772 891.129 189.416 891.061 190.065 890.911L188.653 884.793L187.241 878.675C187.563 878.6 187.868 878.57 188.144 878.57V884.85ZM188.653 884.793L190.065 890.911C189.859 890.959 189.53 891.016 189.105 891.016V884.737V878.457C188.403 878.457 187.773 878.552 187.241 878.675L188.653 884.793ZM189.105 884.737L189.496 891.003C188.832 891.045 188.003 890.973 187.124 890.635C186.23 890.291 185.499 889.754 184.948 889.149L189.594 884.925L194.241 880.701C192.722 879.031 190.645 878.349 188.713 878.47L189.105 884.737ZM189.594 884.925L185.154 889.365C184.511 888.721 184.147 888.065 183.946 887.617C183.743 887.164 183.644 886.782 183.594 886.547C183.542 886.303 183.522 886.116 183.513 886.011C183.504 885.901 183.504 885.831 183.504 885.81H189.783H196.062C196.062 885.347 196.035 884.675 195.877 883.934C195.75 883.337 195.366 881.817 194.034 880.485L189.594 884.925ZM189.783 885.81H183.504C183.504 885.59 183.533 885.019 183.842 884.297L189.613 886.771L195.385 889.244C195.92 887.996 196.062 886.784 196.062 885.81H189.783ZM189.613 886.771L183.887 884.194C184.18 883.544 184.611 882.942 185.161 882.443C185.701 881.954 186.258 881.652 186.722 881.47L189.011 887.317L191.299 893.165C192.907 892.535 194.465 891.29 195.339 889.348L189.613 886.771ZM189.011 887.317L186.899 881.404C187.144 881.316 187.327 881.274 187.406 881.258C187.492 881.239 187.534 881.235 187.516 881.237L188.295 887.468L189.074 893.699C189.585 893.635 190.332 893.513 191.122 893.231L189.011 887.317ZM188.295 887.468L187.262 881.274C187.212 881.283 187.209 881.282 187.244 881.278C187.274 881.275 187.387 881.264 187.56 881.264V887.543V893.822C188.24 893.822 188.866 893.738 189.327 893.662L188.295 887.468ZM192.039 887.148L189.284 892.79L189.309 892.802L189.335 892.814L192.039 887.148ZM190.758 886.074L185.49 889.491L185.544 889.574L185.601 889.656L190.758 886.074ZM192.529 882.062L193.818 888.207L193.865 888.197L193.912 888.187L192.529 882.062ZM196.673 881.798H202.952V875.519H196.673V881.798ZM196.673 883.38V889.659H202.952V883.38H196.673ZM194.413 883.493L195.644 889.65L195.735 889.632L195.825 889.612L194.413 883.493ZM193.716 883.813L197.959 888.442L198.059 888.35L198.156 888.253L193.716 883.813ZM193.791 885.076L189.497 889.656L189.566 889.721L189.637 889.784L193.791 885.076ZM195.524 885.151L192.498 879.649L192.438 879.682L192.378 879.717L195.524 885.151ZM196.127 884.586L201.436 887.939L201.474 887.878L201.511 887.816L196.127 884.586ZM195.995 880.573L191.975 885.397L192.039 885.45L192.104 885.502L195.995 880.573ZM193.791 880.404L194.823 886.598L194.923 886.581L195.023 886.561L193.791 880.404ZM192.529 880.762L194.71 886.65L194.73 886.642L194.751 886.635L192.529 880.762ZM191.097 880.366L185.685 883.55L185.753 883.665L185.826 883.777L191.097 880.366ZM190.909 879.669L184.638 879.356L184.63 879.512V879.669H190.909ZM191.154 878.953L186.064 875.277L185.995 875.373L185.929 875.47L191.154 878.953ZM191.889 878.426L189.684 872.547L189.659 872.556L189.634 872.565L191.889 878.426ZM193.546 877.974L192.637 871.761L192.626 871.763L192.615 871.764L193.546 877.974ZM197.502 878.313L194.912 884.033L194.976 884.062L195.041 884.09L197.502 878.313ZM199.009 879.669L193.462 882.612L193.499 882.68L193.536 882.748L199.009 879.669ZM199.122 887.072L194.485 882.839L194.485 882.839L199.122 887.072ZM196.786 887.072L192.149 891.306L192.198 891.36L192.249 891.413L196.786 887.072ZM196.391 885.32L202.162 882.847L190.112 885.32H196.391ZM196.504 885.584L202.707 886.554L202.986 884.77L202.275 883.111L196.504 885.584ZM196.07 886.62L201.015 890.49L201.015 890.49L196.07 886.62ZM195.185 887.298L192.617 881.569L192.617 881.569L195.185 887.298ZM193.942 887.543V881.264C194.004 881.264 194.32 881.279 194.744 881.481L192.039 887.148L189.335 892.814C190.863 893.544 192.447 893.822 193.942 893.822V887.543ZM192.039 887.148L194.795 881.505C195.127 881.668 195.563 881.984 195.916 882.492L190.758 886.074L185.601 889.656C186.582 891.068 187.871 892.1 189.284 892.79L192.039 887.148ZM190.758 886.074L196.026 882.657C196.429 883.278 196.585 883.953 196.585 884.492H190.306H184.027C184.027 886.211 184.485 887.941 185.49 889.491L190.758 886.074ZM190.306 884.492H196.585C196.585 884.9 196.46 886.029 195.493 887.099L190.834 882.89L186.174 878.682C184.504 880.531 184.027 882.727 184.027 884.492H190.306ZM190.834 882.89L195.493 887.099C195.037 887.605 194.576 887.887 194.279 888.032C194.13 888.105 194.012 888.149 193.937 888.173C193.862 888.198 193.82 888.207 193.818 888.207L192.529 882.062L191.24 875.916C189.795 876.219 187.769 876.915 186.174 878.682L190.834 882.89ZM192.529 882.062L193.912 888.187C194.046 888.156 194.56 888.077 195.637 888.077V881.798V875.519C194.127 875.519 192.57 875.615 191.146 875.937L192.529 882.062ZM195.637 881.798V888.077H196.673V881.798V875.519H195.637V881.798ZM196.673 881.798H190.394V883.38H196.673H202.952V881.798H196.673ZM196.673 883.38V877.101H195.637V883.38V889.659H196.673V883.38ZM195.637 883.38V877.101C194.869 877.101 193.949 877.156 193.001 877.375L194.413 883.493L195.825 889.612C195.74 889.631 195.673 889.643 195.628 889.65C195.582 889.657 195.552 889.66 195.541 889.661C195.52 889.663 195.549 889.659 195.637 889.659V883.38ZM194.413 883.493L193.181 877.336C192.224 877.527 190.641 878.009 189.276 879.373L193.716 883.813L198.156 888.253C197.092 889.317 195.973 889.585 195.644 889.65L194.413 883.493ZM193.716 883.813L189.473 879.185C187.879 880.645 187.211 882.581 187.211 884.36H193.49H199.769C199.769 884.95 199.668 885.681 199.348 886.454C199.022 887.243 198.534 887.915 197.959 888.442L193.716 883.813ZM193.49 884.36H187.211C187.211 886.289 187.962 888.217 189.497 889.656L193.791 885.076L198.086 880.495C198.586 880.964 199.039 881.575 199.352 882.319C199.662 883.055 199.769 883.764 199.769 884.36H193.49ZM193.791 885.076L189.637 889.784C191.36 891.304 193.341 891.637 194.695 891.637V885.358V879.079C195.271 879.079 196.649 879.223 197.945 880.367L193.791 885.076ZM194.695 885.358V891.637C195.958 891.637 197.349 891.35 198.67 890.585L195.524 885.151L192.378 879.717C193.222 879.228 194.06 879.079 194.695 879.079V885.358ZM195.524 885.151L198.55 890.653C199.716 890.011 200.709 889.09 201.436 887.939L196.127 884.586L190.818 881.233C191.244 880.559 191.834 880.014 192.498 879.649L195.524 885.151ZM196.127 884.586L201.511 887.816C202.313 886.48 202.632 885.05 202.632 883.719H196.353H190.074C190.074 883.042 190.242 882.189 190.743 881.355L196.127 884.586ZM196.353 883.719H202.632V881.534H196.353H190.074V883.719H196.353ZM196.353 881.534H202.632C202.632 880.125 202.255 877.516 199.886 875.645L195.995 880.573L192.104 885.502C190.212 884.008 190.074 882.039 190.074 881.534H196.353ZM195.995 880.573L200.015 875.75C198.007 874.076 195.674 874.012 194.808 874.012V880.291V886.57C194.776 886.57 194.497 886.571 194.074 886.47C193.669 886.373 192.835 886.114 191.975 885.397L195.995 880.573ZM194.808 880.291V874.012C193.999 874.012 193.237 874.111 192.56 874.247L193.791 880.404L195.023 886.561C195.055 886.555 195.053 886.556 195.021 886.56C194.99 886.563 194.917 886.57 194.808 886.57V880.291ZM193.791 880.404L192.759 874.21C191.876 874.357 191.049 874.608 190.307 874.889L192.529 880.762L194.751 886.635C194.838 886.602 194.889 886.586 194.906 886.581C194.924 886.576 194.895 886.586 194.823 886.598L193.791 880.404ZM192.529 880.762L190.348 874.874C190.829 874.696 192.176 874.316 193.833 874.926L191.662 880.818L189.492 886.71C191.626 887.497 193.551 887.079 194.71 886.65L192.529 880.762ZM191.662 880.818L193.833 874.926C194.869 875.308 195.769 876.028 196.369 876.955L191.097 880.366L185.826 883.777C186.702 885.132 187.978 886.153 189.492 886.71L191.662 880.818ZM191.097 880.366L196.51 877.183C196.96 877.948 197.188 878.817 197.188 879.669H190.909H184.63C184.63 881.023 184.984 882.357 185.685 883.55L191.097 880.366ZM190.909 879.669L197.18 879.983C197.132 880.954 196.804 881.798 196.378 882.436L191.154 878.953L185.929 875.47C185.202 876.561 184.711 877.882 184.638 879.356L190.909 879.669ZM191.154 878.953L196.244 882.63C195.532 883.616 194.664 884.086 194.143 884.287L191.889 878.426L189.634 872.565C188.46 873.017 187.102 873.839 186.064 875.277L191.154 878.953ZM191.889 878.426L194.093 884.305C194.388 884.195 194.507 884.179 194.478 884.184L193.546 877.974L192.615 871.764C191.58 871.919 190.595 872.205 189.684 872.547L191.889 878.426ZM193.546 877.974L194.455 884.187C194.732 884.146 194.894 884.14 194.959 884.14V877.861V871.582C194.17 871.582 193.39 871.651 192.637 871.761L193.546 877.974ZM194.959 877.861V884.14C195.064 884.14 195.142 884.144 195.195 884.148C195.248 884.152 195.271 884.157 195.268 884.156C195.265 884.156 195.231 884.149 195.171 884.132C195.111 884.114 195.022 884.083 194.912 884.033L197.502 878.313L200.092 872.593C198.351 871.805 196.541 871.582 194.959 871.582V877.861ZM197.502 878.313L195.041 884.09C194.801 883.987 194.495 883.813 194.187 883.536C193.875 883.255 193.633 882.933 193.462 882.612L199.009 879.669L204.556 876.726C203.514 874.763 201.881 873.353 199.963 872.536L197.502 878.313ZM199.009 879.669L193.536 882.748C193.357 882.429 193.284 882.172 193.255 882.041C193.228 881.916 193.239 881.892 193.239 882.005H199.518H205.797C205.797 880.363 205.513 878.424 204.482 876.591L199.009 879.669ZM199.518 882.005H193.239V885.81H199.518H205.797V882.005H199.518ZM199.518 885.81H193.239C193.239 885.441 193.326 884.108 194.485 882.839L199.122 887.072L203.759 891.306C205.446 889.459 205.797 887.284 205.797 885.81H199.518ZM199.122 887.072L194.485 882.839C195.728 881.477 197.244 881.226 197.973 881.226V887.506V893.785C199.707 893.785 201.988 893.245 203.759 891.306L199.122 887.072ZM197.973 887.506V881.226C198.652 881.226 200.099 881.451 201.324 882.732L196.786 887.072L192.249 891.413C194.026 893.271 196.264 893.785 197.973 893.785V887.506ZM196.786 887.072L201.423 882.839C202.583 884.108 202.67 885.441 202.67 885.81H196.391H190.112C190.112 887.284 190.462 889.459 192.149 891.306L196.786 887.072ZM196.391 885.81H202.67V885.32H196.391H190.112V885.81H196.391ZM196.391 885.32L190.619 887.794L190.732 888.058L196.504 885.584L202.275 883.111L202.162 882.847L196.391 885.32ZM196.504 885.584L190.3 884.615C190.384 884.076 190.622 883.394 191.126 882.75L196.07 886.62L201.015 890.49C201.971 889.268 202.498 887.896 202.707 886.554L196.504 885.584ZM196.07 886.62L191.126 882.75C191.583 882.166 192.133 881.785 192.617 881.569L195.185 887.298L197.754 893.028C198.965 892.485 200.106 891.652 201.015 890.49L196.07 886.62ZM195.185 887.298L192.617 881.569C193.182 881.315 193.665 881.264 193.942 881.264V887.543V893.822C195.148 893.822 196.46 893.608 197.754 893.028L195.185 887.298ZM201.86 887.072L197.42 891.512L197.467 891.56L197.516 891.606L201.86 887.072ZM201.841 878.332L197.401 873.892L197.352 873.941L197.304 873.992L201.841 878.332ZM204.271 878.332L199.734 882.672L199.734 882.672L204.271 878.332ZM204.686 880.347V886.627H210.965V880.347H204.686ZM204.497 880.347L198.304 879.315L197.085 886.627H204.497V880.347ZM205.458 878.558L201.438 873.734L201.41 873.758L201.381 873.782L205.458 878.558ZM207.417 877.861L207.62 884.137L207.634 884.136L207.417 877.861ZM208.227 878.143L203.502 882.278L203.639 882.436L203.787 882.583L208.227 878.143ZM208.529 879.217H214.808V879.142L214.806 879.068L208.529 879.217ZM208.246 880.291L213.356 883.941V883.941L208.246 880.291ZM207.172 880.762L207.716 887.017L207.742 887.015L207.768 887.013L207.172 880.762ZM206.739 880.8L206.195 874.544L206.172 874.546L206.149 874.548L206.739 880.8ZM205.289 881.365L209.729 885.805L209.774 885.759L209.818 885.713L205.289 881.365ZM204.403 887.072L199.963 882.632L204.403 887.072ZM203.141 887.506V881.226C203.668 881.226 204.999 881.383 206.205 882.539L201.86 887.072L197.516 891.606C199.325 893.339 201.509 893.785 203.141 893.785V887.506ZM201.86 887.072L206.3 882.632C207.556 883.888 207.706 885.301 207.706 885.81H201.427H195.148C195.148 887.424 195.586 889.679 197.42 891.512L201.86 887.072ZM201.427 885.81H207.706V879.575H201.427H195.148V885.81H201.427ZM201.427 879.575H207.706C207.706 880.072 207.565 881.432 206.379 882.672L201.841 878.332L197.304 873.992C195.565 875.81 195.148 877.998 195.148 879.575H201.427ZM201.841 878.332L206.281 882.772C205.077 883.976 203.697 884.178 203.066 884.178V877.899V871.619C201.38 871.619 199.183 872.11 197.401 873.892L201.841 878.332ZM203.066 877.899V884.178C202.451 884.178 200.987 883.982 199.734 882.672L204.271 878.332L208.809 873.992C207.004 872.104 204.735 871.619 203.066 871.619V877.899ZM204.271 878.332L199.734 882.672C198.547 881.432 198.407 880.072 198.407 879.575H204.686H210.965C210.965 877.998 210.548 875.81 208.809 873.992L204.271 878.332ZM204.686 879.575H198.407V880.347H204.686H210.965V879.575H204.686ZM204.686 880.347V874.068H204.497V880.347V886.627H204.686V880.347ZM204.497 880.347L210.691 881.38C210.655 881.595 210.568 881.926 210.364 882.305C210.155 882.694 209.871 883.047 209.535 883.334L205.458 878.558L201.381 873.782C199.598 875.305 198.639 877.303 198.304 879.315L204.497 880.347ZM205.458 878.558L209.478 883.382C209.167 883.641 208.813 883.84 208.448 883.97C208.092 884.096 207.8 884.131 207.62 884.137L207.417 877.861L207.215 871.585C205.235 871.649 203.184 872.28 201.438 873.734L205.458 878.558ZM207.417 877.861L207.634 884.136C206.841 884.164 204.98 883.967 203.502 882.278L208.227 878.143L212.953 874.009C211.123 871.918 208.722 871.533 207.201 871.586L207.417 877.861ZM208.227 878.143L203.787 882.583C202.878 881.674 202.53 880.719 202.398 880.25C202.262 879.763 202.253 879.427 202.251 879.367L208.529 879.217L214.806 879.068C214.788 878.297 214.693 875.729 212.667 873.703L208.227 878.143ZM208.529 879.217H202.25C202.25 878.863 202.317 877.789 203.137 876.641L208.246 880.291L213.356 883.941C214.552 882.265 214.808 880.476 214.808 879.217H208.529ZM208.246 880.291L203.137 876.641C204.519 874.706 206.414 874.527 206.577 874.511L207.172 880.762L207.768 887.013C208.985 886.897 211.596 886.404 213.356 883.941L208.246 880.291ZM207.172 880.762L206.628 874.506L206.195 874.544L206.739 880.8L207.283 887.055L207.716 887.017L207.172 880.762ZM206.739 880.8L206.149 874.548C204.755 874.68 202.536 875.165 200.759 877.016L205.289 881.365L209.818 885.713C208.644 886.937 207.392 887.045 207.329 887.051L206.739 880.8ZM205.289 881.365L200.849 876.925C198.954 878.819 198.557 881.15 198.557 882.721H204.837H211.116C211.116 883.086 211.02 884.513 209.729 885.805L205.289 881.365ZM204.837 882.721H198.557V885.81H204.837H211.116V882.721H204.837ZM204.837 885.81H198.557C198.557 885.301 198.707 883.888 199.963 882.632L204.403 887.072L208.843 891.512C210.677 889.679 211.116 887.424 211.116 885.81H204.837ZM204.403 887.072L199.963 882.632C201.219 881.376 202.632 881.226 203.141 881.226V887.506V893.785C204.755 893.785 207.009 893.346 208.843 891.512L204.403 887.072ZM212.671 887.11L209.957 892.773L209.98 892.783L210.003 892.794L212.671 887.11ZM211.314 885.81L205.722 888.666L205.735 888.69L205.748 888.715L211.314 885.81ZM210.862 880.536H217.141V874.257H210.862V880.536ZM209.28 880.216L204.84 884.656L204.903 884.719L204.969 884.781L209.28 880.216ZM209.28 878.388L213.584 882.961L213.591 882.953L209.28 878.388ZM210.862 878.068V884.347H217.141V878.068H210.862ZM213.782 875.638L209.342 880.078V880.078L213.782 875.638ZM214.215 878.068H207.936V884.347H214.215V878.068ZM216.702 878.388L212.262 882.828L212.392 882.959L212.53 883.081L216.702 878.388ZM216.702 880.216L212.391 875.651L212.325 875.712L212.262 875.776L216.702 880.216ZM214.215 880.536V874.257H207.936V880.536H214.215ZM214.536 884.529L209.971 888.841L210.094 888.971L210.224 889.094L214.536 884.529ZM216.099 884.793L217.511 890.911L217.511 890.911L216.099 884.793ZM216.551 884.737V891.016H216.747L216.943 891.003L216.551 884.737ZM217.041 884.925L212.395 889.149L212.495 889.259L212.601 889.365L217.041 884.925ZM217.06 886.771L222.786 889.348L222.809 889.296L222.831 889.244L217.06 886.771ZM216.457 887.317L218.569 893.231L218.658 893.199L218.745 893.165L216.457 887.317ZM215.741 887.468L214.962 881.237L214.835 881.253L214.709 881.274L215.741 887.468ZM215.007 887.543V881.264C214.85 881.264 214.81 881.252 214.861 881.261C214.914 881.271 215.09 881.309 215.339 881.426L212.671 887.11L210.003 892.794C211.71 893.595 213.476 893.822 215.007 893.822V887.543ZM212.671 887.11L215.384 881.447C215.642 881.571 215.938 881.761 216.224 882.035C216.511 882.31 216.729 882.614 216.881 882.906L211.314 885.81L205.748 888.715C206.694 890.529 208.164 891.913 209.957 892.773L212.671 887.11ZM211.314 885.81L216.907 882.955C217.18 883.489 217.141 883.803 217.141 883.606H210.862H204.583C204.583 885.167 204.847 886.951 205.722 888.666L211.314 885.81ZM210.862 883.606H217.141V880.536H210.862H204.583V883.606H210.862ZM210.862 880.536V874.257H210.222V880.536V886.815H210.862V880.536ZM210.222 880.536V874.257C210.938 874.257 212.341 874.47 213.591 875.651L209.28 880.216L204.969 884.781C206.671 886.388 208.702 886.815 210.222 886.815V880.536ZM209.28 880.216L213.72 875.776C215.034 877.089 215.239 878.599 215.239 879.293H208.96H202.681C202.681 880.79 203.099 882.915 204.84 884.656L209.28 880.216ZM208.96 879.293H215.239C215.239 879.959 215.044 881.587 213.584 882.961L209.28 878.388L204.977 873.816C203.09 875.592 202.681 877.822 202.681 879.293H208.96ZM209.28 878.388L213.591 882.953C212.341 884.134 210.938 884.347 210.222 884.347V878.068V871.789C208.702 871.789 206.671 872.216 204.969 873.823L209.28 878.388ZM210.222 878.068V884.347H210.862V878.068V871.789H210.222V878.068ZM210.862 878.068H217.141V876.9H210.862H204.583V878.068H210.862ZM210.862 876.9H217.141C217.141 877.409 216.992 878.822 215.736 880.078L211.296 875.638L206.856 871.198C205.022 873.032 204.583 875.286 204.583 876.9H210.862ZM211.296 875.638L215.736 880.078C214.505 881.309 213.109 881.484 212.539 881.484V875.205V868.926C210.889 868.926 208.664 869.39 206.856 871.198L211.296 875.638ZM212.539 875.205V881.484C211.969 881.484 210.573 881.309 209.342 880.078L213.782 875.638L218.222 871.198C216.414 869.39 214.189 868.926 212.539 868.926V875.205ZM213.782 875.638L209.342 880.078C208.086 878.822 207.936 877.409 207.936 876.9H214.215H220.495C220.495 875.286 220.056 873.032 218.222 871.198L213.782 875.638ZM214.215 876.9H207.936V878.068H214.215H220.495V876.9H214.215ZM214.215 878.068V884.347H215.76V878.068V871.789H214.215V878.068ZM215.76 878.068V884.347C215.144 884.347 213.609 884.176 212.262 882.828L216.702 878.388L221.142 873.948C219.368 872.174 217.205 871.789 215.76 871.789V878.068ZM216.702 878.388L212.53 883.081C211.013 881.732 210.762 880.063 210.762 879.293H217.041H223.32C223.32 877.719 222.843 875.446 220.874 873.695L216.702 878.388ZM217.041 879.293H210.762C210.762 878.499 211.02 876.945 212.391 875.651L216.702 880.216L221.013 884.781C222.836 883.059 223.32 880.889 223.32 879.293H217.041ZM216.702 880.216L212.262 875.776C213.609 874.428 215.144 874.257 215.76 874.257V880.536V886.815C217.205 886.815 219.368 886.43 221.142 884.656L216.702 880.216ZM215.76 880.536V874.257H214.215V880.536V886.815H215.76V880.536ZM214.215 880.536H207.936V883.493H214.215H220.495V880.536H214.215ZM214.215 883.493H207.936C207.936 884.783 208.218 886.985 209.971 888.841L214.536 884.529L219.101 880.218C220.426 881.621 220.495 883.132 220.495 883.493H214.215ZM214.536 884.529L210.224 889.094C212.106 890.871 214.343 891.129 215.591 891.129V884.85V878.57C215.884 878.57 217.418 878.614 218.847 879.964L214.536 884.529ZM215.591 884.85V891.129C216.218 891.129 216.863 891.061 217.511 890.911L216.099 884.793L214.687 878.675C215.009 878.6 215.315 878.57 215.591 878.57V884.85ZM216.099 884.793L217.511 890.911C217.306 890.959 216.976 891.016 216.551 891.016V884.737V878.457C215.85 878.457 215.219 878.552 214.687 878.675L216.099 884.793ZM216.551 884.737L216.943 891.003C216.278 891.045 215.449 890.973 214.57 890.635C213.677 890.291 212.945 889.754 212.395 889.149L217.041 884.925L221.687 880.701C220.168 879.031 218.092 878.349 216.16 878.47L216.551 884.737ZM217.041 884.925L212.601 889.365C211.957 888.721 211.593 888.065 211.393 887.617C211.19 887.164 211.091 886.782 211.041 886.547C210.989 886.303 210.969 886.116 210.96 886.011C210.951 885.901 210.95 885.831 210.95 885.81H217.229H223.509C223.509 885.347 223.482 884.675 223.324 883.934C223.197 883.337 222.813 881.817 221.481 880.485L217.041 884.925ZM217.229 885.81H210.95C210.95 885.59 210.979 885.019 211.288 884.297L217.06 886.771L222.831 889.244C223.366 887.996 223.509 886.784 223.509 885.81H217.229ZM217.06 886.771L211.334 884.194C211.626 883.544 212.057 882.942 212.608 882.443C213.147 881.954 213.704 881.652 214.169 881.47L216.457 887.317L218.745 893.165C220.354 892.535 221.912 891.29 222.786 889.348L217.06 886.771ZM216.457 887.317L214.345 881.404C214.591 881.316 214.773 881.274 214.853 881.258C214.939 881.239 214.98 881.235 214.962 881.237L215.741 887.468L216.52 893.699C217.031 893.635 217.779 893.513 218.569 893.231L216.457 887.317ZM215.741 887.468L214.709 881.274C214.659 881.283 214.656 881.282 214.691 881.278C214.721 881.275 214.834 881.264 215.007 881.264V887.543V893.822C215.686 893.822 216.313 893.738 216.774 893.662L215.741 887.468ZM225.008 887.75L230.941 889.804L230.966 889.733L230.989 889.661L225.008 887.75ZM223.764 888.674L224.063 882.402L223.914 882.394H223.764V888.674ZM223.03 888.466L226.304 883.108L226.259 883.081L226.213 883.054L223.03 888.466ZM222.559 887.882L228.426 885.647L228.408 885.599L228.389 885.55L222.559 887.882ZM222.559 886.997L216.58 885.079L216.558 885.146L216.538 885.213L222.559 886.997ZM226.741 873.962L232.72 875.88L232.731 875.844L232.742 875.808L226.741 873.962ZM227.23 873.246L223.877 867.937L223.812 867.978L223.747 868.021L227.23 873.246ZM227.965 873.039L227.651 879.31L227.808 879.318H227.965V873.039ZM228.7 873.246L225.425 878.604L225.537 878.671L225.65 878.735L228.7 873.246ZM229.189 873.811L223.359 876.143V876.143L229.189 873.811ZM229.171 874.715L223.193 872.794L223.189 872.805L229.171 874.715ZM225.008 887.75L219.074 885.697C219.286 885.083 219.823 884.037 221.016 883.242L224.499 888.466L227.982 893.691C229.627 892.594 230.503 891.071 230.941 889.804L225.008 887.75ZM224.499 888.466L221.016 883.242C221.871 882.671 222.946 882.348 224.063 882.402L223.764 888.674L223.466 894.946C225.111 895.024 226.674 894.563 227.982 893.691L224.499 888.466ZM223.764 888.674V882.394C224.662 882.394 225.549 882.647 226.304 883.108L223.03 888.466L219.755 893.824C220.963 894.562 222.34 894.953 223.764 894.953V888.674ZM223.03 888.466L226.213 883.054C227.399 883.751 228.094 884.773 228.426 885.647L222.559 887.882L216.691 890.118C217.225 891.519 218.234 892.93 219.846 893.878L223.03 888.466ZM222.559 887.882L228.389 885.55C228.955 886.966 228.756 888.184 228.579 888.781L222.559 886.997L216.538 885.213C216.161 886.488 215.962 888.297 216.729 890.214L222.559 887.882ZM222.559 886.997L228.538 888.915L232.72 875.88L226.741 873.962L220.762 872.043L216.58 885.079L222.559 886.997ZM226.741 873.962L232.742 875.808C232.529 876.5 231.974 877.63 230.713 878.47L227.23 873.246L223.747 868.021C222.035 869.163 221.153 870.77 220.739 872.115L226.741 873.962ZM227.23 873.246L230.583 878.555C229.867 879.007 228.848 879.37 227.651 879.31L227.965 873.039L228.279 866.767C226.58 866.682 225.071 867.183 223.877 867.937L227.23 873.246ZM227.965 873.039V879.318C227.068 879.318 226.181 879.065 225.425 878.604L228.7 873.246L231.974 867.888C230.767 867.15 229.39 866.759 227.965 866.759V873.039ZM228.7 873.246L225.65 878.735C224.553 878.125 223.769 877.166 223.359 876.143L229.189 873.811L235.019 871.479C234.409 869.954 233.299 868.618 231.749 867.757L228.7 873.246ZM229.189 873.811L223.359 876.143C222.748 874.613 223.021 873.327 223.193 872.794L229.171 874.715L235.149 876.637C235.546 875.4 235.832 873.511 235.019 871.479L229.189 873.811ZM229.171 874.715L223.189 872.805L219.026 885.84L225.008 887.75L230.989 889.661L235.152 876.625L229.171 874.715ZM236.193 886.884L231.663 891.232L231.752 891.325L231.844 891.414L236.193 886.884ZM236.193 874.527L240.633 878.967V878.967L236.193 874.527ZM244.952 876.392L249.392 880.832L249.452 880.772L249.51 880.71L244.952 876.392ZM239.056 876.731V870.452H232.777V876.731H239.056ZM239.056 879.255H232.777V885.534H239.056V879.255ZM244.519 879.594L240.079 884.034L240.139 884.094L240.2 884.152L244.519 879.594ZM244.519 881.591L240.2 877.032L240.139 877.091L240.079 877.151L244.519 881.591ZM239.056 881.93V875.651H232.777V881.93H239.056ZM239.056 884.661H232.777V890.94H239.056V884.661ZM244.952 885.019L240.394 889.337L240.452 889.399L240.512 889.459L244.952 885.019ZM237.549 887.336V881.057C237.99 881.057 239.32 881.182 240.541 882.354L236.193 886.884L231.844 891.414C233.693 893.188 235.927 893.615 237.549 893.615V887.336ZM236.193 886.884L240.722 882.535C241.872 883.733 242.02 885.049 242.02 885.547H235.74H229.461C229.461 887.199 229.911 889.407 231.663 891.232L236.193 886.884ZM235.74 885.547H242.02V875.845H235.74H229.461V885.547H235.74ZM235.74 875.845H242.02C242.02 876.325 241.878 877.721 240.633 878.967L236.193 874.527L231.753 870.087C229.904 871.935 229.461 874.21 229.461 875.845H235.74ZM236.193 874.527L240.633 878.967C239.421 880.178 238.057 880.335 237.549 880.335V874.056V867.777C235.861 867.777 233.592 868.247 231.753 870.087L236.193 874.527ZM237.549 874.056V880.335H243.935V874.056V867.777H237.549V874.056ZM243.935 874.056V880.335C243.419 880.335 241.879 880.202 240.512 878.835L244.952 874.395L249.392 869.955C247.573 868.136 245.355 867.777 243.935 867.777V874.056ZM244.952 874.395L240.512 878.835C239.207 877.53 239.012 876.036 239.012 875.374H245.291H251.57C251.57 873.859 251.149 871.712 249.392 869.955L244.952 874.395ZM245.291 875.374H239.012C239.012 874.762 239.185 873.349 240.394 872.073L244.952 876.392L249.51 880.71C251.171 878.957 251.57 876.866 251.57 875.374H245.291ZM244.952 876.392L240.512 871.952C241.879 870.585 243.419 870.452 243.935 870.452V876.731V883.01C245.355 883.01 247.573 882.651 249.392 880.832L244.952 876.392ZM243.935 876.731V870.452H239.056V876.731V883.01H243.935V876.731ZM239.056 876.731H232.777V879.255H239.056H245.335V876.731H239.056ZM239.056 879.255V885.534H243.52V879.255V872.976H239.056V879.255ZM243.52 879.255V885.534C242.932 885.534 241.415 885.371 240.079 884.034L244.519 879.594L248.959 875.154C247.17 873.365 244.987 872.976 243.52 872.976V879.255ZM244.519 879.594L240.2 884.152C238.807 882.832 238.597 881.272 238.597 880.592H244.877H251.156C251.156 879.034 250.708 876.808 248.837 875.036L244.519 879.594ZM244.877 880.592H238.597C238.597 879.913 238.807 878.352 240.2 877.032L244.519 881.591L248.837 886.149C250.708 884.377 251.156 882.151 251.156 880.592H244.877ZM244.519 881.591L240.079 877.151C241.415 875.814 242.932 875.651 243.52 875.651V881.93V888.209C244.987 888.209 247.17 887.819 248.959 886.031L244.519 881.591ZM243.52 881.93V875.651H239.056V881.93V888.209H243.52V881.93ZM239.056 881.93H232.777V884.661H239.056H245.335V881.93H239.056ZM239.056 884.661V890.94H243.935V884.661V878.382H239.056V884.661ZM243.935 884.661V890.94C243.33 890.94 241.745 890.764 240.394 889.337L244.952 885.019L249.51 880.701C247.707 878.797 245.444 878.382 243.935 878.382V884.661ZM244.952 885.019L240.512 889.459C239.207 888.154 239.012 886.66 239.012 885.999H245.291H251.57C251.57 884.483 251.149 882.336 249.392 880.579L244.952 885.019ZM245.291 885.999H239.012C239.012 885.411 239.175 883.894 240.512 882.557L244.952 886.997L249.392 891.437C251.181 889.648 251.57 887.466 251.57 885.999H245.291ZM244.952 886.997L240.512 882.557C241.879 881.19 243.419 881.057 243.935 881.057V887.336V893.615C245.355 893.615 247.573 893.256 249.392 891.437L244.952 886.997ZM243.935 887.336V881.057H237.549V887.336V893.615H243.935V887.336ZM247.519 887.072L251.959 882.632L247.519 887.072ZM247.5 878.332L243.06 873.892L243.01 873.941L242.962 873.992L247.5 878.332ZM249.93 878.332L245.392 882.672V882.672L249.93 878.332ZM250.344 880.46L244.28 882.088L256.623 880.46H250.344ZM250.137 879.688L244.545 876.833L243.447 878.983L244.072 881.315L250.137 879.688ZM251.418 878.332L248.369 872.843L248.342 872.858L248.316 872.872L251.418 878.332ZM255.167 878.294L251.915 883.666L251.968 883.698L252.021 883.728L255.167 878.294ZM256.24 879.613L250.402 881.924L250.41 881.945L250.419 881.966L256.24 879.613ZM256.165 887.072L251.725 882.632L256.165 887.072ZM253.678 887.072L258.118 882.632L253.678 887.072ZM252.944 880.781L248.015 884.671L248.077 884.749L248.141 884.825L252.944 880.781ZM250.89 880.913L255.42 885.261L255.463 885.217L255.504 885.172L250.89 880.913ZM248.743 887.506V881.226C249.374 881.226 250.754 881.428 251.959 882.632L247.519 887.072L243.079 891.512C244.861 893.294 247.057 893.785 248.743 893.785V887.506ZM247.519 887.072L251.959 882.632C253.215 883.888 253.364 885.301 253.364 885.81H247.085H240.806C240.806 887.424 241.245 889.679 243.079 891.512L247.519 887.072ZM247.085 885.81H253.364V879.575H247.085H240.806V885.81H247.085ZM247.085 879.575H253.364C253.364 880.072 253.224 881.432 252.037 882.672L247.5 878.332L242.962 873.992C241.223 875.81 240.806 877.998 240.806 879.575H247.085ZM247.5 878.332L251.94 882.772C250.736 883.976 249.355 884.178 248.724 884.178V877.899V871.619C247.038 871.619 244.842 872.11 243.06 873.892L247.5 878.332ZM248.724 877.899V884.178C248.11 884.178 246.645 883.982 245.392 882.672L249.93 878.332L254.467 873.992C252.662 872.104 250.393 871.619 248.724 871.619V877.899ZM249.93 878.332L245.392 882.672C244.206 881.432 244.065 880.072 244.065 879.575H250.344H256.623C256.623 877.998 256.206 875.81 254.467 873.992L249.93 878.332ZM250.344 879.575H244.065V880.46H250.344H256.623V879.575H250.344ZM250.344 880.46L256.409 878.833L256.202 878.061L250.137 879.688L244.072 881.315L244.28 882.088L250.344 880.46ZM250.137 879.688L255.729 882.544C255.626 882.745 255.471 882.982 255.248 883.218C255.024 883.455 254.774 883.647 254.52 883.791L251.418 878.332L248.316 872.872C246.65 873.819 245.379 875.199 244.545 876.833L250.137 879.688ZM251.418 878.332L254.467 883.821C254.002 884.079 253.574 884.14 253.339 884.14V877.861V871.582C251.673 871.582 249.964 871.957 248.369 872.843L251.418 878.332ZM253.339 877.861V884.14C253.3 884.14 252.69 884.135 251.915 883.666L255.167 878.294L258.418 872.922C256.688 871.876 254.861 871.582 253.339 871.582V877.861ZM255.167 878.294L252.021 883.728C251.068 883.177 250.588 882.395 250.402 881.924L256.24 879.613L262.079 877.302C261.415 875.625 260.22 873.964 258.313 872.86L255.167 878.294ZM256.24 879.613L250.419 881.966C250.374 881.856 250.347 881.768 250.331 881.708C250.315 881.648 250.309 881.613 250.308 881.606C250.307 881.599 250.31 881.615 250.313 881.658C250.316 881.701 250.319 881.766 250.319 881.854H256.598H262.877C262.877 880.456 262.701 878.841 262.062 877.259L256.24 879.613ZM256.598 881.854H250.319V885.81H256.598H262.877V881.854H256.598ZM256.598 885.81H250.319C250.319 885.301 250.469 883.888 251.725 882.632L256.165 887.072L260.605 891.512C262.439 889.679 262.877 887.424 262.877 885.81H256.598ZM256.165 887.072L251.725 882.632C252.956 881.402 254.352 881.226 254.922 881.226V887.506V893.785C256.571 893.785 258.797 893.321 260.605 891.512L256.165 887.072ZM254.922 887.506V881.226C255.491 881.226 256.888 881.402 258.118 882.632L253.678 887.072L249.238 891.512C251.047 893.321 253.272 893.785 254.922 893.785V887.506ZM253.678 887.072L258.118 882.632C259.375 883.888 259.524 885.301 259.524 885.81H253.245H246.966C246.966 887.424 247.405 889.679 249.238 891.512L253.678 887.072ZM253.245 885.81H259.524V881.986H253.245H246.966V885.81H253.245ZM253.245 881.986H259.524C259.524 881.009 259.416 878.718 257.747 876.736L252.944 880.781L248.141 884.825C247.458 884.014 247.187 883.22 247.078 882.784C246.968 882.344 246.966 882.045 246.966 881.986H253.245ZM252.944 880.781L257.872 876.89C256.211 874.785 253.888 874.144 252.096 874.144V880.423V886.702C251.632 886.702 250.935 886.629 250.148 886.297C249.324 885.949 248.583 885.391 248.015 884.671L252.944 880.781ZM252.096 880.423V874.144C250.094 874.144 247.928 874.865 246.277 876.654L250.89 880.913L255.504 885.172C255.044 885.67 254.457 886.088 253.781 886.363C253.123 886.63 252.529 886.702 252.096 886.702V880.423ZM250.89 880.913L246.361 876.564C244.681 878.313 244.159 880.443 244.159 882.193H250.438H256.718C256.718 882.864 256.497 884.14 255.42 885.261L250.89 880.913ZM250.438 882.193H244.159V885.81H250.438H256.718V882.193H250.438ZM250.438 885.81H244.159C244.159 885.407 244.264 883.952 245.575 882.642C246.885 881.331 248.34 881.226 248.743 881.226V887.506V893.785C250.276 893.785 252.579 893.397 254.455 891.522C256.33 889.646 256.718 887.343 256.718 885.81H250.438ZM260.016 886.959L256.61 892.234L256.634 892.25L256.659 892.266L260.016 886.959ZM258.585 885.283L252.892 887.933L252.911 887.973L252.93 888.013L258.585 885.283ZM258.585 880.103L252.949 877.334L252.929 877.374L252.91 877.415L258.585 880.103ZM260.016 878.445L256.659 873.139L256.634 873.154L256.61 873.17L260.016 878.445ZM265.102 879.613V885.892H274.086L270.999 877.455L265.102 879.613ZM264.895 879.613H258.616V885.892H264.895V879.613ZM265.328 874.319L269.768 878.759L269.768 878.759L265.328 874.319ZM267.796 874.319L263.356 878.759L263.403 878.807L263.451 878.853L267.796 874.319ZM267.815 887.072L263.375 882.632L263.325 882.682L263.277 882.732L267.815 887.072ZM265.366 887.072L269.806 882.632L265.366 887.072ZM264.933 884.737L271.059 883.361L258.654 884.737H264.933ZM265.14 885.66L271.136 887.525L271.634 885.922L271.267 884.284L265.14 885.66ZM264.028 887.035L267.313 892.386L267.329 892.376L267.346 892.366L264.028 887.035ZM264.104 884.831L267.409 890.17L267.499 890.114L267.587 890.055L264.104 884.831ZM264.707 884.058L258.935 881.585L258.913 881.637L258.892 881.689L264.707 884.058ZM264.443 880.894L259.698 885.006L259.732 885.046L259.768 885.085L264.443 880.894ZM262.295 880.573L258.99 875.235L258.99 875.235L262.295 880.573ZM261.674 881.346L267.412 883.896L267.429 883.858L267.445 883.819L261.674 881.346ZM262.126 887.543V881.264C262.249 881.264 262.442 881.28 262.68 881.346C262.921 881.413 263.159 881.517 263.373 881.653L260.016 886.959L256.659 892.266C258.366 893.345 260.253 893.822 262.126 893.822V887.543ZM260.016 886.959L263.423 881.685C263.645 881.828 263.834 881.998 263.981 882.171C264.125 882.34 264.204 882.48 264.239 882.553L258.585 885.283L252.93 888.013C253.718 889.644 254.919 891.142 256.61 892.234L260.016 886.959ZM258.585 885.283L264.277 882.633C264.339 882.766 264.36 882.856 264.364 882.877C264.367 882.895 264.355 882.843 264.355 882.702H258.076H251.797C251.797 884.4 252.087 886.203 252.892 887.933L258.585 885.283ZM258.076 882.702H264.355C264.355 882.539 264.369 882.476 264.365 882.495C264.361 882.516 264.337 882.626 264.259 882.791L258.585 880.103L252.91 877.415C252.076 879.174 251.797 881.01 251.797 882.702H258.076ZM258.585 880.103L264.22 882.871C264.181 882.95 264.101 883.091 263.958 883.255C263.813 883.423 263.632 883.584 263.423 883.72L260.016 878.445L256.61 873.17C254.946 874.244 253.745 875.713 252.949 877.334L258.585 880.103ZM260.016 878.445L263.373 883.751C263.159 883.887 262.921 883.992 262.68 884.058C262.442 884.124 262.249 884.14 262.126 884.14V877.861V871.582C260.253 871.582 258.366 872.059 256.659 873.139L260.016 878.445ZM262.126 877.861V884.14C261.973 884.14 261.762 884.121 261.515 884.056C261.265 883.991 261.021 883.889 260.796 883.757L263.991 878.351L267.185 872.945C265.592 872.003 263.852 871.582 262.126 871.582V877.861ZM263.991 878.351L260.796 883.757C260.585 883.631 260.28 883.412 259.971 883.061C259.653 882.7 259.385 882.261 259.205 881.77L265.102 879.613L270.999 877.455C270.23 875.353 268.763 873.877 267.185 872.945L263.991 878.351ZM265.102 879.613V873.334H264.895V879.613V885.892H265.102V879.613ZM264.895 879.613H271.174V875.582H264.895H258.616V879.613H264.895ZM264.895 875.582H271.174C271.174 876.091 271.024 877.503 269.768 878.759L265.328 874.319L260.888 869.879C259.054 871.713 258.616 873.967 258.616 875.582H264.895ZM265.328 874.319L269.768 878.759C268.538 879.99 267.141 880.165 266.572 880.165V873.886V867.607C264.922 867.607 262.697 868.071 260.888 869.879L265.328 874.319ZM266.572 873.886V880.165C265.94 880.165 264.56 879.964 263.356 878.759L267.796 874.319L272.236 869.879C270.454 868.098 268.258 867.607 266.572 867.607V873.886ZM267.796 874.319L263.451 878.853C262.154 877.61 261.969 876.163 261.969 875.582H268.248H274.527C274.527 873.895 274.04 871.607 272.14 869.786L267.796 874.319ZM268.248 875.582H261.969V885.81H268.248H274.527V875.582H268.248ZM268.248 885.81H261.969C261.969 885.301 262.119 883.888 263.375 882.632L267.815 887.072L272.255 891.512C274.089 889.679 274.527 887.424 274.527 885.81H268.248ZM267.815 887.072L263.277 882.732C264.556 881.395 266.04 881.226 266.59 881.226V887.506V893.785C268.221 893.785 270.521 893.327 272.352 891.413L267.815 887.072ZM266.59 887.506V881.226C267.222 881.226 268.602 881.428 269.806 882.632L265.366 887.072L260.926 891.512C262.708 893.294 264.904 893.785 266.59 893.785V887.506ZM265.366 887.072L269.806 882.632C271.062 883.888 271.212 885.301 271.212 885.81H264.933H258.654C258.654 887.424 259.092 889.679 260.926 891.512L265.366 887.072ZM264.933 885.81H271.212V884.737H264.933H258.654V885.81H264.933ZM264.933 884.737L258.806 886.112L259.013 887.035L265.14 885.66L271.267 884.284L271.059 883.361L264.933 884.737ZM265.14 885.66L259.144 883.794C259.291 883.322 259.531 882.871 259.847 882.48C260.156 882.098 260.474 881.851 260.711 881.703L264.028 887.035L267.346 892.366C269.02 891.324 270.456 889.71 271.136 887.525L265.14 885.66ZM264.028 887.035L260.744 881.683C260.991 881.531 261.256 881.42 261.517 881.35C261.774 881.281 261.985 881.264 262.126 881.264V887.543V893.822C263.876 893.822 265.671 893.394 267.313 892.386L264.028 887.035ZM263.2 885.076V891.355C264.594 891.355 266.061 891.004 267.409 890.17L264.104 884.831L260.799 879.492C261.62 878.984 262.484 878.796 263.2 878.796V885.076ZM264.104 884.831L267.587 890.055C269.051 889.079 269.985 887.745 270.522 886.427L264.707 884.058L258.892 881.689C259.152 881.05 259.684 880.231 260.621 879.606L264.104 884.831ZM264.707 884.058L270.478 886.532C271.078 885.132 271.212 883.757 271.212 882.702H264.933H258.654C258.654 882.7 258.653 882.599 258.682 882.423C258.712 882.248 258.778 881.951 258.935 881.585L264.707 884.058ZM264.933 882.702H271.212C271.212 881.336 271.001 878.802 269.118 876.702L264.443 880.894L259.768 885.085C259.121 884.363 258.855 883.651 258.749 883.26C258.646 882.878 258.654 882.657 258.654 882.702H264.933ZM264.443 880.894L269.188 876.781C267.658 875.016 265.507 874.049 263.2 874.049V880.329V886.608C262.648 886.608 261.979 886.5 261.289 886.186C260.598 885.872 260.069 885.435 259.698 885.006L264.443 880.894ZM263.2 880.329V874.049C261.806 874.049 260.339 874.4 258.99 875.235L262.295 880.573L265.6 885.912C264.78 886.42 263.916 886.608 263.2 886.608V880.329ZM262.295 880.573L258.99 875.235C257.396 876.221 256.441 877.615 255.902 878.872L261.674 881.346L267.445 883.819C267.208 884.373 266.667 885.252 265.6 885.912L262.295 880.573ZM261.674 881.346L255.936 878.796C255.291 880.246 255.169 881.674 255.169 882.702H261.448H267.727C267.727 882.689 267.728 882.789 267.698 882.971C267.668 883.151 267.595 883.483 267.412 883.896L261.674 881.346ZM261.448 882.702H255.169C255.169 884.113 255.403 886.558 257.192 888.623L261.938 884.51L266.683 880.398C267.274 881.081 267.526 881.748 267.631 882.134C267.733 882.51 267.727 882.731 267.727 882.702H261.448ZM261.938 884.51L257.192 888.623C258.756 890.427 260.932 891.355 263.2 891.355V885.076V878.796C263.723 878.796 264.377 878.896 265.064 879.203C265.756 879.513 266.296 879.952 266.683 880.398L261.938 884.51Z" fill="white" mask="url(#path-2-outside-1_81_4413)"/>
</svg>
