<svg width="1522" height="2020" viewBox="0 0 1522 2020" fill="none" xmlns="http://www.w3.org/2000/svg">
<path d="M161.447 887.529C210.281 880.552 294.251 858.431 310.273 856.523C342.829 852.647 346.704 866.6 360.657 840.245C374.609 813.891 345.929 713.898 337.403 680.568C332.207 660.258 372.74 608.407 355.231 555.771C344.005 522.023 300.33 509.785 299.421 499.186C297.096 472.057 269.966 390.668 314.149 377.49C358.331 364.313 401.739 344.935 414.916 386.017C428.093 427.099 426.543 508.488 449.797 541.044C477.028 579.166 548.776 565.856 569.943 590.652C597.073 622.433 576.144 672.816 586.221 712.348C596.298 751.88 607.149 782.885 631.179 793.737C655.208 804.589 698.572 781.442 728.846 799.163C760.626 817.767 757.526 850.322 743.573 873.576C729.621 896.83 737.372 937.912 743.573 975.119C743.573 994.497 752.565 1008.6 748.224 1034.03C743.883 1059.45 687.113 1096.69 686.988 1128.6C686.801 1176.38 774.578 1189.06 793.182 1203.78C804.121 1212.44 804.809 1251.84 793.182 1261.14C781.555 1270.45 713.343 1242.54 683.113 1250.29C652.882 1258.04 635.054 1282.07 604.824 1290.6C574.594 1299.12 607.925 1388.27 613.351 1410.74C618.776 1433.22 666.06 1513.84 654.433 1551.04C642.806 1588.25 623.427 1608.4 597.848 1613.05C572.268 1617.7 546.689 1672.74 526.536 1651.81C506.382 1630.88 489.329 1496.78 487.779 1466.55C486.229 1436.32 450.572 1268.12 446.697 1250.29C442.821 1232.46 386.236 965.042 386.236 939.463C386.236 923.233 390.629 890.112 380.81 887.529" stroke="black" stroke-width="15.5027" stroke-linecap="round" stroke-dasharray="15.5 43.41"/>
<mask id="path-2-outside-1_148_4503" maskUnits="userSpaceOnUse" x="325.201" y="871.801" width="46" height="27" fill="black">
<rect fill="white" x="325.201" y="871.801" width="46" height="27"/>
<path d="M334.178 891.801C333.595 891.801 333.148 891.652 332.838 891.355C332.541 891.045 332.392 890.604 332.392 890.034V880.453C332.392 879.883 332.541 879.449 332.838 879.151C333.148 878.841 333.595 878.686 334.178 878.686H340.484C340.931 878.686 341.266 878.798 341.489 879.021C341.712 879.244 341.824 879.566 341.824 879.988C341.824 880.422 341.712 880.757 341.489 880.993C341.266 881.216 340.931 881.328 340.484 881.328H335.666V883.82H340.075C340.509 883.82 340.838 883.932 341.061 884.155C341.297 884.379 341.414 884.707 341.414 885.141C341.414 885.575 341.297 885.904 341.061 886.127C340.838 886.35 340.509 886.462 340.075 886.462H335.666V889.16H340.484C340.931 889.16 341.266 889.277 341.489 889.513C341.712 889.736 341.824 890.059 341.824 890.48C341.824 890.914 341.712 891.243 341.489 891.466C341.266 891.69 340.931 891.801 340.484 891.801H334.178ZM345.233 891.969C344.712 891.969 344.309 891.826 344.024 891.541C343.738 891.256 343.596 890.84 343.596 890.294V884.137C343.596 883.603 343.732 883.194 344.005 882.909C344.29 882.624 344.693 882.481 345.214 882.481C345.735 882.481 346.132 882.624 346.405 882.909C346.678 883.194 346.814 883.603 346.814 884.137V885.011L346.609 884.248C346.907 883.665 347.329 883.219 347.874 882.909C348.433 882.599 349.065 882.444 349.772 882.444C350.504 882.444 351.105 882.586 351.576 882.872C352.048 883.145 352.401 883.579 352.637 884.174C352.873 884.757 352.99 885.495 352.99 886.388V890.294C352.99 890.84 352.848 891.256 352.562 891.541C352.277 891.826 351.868 891.969 351.335 891.969C350.801 891.969 350.392 891.826 350.107 891.541C349.822 891.256 349.679 890.84 349.679 890.294V886.518C349.679 885.96 349.58 885.563 349.381 885.327C349.195 885.092 348.916 884.974 348.544 884.974C348.048 884.974 347.651 885.135 347.354 885.458C347.056 885.768 346.907 886.189 346.907 886.723V890.294C346.907 891.411 346.349 891.969 345.233 891.969ZM358.449 892.006C357.668 892.006 356.974 891.814 356.366 891.429C355.771 891.045 355.299 890.493 354.952 889.773C354.617 889.054 354.45 888.205 354.45 887.225C354.45 886.22 354.617 885.364 354.952 884.658C355.299 883.951 355.771 883.405 356.366 883.02C356.974 882.636 357.668 882.444 358.449 882.444C359.131 882.444 359.745 882.605 360.291 882.927C360.837 883.25 361.203 883.665 361.389 884.174H361.184V880.193C361.184 879.647 361.327 879.232 361.612 878.946C361.897 878.661 362.306 878.519 362.84 878.519C363.361 878.519 363.764 878.661 364.049 878.946C364.347 879.232 364.495 879.647 364.495 880.193V890.294C364.495 890.84 364.353 891.256 364.068 891.541C363.795 891.826 363.392 891.969 362.858 891.969C362.337 891.969 361.934 891.826 361.649 891.541C361.364 891.256 361.221 890.84 361.221 890.294V889.234L361.426 890.146C361.252 890.704 360.886 891.156 360.328 891.504C359.783 891.838 359.156 892.006 358.449 892.006ZM359.51 889.569C359.845 889.569 360.142 889.488 360.403 889.327C360.663 889.153 360.862 888.899 360.998 888.564C361.147 888.217 361.221 887.771 361.221 887.225C361.221 886.394 361.06 885.799 360.738 885.439C360.415 885.067 360.006 884.881 359.51 884.881C359.175 884.881 358.877 884.961 358.617 885.123C358.356 885.284 358.152 885.538 358.003 885.885C357.854 886.22 357.78 886.667 357.78 887.225C357.78 888.043 357.941 888.639 358.263 889.011C358.586 889.383 359.001 889.569 359.51 889.569Z"/>
</mask>
<path d="M334.178 891.801C333.595 891.801 333.148 891.652 332.838 891.355C332.541 891.045 332.392 890.604 332.392 890.034V880.453C332.392 879.883 332.541 879.449 332.838 879.151C333.148 878.841 333.595 878.686 334.178 878.686H340.484C340.931 878.686 341.266 878.798 341.489 879.021C341.712 879.244 341.824 879.566 341.824 879.988C341.824 880.422 341.712 880.757 341.489 880.993C341.266 881.216 340.931 881.328 340.484 881.328H335.666V883.82H340.075C340.509 883.82 340.838 883.932 341.061 884.155C341.297 884.379 341.414 884.707 341.414 885.141C341.414 885.575 341.297 885.904 341.061 886.127C340.838 886.35 340.509 886.462 340.075 886.462H335.666V889.16H340.484C340.931 889.16 341.266 889.277 341.489 889.513C341.712 889.736 341.824 890.059 341.824 890.48C341.824 890.914 341.712 891.243 341.489 891.466C341.266 891.69 340.931 891.801 340.484 891.801H334.178ZM345.233 891.969C344.712 891.969 344.309 891.826 344.024 891.541C343.738 891.256 343.596 890.84 343.596 890.294V884.137C343.596 883.603 343.732 883.194 344.005 882.909C344.29 882.624 344.693 882.481 345.214 882.481C345.735 882.481 346.132 882.624 346.405 882.909C346.678 883.194 346.814 883.603 346.814 884.137V885.011L346.609 884.248C346.907 883.665 347.329 883.219 347.874 882.909C348.433 882.599 349.065 882.444 349.772 882.444C350.504 882.444 351.105 882.586 351.576 882.872C352.048 883.145 352.401 883.579 352.637 884.174C352.873 884.757 352.99 885.495 352.99 886.388V890.294C352.99 890.84 352.848 891.256 352.562 891.541C352.277 891.826 351.868 891.969 351.335 891.969C350.801 891.969 350.392 891.826 350.107 891.541C349.822 891.256 349.679 890.84 349.679 890.294V886.518C349.679 885.96 349.58 885.563 349.381 885.327C349.195 885.092 348.916 884.974 348.544 884.974C348.048 884.974 347.651 885.135 347.354 885.458C347.056 885.768 346.907 886.189 346.907 886.723V890.294C346.907 891.411 346.349 891.969 345.233 891.969ZM358.449 892.006C357.668 892.006 356.974 891.814 356.366 891.429C355.771 891.045 355.299 890.493 354.952 889.773C354.617 889.054 354.45 888.205 354.45 887.225C354.45 886.22 354.617 885.364 354.952 884.658C355.299 883.951 355.771 883.405 356.366 883.02C356.974 882.636 357.668 882.444 358.449 882.444C359.131 882.444 359.745 882.605 360.291 882.927C360.837 883.25 361.203 883.665 361.389 884.174H361.184V880.193C361.184 879.647 361.327 879.232 361.612 878.946C361.897 878.661 362.306 878.519 362.84 878.519C363.361 878.519 363.764 878.661 364.049 878.946C364.347 879.232 364.495 879.647 364.495 880.193V890.294C364.495 890.84 364.353 891.256 364.068 891.541C363.795 891.826 363.392 891.969 362.858 891.969C362.337 891.969 361.934 891.826 361.649 891.541C361.364 891.256 361.221 890.84 361.221 890.294V889.234L361.426 890.146C361.252 890.704 360.886 891.156 360.328 891.504C359.783 891.838 359.156 892.006 358.449 892.006ZM359.51 889.569C359.845 889.569 360.142 889.488 360.403 889.327C360.663 889.153 360.862 888.899 360.998 888.564C361.147 888.217 361.221 887.771 361.221 887.225C361.221 886.394 361.06 885.799 360.738 885.439C360.415 885.067 360.006 884.881 359.51 884.881C359.175 884.881 358.877 884.961 358.617 885.123C358.356 885.284 358.152 885.538 358.003 885.885C357.854 886.22 357.78 886.667 357.78 887.225C357.78 888.043 357.941 888.639 358.263 889.011C358.586 889.383 359.001 889.569 359.51 889.569Z" fill="black"/>
<path d="M332.838 891.355L328.365 895.649L328.453 895.74L328.544 895.828L332.838 891.355ZM332.838 879.151L337.223 883.536L337.223 883.536L332.838 879.151ZM341.489 880.993L345.874 885.378L345.933 885.318L345.99 885.257L341.489 880.993ZM335.666 881.328V875.127H329.465V881.328H335.666ZM335.666 883.82H329.465V890.021H335.666V883.82ZM341.061 884.155L336.676 888.54L336.735 888.599L336.796 888.657L341.061 884.155ZM341.061 886.127L336.796 881.626L336.735 881.683L336.676 881.742L341.061 886.127ZM335.666 886.462V880.261H329.465V886.462H335.666ZM335.666 889.16H329.465V895.361H335.666V889.16ZM341.489 889.513L336.987 893.778L337.045 893.839L337.104 893.898L341.489 889.513ZM334.178 891.801V885.6C334.614 885.6 335.927 885.724 337.133 886.881L332.838 891.355L328.544 895.828C330.37 897.581 332.576 898.002 334.178 898.002V891.801ZM332.838 891.355L337.312 887.06C338.447 888.243 338.593 889.542 338.593 890.034H332.392H326.191C326.191 891.666 326.634 893.847 328.365 895.649L332.838 891.355ZM332.392 890.034H338.593V880.453H332.392H326.191V890.034H332.392ZM332.392 880.453H338.593C338.593 880.927 338.453 882.306 337.223 883.536L332.838 879.151L328.453 874.766C326.628 876.592 326.191 878.838 326.191 880.453H332.392ZM332.838 879.151L337.223 883.536C336.026 884.733 334.679 884.887 334.178 884.887V878.686V872.485C332.51 872.485 330.27 872.949 328.453 874.766L332.838 879.151ZM334.178 878.686V884.887H340.484V878.686V872.485H334.178V878.686ZM340.484 878.686V884.887C339.975 884.887 338.454 884.755 337.104 883.406L341.489 879.021L345.874 874.636C344.077 872.84 341.887 872.485 340.484 872.485V878.686ZM341.489 879.021L337.104 883.406C335.815 882.117 335.623 880.641 335.623 879.988H341.824H348.025C348.025 878.492 347.609 876.371 345.874 874.636L341.489 879.021ZM341.824 879.988H335.623C335.623 879.383 335.793 877.988 336.987 876.728L341.489 880.993L345.99 885.257C347.631 883.526 348.025 881.461 348.025 879.988H341.824ZM341.489 880.993L337.104 876.608C338.454 875.258 339.975 875.127 340.484 875.127V881.328V887.529C341.887 887.529 344.077 887.174 345.874 885.378L341.489 880.993ZM340.484 881.328V875.127H335.666V881.328V887.529H340.484V881.328ZM335.666 881.328H329.465V883.82H335.666H341.867V881.328H335.666ZM335.666 883.82V890.021H340.075V883.82V877.619H335.666V883.82ZM340.075 883.82V890.021C339.494 890.021 337.996 889.86 336.676 888.54L341.061 884.155L345.446 879.77C343.679 878.004 341.524 877.619 340.075 877.619V883.82ZM341.061 884.155L336.796 888.657C335.42 887.353 335.213 885.812 335.213 885.141H341.414H347.615C347.615 883.602 347.173 881.404 345.326 879.654L341.061 884.155ZM341.414 885.141H335.213C335.213 884.47 335.42 882.929 336.796 881.626L341.061 886.127L345.326 890.629C347.173 888.879 347.615 886.68 347.615 885.141H341.414ZM341.061 886.127L336.676 881.742C337.996 880.422 339.494 880.261 340.075 880.261V886.462V892.663C341.524 892.663 343.679 892.279 345.446 890.512L341.061 886.127ZM340.075 886.462V880.261H335.666V886.462V892.663H340.075V886.462ZM335.666 886.462H329.465V889.16H335.666H341.867V886.462H335.666ZM335.666 889.16V895.361H340.484V889.16V882.958H335.666V889.16ZM340.484 889.16V895.361C339.887 895.361 338.322 895.186 336.987 893.778L341.489 889.513L345.99 885.248C344.209 883.368 341.975 882.958 340.484 882.958V889.16ZM341.489 889.513L337.104 893.898C335.815 892.609 335.623 891.133 335.623 890.48H341.824H348.025C348.025 888.984 347.609 886.863 345.874 885.128L341.489 889.513ZM341.824 890.48H335.623C335.623 889.9 335.784 888.402 337.104 887.082L341.489 891.466L345.874 895.851C347.64 894.085 348.025 891.929 348.025 890.48H341.824ZM341.489 891.466L337.104 887.082C338.454 885.732 339.975 885.6 340.484 885.6V891.801V898.002C341.887 898.002 344.077 897.647 345.874 895.851L341.489 891.466ZM340.484 891.801V885.6H334.178V891.801V898.002H340.484V891.801ZM344.024 891.541L348.408 887.156L344.024 891.541ZM344.005 882.909L339.62 878.524L339.571 878.573L339.524 878.623L344.005 882.909ZM346.405 882.909L341.924 887.195L341.924 887.195L346.405 882.909ZM346.814 885.011L340.825 886.618L353.015 885.011H346.814ZM346.609 884.248L341.087 881.428L340.002 883.552L340.62 885.855L346.609 884.248ZM347.874 882.909L344.863 877.488L344.837 877.503L344.811 877.517L347.874 882.909ZM351.576 882.872L348.366 888.177L348.417 888.208L348.47 888.238L351.576 882.872ZM352.637 884.174L346.871 886.456L346.879 886.477L346.888 886.498L352.637 884.174ZM352.562 891.541L348.178 887.156L352.562 891.541ZM350.107 891.541L354.492 887.156L350.107 891.541ZM349.381 885.327L344.514 889.17L344.575 889.247L344.638 889.322L349.381 885.327ZM347.354 885.458L351.827 889.752L351.869 889.708L351.91 889.664L347.354 885.458ZM345.233 891.969V885.768C345.856 885.768 347.219 885.967 348.408 887.156L344.024 891.541L339.639 895.926C341.399 897.685 343.568 898.17 345.233 898.17V891.969ZM344.024 891.541L348.408 887.156C349.649 888.396 349.797 889.792 349.797 890.294H343.596H337.395C337.395 891.888 337.828 894.115 339.639 895.926L344.024 891.541ZM343.596 890.294H349.797V884.137H343.596H337.395V890.294H343.596ZM343.596 884.137H349.797C349.797 884.628 349.658 885.97 348.486 887.195L344.005 882.909L339.524 878.623C337.806 880.418 337.395 882.579 337.395 884.137H343.596ZM344.005 882.909L348.39 887.294C347.201 888.483 345.838 888.682 345.214 888.682V882.481V876.28C343.549 876.28 341.38 876.764 339.62 878.524L344.005 882.909ZM345.214 882.481V888.682C344.607 888.682 343.161 888.489 341.924 887.195L346.405 882.909L350.886 878.623C349.103 876.759 346.863 876.28 345.214 876.28V882.481ZM346.405 882.909L341.924 887.195C340.752 885.97 340.613 884.628 340.613 884.137H346.814H353.015C353.015 882.579 352.603 880.418 350.886 878.623L346.405 882.909ZM346.814 884.137H340.613V885.011H346.814H353.015V884.137H346.814ZM346.814 885.011L352.803 883.404L352.599 882.641L346.609 884.248L340.62 885.855L340.825 886.618L346.814 885.011ZM346.609 884.248L352.132 887.068C352.03 887.267 351.877 887.501 351.657 887.734C351.436 887.968 351.188 888.158 350.938 888.3L347.874 882.909L344.811 877.517C343.165 878.452 341.91 879.815 341.087 881.428L346.609 884.248ZM347.874 882.909L350.886 888.33C350.427 888.585 350.003 888.645 349.772 888.645V882.444V876.243C348.127 876.243 346.438 876.613 344.863 877.488L347.874 882.909ZM349.772 882.444V888.645C349.733 888.645 349.131 888.64 348.366 888.177L351.576 882.872L354.787 877.567C353.079 876.533 351.274 876.243 349.772 876.243V882.444ZM351.576 882.872L348.47 888.238C347.529 887.694 347.055 886.921 346.871 886.456L352.637 884.174L358.403 881.892C357.747 880.236 356.567 878.596 354.683 877.505L351.576 882.872ZM352.637 884.174L346.888 886.498C346.844 886.389 346.817 886.302 346.801 886.243C346.785 886.184 346.78 886.149 346.778 886.142C346.777 886.135 346.78 886.151 346.783 886.194C346.786 886.236 346.789 886.3 346.789 886.388H352.99H359.191C359.191 885.007 359.017 883.412 358.386 881.85L352.637 884.174ZM352.99 886.388H346.789V890.294H352.99H359.191V886.388H352.99ZM352.99 890.294H346.789C346.789 889.792 346.937 888.396 348.178 887.156L352.562 891.541L356.947 895.926C358.758 894.115 359.191 891.888 359.191 890.294H352.99ZM352.562 891.541L348.178 887.156C349.393 885.941 350.772 885.768 351.335 885.768V891.969V898.17C352.964 898.17 355.161 897.711 356.947 895.926L352.562 891.541ZM351.335 891.969V885.768C351.897 885.768 353.276 885.941 354.492 887.156L350.107 891.541L345.722 895.926C347.508 897.711 349.705 898.17 351.335 898.17V891.969ZM350.107 891.541L354.492 887.156C355.732 888.396 355.88 889.792 355.88 890.294H349.679H343.478C343.478 891.888 343.911 894.115 345.722 895.926L350.107 891.541ZM349.679 890.294H355.88V886.518H349.679H343.478V890.294H349.679ZM349.679 886.518H355.88C355.88 885.553 355.773 883.29 354.125 881.333L349.381 885.327L344.638 889.322C343.963 888.52 343.696 887.736 343.589 887.306C343.48 886.871 343.478 886.576 343.478 886.518H349.679ZM349.381 885.327L354.248 881.485C352.608 879.407 350.314 878.773 348.544 878.773V884.974V891.175C348.086 891.175 347.397 891.103 346.62 890.775C345.806 890.431 345.075 889.88 344.514 889.17L349.381 885.327ZM348.544 884.974V878.773C346.567 878.773 344.428 879.485 342.797 881.251L347.354 885.458L351.91 889.664C351.456 890.156 350.876 890.569 350.208 890.84C349.558 891.104 348.971 891.175 348.544 891.175V884.974ZM347.354 885.458L342.88 881.163C341.222 882.891 340.706 884.994 340.706 886.723H346.907H353.108C353.108 887.384 352.89 888.644 351.827 889.752L347.354 885.458ZM346.907 886.723H340.706V890.294H346.907H353.108V886.723H346.907ZM346.907 890.294H340.706C340.706 889.897 340.81 888.459 342.104 887.165C343.398 885.871 344.835 885.768 345.233 885.768V891.969V898.17C346.747 898.17 349.021 897.787 350.873 895.935C352.725 894.083 353.108 891.808 353.108 890.294H346.907ZM356.366 891.429L353.002 896.638L353.026 896.654L353.05 896.67L356.366 891.429ZM354.952 889.773L349.33 892.39L349.349 892.43L349.368 892.469L354.952 889.773ZM354.952 884.658L349.386 881.923L349.367 881.963L349.348 882.003L354.952 884.658ZM356.366 883.02L353.05 877.78L353.026 877.796L353.002 877.811L356.366 883.02ZM361.389 884.174V890.375H370.26L367.212 882.043L361.389 884.174ZM361.184 884.174H354.983V890.375H361.184V884.174ZM361.612 878.946L365.997 883.331L365.997 883.331L361.612 878.946ZM364.049 878.946L359.664 883.331L359.711 883.378L359.758 883.423L364.049 878.946ZM364.068 891.541L359.683 887.156L359.634 887.205L359.586 887.254L364.068 891.541ZM361.649 891.541L366.034 887.156L361.649 891.541ZM361.221 889.234L367.272 887.876L355.02 889.234H361.221ZM361.426 890.146L367.347 891.988L367.839 890.405L367.476 888.787L361.426 890.146ZM360.328 891.504L363.572 896.789L363.588 896.779L363.604 896.769L360.328 891.504ZM360.403 889.327L363.667 894.6L363.756 894.545L363.842 894.487L360.403 889.327ZM360.998 888.564L355.298 886.122L355.276 886.173L355.255 886.225L360.998 888.564ZM360.738 885.439L356.051 889.5L356.086 889.54L356.12 889.578L360.738 885.439ZM358.617 885.123L355.353 879.85L355.353 879.85L358.617 885.123ZM358.003 885.885L363.67 888.404L363.686 888.366L363.703 888.328L358.003 885.885ZM358.449 892.006V885.805C358.571 885.805 358.762 885.82 358.997 885.885C359.235 885.951 359.469 886.055 359.681 886.189L356.366 891.429L353.05 896.67C354.736 897.736 356.6 898.207 358.449 898.207V892.006ZM356.366 891.429L359.73 886.22C359.95 886.362 360.136 886.53 360.282 886.7C360.424 886.867 360.502 887.006 360.536 887.078L354.952 889.773L349.368 892.469C350.145 894.081 351.332 895.56 353.002 896.638L356.366 891.429ZM354.952 889.773L360.574 887.156C360.635 887.288 360.655 887.377 360.659 887.398C360.663 887.415 360.651 887.364 360.651 887.225H354.45H348.249C348.249 888.901 348.535 890.682 349.33 892.39L354.952 889.773ZM354.45 887.225H360.651C360.651 887.063 360.665 887.002 360.661 887.02C360.657 887.041 360.633 887.15 360.556 887.312L354.952 884.658L349.348 882.003C348.525 883.741 348.249 885.554 348.249 887.225H354.45ZM354.952 884.658L360.518 887.392C360.479 887.47 360.4 887.608 360.259 887.771C360.116 887.937 359.937 888.096 359.73 888.23L356.366 883.02L353.002 877.811C351.359 878.872 350.172 880.323 349.386 881.923L354.952 884.658ZM356.366 883.02L359.681 888.261C359.469 888.395 359.235 888.498 358.997 888.564C358.762 888.629 358.571 888.645 358.449 888.645V882.444V876.243C356.6 876.243 354.736 876.714 353.05 877.78L356.366 883.02ZM358.449 882.444V888.645C358.298 888.645 358.09 888.626 357.846 888.562C357.6 888.498 357.358 888.397 357.136 888.266L360.291 882.927L363.446 877.589C361.872 876.659 360.154 876.243 358.449 876.243V882.444ZM360.291 882.927L357.136 888.266C356.927 888.143 356.627 887.926 356.321 887.579C356.007 887.222 355.743 886.789 355.565 886.304L361.389 884.174L367.212 882.043C366.453 879.967 365.004 878.51 363.446 877.589L360.291 882.927ZM361.389 884.174V877.973H361.184V884.174V890.375H361.389V884.174ZM361.184 884.174H367.385V880.193H361.184H354.983V884.174H361.184ZM361.184 880.193H367.385C367.385 880.696 367.237 882.091 365.997 883.331L361.612 878.946L357.227 874.562C355.416 876.373 354.983 878.599 354.983 880.193H361.184ZM361.612 878.946L365.997 883.331C364.781 884.547 363.402 884.72 362.84 884.72V878.519V872.317C361.211 872.317 359.013 872.776 357.227 874.562L361.612 878.946ZM362.84 878.519V884.72C362.216 884.72 360.853 884.52 359.664 883.331L364.049 878.946L368.434 874.562C366.674 872.802 364.505 872.317 362.84 872.317V878.519ZM364.049 878.946L359.758 883.423C358.477 882.196 358.294 880.767 358.294 880.193H364.495H370.696C370.696 878.527 370.216 876.267 368.34 874.469L364.049 878.946ZM364.495 880.193H358.294V890.294H364.495H370.696V880.193H364.495ZM364.495 890.294H358.294C358.294 889.792 358.442 888.396 359.683 887.156L364.068 891.541L368.452 895.926C370.263 894.115 370.696 891.888 370.696 890.294H364.495ZM364.068 891.541L359.586 887.254C360.85 885.934 362.314 885.768 362.858 885.768V891.969V898.17C364.469 898.17 366.74 897.718 368.549 895.827L364.068 891.541ZM362.858 891.969V885.768C363.482 885.768 364.845 885.967 366.034 887.156L361.649 891.541L357.264 895.926C359.024 897.685 361.193 898.17 362.858 898.17V891.969ZM361.649 891.541L366.034 887.156C367.274 888.396 367.422 889.792 367.422 890.294H361.221H355.02C355.02 891.888 355.453 894.115 357.264 895.926L361.649 891.541ZM361.221 890.294H367.422V889.234H361.221H355.02V890.294H361.221ZM361.221 889.234L355.171 890.592L355.375 891.504L361.426 890.146L367.476 888.787L367.272 887.876L361.221 889.234ZM361.426 890.146L355.505 888.303C355.65 887.837 355.887 887.392 356.198 887.006C356.503 886.628 356.818 886.384 357.052 886.238L360.328 891.504L363.604 896.769C365.258 895.74 366.676 894.146 367.347 891.988L361.426 890.146ZM360.328 891.504L357.085 886.218C357.329 886.069 357.59 885.959 357.848 885.89C358.102 885.822 358.311 885.805 358.449 885.805V892.006V898.207C360.178 898.207 361.95 897.784 363.572 896.789L360.328 891.504ZM359.51 889.569V895.77C360.886 895.77 362.335 895.424 363.667 894.6L360.403 889.327L357.139 884.054C357.949 883.553 358.803 883.368 359.51 883.368V889.569ZM360.403 889.327L363.842 894.487C365.289 893.522 366.211 892.205 366.741 890.904L360.998 888.564L355.255 886.225C355.512 885.594 356.038 884.784 356.963 884.167L360.403 889.327ZM360.998 888.564L366.698 891.007C367.29 889.625 367.422 888.267 367.422 887.225H361.221H355.02C355.02 887.223 355.02 887.123 355.049 886.949C355.078 886.776 355.143 886.483 355.298 886.122L360.998 888.564ZM361.221 887.225H367.422C367.422 885.876 367.214 883.373 365.355 881.299L360.738 885.439L356.12 889.578C355.481 888.866 355.219 888.162 355.115 887.776C355.013 887.399 355.02 887.181 355.02 887.225H361.221ZM360.738 885.439L365.424 881.378C363.913 879.635 361.789 878.68 359.51 878.68V884.881V891.082C358.965 891.082 358.304 890.975 357.623 890.666C356.94 890.355 356.418 889.924 356.051 889.5L360.738 885.439ZM359.51 884.881V878.68C358.133 878.68 356.684 879.026 355.353 879.85L358.617 885.123L361.881 890.395C361.07 890.897 360.217 891.082 359.51 891.082V884.881ZM358.617 885.123L355.353 879.85C353.779 880.825 352.835 882.201 352.303 883.443L358.003 885.885L363.703 888.328C363.468 888.875 362.934 889.743 361.881 890.395L358.617 885.123ZM358.003 885.885L352.336 883.367C351.7 884.799 351.579 886.209 351.579 887.225H357.78H363.981C363.981 887.212 363.982 887.31 363.952 887.491C363.923 887.668 363.851 887.996 363.67 888.404L358.003 885.885ZM357.78 887.225H351.579C351.579 888.618 351.81 891.033 353.577 893.072L358.263 889.011L362.949 884.949C363.534 885.624 363.783 886.283 363.886 886.664C363.986 887.035 363.981 887.254 363.981 887.225H357.78ZM358.263 889.011L353.577 893.072C355.121 894.853 357.27 895.77 359.51 895.77V889.569V883.368C360.026 883.368 360.673 883.466 361.351 883.77C362.034 884.076 362.568 884.509 362.949 884.949L358.263 889.011Z" fill="white" mask="url(#path-2-outside-1_148_4503)"/>
<mask id="path-4-outside-2_148_4503" maskUnits="userSpaceOnUse" x="77.1582" y="879.553" width="60" height="27" fill="black">
<rect fill="white" x="77.1582" y="879.553" width="60" height="27"/>
<path d="M89.2229 899.757C88.7268 899.757 88.2059 899.72 87.6602 899.646C87.1269 899.584 86.6184 899.484 86.1347 899.348C85.651 899.211 85.217 899.05 84.8325 898.864C84.4976 898.703 84.262 898.492 84.1256 898.232C83.9891 897.959 83.9395 897.674 83.9767 897.376C84.014 897.078 84.1194 896.818 84.293 896.595C84.4666 896.359 84.6961 896.204 84.9813 896.13C85.2666 896.043 85.589 896.08 85.9487 896.241C86.42 896.464 86.9533 896.638 87.5486 896.762C88.1439 896.886 88.702 896.948 89.2229 896.948C90.0414 896.948 90.6119 896.843 90.9344 896.632C91.2692 896.409 91.4366 896.136 91.4366 895.813C91.4366 895.528 91.3188 895.299 91.0832 895.125C90.8599 894.951 90.4569 894.803 89.874 894.679L87.6974 894.213C86.5068 893.965 85.62 893.531 85.0371 892.911C84.4542 892.291 84.1628 891.491 84.1628 890.511C84.1628 889.866 84.293 889.284 84.5534 888.763C84.8263 888.229 85.2046 887.777 85.6882 887.405C86.1843 887.033 86.7672 886.747 87.4369 886.549C88.1191 886.338 88.8756 886.233 89.7065 886.233C90.3515 886.233 91.0026 886.307 91.6599 886.456C92.3296 886.592 92.9063 886.803 93.39 887.088C93.6752 887.237 93.8799 887.442 94.0039 887.702C94.1279 887.963 94.1775 888.236 94.1527 888.521C94.1279 888.794 94.0287 889.036 93.8551 889.246C93.6938 889.457 93.4706 889.6 93.1853 889.674C92.9125 889.736 92.5838 889.687 92.1994 889.525C91.8397 889.364 91.4304 889.246 90.9716 889.172C90.5251 889.085 90.091 889.042 89.6693 889.042C89.2105 889.042 88.8198 889.098 88.4973 889.209C88.1749 889.308 87.9268 889.457 87.7532 889.656C87.592 889.854 87.5114 890.084 87.5114 890.344C87.5114 890.604 87.6168 890.828 87.8276 891.014C88.0509 891.187 88.4539 891.336 89.0368 891.46L91.1948 891.925C92.3978 892.186 93.297 892.614 93.8923 893.209C94.4876 893.804 94.7852 894.579 94.7852 895.534C94.7852 896.179 94.655 896.762 94.3946 897.283C94.1341 897.804 93.762 898.25 93.2784 898.622C92.7947 898.982 92.2118 899.261 91.5297 899.46C90.8475 899.658 90.0786 899.757 89.2229 899.757ZM100.897 899.757C99.9672 899.757 99.1983 899.615 98.5906 899.329C97.9953 899.044 97.5488 898.616 97.2512 898.046C96.9535 897.463 96.8047 896.737 96.8047 895.869V892.837H96.1722C95.7753 892.837 95.4653 892.731 95.242 892.521C95.0312 892.31 94.9258 892.006 94.9258 891.609C94.9258 891.212 95.0312 890.914 95.242 890.716C95.4653 890.505 95.7753 890.4 96.1722 890.4H96.8047V889.246C96.8047 888.701 96.9473 888.285 97.2326 888C97.5178 887.715 97.9271 887.572 98.4604 887.572C98.9937 887.572 99.4029 887.715 99.6882 888C99.9734 888.285 100.116 888.701 100.116 889.246V890.4H101.642C102.051 890.4 102.361 890.505 102.572 890.716C102.795 890.914 102.907 891.212 102.907 891.609C102.907 892.006 102.795 892.31 102.572 892.521C102.361 892.731 102.051 892.837 101.642 892.837H100.116V895.757C100.116 896.216 100.221 896.557 100.432 896.781C100.656 896.992 101.003 897.097 101.474 897.097C101.648 897.097 101.815 897.078 101.976 897.041C102.138 897.004 102.286 896.985 102.423 896.985C102.621 896.973 102.783 897.035 102.907 897.171C103.031 897.295 103.093 897.587 103.093 898.046C103.093 898.418 103.037 898.734 102.925 898.994C102.814 899.242 102.615 899.422 102.33 899.534C102.156 899.596 101.921 899.646 101.623 899.683C101.325 899.732 101.083 899.757 100.897 899.757ZM107.2 899.757C106.493 899.757 105.867 899.627 105.321 899.367C104.788 899.106 104.366 898.753 104.056 898.306C103.758 897.847 103.609 897.326 103.609 896.743C103.609 896.074 103.783 895.547 104.13 895.162C104.478 894.778 105.036 894.505 105.805 894.344C106.574 894.17 107.597 894.083 108.874 894.083H109.897V895.646H108.874C108.39 895.646 107.987 895.683 107.665 895.757C107.355 895.82 107.125 895.925 106.977 896.074C106.828 896.21 106.753 896.39 106.753 896.613C106.753 896.898 106.853 897.134 107.051 897.32C107.262 897.506 107.559 897.599 107.944 897.599C108.254 897.599 108.527 897.531 108.762 897.395C109.011 897.258 109.209 897.072 109.358 896.836C109.507 896.588 109.581 896.303 109.581 895.981V893.823C109.581 893.376 109.463 893.06 109.228 892.874C109.004 892.688 108.614 892.595 108.056 892.595C107.758 892.595 107.423 892.632 107.051 892.707C106.679 892.769 106.263 892.886 105.805 893.06C105.47 893.184 105.184 893.203 104.949 893.116C104.713 893.029 104.527 892.88 104.391 892.669C104.267 892.459 104.205 892.229 104.205 891.981C104.217 891.733 104.298 891.497 104.447 891.274C104.608 891.051 104.85 890.877 105.172 890.753C105.767 890.53 106.313 890.381 106.809 890.307C107.318 890.232 107.783 890.195 108.204 890.195C109.221 890.195 110.059 890.344 110.716 890.642C111.386 890.927 111.882 891.373 112.204 891.981C112.539 892.576 112.706 893.345 112.706 894.288V898.046C112.706 898.591 112.576 899.007 112.316 899.292C112.055 899.577 111.677 899.72 111.181 899.72C110.672 899.72 110.282 899.577 110.009 899.292C109.748 899.007 109.618 898.591 109.618 898.046V897.562L109.73 897.822C109.668 898.219 109.525 898.56 109.302 898.846C109.079 899.131 108.787 899.354 108.428 899.515C108.068 899.677 107.659 899.757 107.2 899.757ZM116.285 899.72C115.739 899.72 115.318 899.577 115.02 899.292C114.735 899.007 114.592 898.591 114.592 898.046V891.888C114.592 891.355 114.728 890.945 115.001 890.66C115.287 890.375 115.69 890.232 116.21 890.232C116.731 890.232 117.128 890.375 117.401 890.66C117.674 890.945 117.81 891.355 117.81 891.888V892.651H117.624C117.748 891.907 118.065 891.318 118.573 890.883C119.094 890.449 119.739 890.22 120.508 890.195C120.867 890.183 121.134 890.276 121.308 890.474C121.494 890.66 121.593 891.014 121.605 891.535C121.605 891.981 121.512 892.335 121.326 892.595C121.14 892.855 120.787 893.01 120.266 893.06L119.838 893.097C119.181 893.159 118.703 893.345 118.406 893.655C118.108 893.953 117.959 894.399 117.959 894.995V898.046C117.959 898.591 117.817 899.007 117.531 899.292C117.246 899.577 116.831 899.72 116.285 899.72ZM128.003 899.757C127.073 899.757 126.304 899.615 125.696 899.329C125.101 899.044 124.654 898.616 124.357 898.046C124.059 897.463 123.91 896.737 123.91 895.869V892.837H123.278C122.881 892.837 122.571 892.731 122.347 892.521C122.137 892.31 122.031 892.006 122.031 891.609C122.031 891.212 122.137 890.914 122.347 890.716C122.571 890.505 122.881 890.4 123.278 890.4H123.91V889.246C123.91 888.701 124.053 888.285 124.338 888C124.623 887.715 125.033 887.572 125.566 887.572C126.099 887.572 126.508 887.715 126.794 888C127.079 888.285 127.222 888.701 127.222 889.246V890.4H128.747C129.156 890.4 129.466 890.505 129.677 890.716C129.9 890.914 130.012 891.212 130.012 891.609C130.012 892.006 129.9 892.31 129.677 892.521C129.466 892.731 129.156 892.837 128.747 892.837H127.222V895.757C127.222 896.216 127.327 896.557 127.538 896.781C127.761 896.992 128.108 897.097 128.58 897.097C128.753 897.097 128.921 897.078 129.082 897.041C129.243 897.004 129.392 896.985 129.528 896.985C129.727 896.973 129.888 897.035 130.012 897.171C130.136 897.295 130.198 897.587 130.198 898.046C130.198 898.418 130.142 898.734 130.031 898.994C129.919 899.242 129.721 899.422 129.435 899.534C129.262 899.596 129.026 899.646 128.728 899.683C128.431 899.732 128.189 899.757 128.003 899.757Z"/>
</mask>
<path d="M89.2229 899.757C88.7268 899.757 88.2059 899.72 87.6602 899.646C87.1269 899.584 86.6184 899.484 86.1347 899.348C85.651 899.211 85.217 899.05 84.8325 898.864C84.4976 898.703 84.262 898.492 84.1256 898.232C83.9891 897.959 83.9395 897.674 83.9767 897.376C84.014 897.078 84.1194 896.818 84.293 896.595C84.4666 896.359 84.6961 896.204 84.9813 896.13C85.2666 896.043 85.589 896.08 85.9487 896.241C86.42 896.464 86.9533 896.638 87.5486 896.762C88.1439 896.886 88.702 896.948 89.2229 896.948C90.0414 896.948 90.6119 896.843 90.9344 896.632C91.2692 896.409 91.4366 896.136 91.4366 895.813C91.4366 895.528 91.3188 895.299 91.0832 895.125C90.8599 894.951 90.4569 894.803 89.874 894.679L87.6974 894.213C86.5068 893.965 85.62 893.531 85.0371 892.911C84.4542 892.291 84.1628 891.491 84.1628 890.511C84.1628 889.866 84.293 889.284 84.5534 888.763C84.8263 888.229 85.2046 887.777 85.6882 887.405C86.1843 887.033 86.7672 886.747 87.4369 886.549C88.1191 886.338 88.8756 886.233 89.7065 886.233C90.3515 886.233 91.0026 886.307 91.6599 886.456C92.3296 886.592 92.9063 886.803 93.39 887.088C93.6752 887.237 93.8799 887.442 94.0039 887.702C94.1279 887.963 94.1775 888.236 94.1527 888.521C94.1279 888.794 94.0287 889.036 93.8551 889.246C93.6938 889.457 93.4706 889.6 93.1853 889.674C92.9125 889.736 92.5838 889.687 92.1994 889.525C91.8397 889.364 91.4304 889.246 90.9716 889.172C90.5251 889.085 90.091 889.042 89.6693 889.042C89.2105 889.042 88.8198 889.098 88.4973 889.209C88.1749 889.308 87.9268 889.457 87.7532 889.656C87.592 889.854 87.5114 890.084 87.5114 890.344C87.5114 890.604 87.6168 890.828 87.8276 891.014C88.0509 891.187 88.4539 891.336 89.0368 891.46L91.1948 891.925C92.3978 892.186 93.297 892.614 93.8923 893.209C94.4876 893.804 94.7852 894.579 94.7852 895.534C94.7852 896.179 94.655 896.762 94.3946 897.283C94.1341 897.804 93.762 898.25 93.2784 898.622C92.7947 898.982 92.2118 899.261 91.5297 899.46C90.8475 899.658 90.0786 899.757 89.2229 899.757ZM100.897 899.757C99.9672 899.757 99.1983 899.615 98.5906 899.329C97.9953 899.044 97.5488 898.616 97.2512 898.046C96.9535 897.463 96.8047 896.737 96.8047 895.869V892.837H96.1722C95.7753 892.837 95.4653 892.731 95.242 892.521C95.0312 892.31 94.9258 892.006 94.9258 891.609C94.9258 891.212 95.0312 890.914 95.242 890.716C95.4653 890.505 95.7753 890.4 96.1722 890.4H96.8047V889.246C96.8047 888.701 96.9473 888.285 97.2326 888C97.5178 887.715 97.9271 887.572 98.4604 887.572C98.9937 887.572 99.4029 887.715 99.6882 888C99.9734 888.285 100.116 888.701 100.116 889.246V890.4H101.642C102.051 890.4 102.361 890.505 102.572 890.716C102.795 890.914 102.907 891.212 102.907 891.609C102.907 892.006 102.795 892.31 102.572 892.521C102.361 892.731 102.051 892.837 101.642 892.837H100.116V895.757C100.116 896.216 100.221 896.557 100.432 896.781C100.656 896.992 101.003 897.097 101.474 897.097C101.648 897.097 101.815 897.078 101.976 897.041C102.138 897.004 102.286 896.985 102.423 896.985C102.621 896.973 102.783 897.035 102.907 897.171C103.031 897.295 103.093 897.587 103.093 898.046C103.093 898.418 103.037 898.734 102.925 898.994C102.814 899.242 102.615 899.422 102.33 899.534C102.156 899.596 101.921 899.646 101.623 899.683C101.325 899.732 101.083 899.757 100.897 899.757ZM107.2 899.757C106.493 899.757 105.867 899.627 105.321 899.367C104.788 899.106 104.366 898.753 104.056 898.306C103.758 897.847 103.609 897.326 103.609 896.743C103.609 896.074 103.783 895.547 104.13 895.162C104.478 894.778 105.036 894.505 105.805 894.344C106.574 894.17 107.597 894.083 108.874 894.083H109.897V895.646H108.874C108.39 895.646 107.987 895.683 107.665 895.757C107.355 895.82 107.125 895.925 106.977 896.074C106.828 896.21 106.753 896.39 106.753 896.613C106.753 896.898 106.853 897.134 107.051 897.32C107.262 897.506 107.559 897.599 107.944 897.599C108.254 897.599 108.527 897.531 108.762 897.395C109.011 897.258 109.209 897.072 109.358 896.836C109.507 896.588 109.581 896.303 109.581 895.981V893.823C109.581 893.376 109.463 893.06 109.228 892.874C109.004 892.688 108.614 892.595 108.056 892.595C107.758 892.595 107.423 892.632 107.051 892.707C106.679 892.769 106.263 892.886 105.805 893.06C105.47 893.184 105.184 893.203 104.949 893.116C104.713 893.029 104.527 892.88 104.391 892.669C104.267 892.459 104.205 892.229 104.205 891.981C104.217 891.733 104.298 891.497 104.447 891.274C104.608 891.051 104.85 890.877 105.172 890.753C105.767 890.53 106.313 890.381 106.809 890.307C107.318 890.232 107.783 890.195 108.204 890.195C109.221 890.195 110.059 890.344 110.716 890.642C111.386 890.927 111.882 891.373 112.204 891.981C112.539 892.576 112.706 893.345 112.706 894.288V898.046C112.706 898.591 112.576 899.007 112.316 899.292C112.055 899.577 111.677 899.72 111.181 899.72C110.672 899.72 110.282 899.577 110.009 899.292C109.748 899.007 109.618 898.591 109.618 898.046V897.562L109.73 897.822C109.668 898.219 109.525 898.56 109.302 898.846C109.079 899.131 108.787 899.354 108.428 899.515C108.068 899.677 107.659 899.757 107.2 899.757ZM116.285 899.72C115.739 899.72 115.318 899.577 115.02 899.292C114.735 899.007 114.592 898.591 114.592 898.046V891.888C114.592 891.355 114.728 890.945 115.001 890.66C115.287 890.375 115.69 890.232 116.21 890.232C116.731 890.232 117.128 890.375 117.401 890.66C117.674 890.945 117.81 891.355 117.81 891.888V892.651H117.624C117.748 891.907 118.065 891.318 118.573 890.883C119.094 890.449 119.739 890.22 120.508 890.195C120.867 890.183 121.134 890.276 121.308 890.474C121.494 890.66 121.593 891.014 121.605 891.535C121.605 891.981 121.512 892.335 121.326 892.595C121.14 892.855 120.787 893.01 120.266 893.06L119.838 893.097C119.181 893.159 118.703 893.345 118.406 893.655C118.108 893.953 117.959 894.399 117.959 894.995V898.046C117.959 898.591 117.817 899.007 117.531 899.292C117.246 899.577 116.831 899.72 116.285 899.72ZM128.003 899.757C127.073 899.757 126.304 899.615 125.696 899.329C125.101 899.044 124.654 898.616 124.357 898.046C124.059 897.463 123.91 896.737 123.91 895.869V892.837H123.278C122.881 892.837 122.571 892.731 122.347 892.521C122.137 892.31 122.031 892.006 122.031 891.609C122.031 891.212 122.137 890.914 122.347 890.716C122.571 890.505 122.881 890.4 123.278 890.4H123.91V889.246C123.91 888.701 124.053 888.285 124.338 888C124.623 887.715 125.033 887.572 125.566 887.572C126.099 887.572 126.508 887.715 126.794 888C127.079 888.285 127.222 888.701 127.222 889.246V890.4H128.747C129.156 890.4 129.466 890.505 129.677 890.716C129.9 890.914 130.012 891.212 130.012 891.609C130.012 892.006 129.9 892.31 129.677 892.521C129.466 892.731 129.156 892.837 128.747 892.837H127.222V895.757C127.222 896.216 127.327 896.557 127.538 896.781C127.761 896.992 128.108 897.097 128.58 897.097C128.753 897.097 128.921 897.078 129.082 897.041C129.243 897.004 129.392 896.985 129.528 896.985C129.727 896.973 129.888 897.035 130.012 897.171C130.136 897.295 130.198 897.587 130.198 898.046C130.198 898.418 130.142 898.734 130.031 898.994C129.919 899.242 129.721 899.422 129.435 899.534C129.262 899.596 129.026 899.646 128.728 899.683C128.431 899.732 128.189 899.757 128.003 899.757Z" fill="black"/>
<path d="M87.6602 899.646L88.498 893.501L88.4373 893.493L88.3764 893.486L87.6602 899.646ZM84.8325 898.864L87.5334 893.282L87.5226 893.277L84.8325 898.864ZM84.1256 898.232L78.5792 901.005L78.6053 901.057L78.6325 901.109L84.1256 898.232ZM83.9767 897.376L90.1299 898.145V898.145L83.9767 897.376ZM84.293 896.595L89.1878 900.402L89.2374 900.338L89.2852 900.273L84.293 896.595ZM84.9813 896.13L86.5466 902.13L86.6674 902.098L86.7868 902.062L84.9813 896.13ZM85.9487 896.241L88.6033 890.637L88.5446 890.609L88.4853 890.583L85.9487 896.241ZM87.5486 896.762L88.8133 890.691L88.8133 890.691L87.5486 896.762ZM90.9344 896.632L94.3279 901.822L94.3511 901.807L94.3741 901.791L90.9344 896.632ZM91.0832 895.125L87.2761 900.02L87.3398 900.069L87.4047 900.117L91.0832 895.125ZM89.874 894.679L88.5782 900.743L88.5835 900.744L89.874 894.679ZM87.6974 894.213L88.9932 888.149L88.9776 888.146L88.9621 888.143L87.6974 894.213ZM85.0371 892.911L89.5554 888.664L89.5554 888.664L85.0371 892.911ZM84.5534 888.763L79.0329 885.938L79.0199 885.964L79.007 885.989L84.5534 888.763ZM85.6882 887.405L81.9676 882.444L81.9373 882.466L81.9074 882.49L85.6882 887.405ZM87.4369 886.549L89.1986 892.494L89.2334 892.484L89.2682 892.473L87.4369 886.549ZM91.6599 886.456L90.2905 892.504L90.3562 892.519L90.4221 892.532L91.6599 886.456ZM93.39 887.088L90.2399 892.43L90.3787 892.512L90.5216 892.586L93.39 887.088ZM94.0039 887.702L88.4052 890.368L88.4052 890.368L94.0039 887.702ZM94.1527 888.521L100.328 889.082L100.329 889.07L100.33 889.058L94.1527 888.521ZM93.8551 889.246L89.0683 885.304L88.9971 885.391L88.9292 885.48L93.8551 889.246ZM93.1853 889.674L94.5596 895.721L94.6555 895.699L94.7506 895.675L93.1853 889.674ZM92.1994 889.525L89.6628 895.184L89.7316 895.215L89.8012 895.244L92.1994 889.525ZM90.9716 889.172L89.788 895.259L89.8832 895.278L89.9789 895.293L90.9716 889.172ZM88.4973 889.209L90.321 895.136L90.4239 895.104L90.5258 895.069L88.4973 889.209ZM87.7532 889.656L83.0864 885.572L83.0119 885.657L82.9405 885.745L87.7532 889.656ZM87.8276 891.014L83.7248 895.663L83.8689 895.791L84.0205 895.909L87.8276 891.014ZM89.0368 891.46L90.3433 885.398L90.3353 885.397L90.3273 885.395L89.0368 891.46ZM91.1948 891.925L92.5069 885.865L92.5012 885.863L91.1948 891.925ZM94.3946 897.283L99.941 900.056L99.941 900.056L94.3946 897.283ZM93.2784 898.622L96.9786 903.599L97.0191 903.568L97.0592 903.538L93.2784 898.622ZM91.5297 899.46L93.2618 905.414L93.2618 905.414L91.5297 899.46ZM89.2229 899.757V893.556C89.0356 893.556 88.7959 893.542 88.498 893.501L87.6602 899.646L86.8223 905.79C87.6159 905.898 88.4179 905.958 89.2229 905.958V899.757ZM87.6602 899.646L88.3764 893.486C88.148 893.459 87.9643 893.421 87.8181 893.38L86.1347 899.348L84.4514 905.316C85.2725 905.548 86.1058 905.708 86.944 905.805L87.6602 899.646ZM86.1347 899.348L87.8181 893.38C87.6248 893.325 87.5394 893.285 87.5334 893.282L84.8325 898.864L82.1315 904.446C82.8945 904.815 83.6773 905.098 84.4514 905.316L86.1347 899.348ZM84.8325 898.864L87.5226 893.277C88.0686 893.54 88.9895 894.153 89.6187 895.354L84.1256 898.232L78.6325 901.109C79.5345 902.831 80.9267 903.866 82.1424 904.451L84.8325 898.864ZM84.1256 898.232L89.672 895.459C90.0732 896.261 90.2473 897.206 90.1299 898.145L83.9767 897.376L77.8236 896.607C77.6318 898.141 77.9051 899.657 78.5792 901.005L84.1256 898.232ZM83.9767 897.376L90.1299 898.145C90.0374 898.885 89.7414 899.69 89.1878 900.402L84.293 896.595L79.3982 892.788C78.4974 893.946 77.9905 895.272 77.8236 896.607L83.9767 897.376ZM84.293 896.595L89.2852 900.273C88.6096 901.19 87.6252 901.848 86.5466 902.13L84.9813 896.13L83.416 890.129C81.767 890.559 80.3236 891.528 79.3008 892.916L84.293 896.595ZM84.9813 896.13L86.7868 902.062C85.2314 902.535 83.9724 902.151 83.4121 901.9L85.9487 896.241L88.4853 890.583C87.2056 890.009 85.3017 889.55 83.1758 890.197L84.9813 896.13ZM85.9487 896.241L83.2941 901.845C84.2746 902.31 85.2857 902.625 86.2838 902.833L87.5486 896.762L88.8133 890.691C88.6209 890.651 88.5653 890.619 88.6033 890.637L85.9487 896.241ZM87.5486 896.762L86.2838 902.833C87.2279 903.029 88.2134 903.149 89.2229 903.149V896.948V890.747C89.1905 890.747 89.0599 890.743 88.8133 890.691L87.5486 896.762ZM89.2229 896.948V903.149C90.162 903.149 92.3649 903.105 94.3279 901.822L90.9344 896.632L87.5408 891.442C87.9552 891.171 88.3236 891.014 88.5758 890.925C88.8308 890.835 89.0283 890.791 89.1379 890.771C89.3409 890.734 89.3948 890.747 89.2229 890.747V896.948ZM90.9344 896.632L94.3741 901.791C95.9487 900.742 97.6377 898.731 97.6377 895.813H91.4366H85.2356C85.2356 894.838 85.5061 893.863 86.0258 893.017C86.5158 892.218 87.1017 891.734 87.4946 891.472L90.9344 896.632ZM91.4366 895.813H97.6377C97.6377 893.498 96.5346 891.439 94.7616 890.133L91.0832 895.125L87.4047 900.117C86.856 899.713 86.2664 899.106 85.832 898.26C85.3948 897.409 85.2356 896.55 85.2356 895.813H91.4366ZM91.0832 895.125L94.8903 890.23C93.4784 889.132 91.8669 888.763 91.1645 888.613L89.874 894.679L88.5835 900.744C88.6861 900.766 88.6271 900.76 88.4656 900.7C88.3794 900.669 88.2313 900.609 88.0435 900.513C87.8597 900.418 87.5863 900.261 87.2761 900.02L91.0832 895.125ZM89.874 894.679L91.1697 888.614L88.9932 888.149L87.6974 894.213L86.4016 900.278L88.5782 900.743L89.874 894.679ZM87.6974 894.213L88.9621 888.143C88.7611 888.101 88.7522 888.077 88.8657 888.132C88.9887 888.192 89.2593 888.349 89.5554 888.664L85.0371 892.911L80.5189 897.158C82.2745 899.026 84.5097 899.884 86.4327 900.284L87.6974 894.213ZM85.0371 892.911L89.5554 888.664C89.8396 888.966 90.066 889.334 90.2078 889.723C90.3442 890.098 90.3639 890.385 90.3639 890.511H84.1628H77.9617C77.9617 892.813 78.6913 895.214 80.5189 897.158L85.0371 892.911ZM84.1628 890.511H90.3639C90.3639 890.724 90.3145 891.107 90.0999 891.536L84.5534 888.763L79.007 885.989C78.2715 887.46 77.9617 889.009 77.9617 890.511H84.1628ZM84.5534 888.763L90.0739 891.587C89.9208 891.886 89.6988 892.143 89.4691 892.32L85.6882 887.405L81.9074 882.49C80.7103 883.41 79.7318 884.572 79.0329 885.938L84.5534 888.763ZM85.6882 887.405L89.4089 892.366C89.246 892.488 89.1466 892.51 89.1986 892.494L87.4369 886.549L85.6753 880.603C84.3878 880.985 83.1226 881.578 81.9676 882.444L85.6882 887.405ZM87.4369 886.549L89.2682 892.473C89.2693 892.473 89.3972 892.434 89.7065 892.434V886.233V880.032C88.354 880.032 86.9689 880.203 85.6057 880.624L87.4369 886.549ZM89.7065 886.233V892.434C89.8705 892.434 90.0624 892.452 90.2905 892.504L91.6599 886.456L93.0292 880.408C91.9428 880.162 90.8324 880.032 89.7065 880.032V886.233ZM91.6599 886.456L90.4221 892.532C90.5594 892.56 90.4612 892.56 90.2399 892.43L93.39 887.088L96.54 881.747C95.3514 881.046 94.0998 880.624 92.8976 880.38L91.6599 886.456ZM93.39 887.088L90.5216 892.586C89.7583 892.188 88.9263 891.463 88.4052 890.368L94.0039 887.702L99.6026 885.036C98.8334 883.421 97.5922 882.286 96.2584 881.591L93.39 887.088ZM94.0039 887.702L88.4052 890.368C88.0581 889.64 87.9033 888.807 87.9749 887.984L94.1527 888.521L100.33 889.058C100.452 887.664 100.198 886.286 99.6026 885.036L94.0039 887.702ZM94.1527 888.521L87.9771 887.959C88.0647 886.996 88.4472 886.058 89.0683 885.304L93.8551 889.246L98.6419 893.188C99.6101 892.013 100.191 890.592 100.328 889.082L94.1527 888.521ZM93.8551 889.246L88.9292 885.48C89.7011 884.47 90.7241 883.908 91.6201 883.674L93.1853 889.674L94.7506 895.675C96.2171 895.292 97.6865 894.444 98.7809 893.013L93.8551 889.246ZM93.1853 889.674L91.8111 883.627C93.2799 883.294 94.3432 883.7 94.5975 883.807L92.1994 889.525L89.8012 895.244C90.8244 895.673 92.5451 896.179 94.5596 895.721L93.1853 889.674ZM92.1994 889.525L94.736 883.867C93.8052 883.45 92.8632 883.197 91.9642 883.051L90.9716 889.172L89.9789 895.293C89.9977 895.296 89.8742 895.279 89.6628 895.184L92.1994 889.525ZM90.9716 889.172L92.1551 883.085C91.349 882.928 90.518 882.841 89.6693 882.841V889.042V895.243C89.664 895.243 89.7012 895.242 89.788 895.259L90.9716 889.172ZM89.6693 889.042V882.841C88.7425 882.841 87.6253 882.949 86.4689 883.349L88.4973 889.209L90.5258 895.069C90.0143 895.246 89.6784 895.243 89.6693 895.243V889.042ZM88.4973 889.209L86.6737 883.282C85.5542 883.627 84.2032 884.296 83.0864 885.572L87.7532 889.656L92.42 893.739C91.6505 894.618 90.7955 894.99 90.321 895.136L88.4973 889.209ZM87.7532 889.656L82.9405 885.745C81.8631 887.071 81.3103 888.688 81.3103 890.344H87.5114H93.7124C93.7124 891.479 93.3209 892.637 92.5659 893.566L87.7532 889.656ZM87.5114 890.344H81.3103C81.3103 892.537 82.2996 894.406 83.7248 895.663L87.8276 891.014L91.9304 886.364C92.3699 886.752 92.8436 887.309 93.1977 888.059C93.5574 888.821 93.7124 889.61 93.7124 890.344H87.5114ZM87.8276 891.014L84.0205 895.909C85.4324 897.007 87.0439 897.376 87.7463 897.525L89.0368 891.46L90.3273 885.395C90.2247 885.373 90.2837 885.379 90.4452 885.438C90.5314 885.47 90.6795 885.529 90.8673 885.626C91.0511 885.721 91.3245 885.878 91.6347 886.119L87.8276 891.014ZM89.0368 891.46L87.7304 897.522L89.8884 897.987L91.1948 891.925L92.5012 885.863L90.3433 885.398L89.0368 891.46ZM91.1948 891.925L89.8827 897.986C90.122 898.038 90.176 898.074 90.1069 898.041C90.0318 898.005 89.7918 897.878 89.5074 897.594L93.8923 893.209L98.2771 888.824C96.5353 887.082 94.366 886.267 92.5069 885.865L91.1948 891.925ZM93.8923 893.209L89.5074 897.594C89.1996 897.286 88.9401 896.895 88.773 896.46C88.6118 896.04 88.5841 895.704 88.5841 895.534H94.7852H100.986C100.986 893.175 100.195 890.742 98.2771 888.824L93.8923 893.209ZM94.7852 895.534H88.5841C88.5841 895.321 88.6335 894.939 88.8481 894.51L94.3946 897.283L99.941 900.056C100.676 898.585 100.986 897.037 100.986 895.534H94.7852ZM94.3946 897.283L88.8481 894.51C89.0269 894.152 89.2749 893.879 89.4975 893.707L93.2784 898.622L97.0592 903.538C98.2492 902.622 99.2413 901.455 99.941 900.056L94.3946 897.283ZM93.2784 898.622L89.5782 893.646C89.7824 893.494 89.8945 893.477 89.7975 893.505L91.5297 899.46L93.2618 905.414C94.529 905.045 95.8069 904.47 96.9786 903.599L93.2784 898.622ZM91.5297 899.46L89.7975 893.505C89.7793 893.511 89.608 893.556 89.2229 893.556V899.757V905.958C90.5492 905.958 91.9157 905.805 93.2618 905.414L91.5297 899.46ZM98.5906 899.329L95.911 904.922L95.9333 904.932L95.9557 904.943L98.5906 899.329ZM97.2512 898.046L91.7285 900.866L91.7408 900.89L91.7534 900.914L97.2512 898.046ZM96.8047 892.837H103.006V886.636H96.8047V892.837ZM95.242 892.521L90.8572 896.905L90.9198 896.968L90.9842 897.029L95.242 892.521ZM95.242 890.716L99.492 895.232L99.4998 895.224L95.242 890.716ZM96.8047 890.4V896.601H103.006V890.4H96.8047ZM99.6882 888L95.3034 892.385L95.3034 892.385L99.6882 888ZM100.116 890.4H93.915V896.601H100.116V890.4ZM102.572 890.716L98.1869 895.101L98.3157 895.23L98.4519 895.351L102.572 890.716ZM102.572 892.521L98.3139 888.012L98.2495 888.073L98.1869 888.136L102.572 892.521ZM100.116 892.837V886.636H93.915V892.837H100.116ZM100.432 896.781L95.9241 901.038L96.0457 901.167L96.1745 901.289L100.432 896.781ZM101.976 897.041L103.371 903.083H103.371L101.976 897.041ZM102.423 896.985V903.186H102.616L102.81 903.174L102.423 896.985ZM102.907 897.171L98.3181 901.343L98.4174 901.452L98.5217 901.556L102.907 897.171ZM102.925 898.994L108.58 901.539L108.603 901.488L108.625 901.437L102.925 898.994ZM102.33 899.534L104.415 905.374L104.503 905.343L104.59 905.309L102.33 899.534ZM101.623 899.683L100.854 893.53L100.728 893.545L100.603 893.566L101.623 899.683ZM100.897 899.757V893.556C100.743 893.556 100.703 893.544 100.754 893.553C100.806 893.563 100.98 893.6 101.225 893.716L98.5906 899.329L95.9557 904.943C97.6418 905.734 99.3862 905.958 100.897 905.958V899.757ZM98.5906 899.329L101.27 893.737C101.525 893.859 101.818 894.047 102.1 894.317C102.383 894.589 102.598 894.889 102.749 895.177L97.2512 898.046L91.7534 900.914C92.6883 902.706 94.1401 904.073 95.911 904.922L98.5906 899.329ZM97.2512 898.046L102.774 895.226C103.043 895.753 103.006 896.064 103.006 895.869H96.8047H90.6036C90.6036 897.411 90.8636 899.172 91.7285 900.866L97.2512 898.046ZM96.8047 895.869H103.006V892.837H96.8047H90.6036V895.869H96.8047ZM96.8047 892.837V886.636H96.1722V892.837V899.038H96.8047V892.837ZM96.1722 892.837V886.636C96.8792 886.636 98.2652 886.846 99.4998 888.012L95.242 892.521L90.9842 897.029C92.6654 898.617 94.6714 899.038 96.1722 899.038V892.837ZM95.242 892.521L99.6268 888.136C100.924 889.433 101.127 890.924 101.127 891.609H94.9258H88.7247C88.7247 893.088 89.1382 895.186 90.8572 896.905L95.242 892.521ZM94.9258 891.609H101.127C101.127 892.267 100.934 893.875 99.492 895.232L95.242 890.716L90.992 886.2C89.1285 887.954 88.7247 890.157 88.7247 891.609H94.9258ZM95.242 890.716L99.4998 895.224C98.2652 896.39 96.8792 896.601 96.1722 896.601V890.4V884.199C94.6714 884.199 92.6654 884.62 90.9842 886.208L95.242 890.716ZM96.1722 890.4V896.601H96.8047V890.4V884.199H96.1722V890.4ZM96.8047 890.4H103.006V889.246H96.8047H90.6036V890.4H96.8047ZM96.8047 889.246H103.006C103.006 889.749 102.858 891.144 101.617 892.385L97.2326 888L92.8477 883.615C91.0367 885.426 90.6036 887.652 90.6036 889.246H96.8047ZM97.2326 888L101.617 892.385C100.402 893.6 99.023 893.773 98.4604 893.773V887.572V881.371C96.8312 881.371 94.6337 881.829 92.8477 883.615L97.2326 888ZM98.4604 887.572V893.773C97.8978 893.773 96.5188 893.6 95.3034 892.385L99.6882 888L104.073 883.615C102.287 881.829 100.09 881.371 98.4604 881.371V887.572ZM99.6882 888L95.3034 892.385C94.0628 891.144 93.915 889.749 93.915 889.246H100.116H106.317C106.317 887.652 105.884 885.426 104.073 883.615L99.6882 888ZM100.116 889.246H93.915V890.4H100.116H106.317V889.246H100.116ZM100.116 890.4V896.601H101.642V890.4V884.199H100.116V890.4ZM101.642 890.4V896.601C101.033 896.601 99.5175 896.431 98.1869 895.101L102.572 890.716L106.957 886.331C105.204 884.579 103.069 884.199 101.642 884.199V890.4ZM102.572 890.716L98.4519 895.351C96.953 894.018 96.7055 892.37 96.7055 891.609H102.907H109.108C109.108 890.055 108.637 887.811 106.691 886.081L102.572 890.716ZM102.907 891.609H96.7055C96.7055 890.826 96.9603 889.291 98.3139 888.012L102.572 892.521L106.829 897.029C108.63 895.329 109.108 893.186 109.108 891.609H102.907ZM102.572 892.521L98.1869 888.136C99.5175 886.805 101.033 886.636 101.642 886.636V892.837V899.038C103.069 899.038 105.204 898.658 106.957 896.905L102.572 892.521ZM101.642 892.837V886.636H100.116V892.837V899.038H101.642V892.837ZM100.116 892.837H93.915V895.757H100.116H106.317V892.837H100.116ZM100.116 895.757H93.915C93.915 897.032 94.1936 899.206 95.9241 901.038L100.432 896.781L104.941 892.523C106.249 893.909 106.317 895.401 106.317 895.757H100.116ZM100.432 896.781L96.1745 901.289C98.0326 903.044 100.242 903.298 101.474 903.298V897.097V890.896C101.764 890.896 103.278 890.939 104.69 892.272L100.432 896.781ZM101.474 897.097V903.298C102.094 903.298 102.73 903.231 103.371 903.083L101.976 897.041L100.582 890.999C100.9 890.925 101.202 890.896 101.474 890.896V897.097ZM101.976 897.041L103.371 903.083C103.168 903.13 102.843 903.186 102.423 903.186V896.985V890.784C101.73 890.784 101.107 890.878 100.582 890.999L101.976 897.041ZM102.423 896.985L102.81 903.174C102.153 903.215 101.335 903.144 100.467 902.81C99.5842 902.471 98.8619 901.941 98.3181 901.343L102.907 897.171L107.495 893C105.995 891.35 103.944 890.677 102.036 890.796L102.423 896.985ZM102.907 897.171L98.5217 901.556C97.8859 900.92 97.5264 900.272 97.3283 899.83C97.1278 899.382 97.03 899.005 96.9808 898.773C96.9295 898.533 96.9095 898.347 96.9009 898.244C96.892 898.136 96.8915 898.066 96.8915 898.046H103.093H109.294C109.294 897.588 109.267 896.925 109.111 896.192C108.986 895.603 108.607 894.102 107.291 892.787L102.907 897.171ZM103.093 898.046H96.8915C96.8915 897.828 96.9202 897.264 97.2255 896.552L102.925 898.994L108.625 901.437C109.153 900.204 109.294 899.007 109.294 898.046H103.093ZM102.925 898.994L97.2703 896.45C97.5592 895.808 97.9848 895.213 98.5285 894.72C99.0613 894.238 99.6113 893.939 100.07 893.759L102.33 899.534L104.59 905.309C106.178 904.687 107.717 903.458 108.58 901.539L102.925 898.994ZM102.33 899.534L100.244 893.694C100.487 893.607 100.667 893.566 100.745 893.55C100.831 893.532 100.871 893.527 100.854 893.53L101.623 899.683L102.392 905.836C102.897 905.773 103.635 905.652 104.415 905.374L102.33 899.534ZM101.623 899.683L100.603 893.566C100.554 893.574 100.551 893.573 100.586 893.57C100.615 893.567 100.727 893.556 100.897 893.556V899.757V905.958C101.569 905.958 102.188 905.875 102.642 905.799L101.623 899.683ZM105.321 899.367L102.6 904.939L102.625 904.951L102.65 904.963L105.321 899.367ZM104.056 898.306L98.8534 901.681L98.9067 901.763L98.9625 901.843L104.056 898.306ZM104.13 895.162L99.5285 891.006L104.13 895.162ZM105.805 894.344L107.077 900.413L107.124 900.403L107.17 900.392L105.805 894.344ZM109.897 894.083H116.098V887.882H109.897V894.083ZM109.897 895.646V901.847H116.098V895.646H109.897ZM107.665 895.757L108.881 901.838L108.97 901.82L109.059 901.8L107.665 895.757ZM106.977 896.074L111.167 900.645L111.266 900.554L111.361 900.459L106.977 896.074ZM107.051 897.32L102.81 901.844L102.878 901.908L102.948 901.97L107.051 897.32ZM108.762 897.395L105.774 891.961L105.714 891.994L105.656 892.028L108.762 897.395ZM109.358 896.836L114.601 900.148L114.639 900.088L114.675 900.027L109.358 896.836ZM109.228 892.874L105.258 897.638L105.321 897.69L105.385 897.741L109.228 892.874ZM107.051 892.707L108.07 898.823L108.169 898.807L108.267 898.787L107.051 892.707ZM105.805 893.06L107.958 898.875L107.979 898.868L107.999 898.86L105.805 893.06ZM104.391 892.669L99.0458 895.813L99.1128 895.927L99.1845 896.038L104.391 892.669ZM104.205 891.981L98.0114 891.671L98.0036 891.826V891.981H104.205ZM104.447 891.274L99.4195 887.643L99.3514 887.738L99.2869 887.834L104.447 891.274ZM105.172 890.753L102.995 884.947L102.97 884.956L102.946 884.965L105.172 890.753ZM106.809 890.307L105.911 884.171L105.9 884.173L105.889 884.174L106.809 890.307ZM110.716 890.642L108.158 896.291L108.222 896.319L108.286 896.347L110.716 890.642ZM112.204 891.981L106.726 894.888L106.762 894.955L106.799 895.021L112.204 891.981ZM112.316 899.292L107.736 895.111L107.736 895.111L112.316 899.292ZM110.009 899.292L105.43 903.473L105.478 903.526L105.528 903.578L110.009 899.292ZM109.618 897.562L115.318 895.119L103.417 897.562H109.618ZM109.73 897.822L115.857 898.78L116.132 897.018L115.43 895.38L109.73 897.822ZM109.302 898.846L114.185 902.667L114.185 902.667L109.302 898.846ZM108.428 899.515L105.891 893.857L105.891 893.857L108.428 899.515ZM107.2 899.757V893.556C107.262 893.556 107.574 893.571 107.992 893.77L105.321 899.367L102.65 904.963C104.16 905.683 105.724 905.958 107.2 905.958V899.757ZM105.321 899.367L108.042 893.794C108.371 893.955 108.801 894.267 109.149 894.769L104.056 898.306L98.9625 901.843C99.931 903.238 101.205 904.257 102.6 904.939L105.321 899.367ZM104.056 898.306L109.258 894.932C109.656 895.545 109.81 896.211 109.81 896.743H103.609H97.4083C97.4083 898.442 97.8605 900.15 98.8534 901.681L104.056 898.306ZM103.609 896.743H109.81C109.81 897.147 109.687 898.262 108.732 899.319L104.13 895.162L99.5285 891.006C97.8791 892.832 97.4083 895 97.4083 896.743H103.609ZM104.13 895.162L108.732 899.319C108.281 899.818 107.826 900.097 107.533 900.24C107.386 900.312 107.269 900.355 107.195 900.379C107.121 900.403 107.079 900.412 107.077 900.413L105.805 894.344L104.532 888.275C103.105 888.574 101.104 889.261 99.5285 891.006L104.13 895.162ZM105.805 894.344L107.17 900.392C107.302 900.363 107.811 900.284 108.874 900.284V894.083V887.882C107.383 887.882 105.845 887.977 104.439 888.295L105.805 894.344ZM108.874 894.083V900.284H109.897V894.083V887.882H108.874V894.083ZM109.897 894.083H103.696V895.646H109.897H116.098V894.083H109.897ZM109.897 895.646V889.445H108.874V895.646V901.847H109.897V895.646ZM108.874 895.646V889.445C108.115 889.445 107.207 889.499 106.271 889.715L107.665 895.757L109.059 901.8C108.975 901.819 108.909 901.831 108.865 901.838C108.82 901.845 108.79 901.848 108.779 901.849C108.759 901.85 108.787 901.847 108.874 901.847V895.646ZM107.665 895.757L106.449 889.677C105.504 889.866 103.94 890.341 102.592 891.689L106.977 896.074L111.361 900.459C110.311 901.509 109.206 901.773 108.881 901.838L107.665 895.757ZM106.977 896.074L102.786 891.503C101.213 892.945 100.552 894.856 100.552 896.613H106.753H112.954C112.954 897.197 112.855 897.918 112.539 898.682C112.217 899.461 111.735 900.124 111.167 900.645L106.977 896.074ZM106.753 896.613H100.552C100.552 898.519 101.294 900.423 102.81 901.844L107.051 897.32L111.292 892.796C111.786 893.259 112.234 893.864 112.543 894.598C112.849 895.325 112.954 896.025 112.954 896.613H106.753ZM107.051 897.32L102.948 901.97C104.65 903.472 106.606 903.8 107.944 903.8V897.599V891.398C108.513 891.398 109.874 891.541 111.154 892.67L107.051 897.32ZM107.944 897.599V903.8C109.191 903.8 110.565 903.517 111.869 902.761L108.762 897.395L105.656 892.028C106.489 891.545 107.317 891.398 107.944 891.398V897.599ZM108.762 897.395L111.751 902.828C112.903 902.195 113.883 901.285 114.601 900.148L109.358 896.836L104.115 893.525C104.535 892.86 105.118 892.322 105.774 891.961L108.762 897.395ZM109.358 896.836L114.675 900.027C115.467 898.708 115.782 897.295 115.782 895.981H109.581H103.38C103.38 895.312 103.546 894.469 104.04 893.646L109.358 896.836ZM109.581 895.981H115.782V893.823H109.581H103.38V895.981H109.581ZM109.581 893.823H115.782C115.782 892.431 115.41 889.854 113.07 888.007L109.228 892.874L105.385 897.741C103.516 896.266 103.38 894.321 103.38 893.823H109.581ZM109.228 892.874L113.197 888.11C111.214 886.457 108.911 886.394 108.056 886.394V892.595V898.796C108.023 898.796 107.748 898.797 107.331 898.697C106.931 898.602 106.107 898.346 105.258 897.638L109.228 892.874ZM108.056 892.595V886.394C107.256 886.394 106.504 886.492 105.835 886.626L107.051 892.707L108.267 898.787C108.299 898.781 108.297 898.783 108.266 898.786C108.235 898.789 108.163 898.796 108.056 898.796V892.595ZM107.051 892.707L106.032 886.59C105.16 886.735 104.343 886.983 103.61 887.26L105.805 893.06L107.999 898.86C108.085 898.827 108.135 898.812 108.152 898.807C108.17 898.802 108.141 898.812 108.07 898.823L107.051 892.707ZM105.805 893.06L103.651 887.245C104.125 887.069 105.456 886.694 107.093 887.297L104.949 893.116L102.805 898.935C104.913 899.711 106.814 899.299 107.958 898.875L105.805 893.06ZM104.949 893.116L107.093 887.297C108.116 887.674 109.004 888.385 109.597 889.301L104.391 892.669L99.1845 896.038C100.05 897.375 101.31 898.384 102.805 898.935L104.949 893.116ZM104.391 892.669L109.736 889.525C110.18 890.281 110.406 891.14 110.406 891.981H104.205H98.0036C98.0036 893.318 98.353 894.636 99.0458 895.813L104.391 892.669ZM104.205 891.981L110.398 892.291C110.35 893.25 110.026 894.084 109.606 894.714L104.447 891.274L99.2869 887.834C98.5691 888.911 98.0841 890.216 98.0114 891.671L104.205 891.981ZM104.447 891.274L109.474 894.905C108.77 895.879 107.913 896.343 107.398 896.541L105.172 890.753L102.946 884.965C101.786 885.412 100.445 886.223 99.4195 887.643L104.447 891.274ZM105.172 890.753L107.349 896.559C107.641 896.45 107.758 896.435 107.729 896.439L106.809 890.307L105.889 884.174C104.868 884.328 103.894 884.61 102.995 884.947L105.172 890.753ZM106.809 890.307L107.707 896.442C107.98 896.403 108.14 896.396 108.204 896.396V890.195V883.994C107.426 883.994 106.655 884.062 105.911 884.171L106.809 890.307ZM108.204 890.195V896.396C108.308 896.396 108.385 896.4 108.437 896.404C108.49 896.408 108.513 896.413 108.51 896.412C108.507 896.412 108.473 896.405 108.414 896.388C108.355 896.37 108.267 896.34 108.158 896.291L110.716 890.642L113.274 884.993C111.554 884.214 109.767 883.994 108.204 883.994V890.195ZM110.716 890.642L108.286 896.347C108.048 896.246 107.746 896.074 107.442 895.8C107.134 895.523 106.895 895.205 106.726 894.888L112.204 891.981L117.682 889.074C116.653 887.136 115.04 885.743 113.146 884.936L110.716 890.642ZM112.204 891.981L106.799 895.021C106.622 894.706 106.55 894.452 106.522 894.324C106.495 894.199 106.505 894.176 106.505 894.288H112.706H118.907C118.907 892.666 118.627 890.751 117.609 888.941L112.204 891.981ZM112.706 894.288H106.505V898.046H112.706H118.907V894.288H112.706ZM112.706 898.046H106.505C106.505 897.681 106.591 896.365 107.736 895.111L112.316 899.292L116.895 903.473C118.561 901.649 118.907 899.501 118.907 898.046H112.706ZM112.316 899.292L107.736 895.111C108.964 893.766 110.461 893.519 111.181 893.519V899.72V905.921C112.893 905.921 115.147 905.388 116.895 903.473L112.316 899.292ZM111.181 899.72V893.519C111.851 893.519 113.28 893.741 114.49 895.006L110.009 899.292L105.528 903.578C107.283 905.414 109.494 905.921 111.181 905.921V899.72ZM110.009 899.292L114.588 895.111C115.733 896.365 115.819 897.681 115.819 898.046H109.618H103.417C103.417 899.501 103.764 901.649 105.43 903.473L110.009 899.292ZM109.618 898.046H115.819V897.562H109.618H103.417V898.046H109.618ZM109.618 897.562L103.919 900.005L104.03 900.265L109.73 897.822L115.43 895.38L115.318 895.119L109.618 897.562ZM109.73 897.822L103.603 896.865C103.686 896.333 103.921 895.66 104.419 895.024L109.302 898.846L114.185 902.667C115.13 901.461 115.649 900.106 115.857 898.78L109.73 897.822ZM109.302 898.846L104.419 895.024C104.87 894.447 105.414 894.071 105.891 893.857L108.428 899.515L110.964 905.174C112.161 904.637 113.287 903.815 114.185 902.667L109.302 898.846ZM108.428 899.515L105.891 893.857C106.45 893.606 106.927 893.556 107.2 893.556V899.757V905.958C108.391 905.958 109.686 905.747 110.964 905.174L108.428 899.515ZM115.02 899.292L110.635 903.677L110.682 903.724L110.729 903.769L115.02 899.292ZM115.001 890.66L110.616 886.275L110.568 886.324L110.52 886.374L115.001 890.66ZM117.401 890.66L112.92 894.947L112.92 894.947L117.401 890.66ZM117.81 892.651V898.852H124.011V892.651H117.81ZM117.624 892.651L111.508 891.631L110.304 898.852H117.624V892.651ZM118.573 890.883L114.603 886.12L114.575 886.143L114.547 886.167L118.573 890.883ZM120.508 890.195L120.708 896.393L120.722 896.393L120.508 890.195ZM121.308 890.474L116.641 894.558L116.777 894.713L116.923 894.859L121.308 890.474ZM121.605 891.535H127.806V891.461L127.805 891.387L121.605 891.535ZM121.326 892.595L126.372 896.199L126.372 896.199L121.326 892.595ZM120.266 893.06L120.803 899.238L120.829 899.236L120.854 899.233L120.266 893.06ZM119.838 893.097L119.301 886.919L119.278 886.921L119.256 886.924L119.838 893.097ZM118.406 893.655L122.79 898.04L122.835 897.995L122.879 897.95L118.406 893.655ZM117.531 899.292L113.146 894.907L117.531 899.292ZM116.285 899.72V893.519C116.806 893.519 118.119 893.673 119.31 894.815L115.02 899.292L110.729 903.769C112.516 905.481 114.673 905.921 116.285 905.921V899.72ZM115.02 899.292L119.405 894.907C120.645 896.148 120.793 897.543 120.793 898.046H114.592H108.391C108.391 899.64 108.824 901.866 110.635 903.677L115.02 899.292ZM114.592 898.046H120.793V891.888H114.592H108.391V898.046H114.592ZM114.592 891.888H120.793C120.793 892.379 120.654 893.721 119.482 894.947L115.001 890.66L110.52 886.374C108.803 888.169 108.391 890.33 108.391 891.888H114.592ZM115.001 890.66L119.386 895.045C118.197 896.234 116.834 896.433 116.21 896.433V890.232V884.031C114.545 884.031 112.376 884.516 110.616 886.275L115.001 890.66ZM116.21 890.232V896.433C115.604 896.433 114.157 896.24 112.92 894.947L117.401 890.66L121.882 886.374C120.099 884.51 117.859 884.031 116.21 884.031V890.232ZM117.401 890.66L112.92 894.947C111.748 893.721 111.609 892.379 111.609 891.888H117.81H124.011C124.011 890.33 123.6 888.169 121.882 886.374L117.401 890.66ZM117.81 891.888H111.609V892.651H117.81H124.011V891.888H117.81ZM117.81 892.651V886.45H117.624V892.651V898.852H117.81V892.651ZM117.624 892.651L123.741 893.67C123.706 893.883 123.619 894.209 123.418 894.584C123.212 894.968 122.931 895.317 122.599 895.6L118.573 890.883L114.547 886.167C112.786 887.671 111.839 889.644 111.508 891.631L117.624 892.651ZM118.573 890.883L122.543 895.647C122.236 895.903 121.886 896.1 121.526 896.228C121.175 896.353 120.886 896.387 120.708 896.393L120.508 890.195L120.308 883.997C118.353 884.06 116.327 884.683 114.603 886.12L118.573 890.883ZM120.508 890.195L120.722 896.393C119.939 896.42 118.1 896.226 116.641 894.558L121.308 890.474L125.975 886.391C124.168 884.326 121.796 883.946 120.294 883.998L120.508 890.195ZM121.308 890.474L116.923 894.859C116.025 893.961 115.681 893.018 115.551 892.555C115.416 892.074 115.407 891.742 115.406 891.682L121.605 891.535L127.805 891.387C127.787 890.626 127.693 888.09 125.693 886.089L121.308 890.474ZM121.605 891.535H115.404C115.404 891.185 115.471 890.124 116.28 888.991L121.326 892.595L126.372 896.199C127.554 894.545 127.806 892.778 127.806 891.535H121.605ZM121.326 892.595L116.28 888.991C117.646 887.079 119.517 886.902 119.678 886.887L120.266 893.06L120.854 899.233C122.056 899.119 124.635 898.632 126.372 896.199L121.326 892.595ZM120.266 893.06L119.729 886.882L119.301 886.919L119.838 893.097L120.375 899.275L120.803 899.238L120.266 893.06ZM119.838 893.097L119.256 886.924C117.879 887.053 115.688 887.532 113.932 889.361L118.406 893.655L122.879 897.95C121.719 899.158 120.483 899.265 120.421 899.271L119.838 893.097ZM118.406 893.655L114.021 889.271C112.15 891.141 111.758 893.444 111.758 894.995H117.959H124.16C124.16 895.355 124.066 896.765 122.79 898.04L118.406 893.655ZM117.959 894.995H111.758V898.046H117.959H124.16V894.995H117.959ZM117.959 898.046H111.758C111.758 897.543 111.906 896.148 113.146 894.907L117.531 899.292L121.916 903.677C123.727 901.866 124.16 899.64 124.16 898.046H117.959ZM117.531 899.292L113.146 894.907C114.387 893.667 115.782 893.519 116.285 893.519V899.72V905.921C117.879 905.921 120.105 905.488 121.916 903.677L117.531 899.292ZM125.696 899.329L123.016 904.922L123.039 904.932L123.061 904.943L125.696 899.329ZM124.357 898.046L118.834 900.866L118.846 900.89L118.859 900.914L124.357 898.046ZM123.91 892.837H130.111V886.636H123.91V892.837ZM122.347 892.521L117.963 896.905L118.025 896.968L118.09 897.029L122.347 892.521ZM122.347 890.716L126.597 895.232L126.605 895.224L122.347 890.716ZM123.91 890.4V896.601H130.111V890.4H123.91ZM126.794 888L122.409 892.385L122.409 892.385L126.794 888ZM127.222 890.4H121.02V896.601H127.222V890.4ZM129.677 890.716L125.292 895.101L125.421 895.23L125.557 895.351L129.677 890.716ZM129.677 892.521L125.419 888.012L125.355 888.073L125.292 888.136L129.677 892.521ZM127.222 892.837V886.636H121.02V892.837H127.222ZM127.538 896.781L123.03 901.038L123.151 901.167L123.28 901.289L127.538 896.781ZM129.082 897.041L130.476 903.083V903.083L129.082 897.041ZM129.528 896.985V903.186H129.722L129.915 903.174L129.528 896.985ZM130.012 897.171L125.424 901.343L125.523 901.452L125.627 901.556L130.012 897.171ZM130.031 898.994L135.686 901.539L135.708 901.488L135.73 901.437L130.031 898.994ZM129.435 899.534L131.521 905.374L131.608 905.343L131.695 905.309L129.435 899.534ZM128.728 899.683L127.959 893.53L127.834 893.545L127.709 893.566L128.728 899.683ZM128.003 899.757V893.556C127.848 893.556 127.809 893.544 127.859 893.553C127.912 893.563 128.085 893.6 128.331 893.716L125.696 899.329L123.061 904.943C124.747 905.734 126.492 905.958 128.003 905.958V899.757ZM125.696 899.329L128.376 893.737C128.631 893.859 128.923 894.047 129.205 894.317C129.489 894.589 129.704 894.889 129.854 895.177L124.357 898.046L118.859 900.914C119.794 902.706 121.246 904.073 123.016 904.922L125.696 899.329ZM124.357 898.046L129.879 895.226C130.149 895.753 130.111 896.064 130.111 895.869H123.91H117.709C117.709 897.411 117.969 899.172 118.834 900.866L124.357 898.046ZM123.91 895.869H130.111V892.837H123.91H117.709V895.869H123.91ZM123.91 892.837V886.636H123.278V892.837V899.038H123.91V892.837ZM123.278 892.837V886.636C123.985 886.636 125.371 886.846 126.605 888.012L122.347 892.521L118.09 897.029C119.771 898.617 121.777 899.038 123.278 899.038V892.837ZM122.347 892.521L126.732 888.136C128.03 889.433 128.232 890.924 128.232 891.609H122.031H115.83C115.83 893.088 116.244 895.186 117.963 896.905L122.347 892.521ZM122.031 891.609H128.232C128.232 892.267 128.039 893.875 126.597 895.232L122.347 890.716L118.097 886.2C116.234 887.954 115.83 890.157 115.83 891.609H122.031ZM122.347 890.716L126.605 895.224C125.371 896.39 123.985 896.601 123.278 896.601V890.4V884.199C121.777 884.199 119.771 884.62 118.09 886.208L122.347 890.716ZM123.278 890.4V896.601H123.91V890.4V884.199H123.278V890.4ZM123.91 890.4H130.111V889.246H123.91H117.709V890.4H123.91ZM123.91 889.246H130.111C130.111 889.749 129.963 891.144 128.723 892.385L124.338 888L119.953 883.615C118.142 885.426 117.709 887.652 117.709 889.246H123.91ZM124.338 888L128.723 892.385C127.507 893.6 126.128 893.773 125.566 893.773V887.572V881.371C123.937 881.371 121.739 881.829 119.953 883.615L124.338 888ZM125.566 887.572V893.773C125.003 893.773 123.624 893.6 122.409 892.385L126.794 888L131.178 883.615C129.393 881.829 127.195 881.371 125.566 881.371V887.572ZM126.794 888L122.409 892.385C121.168 891.144 121.02 889.749 121.02 889.246H127.222H133.423C133.423 887.652 132.99 885.426 131.178 883.615L126.794 888ZM127.222 889.246H121.02V890.4H127.222H133.423V889.246H127.222ZM127.222 890.4V896.601H128.747V890.4V884.199H127.222V890.4ZM128.747 890.4V896.601C128.138 896.601 126.623 896.431 125.292 895.101L129.677 890.716L134.062 886.331C132.31 884.579 130.174 884.199 128.747 884.199V890.4ZM129.677 890.716L125.557 895.351C124.058 894.018 123.811 892.37 123.811 891.609H130.012H136.213C136.213 890.055 135.742 887.811 133.797 886.081L129.677 890.716ZM130.012 891.609H123.811C123.811 890.826 124.066 889.291 125.419 888.012L129.677 892.521L133.935 897.029C135.735 895.329 136.213 893.186 136.213 891.609H130.012ZM129.677 892.521L125.292 888.136C126.623 886.805 128.138 886.636 128.747 886.636V892.837V899.038C130.174 899.038 132.31 898.658 134.062 896.905L129.677 892.521ZM128.747 892.837V886.636H127.222V892.837V899.038H128.747V892.837ZM127.222 892.837H121.02V895.757H127.222H133.423V892.837H127.222ZM127.222 895.757H121.02C121.02 897.032 121.299 899.206 123.03 901.038L127.538 896.781L132.046 892.523C133.355 893.909 133.423 895.401 133.423 895.757H127.222ZM127.538 896.781L123.28 901.289C125.138 903.044 127.347 903.298 128.58 903.298V897.097V890.896C128.87 890.896 130.384 890.939 131.796 892.272L127.538 896.781ZM128.58 897.097V903.298C129.199 903.298 129.836 903.231 130.476 903.083L129.082 897.041L127.687 890.999C128.006 890.925 128.307 890.896 128.58 890.896V897.097ZM129.082 897.041L130.476 903.083C130.273 903.13 129.948 903.186 129.528 903.186V896.985V890.784C128.836 890.784 128.213 890.878 127.687 890.999L129.082 897.041ZM129.528 896.985L129.915 903.174C129.259 903.215 128.44 903.144 127.572 902.81C126.69 902.471 125.967 901.941 125.424 901.343L130.012 897.171L134.6 893C133.101 891.35 131.05 890.677 129.142 890.796L129.528 896.985ZM130.012 897.171L125.627 901.556C124.991 900.92 124.632 900.272 124.434 899.83C124.233 899.382 124.136 899.005 124.086 898.773C124.035 898.533 124.015 898.347 124.006 898.244C123.997 898.136 123.997 898.066 123.997 898.046H130.198H136.399C136.399 897.588 136.373 896.925 136.217 896.192C136.091 895.603 135.712 894.102 134.397 892.787L130.012 897.171ZM130.198 898.046H123.997C123.997 897.828 124.026 897.264 124.331 896.552L130.031 898.994L135.73 901.437C136.259 900.204 136.399 899.007 136.399 898.046H130.198ZM130.031 898.994L124.376 896.45C124.665 895.808 125.09 895.213 125.634 894.72C126.167 894.238 126.717 893.939 127.176 893.759L129.435 899.534L131.695 905.309C133.284 904.687 134.822 903.458 135.686 901.539L130.031 898.994ZM129.435 899.534L127.35 893.694C127.592 893.607 127.772 893.566 127.851 893.55C127.936 893.532 127.977 893.527 127.959 893.53L128.728 899.683L129.498 905.836C130.002 905.773 130.741 905.652 131.521 905.374L129.435 899.534ZM128.728 899.683L127.709 893.566C127.659 893.574 127.656 893.573 127.691 893.57C127.721 893.567 127.832 893.556 128.003 893.556V899.757V905.958C128.674 905.958 129.293 905.875 129.748 905.799L128.728 899.683Z" fill="white" mask="url(#path-4-outside-2_148_4503)"/>
</svg>
