<svg width="1521" height="2020" viewBox="0 0 761 1010" fill="none" xmlns="http://www.w3.org/2000/svg">
<path d="M80.7236 443.764C105.14 440.276 147.126 429.215 155.137 428.262C171.414 426.324 173.352 433.3 180.328 420.123C187.305 406.945 172.965 356.949 168.701 340.284C166.104 330.129 186.37 304.204 177.615 277.886C172.002 261.012 150.165 254.893 149.711 249.593C148.548 236.028 134.983 195.334 157.074 188.745C179.166 182.157 200.869 172.467 207.458 193.008C214.047 213.549 213.272 254.244 224.899 270.522C238.514 289.583 274.388 282.928 284.972 295.326C298.536 311.216 288.072 336.408 293.11 356.174C298.149 375.94 303.575 391.443 315.589 396.869C327.604 402.295 349.286 390.721 364.423 399.582C380.313 408.883 378.763 425.161 371.787 436.788C364.81 448.415 368.686 468.956 371.787 487.559C371.787 497.249 376.282 504.302 374.112 517.014C371.942 529.727 343.557 548.346 343.494 564.298C343.401 588.191 387.289 594.528 396.591 601.892C402.061 606.222 402.404 625.921 396.591 630.572C390.777 635.223 356.671 621.27 341.556 625.146C326.441 629.021 317.527 641.036 302.412 645.299C287.297 649.562 303.962 694.133 306.675 705.372C309.388 716.612 333.03 756.919 327.216 775.522C321.403 794.125 311.714 804.202 298.924 806.527C286.134 808.852 273.344 836.37 263.268 825.905C253.191 815.441 244.665 748.392 243.889 733.277C243.114 718.162 225.286 634.06 223.348 625.146C221.411 616.232 193.118 482.521 193.118 469.731C193.118 461.616 195.314 445.056 190.405 443.764" stroke="black" stroke-width="7.75134" stroke-linecap="round" stroke-dasharray="7.75 21.7"/>
<mask id="path-2-outside-1_148_4503" maskUnits="userSpaceOnUse" x="162.601" y="436.401" width="23" height="14" fill="black">
<rect fill="white" x="162.601" y="436.401" width="23" height="14"/>
<path d="M167.089 446.401C166.797 446.401 166.574 446.326 166.419 446.177C166.27 446.022 166.196 445.802 166.196 445.517V440.727C166.196 440.441 166.27 440.224 166.419 440.076C166.574 439.92 166.797 439.843 167.089 439.843H170.242C170.465 439.843 170.633 439.899 170.744 440.01C170.856 440.122 170.912 440.283 170.912 440.494C170.912 440.711 170.856 440.879 170.744 440.996C170.633 441.108 170.465 441.164 170.242 441.164H167.833V442.41H170.037C170.254 442.41 170.419 442.466 170.53 442.578C170.648 442.689 170.707 442.854 170.707 443.071C170.707 443.288 170.648 443.452 170.53 443.564C170.419 443.675 170.254 443.731 170.037 443.731H167.833V445.08H170.242C170.465 445.08 170.633 445.139 170.744 445.257C170.856 445.368 170.912 445.529 170.912 445.74C170.912 445.957 170.856 446.122 170.744 446.233C170.633 446.345 170.465 446.401 170.242 446.401H167.089ZM172.616 446.484C172.356 446.484 172.154 446.413 172.012 446.27C171.869 446.128 171.798 445.92 171.798 445.647V442.568C171.798 442.302 171.866 442.097 172.002 441.954C172.145 441.812 172.347 441.74 172.607 441.74C172.868 441.74 173.066 441.812 173.202 441.954C173.339 442.097 173.407 442.302 173.407 442.568V443.006L173.305 442.624C173.454 442.333 173.664 442.109 173.937 441.954C174.216 441.799 174.533 441.722 174.886 441.722C175.252 441.722 175.553 441.793 175.788 441.936C176.024 442.072 176.201 442.289 176.318 442.587C176.436 442.878 176.495 443.247 176.495 443.694V445.647C176.495 445.92 176.424 446.128 176.281 446.27C176.139 446.413 175.934 446.484 175.667 446.484C175.401 446.484 175.196 446.413 175.053 446.27C174.911 446.128 174.839 445.92 174.839 445.647V443.759C174.839 443.48 174.79 443.281 174.691 443.164C174.598 443.046 174.458 442.987 174.272 442.987C174.024 442.987 173.826 443.068 173.677 443.229C173.528 443.384 173.454 443.595 173.454 443.861V445.647C173.454 446.205 173.174 446.484 172.616 446.484ZM179.225 446.503C178.834 446.503 178.487 446.407 178.183 446.215C177.885 446.022 177.65 445.746 177.476 445.387C177.309 445.027 177.225 444.602 177.225 444.112C177.225 443.61 177.309 443.182 177.476 442.829C177.65 442.475 177.885 442.202 178.183 442.01C178.487 441.818 178.834 441.722 179.225 441.722C179.566 441.722 179.873 441.803 180.146 441.964C180.418 442.125 180.601 442.333 180.694 442.587H180.592V440.596C180.592 440.324 180.663 440.116 180.806 439.973C180.949 439.831 181.153 439.759 181.42 439.759C181.68 439.759 181.882 439.831 182.024 439.973C182.173 440.116 182.248 440.324 182.248 440.596V445.647C182.248 445.92 182.176 446.128 182.034 446.27C181.897 446.413 181.696 446.484 181.429 446.484C181.169 446.484 180.967 446.413 180.825 446.27C180.682 446.128 180.611 445.92 180.611 445.647V445.117L180.713 445.573C180.626 445.852 180.443 446.078 180.164 446.252C179.891 446.419 179.578 446.503 179.225 446.503ZM179.755 445.284C179.922 445.284 180.071 445.244 180.201 445.163C180.332 445.077 180.431 444.95 180.499 444.782C180.573 444.608 180.611 444.385 180.611 444.112C180.611 443.697 180.53 443.399 180.369 443.219C180.208 443.033 180.003 442.94 179.755 442.94C179.587 442.94 179.439 442.981 179.308 443.061C179.178 443.142 179.076 443.269 179.001 443.443C178.927 443.61 178.89 443.833 178.89 444.112C178.89 444.522 178.97 444.819 179.132 445.005C179.293 445.191 179.501 445.284 179.755 445.284Z"/>
</mask>
<path d="M167.089 446.401C166.797 446.401 166.574 446.326 166.419 446.177C166.27 446.022 166.196 445.802 166.196 445.517V440.727C166.196 440.441 166.27 440.224 166.419 440.076C166.574 439.92 166.797 439.843 167.089 439.843H170.242C170.465 439.843 170.633 439.899 170.744 440.01C170.856 440.122 170.912 440.283 170.912 440.494C170.912 440.711 170.856 440.879 170.744 440.996C170.633 441.108 170.465 441.164 170.242 441.164H167.833V442.41H170.037C170.254 442.41 170.419 442.466 170.53 442.578C170.648 442.689 170.707 442.854 170.707 443.071C170.707 443.288 170.648 443.452 170.53 443.564C170.419 443.675 170.254 443.731 170.037 443.731H167.833V445.08H170.242C170.465 445.08 170.633 445.139 170.744 445.257C170.856 445.368 170.912 445.529 170.912 445.74C170.912 445.957 170.856 446.122 170.744 446.233C170.633 446.345 170.465 446.401 170.242 446.401H167.089ZM172.616 446.484C172.356 446.484 172.154 446.413 172.012 446.27C171.869 446.128 171.798 445.92 171.798 445.647V442.568C171.798 442.302 171.866 442.097 172.002 441.954C172.145 441.812 172.347 441.74 172.607 441.74C172.868 441.74 173.066 441.812 173.202 441.954C173.339 442.097 173.407 442.302 173.407 442.568V443.006L173.305 442.624C173.454 442.333 173.664 442.109 173.937 441.954C174.216 441.799 174.533 441.722 174.886 441.722C175.252 441.722 175.553 441.793 175.788 441.936C176.024 442.072 176.201 442.289 176.318 442.587C176.436 442.878 176.495 443.247 176.495 443.694V445.647C176.495 445.92 176.424 446.128 176.281 446.27C176.139 446.413 175.934 446.484 175.667 446.484C175.401 446.484 175.196 446.413 175.053 446.27C174.911 446.128 174.839 445.92 174.839 445.647V443.759C174.839 443.48 174.79 443.281 174.691 443.164C174.598 443.046 174.458 442.987 174.272 442.987C174.024 442.987 173.826 443.068 173.677 443.229C173.528 443.384 173.454 443.595 173.454 443.861V445.647C173.454 446.205 173.174 446.484 172.616 446.484ZM179.225 446.503C178.834 446.503 178.487 446.407 178.183 446.215C177.885 446.022 177.65 445.746 177.476 445.387C177.309 445.027 177.225 444.602 177.225 444.112C177.225 443.61 177.309 443.182 177.476 442.829C177.65 442.475 177.885 442.202 178.183 442.01C178.487 441.818 178.834 441.722 179.225 441.722C179.566 441.722 179.873 441.803 180.146 441.964C180.418 442.125 180.601 442.333 180.694 442.587H180.592V440.596C180.592 440.324 180.663 440.116 180.806 439.973C180.949 439.831 181.153 439.759 181.42 439.759C181.68 439.759 181.882 439.831 182.024 439.973C182.173 440.116 182.248 440.324 182.248 440.596V445.647C182.248 445.92 182.176 446.128 182.034 446.27C181.897 446.413 181.696 446.484 181.429 446.484C181.169 446.484 180.967 446.413 180.825 446.27C180.682 446.128 180.611 445.92 180.611 445.647V445.117L180.713 445.573C180.626 445.852 180.443 446.078 180.164 446.252C179.891 446.419 179.578 446.503 179.225 446.503ZM179.755 445.284C179.922 445.284 180.071 445.244 180.201 445.163C180.332 445.077 180.431 444.95 180.499 444.782C180.573 444.608 180.611 444.385 180.611 444.112C180.611 443.697 180.53 443.399 180.369 443.219C180.208 443.033 180.003 442.94 179.755 442.94C179.587 442.94 179.439 442.981 179.308 443.061C179.178 443.142 179.076 443.269 179.001 443.443C178.927 443.61 178.89 443.833 178.89 444.112C178.89 444.522 178.97 444.819 179.132 445.005C179.293 445.191 179.501 445.284 179.755 445.284Z" fill="black"/>
<path d="M166.419 446.177L164.182 448.325L164.226 448.37L164.272 448.414L166.419 446.177ZM166.419 440.076L168.612 442.268L168.612 442.268L166.419 440.076ZM170.744 440.996L172.937 443.189L172.966 443.159L172.995 443.129L170.744 440.996ZM167.833 441.164V438.063H164.732V441.164H167.833ZM167.833 442.41H164.732V445.511H167.833V442.41ZM170.53 442.578L168.338 444.77L168.368 444.8L168.398 444.828L170.53 442.578ZM170.53 443.564L168.398 441.313L168.368 441.342L168.338 441.371L170.53 443.564ZM167.833 443.731V440.631H164.732V443.731H167.833ZM167.833 445.08H164.732V448.18H167.833V445.08ZM170.744 445.257L168.494 447.389L168.522 447.419L168.552 447.449L170.744 445.257ZM167.089 446.401V443.3C167.307 443.3 167.964 443.362 168.566 443.941L166.419 446.177L164.272 448.414C165.185 449.29 166.288 449.501 167.089 449.501V446.401ZM166.419 446.177L168.656 444.03C169.223 444.621 169.296 445.271 169.296 445.517H166.196H163.095C163.095 446.333 163.317 447.423 164.182 448.325L166.419 446.177ZM166.196 445.517H169.296V440.727H166.196H163.095V445.517H166.196ZM166.196 440.727H169.296C169.296 440.964 169.227 441.653 168.612 442.268L166.419 440.076L164.227 437.883C163.314 438.796 163.095 439.919 163.095 440.727H166.196ZM166.419 440.076L168.612 442.268C168.013 442.866 167.34 442.944 167.089 442.944V439.843V436.742C166.255 436.742 165.135 436.975 164.227 437.883L166.419 440.076ZM167.089 439.843V442.944H170.242V439.843V436.742H167.089V439.843ZM170.242 439.843V442.944C169.987 442.944 169.227 442.878 168.552 442.203L170.744 440.01L172.937 437.818C172.039 436.92 170.943 436.742 170.242 436.742V439.843ZM170.744 440.01L168.552 442.203C167.908 441.558 167.811 440.821 167.811 440.494H170.912H174.012C174.012 439.746 173.804 438.686 172.937 437.818L170.744 440.01ZM170.912 440.494H167.811C167.811 440.192 167.897 439.494 168.494 438.864L170.744 440.996L172.995 443.129C173.815 442.263 174.012 441.231 174.012 440.494H170.912ZM170.744 440.996L168.552 438.804C169.227 438.129 169.987 438.063 170.242 438.063V441.164V444.264C170.943 444.264 172.039 444.087 172.937 443.189L170.744 440.996ZM170.242 441.164V438.063H167.833V441.164V444.264H170.242V441.164ZM167.833 441.164H164.732V442.41H167.833H170.934V441.164H167.833ZM167.833 442.41V445.511H170.037V442.41V439.31H167.833V442.41ZM170.037 442.41V445.511C169.747 445.511 168.998 445.43 168.338 444.77L170.53 442.578L172.723 440.385C171.84 439.502 170.762 439.31 170.037 439.31V442.41ZM170.53 442.578L168.398 444.828C167.71 444.177 167.607 443.406 167.607 443.071H170.707H173.808C173.808 442.301 173.587 441.202 172.663 440.327L170.53 442.578ZM170.707 443.071H167.607C167.607 442.735 167.71 441.965 168.398 441.313L170.53 443.564L172.663 445.814C173.587 444.939 173.808 443.84 173.808 443.071H170.707ZM170.53 443.564L168.338 441.371C168.998 440.711 169.747 440.631 170.037 440.631V443.731V446.832C170.762 446.832 171.84 446.639 172.723 445.756L170.53 443.564ZM170.037 443.731V440.631H167.833V443.731V446.832H170.037V443.731ZM167.833 443.731H164.732V445.08H167.833H170.934V443.731H167.833ZM167.833 445.08V448.18H170.242V445.08V441.979H167.833V445.08ZM170.242 445.08V448.18C169.943 448.18 169.161 448.093 168.494 447.389L170.744 445.257L172.995 443.124C172.105 442.184 170.987 441.979 170.242 441.979V445.08ZM170.744 445.257L168.552 447.449C167.908 446.805 167.811 446.067 167.811 445.74H170.912H174.012C174.012 444.992 173.804 443.932 172.937 443.064L170.744 445.257ZM170.912 445.74H167.811C167.811 445.45 167.892 444.701 168.552 444.041L170.744 446.233L172.937 448.426C173.82 447.542 174.012 446.465 174.012 445.74H170.912ZM170.744 446.233L168.552 444.041C169.227 443.366 169.987 443.3 170.242 443.3V446.401V449.501C170.943 449.501 172.039 449.324 172.937 448.426L170.744 446.233ZM170.242 446.401V443.3H167.089V446.401V449.501H170.242V446.401ZM172.012 446.27L174.204 444.078L172.012 446.27ZM172.002 441.954L169.81 439.762L169.786 439.786L169.762 439.811L172.002 441.954ZM173.202 441.954L170.962 444.098L170.962 444.098L173.202 441.954ZM173.407 443.006L170.412 443.809L176.508 443.006H173.407ZM173.305 442.624L170.543 441.214L170.001 442.276L170.31 443.428L173.305 442.624ZM173.937 441.954L172.431 439.244L172.418 439.251L172.406 439.259L173.937 441.954ZM175.788 441.936L174.183 444.588L174.209 444.604L174.235 444.619L175.788 441.936ZM176.318 442.587L173.436 443.728L173.44 443.739L173.444 443.749L176.318 442.587ZM176.281 446.27L174.089 444.078L176.281 446.27ZM175.053 446.27L177.246 444.078L175.053 446.27ZM174.691 443.164L172.257 445.085L172.287 445.123L172.319 445.161L174.691 443.164ZM173.677 443.229L175.913 445.376L175.934 445.354L175.955 445.332L173.677 443.229ZM172.616 446.484V443.384C172.928 443.384 173.61 443.483 174.204 444.078L172.012 446.27L169.819 448.463C170.699 449.343 171.784 449.585 172.616 449.585V446.484ZM172.012 446.27L174.204 444.078C174.824 444.698 174.898 445.396 174.898 445.647H171.798H168.697C168.697 446.444 168.914 447.557 169.819 448.463L172.012 446.27ZM171.798 445.647H174.898V442.568H171.798H168.697V445.647H171.798ZM171.798 442.568H174.898C174.898 442.814 174.829 443.485 174.243 444.098L172.002 441.954L169.762 439.811C168.903 440.709 168.697 441.789 168.697 442.568H171.798ZM172.002 441.954L174.195 444.147C173.6 444.741 172.919 444.841 172.607 444.841V441.74V438.64C171.775 438.64 170.69 438.882 169.81 439.762L172.002 441.954ZM172.607 441.74V444.841C172.304 444.841 171.58 444.744 170.962 444.098L173.202 441.954L175.443 439.811C174.552 438.879 173.431 438.64 172.607 438.64V441.74ZM173.202 441.954L170.962 444.098C170.376 443.485 170.306 442.814 170.306 442.568H173.407H176.508C176.508 441.789 176.302 440.709 175.443 439.811L173.202 441.954ZM173.407 442.568H170.306V443.006H173.407H176.508V442.568H173.407ZM173.407 443.006L176.402 442.202L176.299 441.821L173.305 442.624L170.31 443.428L170.412 443.809L173.407 443.006ZM173.305 442.624L176.066 444.034C176.015 444.134 175.938 444.251 175.829 444.367C175.718 444.484 175.594 444.579 175.469 444.65L173.937 441.954L172.406 439.259C171.583 439.726 170.955 440.408 170.543 441.214L173.305 442.624ZM173.937 441.954L175.443 444.665C175.213 444.792 175.002 444.822 174.886 444.822V441.722V438.621C174.063 438.621 173.219 438.806 172.431 439.244L173.937 441.954ZM174.886 441.722V444.822C174.866 444.822 174.566 444.82 174.183 444.588L175.788 441.936L177.394 439.283C176.54 438.766 175.637 438.621 174.886 438.621V441.722ZM175.788 441.936L174.235 444.619C173.764 444.347 173.528 443.961 173.436 443.728L176.318 442.587L179.201 441.446C178.874 440.618 178.283 439.798 177.342 439.253L175.788 441.936ZM176.318 442.587L173.444 443.749C173.422 443.695 173.409 443.651 173.401 443.622C173.393 443.592 173.39 443.575 173.389 443.571C173.389 443.568 173.39 443.576 173.392 443.597C173.393 443.618 173.395 443.65 173.395 443.694H176.495H179.596C179.596 443.004 179.509 442.206 179.193 441.425L176.318 442.587ZM176.495 443.694H173.395V445.647H176.495H179.596V443.694H176.495ZM176.495 445.647H173.395C173.395 445.396 173.469 444.698 174.089 444.078L176.281 446.27L178.474 448.463C179.379 447.557 179.596 446.444 179.596 445.647H176.495ZM176.281 446.27L174.089 444.078C174.697 443.47 175.386 443.384 175.667 443.384V446.484V449.585C176.482 449.585 177.581 449.356 178.474 448.463L176.281 446.27ZM175.667 446.484V443.384C175.949 443.384 176.638 443.47 177.246 444.078L175.053 446.27L172.861 448.463C173.754 449.356 174.853 449.585 175.667 449.585V446.484ZM175.053 446.27L177.246 444.078C177.866 444.698 177.94 445.396 177.94 445.647H174.839H171.739C171.739 446.444 171.955 447.557 172.861 448.463L175.053 446.27ZM174.839 445.647H177.94V443.759H174.839H171.739V445.647H174.839ZM174.839 443.759H177.94C177.94 443.277 177.887 442.145 177.062 441.166L174.691 443.164L172.319 445.161C171.982 444.76 171.848 444.368 171.794 444.153C171.74 443.935 171.739 443.788 171.739 443.759H174.839ZM174.691 443.164L177.124 441.242C176.304 440.203 175.157 439.886 174.272 439.886V442.987V446.087C174.043 446.087 173.699 446.051 173.31 445.887C172.903 445.716 172.537 445.44 172.257 445.085L174.691 443.164ZM174.272 442.987V439.886C173.283 439.886 172.214 440.242 171.398 441.126L173.677 443.229L175.955 445.332C175.728 445.578 175.438 445.784 175.104 445.92C174.779 446.052 174.486 446.087 174.272 446.087V442.987ZM173.677 443.229L171.44 441.082C170.611 441.945 170.353 442.997 170.353 443.861H173.454H176.554C176.554 444.192 176.445 444.822 175.913 445.376L173.677 443.229ZM173.454 443.861H170.353V445.647H173.454H176.554V443.861H173.454ZM173.454 445.647H170.353C170.353 445.448 170.405 444.73 171.052 444.083C171.699 443.436 172.418 443.384 172.616 443.384V446.484V449.585C173.373 449.585 174.511 449.394 175.437 448.467C176.363 447.541 176.554 446.404 176.554 445.647H173.454ZM178.183 446.215L176.501 448.819L176.513 448.827L176.525 448.835L178.183 446.215ZM177.476 445.387L174.665 446.695L174.674 446.715L174.684 446.735L177.476 445.387ZM177.476 442.829L174.693 441.462L174.683 441.482L174.674 441.501L177.476 442.829ZM178.183 442.01L176.525 439.39L176.513 439.398L176.501 439.406L178.183 442.01ZM180.694 442.587V445.687H185.13L183.606 441.522L180.694 442.587ZM180.592 442.587H177.491V445.687H180.592V442.587ZM180.806 439.973L182.998 442.166L182.998 442.166L180.806 439.973ZM182.024 439.973L179.832 442.166L179.855 442.189L179.879 442.212L182.024 439.973ZM182.034 446.27L179.841 444.078L179.817 444.102L179.793 444.127L182.034 446.27ZM180.825 446.27L183.017 444.078L180.825 446.27ZM180.611 445.117L183.636 444.438L177.51 445.117H180.611ZM180.713 445.573L183.674 446.494L183.92 445.702L183.738 444.894L180.713 445.573ZM180.164 446.252L181.786 448.894L181.794 448.889L181.802 448.884L180.164 446.252ZM180.201 445.163L181.833 447.8L181.878 447.772L181.921 447.743L180.201 445.163ZM180.499 444.782L177.649 443.561L177.638 443.586L177.628 443.612L180.499 444.782ZM180.369 443.219L178.026 445.25L178.043 445.27L178.06 445.289L180.369 443.219ZM179.308 443.061L177.676 440.425L177.676 440.425L179.308 443.061ZM179.001 443.443L181.835 444.702L181.843 444.683L181.851 444.664L179.001 443.443ZM179.225 446.503V443.402C179.285 443.402 179.381 443.41 179.498 443.443C179.617 443.476 179.735 443.527 179.841 443.594L178.183 446.215L176.525 448.835C177.368 449.368 178.3 449.603 179.225 449.603V446.503ZM178.183 446.215L179.865 443.61C179.975 443.681 180.068 443.765 180.141 443.85C180.212 443.933 180.251 444.003 180.268 444.039L177.476 445.387L174.684 446.735C175.073 447.54 175.666 448.28 176.501 448.819L178.183 446.215ZM177.476 445.387L180.287 444.078C180.318 444.144 180.328 444.189 180.33 444.199C180.331 444.208 180.325 444.182 180.325 444.112H177.225H174.124C174.124 444.951 174.268 445.841 174.665 446.695L177.476 445.387ZM177.225 444.112H180.325C180.325 444.032 180.332 444.001 180.33 444.01C180.328 444.021 180.317 444.075 180.278 444.156L177.476 442.829L174.674 441.501C174.262 442.37 174.124 443.277 174.124 444.112H177.225ZM177.476 442.829L180.259 444.196C180.24 444.235 180.2 444.304 180.129 444.386C180.058 444.469 179.968 444.548 179.865 444.615L178.183 442.01L176.501 439.406C175.679 439.936 175.086 440.661 174.693 441.462L177.476 442.829ZM178.183 442.01L179.841 444.63C179.735 444.697 179.617 444.749 179.498 444.782C179.381 444.815 179.285 444.822 179.225 444.822V441.722V438.621C178.3 438.621 177.368 438.857 176.525 439.39L178.183 442.01ZM179.225 441.722V444.822C179.149 444.822 179.045 444.813 178.923 444.781C178.8 444.749 178.679 444.698 178.568 444.633L180.146 441.964L181.723 439.294C180.936 438.829 180.077 438.621 179.225 438.621V441.722ZM180.146 441.964L178.568 444.633C178.464 444.571 178.313 444.463 178.16 444.29C178.003 444.111 177.871 443.895 177.783 443.652L180.694 442.587L183.606 441.522C183.226 440.483 182.502 439.755 181.723 439.294L180.146 441.964ZM180.694 442.587V439.486H180.592V442.587V445.687H180.694V442.587ZM180.592 442.587H183.693V440.596H180.592H177.491V442.587H180.592ZM180.592 440.596H183.693C183.693 440.848 183.619 441.545 182.998 442.166L180.806 439.973L178.614 437.781C177.708 438.686 177.491 439.799 177.491 440.596H180.592ZM180.806 439.973L182.998 442.166C182.391 442.773 181.701 442.86 181.42 442.86V439.759V436.659C180.605 436.659 179.507 436.888 178.614 437.781L180.806 439.973ZM181.42 439.759V442.86C181.108 442.86 180.427 442.76 179.832 442.166L182.024 439.973L184.217 437.781C183.337 436.901 182.252 436.659 181.42 436.659V439.759ZM182.024 439.973L179.879 442.212C179.239 441.598 179.147 440.884 179.147 440.596H182.248H185.348C185.348 439.764 185.108 438.634 184.17 437.735L182.024 439.973ZM182.248 440.596H179.147V445.647H182.248H185.348V440.596H182.248ZM182.248 445.647H179.147C179.147 445.396 179.221 444.698 179.841 444.078L182.034 446.27L184.226 448.463C185.132 447.557 185.348 446.444 185.348 445.647H182.248ZM182.034 446.27L179.793 444.127C180.425 443.467 181.157 443.384 181.429 443.384V446.484V449.585C182.234 449.585 183.37 449.359 184.274 448.414L182.034 446.27ZM181.429 446.484V443.384C181.741 443.384 182.422 443.483 183.017 444.078L180.825 446.27L178.632 448.463C179.512 449.343 180.597 449.585 181.429 449.585V446.484ZM180.825 446.27L183.017 444.078C183.637 444.698 183.711 445.396 183.711 445.647H180.611H177.51C177.51 446.444 177.727 447.557 178.632 448.463L180.825 446.27ZM180.611 445.647H183.711V445.117H180.611H177.51V445.647H180.611ZM180.611 445.117L177.585 445.796L177.688 446.252L180.713 445.573L183.738 444.894L183.636 444.438L180.611 445.117ZM180.713 445.573L177.752 444.652C177.825 444.419 177.943 444.196 178.099 444.003C178.252 443.814 178.409 443.692 178.526 443.619L180.164 446.252L181.802 448.884C182.629 448.37 183.338 447.573 183.674 446.494L180.713 445.573ZM180.164 446.252L178.543 443.609C178.664 443.534 178.795 443.479 178.924 443.445C179.051 443.411 179.155 443.402 179.225 443.402V446.503V449.603C180.089 449.603 180.975 449.392 181.786 448.894L180.164 446.252ZM179.755 445.284V448.385C180.443 448.385 181.168 448.212 181.833 447.8L180.201 445.163L178.569 442.527C178.975 442.276 179.401 442.184 179.755 442.184V445.284ZM180.201 445.163L181.921 447.743C182.644 447.261 183.105 446.602 183.37 445.952L180.499 444.782L177.628 443.612C177.756 443.297 178.019 442.892 178.481 442.584L180.201 445.163ZM180.499 444.782L183.349 446.003C183.645 445.312 183.711 444.633 183.711 444.112H180.611H177.51C177.51 444.112 177.51 444.062 177.524 443.975C177.539 443.888 177.572 443.742 177.649 443.561L180.499 444.782ZM180.611 444.112H183.711C183.711 443.438 183.607 442.187 182.677 441.15L180.369 443.219L178.06 445.289C177.741 444.933 177.61 444.581 177.557 444.388C177.506 444.199 177.51 444.09 177.51 444.112H180.611ZM180.369 443.219L182.712 441.189C181.957 440.317 180.894 439.84 179.755 439.84V442.94V446.041C179.482 446.041 179.152 445.988 178.811 445.833C178.47 445.678 178.209 445.462 178.026 445.25L180.369 443.219ZM179.755 442.94V439.84C179.067 439.84 178.342 440.013 177.676 440.425L179.308 443.061L180.94 445.698C180.535 445.948 180.108 446.041 179.755 446.041V442.94ZM179.308 443.061L177.676 440.425C176.889 440.912 176.418 441.6 176.152 442.221L179.001 443.443L181.851 444.664C181.734 444.938 181.467 445.372 180.94 445.698L179.308 443.061ZM179.001 443.443L176.168 442.183C175.85 442.899 175.789 443.605 175.789 444.112H178.89H181.99C181.99 444.106 181.991 444.155 181.976 444.245C181.961 444.334 181.925 444.498 181.835 444.702L179.001 443.443ZM178.89 444.112H175.789C175.789 444.809 175.905 446.016 176.789 447.036L179.132 445.005L181.475 442.975C181.767 443.312 181.891 443.641 181.943 443.832C181.993 444.017 181.99 444.127 181.99 444.112H178.89ZM179.132 445.005L176.789 447.036C177.561 447.927 178.635 448.385 179.755 448.385V445.284V442.184C180.013 442.184 180.336 442.233 180.675 442.385C181.017 442.538 181.284 442.754 181.475 442.975L179.132 445.005Z" fill="white" mask="url(#path-2-outside-1_148_4503)"/>
<mask id="path-4-outside-2_148_4503" maskUnits="userSpaceOnUse" x="38.5791" y="440.276" width="30" height="14" fill="black">
<rect fill="white" x="38.5791" y="440.276" width="30" height="14"/>
<path d="M44.6114 450.379C44.3634 450.379 44.1029 450.36 43.8301 450.323C43.5634 450.292 43.3092 450.242 43.0674 450.174C42.8255 450.106 42.6085 450.025 42.4162 449.932C42.2488 449.852 42.131 449.746 42.0628 449.616C41.9946 449.479 41.9698 449.337 41.9884 449.188C42.007 449.039 42.0597 448.909 42.1465 448.797C42.2333 448.679 42.348 448.602 42.4907 448.565C42.6333 448.521 42.7945 448.54 42.9743 448.621C43.21 448.732 43.4766 448.819 43.7743 448.881C44.0719 448.943 44.351 448.974 44.6114 448.974C45.0207 448.974 45.3059 448.921 45.4672 448.816C45.6346 448.704 45.7183 448.568 45.7183 448.407C45.7183 448.264 45.6594 448.149 45.5416 448.062C45.43 447.976 45.2284 447.901 44.937 447.839L43.8487 447.607C43.2534 447.483 42.81 447.266 42.5186 446.956C42.2271 446.646 42.0814 446.246 42.0814 445.756C42.0814 445.433 42.1465 445.142 42.2767 444.881C42.4131 444.615 42.6023 444.388 42.8441 444.202C43.0922 444.016 43.3836 443.874 43.7185 443.774C44.0595 443.669 44.4378 443.616 44.8533 443.616C45.1757 443.616 45.5013 443.654 45.8299 443.728C46.1648 443.796 46.4531 443.902 46.695 444.044C46.8376 444.119 46.9399 444.221 47.0019 444.351C47.064 444.481 47.0888 444.618 47.0764 444.76C47.064 444.897 47.0143 445.018 46.9275 445.123C46.8469 445.229 46.7353 445.3 46.5927 445.337C46.4562 445.368 46.2919 445.343 46.0997 445.263C45.9199 445.182 45.7152 445.123 45.4858 445.086C45.2625 445.043 45.0455 445.021 44.8347 445.021C44.6052 445.021 44.4099 445.049 44.2487 445.105C44.0874 445.154 43.9634 445.229 43.8766 445.328C43.796 445.427 43.7557 445.542 43.7557 445.672C43.7557 445.802 43.8084 445.914 43.9138 446.007C44.0254 446.094 44.227 446.168 44.5184 446.23L45.5974 446.463C46.1989 446.593 46.6485 446.807 46.9461 447.104C47.2438 447.402 47.3926 447.79 47.3926 448.267C47.3926 448.59 47.3275 448.881 47.1973 449.141C47.0671 449.402 46.881 449.625 46.6392 449.811C46.3973 449.991 46.1059 450.131 45.7648 450.23C45.4238 450.329 45.0393 450.379 44.6114 450.379ZM50.4487 450.379C49.9836 450.379 49.5992 450.307 49.2953 450.165C48.9976 450.022 48.7744 449.808 48.6256 449.523C48.4768 449.231 48.4023 448.869 48.4023 448.435V446.918H48.0861C47.8877 446.918 47.7326 446.866 47.621 446.76C47.5156 446.655 47.4629 446.503 47.4629 446.304C47.4629 446.106 47.5156 445.957 47.621 445.858C47.7326 445.753 47.8877 445.7 48.0861 445.7H48.4023V445.123C48.4023 444.85 48.4737 444.643 48.6163 444.5C48.7589 444.357 48.9635 444.286 49.2302 444.286C49.4968 444.286 49.7015 444.357 49.8441 444.5C49.9867 444.643 50.058 444.85 50.058 445.123V445.7H50.8208C51.0254 445.7 51.1804 445.753 51.2858 445.858C51.3975 445.957 51.4533 446.106 51.4533 446.304C51.4533 446.503 51.3975 446.655 51.2858 446.76C51.1804 446.866 51.0254 446.918 50.8208 446.918H50.058V448.379C50.058 448.608 50.1107 448.779 50.2162 448.89C50.3278 448.996 50.5014 449.048 50.737 449.048C50.8239 449.048 50.9076 449.039 50.9882 449.021C51.0688 449.002 51.1432 448.993 51.2114 448.993C51.3106 448.986 51.3913 449.017 51.4533 449.086C51.5153 449.148 51.5463 449.293 51.5463 449.523C51.5463 449.709 51.5184 449.867 51.4626 449.997C51.4068 450.121 51.3075 450.211 51.1649 450.267C51.0781 450.298 50.9603 450.323 50.8115 450.341C50.6626 450.366 50.5417 450.379 50.4487 450.379ZM53.5999 450.379C53.2464 450.379 52.9333 450.313 52.6604 450.183C52.3938 450.053 52.183 449.876 52.0279 449.653C51.8791 449.424 51.8047 449.163 51.8047 448.872C51.8047 448.537 51.8915 448.273 52.0651 448.081C52.2388 447.889 52.5178 447.752 52.9023 447.672C53.2868 447.585 53.7983 447.542 54.4371 447.542H54.9486V448.323H54.4371C54.1952 448.323 53.9937 448.342 53.8324 448.379C53.6774 448.41 53.5627 448.462 53.4883 448.537C53.4139 448.605 53.3767 448.695 53.3767 448.807C53.3767 448.949 53.4263 449.067 53.5255 449.16C53.6309 449.253 53.7797 449.3 53.972 449.3C54.127 449.3 54.2634 449.266 54.3812 449.197C54.5053 449.129 54.6045 449.036 54.6789 448.918C54.7533 448.794 54.7905 448.652 54.7905 448.49V447.411C54.7905 447.188 54.7316 447.03 54.6138 446.937C54.5022 446.844 54.3068 446.797 54.0278 446.797C53.879 446.797 53.7115 446.816 53.5255 446.853C53.3395 446.884 53.1317 446.943 52.9023 447.03C52.7349 447.092 52.5922 447.101 52.4744 447.058C52.3566 447.015 52.2636 446.94 52.1954 446.835C52.1334 446.729 52.1023 446.615 52.1023 446.491C52.1086 446.366 52.1489 446.249 52.2233 446.137C52.3039 446.025 52.4248 445.939 52.586 445.877C52.8837 445.765 53.1565 445.691 53.4046 445.653C53.6588 445.616 53.8914 445.598 54.1022 445.598C54.6107 445.598 55.0293 445.672 55.3579 445.821C55.6928 445.963 55.9408 446.187 56.102 446.491C56.2695 446.788 56.3532 447.173 56.3532 447.644V449.523C56.3532 449.796 56.2881 450.003 56.1579 450.146C56.0276 450.289 55.8385 450.36 55.5905 450.36C55.3362 450.36 55.1409 450.289 55.0045 450.146C54.8742 450.003 54.8091 449.796 54.8091 449.523V449.281L54.8649 449.411C54.8339 449.61 54.7626 449.78 54.651 449.923C54.5394 450.065 54.3936 450.177 54.2138 450.258C54.034 450.338 53.8293 450.379 53.5999 450.379ZM58.1424 450.36C57.8696 450.36 57.6588 450.289 57.5099 450.146C57.3673 450.003 57.296 449.796 57.296 449.523V446.444C57.296 446.177 57.3642 445.973 57.5006 445.83C57.6433 445.687 57.8448 445.616 58.1052 445.616C58.3657 445.616 58.5641 445.687 58.7005 445.83C58.837 445.973 58.9052 446.177 58.9052 446.444V446.825H58.8122C58.8742 446.453 59.0323 446.159 59.2865 445.942C59.547 445.725 59.8694 445.61 60.2539 445.598C60.4337 445.591 60.5671 445.638 60.6539 445.737C60.7469 445.83 60.7965 446.007 60.8027 446.267C60.8027 446.491 60.7562 446.667 60.6632 446.797C60.5702 446.928 60.3934 447.005 60.133 447.03L59.919 447.049C59.5904 447.08 59.3516 447.173 59.2028 447.328C59.054 447.476 58.9796 447.7 58.9796 447.997V449.523C58.9796 449.796 58.9083 450.003 58.7656 450.146C58.623 450.289 58.4153 450.36 58.1424 450.36ZM64.0014 450.379C63.5364 450.379 63.1519 450.307 62.848 450.165C62.5504 450.022 62.3271 449.808 62.1783 449.523C62.0295 449.231 61.9551 448.869 61.9551 448.435V446.918H61.6388C61.4404 446.918 61.2854 446.866 61.1737 446.76C61.0683 446.655 61.0156 446.503 61.0156 446.304C61.0156 446.106 61.0683 445.957 61.1737 445.858C61.2854 445.753 61.4404 445.7 61.6388 445.7H61.9551V445.123C61.9551 444.85 62.0264 444.643 62.169 444.5C62.3116 444.357 62.5163 444.286 62.7829 444.286C63.0496 444.286 63.2542 444.357 63.3968 444.5C63.5395 444.643 63.6108 444.85 63.6108 445.123V445.7H64.3735C64.5781 445.7 64.7332 445.753 64.8386 445.858C64.9502 445.957 65.006 446.106 65.006 446.304C65.006 446.503 64.9502 446.655 64.8386 446.76C64.7332 446.866 64.5781 446.918 64.3735 446.918H63.6108V448.379C63.6108 448.608 63.6635 448.779 63.7689 448.89C63.8805 448.996 64.0541 449.048 64.2898 449.048C64.3766 449.048 64.4603 449.039 64.5409 449.021C64.6215 449.002 64.696 448.993 64.7642 448.993C64.8634 448.986 64.944 449.017 65.006 449.086C65.068 449.148 65.099 449.293 65.099 449.523C65.099 449.709 65.0711 449.867 65.0153 449.997C64.9595 450.121 64.8603 450.211 64.7177 450.267C64.6308 450.298 64.513 450.323 64.3642 450.341C64.2154 450.366 64.0945 450.379 64.0014 450.379Z"/>
</mask>
<path d="M44.6114 450.379C44.3634 450.379 44.1029 450.36 43.8301 450.323C43.5634 450.292 43.3092 450.242 43.0674 450.174C42.8255 450.106 42.6085 450.025 42.4162 449.932C42.2488 449.852 42.131 449.746 42.0628 449.616C41.9946 449.479 41.9698 449.337 41.9884 449.188C42.007 449.039 42.0597 448.909 42.1465 448.797C42.2333 448.679 42.348 448.602 42.4907 448.565C42.6333 448.521 42.7945 448.54 42.9743 448.621C43.21 448.732 43.4766 448.819 43.7743 448.881C44.0719 448.943 44.351 448.974 44.6114 448.974C45.0207 448.974 45.3059 448.921 45.4672 448.816C45.6346 448.704 45.7183 448.568 45.7183 448.407C45.7183 448.264 45.6594 448.149 45.5416 448.062C45.43 447.976 45.2284 447.901 44.937 447.839L43.8487 447.607C43.2534 447.483 42.81 447.266 42.5186 446.956C42.2271 446.646 42.0814 446.246 42.0814 445.756C42.0814 445.433 42.1465 445.142 42.2767 444.881C42.4131 444.615 42.6023 444.388 42.8441 444.202C43.0922 444.016 43.3836 443.874 43.7185 443.774C44.0595 443.669 44.4378 443.616 44.8533 443.616C45.1757 443.616 45.5013 443.654 45.8299 443.728C46.1648 443.796 46.4531 443.902 46.695 444.044C46.8376 444.119 46.9399 444.221 47.0019 444.351C47.064 444.481 47.0888 444.618 47.0764 444.76C47.064 444.897 47.0143 445.018 46.9275 445.123C46.8469 445.229 46.7353 445.3 46.5927 445.337C46.4562 445.368 46.2919 445.343 46.0997 445.263C45.9199 445.182 45.7152 445.123 45.4858 445.086C45.2625 445.043 45.0455 445.021 44.8347 445.021C44.6052 445.021 44.4099 445.049 44.2487 445.105C44.0874 445.154 43.9634 445.229 43.8766 445.328C43.796 445.427 43.7557 445.542 43.7557 445.672C43.7557 445.802 43.8084 445.914 43.9138 446.007C44.0254 446.094 44.227 446.168 44.5184 446.23L45.5974 446.463C46.1989 446.593 46.6485 446.807 46.9461 447.104C47.2438 447.402 47.3926 447.79 47.3926 448.267C47.3926 448.59 47.3275 448.881 47.1973 449.141C47.0671 449.402 46.881 449.625 46.6392 449.811C46.3973 449.991 46.1059 450.131 45.7648 450.23C45.4238 450.329 45.0393 450.379 44.6114 450.379ZM50.4487 450.379C49.9836 450.379 49.5992 450.307 49.2953 450.165C48.9976 450.022 48.7744 449.808 48.6256 449.523C48.4768 449.231 48.4023 448.869 48.4023 448.435V446.918H48.0861C47.8877 446.918 47.7326 446.866 47.621 446.76C47.5156 446.655 47.4629 446.503 47.4629 446.304C47.4629 446.106 47.5156 445.957 47.621 445.858C47.7326 445.753 47.8877 445.7 48.0861 445.7H48.4023V445.123C48.4023 444.85 48.4737 444.643 48.6163 444.5C48.7589 444.357 48.9635 444.286 49.2302 444.286C49.4968 444.286 49.7015 444.357 49.8441 444.5C49.9867 444.643 50.058 444.85 50.058 445.123V445.7H50.8208C51.0254 445.7 51.1804 445.753 51.2858 445.858C51.3975 445.957 51.4533 446.106 51.4533 446.304C51.4533 446.503 51.3975 446.655 51.2858 446.76C51.1804 446.866 51.0254 446.918 50.8208 446.918H50.058V448.379C50.058 448.608 50.1107 448.779 50.2162 448.89C50.3278 448.996 50.5014 449.048 50.737 449.048C50.8239 449.048 50.9076 449.039 50.9882 449.021C51.0688 449.002 51.1432 448.993 51.2114 448.993C51.3106 448.986 51.3913 449.017 51.4533 449.086C51.5153 449.148 51.5463 449.293 51.5463 449.523C51.5463 449.709 51.5184 449.867 51.4626 449.997C51.4068 450.121 51.3075 450.211 51.1649 450.267C51.0781 450.298 50.9603 450.323 50.8115 450.341C50.6626 450.366 50.5417 450.379 50.4487 450.379ZM53.5999 450.379C53.2464 450.379 52.9333 450.313 52.6604 450.183C52.3938 450.053 52.183 449.876 52.0279 449.653C51.8791 449.424 51.8047 449.163 51.8047 448.872C51.8047 448.537 51.8915 448.273 52.0651 448.081C52.2388 447.889 52.5178 447.752 52.9023 447.672C53.2868 447.585 53.7983 447.542 54.4371 447.542H54.9486V448.323H54.4371C54.1952 448.323 53.9937 448.342 53.8324 448.379C53.6774 448.41 53.5627 448.462 53.4883 448.537C53.4139 448.605 53.3767 448.695 53.3767 448.807C53.3767 448.949 53.4263 449.067 53.5255 449.16C53.6309 449.253 53.7797 449.3 53.972 449.3C54.127 449.3 54.2634 449.266 54.3812 449.197C54.5053 449.129 54.6045 449.036 54.6789 448.918C54.7533 448.794 54.7905 448.652 54.7905 448.49V447.411C54.7905 447.188 54.7316 447.03 54.6138 446.937C54.5022 446.844 54.3068 446.797 54.0278 446.797C53.879 446.797 53.7115 446.816 53.5255 446.853C53.3395 446.884 53.1317 446.943 52.9023 447.03C52.7349 447.092 52.5922 447.101 52.4744 447.058C52.3566 447.015 52.2636 446.94 52.1954 446.835C52.1334 446.729 52.1023 446.615 52.1023 446.491C52.1086 446.366 52.1489 446.249 52.2233 446.137C52.3039 446.025 52.4248 445.939 52.586 445.877C52.8837 445.765 53.1565 445.691 53.4046 445.653C53.6588 445.616 53.8914 445.598 54.1022 445.598C54.6107 445.598 55.0293 445.672 55.3579 445.821C55.6928 445.963 55.9408 446.187 56.102 446.491C56.2695 446.788 56.3532 447.173 56.3532 447.644V449.523C56.3532 449.796 56.2881 450.003 56.1579 450.146C56.0276 450.289 55.8385 450.36 55.5905 450.36C55.3362 450.36 55.1409 450.289 55.0045 450.146C54.8742 450.003 54.8091 449.796 54.8091 449.523V449.281L54.8649 449.411C54.8339 449.61 54.7626 449.78 54.651 449.923C54.5394 450.065 54.3936 450.177 54.2138 450.258C54.034 450.338 53.8293 450.379 53.5999 450.379ZM58.1424 450.36C57.8696 450.36 57.6588 450.289 57.5099 450.146C57.3673 450.003 57.296 449.796 57.296 449.523V446.444C57.296 446.177 57.3642 445.973 57.5006 445.83C57.6433 445.687 57.8448 445.616 58.1052 445.616C58.3657 445.616 58.5641 445.687 58.7005 445.83C58.837 445.973 58.9052 446.177 58.9052 446.444V446.825H58.8122C58.8742 446.453 59.0323 446.159 59.2865 445.942C59.547 445.725 59.8694 445.61 60.2539 445.598C60.4337 445.591 60.5671 445.638 60.6539 445.737C60.7469 445.83 60.7965 446.007 60.8027 446.267C60.8027 446.491 60.7562 446.667 60.6632 446.797C60.5702 446.928 60.3934 447.005 60.133 447.03L59.919 447.049C59.5904 447.08 59.3516 447.173 59.2028 447.328C59.054 447.476 58.9796 447.7 58.9796 447.997V449.523C58.9796 449.796 58.9083 450.003 58.7656 450.146C58.623 450.289 58.4153 450.36 58.1424 450.36ZM64.0014 450.379C63.5364 450.379 63.1519 450.307 62.848 450.165C62.5504 450.022 62.3271 449.808 62.1783 449.523C62.0295 449.231 61.9551 448.869 61.9551 448.435V446.918H61.6388C61.4404 446.918 61.2854 446.866 61.1737 446.76C61.0683 446.655 61.0156 446.503 61.0156 446.304C61.0156 446.106 61.0683 445.957 61.1737 445.858C61.2854 445.753 61.4404 445.7 61.6388 445.7H61.9551V445.123C61.9551 444.85 62.0264 444.643 62.169 444.5C62.3116 444.357 62.5163 444.286 62.7829 444.286C63.0496 444.286 63.2542 444.357 63.3968 444.5C63.5395 444.643 63.6108 444.85 63.6108 445.123V445.7H64.3735C64.5781 445.7 64.7332 445.753 64.8386 445.858C64.9502 445.957 65.006 446.106 65.006 446.304C65.006 446.503 64.9502 446.655 64.8386 446.76C64.7332 446.866 64.5781 446.918 64.3735 446.918H63.6108V448.379C63.6108 448.608 63.6635 448.779 63.7689 448.89C63.8805 448.996 64.0541 449.048 64.2898 449.048C64.3766 449.048 64.4603 449.039 64.5409 449.021C64.6215 449.002 64.696 448.993 64.7642 448.993C64.8634 448.986 64.944 449.017 65.006 449.086C65.068 449.148 65.099 449.293 65.099 449.523C65.099 449.709 65.0711 449.867 65.0153 449.997C64.9595 450.121 64.8603 450.211 64.7177 450.267C64.6308 450.298 64.513 450.323 64.3642 450.341C64.2154 450.366 64.0945 450.379 64.0014 450.379Z" fill="black"/>
<path d="M43.8301 450.323L44.249 447.251L44.2186 447.247L44.1882 447.243L43.8301 450.323ZM42.4162 449.932L43.7667 447.141L43.7613 447.139L42.4162 449.932ZM42.0628 449.616L39.2896 451.002L39.3027 451.029L39.3162 451.055L42.0628 449.616ZM41.9884 449.188L45.065 449.573V449.573L41.9884 449.188ZM42.1465 448.797L44.5939 450.701L44.6187 450.669L44.6426 450.637L42.1465 448.797ZM42.4907 448.565L43.2733 451.565L43.3337 451.549L43.3934 451.531L42.4907 448.565ZM42.9743 448.621L44.3016 445.819L44.2723 445.805L44.2426 445.791L42.9743 448.621ZM43.7743 448.881L44.4067 445.846L44.4067 445.846L43.7743 448.881ZM45.4672 448.816L47.1639 451.411L47.1755 451.403L47.187 451.396L45.4672 448.816ZM45.5416 448.062L43.638 450.51L43.6699 450.535L43.7024 450.559L45.5416 448.062ZM44.937 447.839L44.2891 450.871L44.2917 450.872L44.937 447.839ZM43.8487 447.607L44.4966 444.575L44.4888 444.573L44.4811 444.571L43.8487 447.607ZM42.5186 446.956L44.7777 444.832L44.7777 444.832L42.5186 446.956ZM42.2767 444.881L39.5165 443.469L39.5099 443.482L39.5035 443.495L42.2767 444.881ZM42.8441 444.202L40.9838 441.722L40.9687 441.733L40.9537 441.745L42.8441 444.202ZM43.7185 443.774L44.5993 446.747L44.6167 446.742L44.6341 446.737L43.7185 443.774ZM45.8299 443.728L45.1453 446.752L45.1781 446.759L45.2111 446.766L45.8299 443.728ZM46.695 444.044L45.12 446.715L45.1894 446.756L45.2608 446.793L46.695 444.044ZM47.0019 444.351L44.2026 445.684L44.2026 445.684L47.0019 444.351ZM47.0764 444.76L50.1642 445.041L50.1652 445.029L47.0764 444.76ZM46.9275 445.123L44.5341 443.152L44.4986 443.195L44.4646 443.24L46.9275 445.123ZM46.5927 445.337L47.2798 448.361L47.3277 448.35L47.3753 448.337L46.5927 445.337ZM46.0997 445.263L44.8314 448.092L44.8658 448.107L44.9006 448.122L46.0997 445.263ZM45.4858 445.086L44.894 448.13L44.9416 448.139L44.9895 448.147L45.4858 445.086ZM44.2487 445.105L45.1605 448.068L45.212 448.052L45.2629 448.035L44.2487 445.105ZM43.8766 445.328L41.5432 443.286L41.5059 443.329L41.4702 443.373L43.8766 445.328ZM43.9138 446.007L41.8624 448.332L41.9344 448.395L42.0103 448.454L43.9138 446.007ZM44.5184 446.23L45.1716 443.199L45.1637 443.197L44.5184 446.23ZM45.5974 446.463L46.2534 443.432L46.2506 443.432L45.5974 446.463ZM47.1973 449.141L49.9705 450.528L49.9705 450.528L47.1973 449.141ZM46.6392 449.811L48.4893 452.299L48.5096 452.284L48.5296 452.269L46.6392 449.811ZM45.7648 450.23L46.6309 453.207L46.6309 453.207L45.7648 450.23ZM44.6114 450.379V447.278C44.5178 447.278 44.398 447.271 44.249 447.251L43.8301 450.323L43.4112 453.395C43.8079 453.449 44.209 453.479 44.6114 453.479V450.379ZM43.8301 450.323L44.1882 447.243C44.074 447.23 43.9821 447.21 43.909 447.19L43.0674 450.174L42.2257 453.158C42.6363 453.274 43.0529 453.354 43.472 453.403L43.8301 450.323ZM43.0674 450.174L43.909 447.19C43.8124 447.163 43.7697 447.143 43.7667 447.141L42.4162 449.932L41.0658 452.723C41.4472 452.908 41.8386 453.049 42.2257 453.158L43.0674 450.174ZM42.4162 449.932L43.7613 447.139C44.0343 447.27 44.4948 447.577 44.8093 448.177L42.0628 449.616L39.3162 451.055C39.7672 451.916 40.4633 452.433 41.0712 452.726L42.4162 449.932ZM42.0628 449.616L44.836 448.229C45.0366 448.63 45.1236 449.103 45.065 449.573L41.9884 449.188L38.9118 448.803C38.8159 449.57 38.9526 450.328 39.2896 451.002L42.0628 449.616ZM41.9884 449.188L45.065 449.573C45.0187 449.943 44.8707 450.345 44.5939 450.701L42.1465 448.797L39.6991 446.894C39.2487 447.473 38.9952 448.136 38.9118 448.803L41.9884 449.188ZM42.1465 448.797L44.6426 450.637C44.3048 451.095 43.8126 451.424 43.2733 451.565L42.4907 448.565L41.708 445.565C40.8835 445.78 40.1618 446.264 39.6504 446.958L42.1465 448.797ZM42.4907 448.565L43.3934 451.531C42.6157 451.768 41.9862 451.575 41.706 451.45L42.9743 448.621L44.2426 445.791C43.6028 445.505 42.6509 445.275 41.5879 445.599L42.4907 448.565ZM42.9743 448.621L41.647 451.423C42.1373 451.655 42.6428 451.812 43.1419 451.916L43.7743 448.881L44.4067 445.846C44.3104 445.826 44.2827 445.81 44.3016 445.819L42.9743 448.621ZM43.7743 448.881L43.1419 451.916C43.6139 452.015 44.1067 452.075 44.6114 452.075V448.974V445.874C44.5952 445.874 44.5299 445.871 44.4067 445.846L43.7743 448.881ZM44.6114 448.974V452.075C45.081 452.075 46.1824 452.053 47.1639 451.411L45.4672 448.816L43.7704 446.221C43.9776 446.085 44.1618 446.007 44.2879 445.962C44.4154 445.917 44.5141 445.896 44.5689 445.886C44.6704 445.867 44.6974 445.874 44.6114 445.874V448.974ZM45.4672 448.816L47.187 451.396C47.9744 450.871 48.8189 449.866 48.8189 448.407H45.7183H42.6178C42.6178 447.919 42.753 447.432 43.0129 447.008C43.2579 446.609 43.5508 446.367 43.7473 446.236L45.4672 448.816ZM45.7183 448.407H48.8189C48.8189 447.249 48.2673 446.22 47.3808 445.566L45.5416 448.062L43.7024 450.559C43.428 450.356 43.1332 450.053 42.916 449.63C42.6974 449.204 42.6178 448.775 42.6178 448.407H45.7183ZM45.5416 448.062L47.4451 445.615C46.7392 445.066 45.9334 444.881 45.5822 444.807L44.937 447.839L44.2917 450.872C44.343 450.883 44.3135 450.88 44.2328 450.85C44.1897 450.834 44.1157 450.805 44.0218 450.756C43.9298 450.709 43.7932 450.631 43.638 450.51L45.5416 448.062ZM44.937 447.839L45.5849 444.807L44.4966 444.575L43.8487 447.607L43.2008 450.639L44.2891 450.871L44.937 447.839ZM43.8487 447.607L44.4811 444.571C44.3806 444.55 44.3761 444.538 44.4329 444.566C44.4943 444.596 44.6296 444.674 44.7777 444.832L42.5186 446.956L40.2594 449.079C41.1372 450.013 42.2548 450.442 43.2163 450.642L43.8487 447.607ZM42.5186 446.956L44.7777 444.832C44.9198 444.983 45.033 445.167 45.1039 445.362C45.1721 445.549 45.1819 445.692 45.1819 445.756H42.0814H38.9809C38.9809 446.907 39.3457 448.107 40.2594 449.079L42.5186 446.956ZM42.0814 445.756H45.1819C45.1819 445.862 45.1572 446.053 45.0499 446.268L42.2767 444.881L39.5035 443.495C39.1358 444.23 38.9809 445.004 38.9809 445.756H42.0814ZM42.2767 444.881L45.037 446.294C44.9604 446.443 44.8494 446.572 44.7346 446.66L42.8441 444.202L40.9537 441.745C40.3551 442.205 39.8659 442.786 39.5165 443.469L42.2767 444.881ZM42.8441 444.202L44.7044 446.683C44.623 446.744 44.5733 446.755 44.5993 446.747L43.7185 443.774L42.8376 440.802C42.1939 440.992 41.5613 441.289 40.9838 441.722L42.8441 444.202ZM43.7185 443.774L44.6341 446.737C44.6346 446.737 44.6986 446.717 44.8533 446.717V443.616V440.516C44.177 440.516 43.4844 440.602 42.8029 440.812L43.7185 443.774ZM44.8533 443.616V446.717C44.9352 446.717 45.0312 446.726 45.1453 446.752L45.8299 443.728L46.5146 440.704C45.9714 440.581 45.4162 440.516 44.8533 440.516V443.616ZM45.8299 443.728L45.2111 446.766C45.2797 446.78 45.2306 446.78 45.12 446.715L46.695 444.044L48.27 441.373C47.6757 441.023 47.0499 440.812 46.4488 440.69L45.8299 443.728ZM46.695 444.044L45.2608 446.793C44.8791 446.594 44.4632 446.231 44.2026 445.684L47.0019 444.351L49.8013 443.018C49.4167 442.21 48.7961 441.643 48.1292 441.295L46.695 444.044ZM47.0019 444.351L44.2026 445.684C44.0291 445.32 43.9517 444.904 43.9875 444.492L47.0764 444.76L50.1652 445.029C50.2259 444.332 50.0988 443.643 49.8013 443.018L47.0019 444.351ZM47.0764 444.76L43.9885 444.48C44.0324 443.998 44.2236 443.529 44.5341 443.152L46.9275 445.123L49.3209 447.094C49.8051 446.506 50.0955 445.796 50.1642 445.041L47.0764 444.76ZM46.9275 445.123L44.4646 443.24C44.8506 442.735 45.362 442.454 45.81 442.337L46.5927 445.337L47.3753 448.337C48.1085 448.146 48.8433 447.722 49.3905 447.007L46.9275 445.123ZM46.5927 445.337L45.9055 442.314C46.6399 442.147 47.1716 442.35 47.2987 442.403L46.0997 445.263L44.9006 448.122C45.4122 448.337 46.2725 448.589 47.2798 448.361L46.5927 445.337ZM46.0997 445.263L47.368 442.433C46.9026 442.225 46.4316 442.098 45.9821 442.025L45.4858 445.086L44.9895 448.147C44.9989 448.148 44.9371 448.139 44.8314 448.092L46.0997 445.263ZM45.4858 445.086L46.0776 442.042C45.6745 441.964 45.259 441.92 44.8347 441.92V445.021V448.121C44.832 448.121 44.8506 448.121 44.894 448.13L45.4858 445.086ZM44.8347 445.021V441.92C44.3713 441.92 43.8126 441.974 43.2345 442.175L44.2487 445.105L45.2629 448.035C45.0071 448.123 44.8392 448.121 44.8347 448.121V445.021ZM44.2487 445.105L43.3368 442.141C42.7771 442.313 42.1016 442.648 41.5432 443.286L43.8766 445.328L46.21 447.37C45.8252 447.809 45.3978 447.995 45.1605 448.068L44.2487 445.105ZM43.8766 445.328L41.4702 443.373C40.9315 444.036 40.6551 444.844 40.6551 445.672H43.7557H46.8562C46.8562 446.239 46.6604 446.818 46.283 447.283L43.8766 445.328ZM43.7557 445.672H40.6551C40.6551 446.769 41.1498 447.703 41.8624 448.332L43.9138 446.007L45.9652 443.682C46.1849 443.876 46.4218 444.154 46.5989 444.529C46.7787 444.91 46.8562 445.305 46.8562 445.672H43.7557ZM43.9138 446.007L42.0103 448.454C42.7162 449.003 43.522 449.188 43.8732 449.263L44.5184 446.23L45.1637 443.197C45.1124 443.187 45.1419 443.189 45.2226 443.219C45.2657 443.235 45.3397 443.265 45.4336 443.313C45.5255 443.36 45.6622 443.439 45.8174 443.559L43.9138 446.007ZM44.5184 446.23L43.8652 449.261L44.9442 449.494L45.5974 446.463L46.2506 443.432L45.1716 443.199L44.5184 446.23ZM45.5974 446.463L44.9413 449.493C45.061 449.519 45.088 449.537 45.0534 449.52C45.0159 449.503 44.8959 449.439 44.7537 449.297L46.9461 447.104L49.1385 444.912C48.2676 444.041 47.183 443.634 46.2534 443.432L45.5974 446.463ZM46.9461 447.104L44.7537 449.297C44.5998 449.143 44.47 448.947 44.3865 448.73C44.3059 448.52 44.2921 448.352 44.2921 448.267H47.3926H50.4931C50.4931 447.088 50.0975 445.871 49.1385 444.912L46.9461 447.104ZM47.3926 448.267H44.2921C44.2921 448.161 44.3168 447.969 44.4241 447.755L47.1973 449.141L49.9705 450.528C50.3382 449.793 50.4931 449.019 50.4931 448.267H47.3926ZM47.1973 449.141L44.4241 447.755C44.5135 447.576 44.6374 447.439 44.7487 447.354L46.6392 449.811L48.5296 452.269C49.1246 451.811 49.6206 451.228 49.9705 450.528L47.1973 449.141ZM46.6392 449.811L44.7891 447.323C44.8912 447.247 44.9473 447.239 44.8988 447.253L45.7648 450.23L46.6309 453.207C47.2645 453.023 47.9035 452.735 48.4893 452.299L46.6392 449.811ZM45.7648 450.23L44.8988 447.253C44.8897 447.255 44.804 447.278 44.6114 447.278V450.379V453.479C45.2746 453.479 45.9579 453.403 46.6309 453.207L45.7648 450.23ZM49.2953 450.165L47.9555 452.961L47.9667 452.966L47.9779 452.971L49.2953 450.165ZM48.6256 449.523L45.8642 450.933L45.8704 450.945L45.8767 450.957L48.6256 449.523ZM48.4023 446.918H51.5029V443.818H48.4023V446.918ZM47.621 446.76L45.4286 448.953L45.4599 448.984L45.4921 449.014L47.621 446.76ZM47.621 445.858L49.746 448.116L49.7499 448.112L47.621 445.858ZM48.4023 445.7V448.8H51.5029V445.7H48.4023ZM49.8441 444.5L47.6517 446.692L47.6517 446.692L49.8441 444.5ZM50.058 445.7H46.9575V448.8H50.058V445.7ZM51.2858 445.858L49.0934 448.05L49.1579 448.115L49.226 448.175L51.2858 445.858ZM51.2858 446.76L49.1569 444.506L49.1247 444.537L49.0934 444.568L51.2858 446.76ZM50.058 446.918V443.818H46.9575V446.918H50.058ZM50.2162 448.89L47.962 451.019L48.0229 451.084L48.0873 451.144L50.2162 448.89ZM50.9882 449.021L51.6854 452.042H51.6854L50.9882 449.021ZM51.2114 448.993V452.093H51.3082L51.4048 452.087L51.2114 448.993ZM51.4533 449.086L49.1591 451.171L49.2087 451.226L49.2609 451.278L51.4533 449.086ZM51.4626 449.997L54.29 451.27L54.3014 451.244L54.3124 451.219L51.4626 449.997ZM51.1649 450.267L52.2077 453.187L52.2515 453.171L52.2948 453.154L51.1649 450.267ZM50.8115 450.341L50.4269 447.265L50.3641 447.273L50.3017 447.283L50.8115 450.341ZM50.4487 450.379V447.278C50.3714 447.278 50.3517 447.272 50.377 447.277C50.4031 447.281 50.4898 447.3 50.6127 447.358L49.2953 450.165L47.9779 452.971C48.8209 453.367 49.6931 453.479 50.4487 453.479V450.379ZM49.2953 450.165L50.6351 447.369C50.7626 447.43 50.9088 447.523 51.0499 447.659C51.1917 447.795 51.2992 447.944 51.3745 448.089L48.6256 449.523L45.8767 450.957C46.3441 451.853 47.0701 452.537 47.9555 452.961L49.2953 450.165ZM48.6256 449.523L51.3869 448.113C51.5217 448.377 51.5029 448.532 51.5029 448.435H48.4023H45.3018C45.3018 449.205 45.4318 450.086 45.8642 450.933L48.6256 449.523ZM48.4023 448.435H51.5029V446.918H48.4023H45.3018V448.435H48.4023ZM48.4023 446.918V443.818H48.0861V446.918V450.019H48.4023V446.918ZM48.0861 446.918V443.818C48.4396 443.818 49.1326 443.923 49.7499 444.506L47.621 446.76L45.4921 449.014C46.3327 449.808 47.3357 450.019 48.0861 450.019V446.918ZM47.621 446.76L49.8134 444.568C50.4621 445.217 50.5634 445.962 50.5634 446.304H47.4629H44.3623C44.3623 447.044 44.5691 448.093 45.4286 448.953L47.621 446.76ZM47.4629 446.304H50.5634C50.5634 446.634 50.4669 447.437 49.746 448.116L47.621 445.858L45.496 443.6C44.5642 444.477 44.3623 445.578 44.3623 446.304H47.4629ZM47.621 445.858L49.7499 448.112C49.1326 448.695 48.4396 448.8 48.0861 448.8V445.7V442.599C47.3357 442.599 46.3327 442.81 45.4921 443.604L47.621 445.858ZM48.0861 445.7V448.8H48.4023V445.7V442.599H48.0861V445.7ZM48.4023 445.7H51.5029V445.123H48.4023H45.3018V445.7H48.4023ZM48.4023 445.123H51.5029C51.5029 445.375 51.429 446.072 50.8087 446.692L48.6163 444.5L46.4239 442.308C45.5184 443.213 45.3018 444.326 45.3018 445.123H48.4023ZM48.6163 444.5L50.8087 446.692C50.201 447.3 49.5115 447.387 49.2302 447.387V444.286V441.186C48.4156 441.186 47.3168 441.415 46.4239 442.308L48.6163 444.5ZM49.2302 444.286V447.387C48.9489 447.387 48.2594 447.3 47.6517 446.692L49.8441 444.5L52.0365 442.308C51.1435 441.415 50.0448 441.186 49.2302 441.186V444.286ZM49.8441 444.5L47.6517 446.692C47.0314 446.072 46.9575 445.375 46.9575 445.123H50.058H53.1586C53.1586 444.326 52.942 443.213 52.0365 442.308L49.8441 444.5ZM50.058 445.123H46.9575V445.7H50.058H53.1586V445.123H50.058ZM50.058 445.7V448.8H50.8208V445.7V442.599H50.058V445.7ZM50.8208 445.7V448.8C50.5163 448.8 49.7588 448.716 49.0934 448.05L51.2858 445.858L53.4783 443.666C52.6021 442.789 51.5345 442.599 50.8208 442.599V445.7ZM51.2858 445.858L49.226 448.175C48.4765 447.509 48.3527 446.685 48.3527 446.304H51.4533H54.5538C54.5538 445.527 54.3184 444.405 53.3457 443.541L51.2858 445.858ZM51.4533 446.304H48.3527C48.3527 445.913 48.4801 445.145 49.1569 444.506L51.2858 446.76L53.4147 449.014C54.3148 448.164 54.5538 447.093 54.5538 446.304H51.4533ZM51.2858 446.76L49.0934 444.568C49.7588 443.903 50.5163 443.818 50.8208 443.818V446.918V450.019C51.5345 450.019 52.6021 449.829 53.4783 448.953L51.2858 446.76ZM50.8208 446.918V443.818H50.058V446.918V450.019H50.8208V446.918ZM50.058 446.918H46.9575V448.379H50.058H53.1586V446.918H50.058ZM50.058 448.379H46.9575C46.9575 449.016 47.0968 450.103 47.962 451.019L50.2162 448.89L52.4703 446.761C53.1247 447.454 53.1586 448.201 53.1586 448.379H50.058ZM50.2162 448.89L48.0873 451.144C49.0163 452.022 50.1208 452.149 50.737 452.149V449.048V445.948C50.882 445.948 51.6392 445.97 52.3451 446.636L50.2162 448.89ZM50.737 449.048V452.149C51.047 452.149 51.3651 452.116 51.6854 452.042L50.9882 449.021L50.291 445.999C50.45 445.963 50.6008 445.948 50.737 445.948V449.048ZM50.9882 449.021L51.6854 452.042C51.5839 452.065 51.4213 452.093 51.2114 452.093V448.993V445.892C50.8652 445.892 50.5537 445.939 50.291 445.999L50.9882 449.021ZM51.2114 448.993L51.4048 452.087C51.0765 452.108 50.6673 452.072 50.2333 451.905C49.7921 451.735 49.4309 451.47 49.1591 451.171L51.4533 449.086L53.7475 447C52.9976 446.175 51.9722 445.839 51.018 445.898L51.2114 448.993ZM51.4533 449.086L49.2609 451.278C48.943 450.96 48.7632 450.636 48.6642 450.415C48.5639 450.191 48.515 450.003 48.4904 449.887C48.4648 449.766 48.4548 449.674 48.4505 449.622C48.446 449.568 48.4458 449.533 48.4458 449.523H51.5463H54.6468C54.6468 449.294 54.6336 448.962 54.5557 448.596C54.493 448.301 54.3033 447.551 53.6457 446.893L51.4533 449.086ZM51.5463 449.523H48.4458C48.4458 449.414 48.4601 449.132 48.6127 448.776L51.4626 449.997L54.3124 451.219C54.5767 450.602 54.6468 450.004 54.6468 449.523H51.5463ZM51.4626 449.997L48.6351 448.725C48.7796 448.404 48.9924 448.107 49.2642 447.86C49.5307 447.619 49.8056 447.469 50.0351 447.38L51.1649 450.267L52.2948 453.154C53.0891 452.844 53.8583 452.229 54.29 451.27L51.4626 449.997ZM51.1649 450.267L50.1221 447.347C50.2435 447.304 50.3334 447.283 50.3727 447.275C50.4153 447.266 50.4357 447.264 50.4269 447.265L50.8115 450.341L51.196 453.418C51.4484 453.386 51.8175 453.326 52.2077 453.187L51.1649 450.267ZM50.8115 450.341L50.3017 447.283C50.2769 447.287 50.2754 447.287 50.2928 447.285C50.3076 447.283 50.3633 447.278 50.4487 447.278V450.379V453.479C50.7843 453.479 51.0938 453.438 51.3212 453.4L50.8115 450.341ZM52.6604 450.183L51.2998 452.969L51.3124 452.975L51.325 452.981L52.6604 450.183ZM52.0279 449.653L49.4267 451.34L49.4533 451.381L49.4812 451.422L52.0279 449.653ZM52.0651 448.081L49.7642 446.003L52.0651 448.081ZM52.9023 447.672L53.5386 450.706L53.5619 450.701L53.5852 450.696L52.9023 447.672ZM54.9486 447.542H58.0492V444.441H54.9486V447.542ZM54.9486 448.323V451.423H58.0492V448.323H54.9486ZM53.8324 448.379L54.4405 451.419L54.4852 451.41L54.5296 451.4L53.8324 448.379ZM53.4883 448.537L55.5834 450.822L55.6331 450.777L55.6807 450.729L53.4883 448.537ZM53.5255 449.16L51.4049 451.422L51.439 451.454L51.4741 451.485L53.5255 449.16ZM54.3812 449.197L52.887 446.481L52.8572 446.497L52.8278 446.514L54.3812 449.197ZM54.6789 448.918L57.3004 450.574L57.3193 450.544L57.3376 450.513L54.6789 448.918ZM54.6138 446.937L52.6289 449.319L52.6604 449.345L52.6926 449.371L54.6138 446.937ZM53.5255 446.853L54.0352 449.912L54.0845 449.903L54.1336 449.894L53.5255 446.853ZM52.9023 447.03L53.9791 449.938L53.9894 449.934L53.9995 449.93L52.9023 447.03ZM52.1954 446.835L49.5229 448.407L49.5564 448.464L49.5922 448.519L52.1954 446.835ZM52.1023 446.491L49.0057 446.336L49.0018 446.413V446.491H52.1023ZM52.2233 446.137L49.7097 444.322L49.6757 444.369L49.6435 444.417L52.2233 446.137ZM52.586 445.877L51.4974 442.973L51.4852 442.978L51.473 442.983L52.586 445.877ZM53.4046 445.653L52.9556 442.585L52.9446 442.587L53.4046 445.653ZM55.3579 445.821L54.0789 448.645L54.1108 448.66L54.1429 448.673L55.3579 445.821ZM56.102 446.491L53.3632 447.944L53.381 447.977L53.3997 448.011L56.102 446.491ZM56.1579 450.146L53.8682 448.055L53.8681 448.055L56.1579 450.146ZM55.0045 450.146L52.7148 452.237L52.739 452.263L52.7639 452.289L55.0045 450.146ZM54.8091 449.281L57.659 448.06L51.7086 449.281H54.8091ZM54.8649 449.411L57.9283 449.89L58.0659 449.009L57.7148 448.19L54.8649 449.411ZM54.651 449.923L57.0927 451.834L57.0927 451.834L54.651 449.923ZM54.2138 450.258L52.9455 447.428L52.9455 447.428L54.2138 450.258ZM53.5999 450.379V447.278C53.6309 447.278 53.7868 447.285 53.9959 447.385L52.6604 450.183L51.325 452.981C52.0798 453.342 52.862 453.479 53.5999 453.479V450.379ZM52.6604 450.183L54.0211 447.397C54.1853 447.477 54.4004 447.634 54.5746 447.885L52.0279 449.653L49.4812 451.422C49.9655 452.119 50.6023 452.629 51.2998 452.969L52.6604 450.183ZM52.0279 449.653L54.6292 447.966C54.828 448.272 54.9052 448.606 54.9052 448.872H51.8047H48.7042C48.7042 449.721 48.9303 450.575 49.4267 451.34L52.0279 449.653ZM51.8047 448.872H54.9052C54.9052 449.074 54.8435 449.631 54.3661 450.159L52.0651 448.081L49.7642 446.003C48.9395 446.916 48.7042 448 48.7042 448.872H51.8047ZM52.0651 448.081L54.3661 450.159C54.1407 450.409 53.9131 450.548 53.7664 450.62C53.6929 450.656 53.6345 450.678 53.5976 450.69C53.5607 450.702 53.5397 450.706 53.5386 450.706L52.9023 447.672L52.266 444.637C51.5523 444.787 50.552 445.131 49.7642 446.003L52.0651 448.081ZM52.9023 447.672L53.5852 450.696C53.6512 450.681 53.9053 450.642 54.4371 450.642V447.542V444.441C53.6914 444.441 52.9224 444.489 52.2194 444.647L52.9023 447.672ZM54.4371 447.542V450.642H54.9486V447.542V444.441H54.4371V447.542ZM54.9486 447.542H51.8481V448.323H54.9486H58.0492V447.542H54.9486ZM54.9486 448.323V445.222H54.4371V448.323V451.423H54.9486V448.323ZM54.4371 448.323V445.222C54.0577 445.222 53.6036 445.25 53.1353 445.358L53.8324 448.379L54.5296 451.4C54.4877 451.41 54.4547 451.415 54.4324 451.419C54.4099 451.422 54.3952 451.424 54.3895 451.424C54.3794 451.425 54.3936 451.423 54.4371 451.423V448.323ZM53.8324 448.379L53.2244 445.338C52.7518 445.433 51.9698 445.671 51.2959 446.344L53.4883 448.537L55.6807 450.729C55.1556 451.254 54.603 451.387 54.4405 451.419L53.8324 448.379ZM53.4883 448.537L51.3932 446.251C50.6064 446.972 50.2761 447.928 50.2761 448.807H53.3767H56.4772C56.4772 449.098 56.4276 449.459 56.2695 449.841C56.1084 450.23 55.8673 450.562 55.5834 450.822L53.4883 448.537ZM53.3767 448.807H50.2761C50.2761 449.759 50.647 450.712 51.4049 451.422L53.5255 449.16L55.6461 446.898C55.893 447.13 56.1169 447.432 56.2714 447.799C56.4246 448.162 56.4772 448.513 56.4772 448.807H53.3767ZM53.5255 449.16L51.4741 451.485C52.3251 452.236 53.3032 452.4 53.972 452.4V449.3V446.199C54.2563 446.199 54.9368 446.27 55.5769 446.835L53.5255 449.16ZM53.972 449.3V452.4C54.5955 452.4 55.2824 452.258 55.9347 451.881L54.3812 449.197L52.8278 446.514C53.2445 446.273 53.6585 446.199 53.972 446.199V449.3ZM54.3812 449.197L55.8755 451.914C56.4514 451.597 56.9414 451.142 57.3004 450.574L54.6789 448.918L52.0574 447.263C52.2676 446.93 52.5592 446.661 52.887 446.481L54.3812 449.197ZM54.6789 448.918L57.3376 450.513C57.7334 449.854 57.8911 449.147 57.8911 448.49H54.7905H51.69C51.69 448.156 51.7732 447.735 52.0202 447.323L54.6789 448.918ZM54.7905 448.49H57.8911V447.411H54.7905H51.69V448.49H54.7905ZM54.7905 447.411H57.8911C57.8911 446.716 57.705 445.427 56.535 444.503L54.6138 446.937L52.6926 449.371C51.7582 448.633 51.69 447.661 51.69 447.411H54.7905ZM54.6138 446.937L56.5987 444.555C55.6071 443.729 54.4554 443.697 54.0278 443.697V446.797V449.898C54.0116 449.898 53.8742 449.898 53.6654 449.849C53.4653 449.801 53.0535 449.673 52.6289 449.319L54.6138 446.937ZM54.0278 446.797V443.697C53.6281 443.697 53.252 443.746 52.9174 443.813L53.5255 446.853L54.1336 449.894C54.1494 449.89 54.1487 449.891 54.133 449.893C54.1175 449.895 54.0815 449.898 54.0278 449.898V446.797ZM53.5255 446.853L53.0158 443.795C52.5798 443.868 52.1713 443.992 51.805 444.13L52.9023 447.03L53.9995 449.93C54.0426 449.914 54.0676 449.906 54.0761 449.904C54.0848 449.901 54.0704 449.906 54.0352 449.912L53.5255 446.853ZM52.9023 447.03L51.8254 444.122C52.0626 444.035 52.7281 443.847 53.5463 444.149L52.4744 447.058L51.4025 449.967C52.4564 450.356 53.4071 450.149 53.9791 449.938L52.9023 447.03ZM52.4744 447.058L53.5463 444.149C54.058 444.337 54.5022 444.692 54.7985 445.15L52.1954 446.835L49.5922 448.519C50.0249 449.188 50.6552 449.692 51.4025 449.967L52.4744 447.058ZM52.1954 446.835L54.8678 445.263C55.0902 445.641 55.2029 446.07 55.2029 446.491H52.1023H49.0018C49.0018 447.159 49.1765 447.818 49.5229 448.407L52.1954 446.835ZM52.1023 446.491L55.199 446.645C55.175 447.125 55.0132 447.542 54.8031 447.857L52.2233 446.137L49.6435 444.417C49.2845 444.956 49.0421 445.608 49.0057 446.336L52.1023 446.491ZM52.2233 446.137L54.7368 447.952C54.3852 448.439 53.9567 448.671 53.6991 448.77L52.586 445.877L51.473 442.983C50.8929 443.206 50.2226 443.612 49.7097 444.322L52.2233 446.137ZM52.586 445.877L53.6747 448.78C53.8203 448.725 53.8792 448.717 53.8645 448.72L53.4046 445.653L52.9446 442.587C52.4338 442.664 51.9471 442.805 51.4974 442.973L52.586 445.877ZM53.4046 445.653L53.8535 448.721C53.99 448.701 54.0699 448.698 54.1022 448.698V445.598V442.497C53.7128 442.497 53.3276 442.531 52.9556 442.586L53.4046 445.653ZM54.1022 445.598V448.698C54.1541 448.698 54.1925 448.7 54.2186 448.702C54.2448 448.704 54.2563 448.706 54.2548 448.706C54.2533 448.706 54.2365 448.703 54.207 448.694C54.1774 448.685 54.1335 448.67 54.0789 448.645L55.3579 445.821L56.6369 442.996C55.7772 442.607 54.8836 442.497 54.1022 442.497V445.598ZM55.3579 445.821L54.1429 448.673C54.0242 448.623 53.8731 448.537 53.7209 448.4C53.567 448.261 53.4473 448.102 53.3632 447.944L56.102 446.491L58.8409 445.037C58.3267 444.068 57.5201 443.372 56.5729 442.968L55.3579 445.821ZM56.102 446.491L53.3997 448.011C53.3112 447.853 53.2749 447.726 53.2608 447.662C53.2473 447.6 53.2526 447.588 53.2526 447.644H56.3532H59.4537C59.4537 446.833 59.3134 445.875 58.8044 444.97L56.102 446.491ZM56.3532 447.644H53.2526V449.523H56.3532H59.4537V447.644H56.3532ZM56.3532 449.523H53.2526C53.2526 449.341 53.2957 448.682 53.8682 448.055L56.1579 450.146L58.4476 452.237C59.2804 451.324 59.4537 450.251 59.4537 449.523H56.3532ZM56.1579 450.146L53.8681 448.055C54.482 447.383 55.2304 447.259 55.5905 447.259V450.36V453.461C56.4466 453.461 57.5733 453.194 58.4476 452.237L56.1579 450.146ZM55.5905 450.36V447.259C55.9256 447.259 56.6401 447.37 57.245 448.003L55.0045 450.146L52.7639 452.289C53.6417 453.207 54.7468 453.461 55.5905 453.461V450.36ZM55.0045 450.146L57.2942 448.055C57.8666 448.682 57.9097 449.341 57.9097 449.523H54.8091H51.7086C51.7086 450.251 51.8819 451.324 52.7148 452.237L55.0045 450.146ZM54.8091 449.523H57.9097V449.281H54.8091H51.7086V449.523H54.8091ZM54.8091 449.281L51.9593 450.502L52.0151 450.633L54.8649 449.411L57.7148 448.19L57.659 448.06L54.8091 449.281ZM54.8649 449.411L51.8016 448.933C51.8431 448.667 51.9604 448.33 52.2093 448.012L54.651 449.923L57.0927 451.834C57.5648 451.23 57.8247 450.553 57.9283 449.89L54.8649 449.411ZM54.651 449.923L52.2093 448.012C52.4352 447.723 52.7068 447.535 52.9455 447.428L54.2138 450.258L55.4821 453.087C56.0804 452.819 56.6435 452.408 57.0927 451.834L54.651 449.923ZM54.2138 450.258L52.9455 447.428C53.2248 447.303 53.4634 447.278 53.5999 447.278V450.379V453.479C54.1953 453.479 54.8431 453.373 55.4821 453.087L54.2138 450.258ZM57.5099 450.146L55.3175 452.338L55.3408 452.362L55.3646 452.385L57.5099 450.146ZM57.5006 445.83L55.3082 443.638L55.2839 443.662L55.26 443.687L57.5006 445.83ZM58.7005 445.83L56.46 447.973L56.46 447.973L58.7005 445.83ZM58.9052 446.825V449.926H62.0057V446.825H58.9052ZM58.8122 446.825L55.7538 446.316L55.1521 449.926H58.8122V446.825ZM59.2865 445.942L57.3016 443.56L57.2875 443.572L57.2735 443.584L59.2865 445.942ZM60.2539 445.598L60.3539 448.696L60.3608 448.696L60.2539 445.598ZM60.6539 445.737L58.3205 447.779L58.3885 447.857L58.4615 447.929L60.6539 445.737ZM60.8027 446.267H63.9032V446.23L63.9024 446.193L60.8027 446.267ZM60.6632 446.797L63.1862 448.6L63.1862 448.6L60.6632 446.797ZM60.133 447.03L60.4016 450.119L60.4143 450.118L60.4269 450.117L60.133 447.03ZM59.919 447.049L59.6504 443.96L59.6391 443.961L59.6278 443.962L59.919 447.049ZM59.2028 447.328L61.3952 449.52L61.4176 449.498L61.4395 449.475L59.2028 447.328ZM58.7656 450.146L56.5732 447.954L58.7656 450.146ZM58.1424 450.36V447.259C58.4028 447.259 59.0596 447.337 59.6552 447.908L57.5099 450.146L55.3646 452.385C56.2579 453.241 57.3364 453.461 58.1424 453.461V450.36ZM57.5099 450.146L59.7023 447.954C60.3226 448.574 60.3965 449.271 60.3965 449.523H57.296H54.1955C54.1955 450.32 54.412 451.433 55.3175 452.338L57.5099 450.146ZM57.296 449.523H60.3965V446.444H57.296H54.1955V449.523H57.296ZM57.296 446.444H60.3965C60.3965 446.69 60.3271 447.361 59.7412 447.973L57.5006 445.83L55.26 443.687C54.4013 444.585 54.1955 445.665 54.1955 446.444H57.296ZM57.5006 445.83L59.693 448.023C59.0984 448.617 58.4169 448.717 58.1052 448.717V445.616V442.516C57.2727 442.516 56.1881 442.758 55.3082 443.638L57.5006 445.83ZM58.1052 445.616V448.717C57.8019 448.717 57.0785 448.62 56.46 447.973L58.7005 445.83L60.9411 443.687C60.0497 442.755 58.9295 442.516 58.1052 442.516V445.616ZM58.7005 445.83L56.46 447.973C55.8741 447.361 55.8046 446.69 55.8046 446.444H58.9052H62.0057C62.0057 445.665 61.7999 444.585 60.9411 443.687L58.7005 445.83ZM58.9052 446.444H55.8046V446.825H58.9052H62.0057V446.444H58.9052ZM58.9052 446.825V443.725H58.8122V446.825V449.926H58.9052V446.825ZM58.8122 446.825L61.8705 447.335C61.8528 447.441 61.8096 447.605 61.709 447.792C61.606 447.984 61.4654 448.158 61.2996 448.3L59.2865 445.942L57.2735 443.584C56.3928 444.335 55.9194 445.322 55.7538 446.316L58.8122 446.825ZM59.2865 445.942L61.2715 448.324C61.118 448.451 60.9429 448.55 60.763 448.614C60.5873 448.677 60.4429 448.694 60.3539 448.696L60.2539 445.598L60.1539 442.499C59.1765 442.53 58.1635 442.842 57.3016 443.56L59.2865 445.942ZM60.2539 445.598L60.3608 448.696C59.9695 448.71 59.0502 448.613 58.3205 447.779L60.6539 445.737L62.9873 443.695C62.0839 442.663 60.898 442.473 60.1471 442.499L60.2539 445.598ZM60.6539 445.737L58.4615 447.929C58.0123 447.48 57.8407 447.009 57.7757 446.777C57.7082 446.537 57.7037 446.371 57.703 446.341L60.8027 446.267L63.9024 446.193C63.8933 445.813 63.8465 444.545 62.8463 443.545L60.6539 445.737ZM60.8027 446.267H57.7022C57.7022 446.092 57.7354 445.562 58.1402 444.995L60.6632 446.797L63.1862 448.6C63.777 447.772 63.9032 446.889 63.9032 446.267H60.8027ZM60.6632 446.797L58.1402 444.995C58.8228 444.04 59.7587 443.951 59.839 443.943L60.133 447.03L60.4269 450.117C61.0281 450.059 62.3175 449.816 63.1862 448.6L60.6632 446.797ZM60.133 447.03L59.8644 443.941L59.6504 443.96L59.919 447.049L60.1876 450.137L60.4016 450.119L60.133 447.03ZM59.919 447.049L59.6278 443.962C58.9393 444.027 57.8438 444.266 56.9661 445.18L59.2028 447.328L61.4395 449.475C60.8595 450.079 60.2415 450.132 60.2103 450.135L59.919 447.049ZM59.2028 447.328L57.0104 445.135C56.075 446.071 55.879 447.222 55.879 447.997H58.9796H62.0801C62.0801 448.178 62.033 448.882 61.3952 449.52L59.2028 447.328ZM58.9796 447.997H55.879V449.523H58.9796H62.0801V447.997H58.9796ZM58.9796 449.523H55.879C55.879 449.271 55.953 448.574 56.5732 447.954L58.7656 450.146L60.9581 452.338C61.8636 451.433 62.0801 450.32 62.0801 449.523H58.9796ZM58.7656 450.146L56.5732 447.954C57.1935 447.333 57.8911 447.259 58.1424 447.259V450.36V453.461C58.9395 453.461 60.0525 453.244 60.9581 452.338L58.7656 450.146ZM62.848 450.165L61.5082 452.961L61.5194 452.966L61.5306 452.971L62.848 450.165ZM62.1783 449.523L59.417 450.933L59.4231 450.945L59.4294 450.957L62.1783 449.523ZM61.9551 446.918H65.0556V443.818H61.9551V446.918ZM61.1737 446.76L58.9813 448.953L59.0126 448.984L59.0448 449.014L61.1737 446.76ZM61.1737 445.858L63.2987 448.116L63.3026 448.112L61.1737 445.858ZM61.9551 445.7V448.8H65.0556V445.7H61.9551ZM63.3968 444.5L61.2044 446.692L61.2044 446.692L63.3968 444.5ZM63.6108 445.7H60.5102V448.8H63.6108V445.7ZM64.8386 445.858L62.6462 448.05L62.7106 448.115L62.7787 448.175L64.8386 445.858ZM64.8386 446.76L62.7097 444.506L62.6775 444.537L62.6462 444.568L64.8386 446.76ZM63.6108 446.918V443.818H60.5102V446.918H63.6108ZM63.7689 448.89L61.5148 451.019L61.5756 451.084L61.64 451.144L63.7689 448.89ZM64.5409 449.021L65.2381 452.042V452.042L64.5409 449.021ZM64.7642 448.993V452.093H64.861L64.9576 452.087L64.7642 448.993ZM65.006 449.086L62.7118 451.171L62.7614 451.226L62.8136 451.278L65.006 449.086ZM65.0153 449.997L67.8428 451.27L67.8542 451.244L67.8652 451.219L65.0153 449.997ZM64.7177 450.267L65.7605 453.187L65.8042 453.171L65.8475 453.154L64.7177 450.267ZM64.3642 450.341L63.9796 447.265L63.9169 447.273L63.8545 447.283L64.3642 450.341ZM64.0014 450.379V447.278C63.9241 447.278 63.9044 447.272 63.9297 447.277C63.9558 447.281 64.0426 447.3 64.1655 447.358L62.848 450.165L61.5306 452.971C62.3736 453.367 63.2459 453.479 64.0014 453.479V450.379ZM62.848 450.165L64.1878 447.369C64.3153 447.43 64.4615 447.523 64.6026 447.659C64.7444 447.795 64.8519 447.944 64.9272 448.089L62.1783 449.523L59.4294 450.957C59.8969 451.853 60.6228 452.537 61.5082 452.961L62.848 450.165ZM62.1783 449.523L64.9397 448.113C65.0744 448.377 65.0556 448.532 65.0556 448.435H61.9551H58.8545C58.8545 449.205 58.9845 450.086 59.417 450.933L62.1783 449.523ZM61.9551 448.435H65.0556V446.918H61.9551H58.8545V448.435H61.9551ZM61.9551 446.918V443.818H61.6388V446.918V450.019H61.9551V446.918ZM61.6388 446.918V443.818C61.9923 443.818 62.6853 443.923 63.3026 444.506L61.1737 446.76L59.0448 449.014C59.8854 449.808 60.8885 450.019 61.6388 450.019V446.918ZM61.1737 446.76L63.3662 444.568C64.0148 445.217 64.1162 445.962 64.1162 446.304H61.0156H57.9151C57.9151 447.044 58.1218 448.093 58.9813 448.953L61.1737 446.76ZM61.0156 446.304H64.1162C64.1162 446.634 64.0197 447.437 63.2987 448.116L61.1737 445.858L59.0487 443.6C58.117 444.477 57.9151 445.578 57.9151 446.304H61.0156ZM61.1737 445.858L63.3026 448.112C62.6853 448.695 61.9923 448.8 61.6388 448.8V445.7V442.599C60.8885 442.599 59.8854 442.81 59.0448 443.604L61.1737 445.858ZM61.6388 445.7V448.8H61.9551V445.7V442.599H61.6388V445.7ZM61.9551 445.7H65.0556V445.123H61.9551H58.8545V445.7H61.9551ZM61.9551 445.123H65.0556C65.0556 445.375 64.9817 446.072 64.3614 446.692L62.169 444.5L59.9766 442.308C59.0711 443.213 58.8545 444.326 58.8545 445.123H61.9551ZM62.169 444.5L64.3614 446.692C63.7537 447.3 63.0642 447.387 62.7829 447.387V444.286V441.186C61.9683 441.186 60.8696 441.415 59.9766 442.308L62.169 444.5ZM62.7829 444.286V447.387C62.5016 447.387 61.8121 447.3 61.2044 446.692L63.3968 444.5L65.5892 442.308C64.6963 441.415 63.5975 441.186 62.7829 441.186V444.286ZM63.3968 444.5L61.2044 446.692C60.5842 446.072 60.5102 445.375 60.5102 445.123H63.6108H66.7113C66.7113 444.326 66.4948 443.213 65.5892 442.308L63.3968 444.5ZM63.6108 445.123H60.5102V445.7H63.6108H66.7113V445.123H63.6108ZM63.6108 445.7V448.8H64.3735V445.7V442.599H63.6108V445.7ZM64.3735 445.7V448.8C64.0691 448.8 63.3115 448.716 62.6462 448.05L64.8386 445.858L67.031 443.666C66.1548 442.789 65.0872 442.599 64.3735 442.599V445.7ZM64.8386 445.858L62.7787 448.175C62.0292 447.509 61.9055 446.685 61.9055 446.304H65.006H68.1065C68.1065 445.527 67.8712 444.405 66.8985 443.541L64.8386 445.858ZM65.006 446.304H61.9055C61.9055 445.913 62.0329 445.145 62.7097 444.506L64.8386 446.76L66.9675 449.014C67.8675 448.164 68.1065 447.093 68.1065 446.304H65.006ZM64.8386 446.76L62.6462 444.568C63.3115 443.903 64.0691 443.818 64.3735 443.818V446.918V450.019C65.0872 450.019 66.1548 449.829 67.031 448.953L64.8386 446.76ZM64.3735 446.918V443.818H63.6108V446.918V450.019H64.3735V446.918ZM63.6108 446.918H60.5102V448.379H63.6108H66.7113V446.918H63.6108ZM63.6108 448.379H60.5102C60.5102 449.016 60.6495 450.103 61.5148 451.019L63.7689 448.89L66.023 446.761C66.6774 447.454 66.7113 448.201 66.7113 448.379H63.6108ZM63.7689 448.89L61.64 451.144C62.5691 452.022 63.6735 452.149 64.2898 452.149V449.048V445.948C64.4348 445.948 65.192 445.97 65.8978 446.636L63.7689 448.89ZM64.2898 449.048V452.149C64.5997 452.149 64.9179 452.116 65.2381 452.042L64.5409 449.021L63.8437 445.999C64.0028 445.963 64.1535 445.948 64.2898 445.948V449.048ZM64.5409 449.021L65.2381 452.042C65.1366 452.065 64.974 452.093 64.7642 452.093V448.993V445.892C64.4179 445.892 64.1064 445.939 63.8437 445.999L64.5409 449.021ZM64.7642 448.993L64.9576 452.087C64.6293 452.108 64.22 452.072 63.786 451.905C63.3448 451.735 62.9837 451.47 62.7118 451.171L65.006 449.086L67.3002 447C66.5503 446.175 65.5249 445.839 64.5708 445.898L64.7642 448.993ZM65.006 449.086L62.8136 451.278C62.4957 450.96 62.316 450.636 62.2169 450.415C62.1167 450.191 62.0678 450.003 62.0431 449.887C62.0175 449.766 62.0075 449.674 62.0032 449.622C61.9987 449.568 61.9985 449.533 61.9985 449.523H65.099H68.1996C68.1996 449.294 68.1863 448.962 68.1084 448.596C68.0457 448.301 67.8561 447.551 67.1984 446.893L65.006 449.086ZM65.099 449.523H61.9985C61.9985 449.414 62.0128 449.132 62.1655 448.776L65.0153 449.997L67.8652 451.219C68.1294 450.602 68.1996 450.004 68.1996 449.523H65.099ZM65.0153 449.997L62.1879 448.725C62.3324 448.404 62.5451 448.107 62.817 447.86C63.0834 447.619 63.3584 447.469 63.5878 447.38L64.7177 450.267L65.8475 453.154C66.6418 452.844 67.4111 452.229 67.8428 451.27L65.0153 449.997ZM64.7177 450.267L63.6748 447.347C63.7962 447.304 63.8862 447.283 63.9254 447.275C63.968 447.266 63.9885 447.264 63.9796 447.265L64.3642 450.341L64.7488 453.418C65.0011 453.386 65.3703 453.326 65.7605 453.187L64.7177 450.267ZM64.3642 450.341L63.8545 447.283C63.8297 447.287 63.8281 447.287 63.8455 447.285C63.8603 447.283 63.916 447.278 64.0014 447.278V450.379V453.479C64.337 453.479 64.6465 453.438 64.8739 453.4L64.3642 450.341Z" fill="white" mask="url(#path-4-outside-2_148_4503)"/>
</svg>
