<svg width="30" height="25" viewBox="0 0 30 25" fill="none" xmlns="http://www.w3.org/2000/svg">
<path d="M12.4707 5.55774C13.5137 4.81276 14.915 4.81278 15.958 5.55774L22.127 9.96399C22.9153 10.527 23.3837 11.4357 23.3838 12.4044V21.6134C23.3838 23.2702 22.0406 24.6133 20.3838 24.6134H8.0459C6.38904 24.6134 5.0459 23.2703 5.0459 21.6134V12.4044C5.04603 11.4358 5.51367 10.5271 6.30176 9.96399L12.4707 5.55774ZM14.2139 11.298C12.0439 11.2982 10.2852 13.0576 10.2852 15.2277C10.2852 17.3977 12.0439 19.1571 14.2139 19.1573C16.384 19.1573 18.1435 17.3978 18.1436 15.2277C18.1436 13.0575 16.384 11.298 14.2139 11.298ZM12.3398 0.569458C13.3927 -0.192445 14.8162 -0.189488 15.8662 0.576294L27.5078 9.06653C28.1205 9.5135 28.2497 10.3747 27.7949 10.9816C27.3467 11.5796 26.5 11.7044 25.8984 11.2609L15.8604 3.86047C14.8139 3.08896 13.3898 3.07889 12.333 3.83606L2.04297 11.2101C1.4688 11.6215 0.671024 11.4955 0.251953 10.9269C-0.17355 10.3494 -0.0468105 9.53603 0.53418 9.11536L12.3398 0.569458Z" fill="#D8A364"/>
</svg>
