<svg width="16" height="16" viewBox="0 0 16 16" fill="none" xmlns="http://www.w3.org/2000/svg">
<mask id="mask0_78_3366" style="mask-type:alpha" maskUnits="userSpaceOnUse" x="0" y="0" width="16" height="16">
<rect width="16" height="16" fill="#D9D9D9"/>
</mask>
<g mask="url(#mask0_78_3366)">
<path d="M7.99992 14.6666C7.0777 14.6666 6.21103 14.4916 5.39992 14.1416C4.58881 13.7916 3.88325 13.3166 3.28325 12.7166C2.68325 12.1166 2.20825 11.4111 1.85825 10.6C1.50825 9.78887 1.33325 8.9222 1.33325 7.99998C1.33325 7.07776 1.50825 6.21109 1.85825 5.39998C2.20825 4.58887 2.68325 3.88331 3.28325 3.28331C3.88325 2.68331 4.58881 2.20831 5.39992 1.85831C6.21103 1.50831 7.0777 1.33331 7.99992 1.33331C8.92214 1.33331 9.78881 1.50831 10.5999 1.85831C11.411 2.20831 12.1166 2.68331 12.7166 3.28331C13.3166 3.88331 13.7916 4.58887 14.1416 5.39998C14.4916 6.21109 14.6666 7.07776 14.6666 7.99998C14.6666 8.29998 14.6499 8.59442 14.6166 8.88331C14.5833 9.1722 14.5277 9.45553 14.4499 9.73331C14.2944 9.55553 14.1138 9.40553 13.9083 9.28331C13.7027 9.16109 13.4777 9.07776 13.2333 9.03331C13.2666 8.86665 13.2916 8.6972 13.3083 8.52498C13.3249 8.35276 13.3333 8.17776 13.3333 7.99998C13.3333 6.51109 12.8166 5.24998 11.7833 4.21665C10.7499 3.18331 9.48881 2.66665 7.99992 2.66665C6.51103 2.66665 5.24992 3.18331 4.21659 4.21665C3.18325 5.24998 2.66659 6.51109 2.66659 7.99998C2.66659 9.48887 3.18325 10.75 4.21659 11.7833C5.24992 12.8166 6.51103 13.3333 7.99992 13.3333C8.56658 13.3333 9.10825 13.25 9.62492 13.0833C10.1416 12.9166 10.6166 12.6833 11.0499 12.3833C11.1833 12.5722 11.3471 12.7389 11.5416 12.8833C11.736 13.0278 11.9444 13.1389 12.1666 13.2166C11.5999 13.6722 10.9638 14.0278 10.2583 14.2833C9.5527 14.5389 8.79992 14.6666 7.99992 14.6666ZM12.8333 12C12.5999 12 12.4027 11.9194 12.2416 11.7583C12.0805 11.5972 11.9999 11.4 11.9999 11.1666C11.9999 10.9333 12.0805 10.7361 12.2416 10.575C12.4027 10.4139 12.5999 10.3333 12.8333 10.3333C13.0666 10.3333 13.2638 10.4139 13.4249 10.575C13.586 10.7361 13.6666 10.9333 13.6666 11.1666C13.6666 11.4 13.586 11.5972 13.4249 11.7583C13.2638 11.9194 13.0666 12 12.8333 12ZM10.1999 11.1333L7.33325 8.26665V4.66665H8.66658V7.73331L11.1333 10.2L10.1999 11.1333Z" fill="#1C1B1F"/>
</g>
</svg>
