<svg width="24" height="24" viewBox="0 0 24 24" fill="none" xmlns="http://www.w3.org/2000/svg">
<path d="M7.5959 1.26293C8.02631 1.09971 9.06213 1.55388 9.32344 1.93286C10.5851 3.76281 11.9103 5.73053 12.5744 7.79321C12.8064 8.51374 12.9565 9.24921 13.0022 9.99731L14.2004 8.40063C14.5317 7.95893 15.158 7.86941 15.5998 8.20043C16.0415 8.53179 16.1312 9.15808 15.8 9.59985L15.1047 10.5247L16.0939 10.0862C16.5986 9.8619 17.1899 10.0894 17.4143 10.594C17.6384 11.0986 17.4111 11.69 16.9064 11.9143L15.3986 12.5832C16.6052 12.6909 17.6221 13.023 18.4904 13.5784C20.2653 14.7138 21.1826 16.6379 21.9367 18.6487C22.0842 19.0423 22.0986 20.0609 21.7795 20.3342C21.4603 20.6067 20.8749 20.0776 20.509 19.8713C19.6082 19.3639 18.7584 19.2334 18.134 19.3518C17.5421 19.4642 17.1341 19.7933 16.9426 20.3342C16.8309 20.6492 16.6121 21.1632 16.2883 21.2454C15.9641 21.3273 15.5773 20.9658 15.3293 20.7414C14.6924 20.1652 14.3192 20.0448 14.1555 20.052C14.1146 20.0538 13.8174 20.0668 13.4016 20.9329C13.2654 21.2164 12.994 21.7474 12.6857 21.8088C12.3774 21.87 12.0675 21.4551 11.8332 21.2454C11.3586 20.8205 11.035 20.4238 10.801 20.1399C10.6792 19.9921 10.5992 19.896 10.5275 19.8215C10.4945 19.7872 10.4696 19.7646 10.4523 19.7502C10.4506 19.7487 10.449 19.7467 10.4475 19.7454C10.4246 19.7467 10.3826 19.7521 10.3156 19.7688C10.0718 19.8296 9.67017 19.9976 8.98262 20.3762C8.69564 20.5345 8.29362 21.1456 8.0002 21.0002C7.70703 20.8541 7.55865 19.97 7.51094 19.6457C7.39152 18.8316 7.04862 18.6897 6.88399 18.6584C6.61975 18.6089 5.73555 19.178 5.73555 19.178C5.71113 19.1933 3.90788 20.324 3.5002 20.0002C3.09085 19.6735 3.879 18.3686 4.175 17.9358C4.47885 17.4919 4.7355 17.0907 4.92403 16.7385C5.094 16.4209 5.1783 16.193 5.21211 16.0442C5.14741 16.0276 4.50674 15.9366 4.36934 15.925C3.98643 15.8928 3.63702 15.8593 3.5002 15.5002C3.3636 15.1411 4.00991 14.5907 4.27461 14.3118C4.69051 13.8736 4.98694 13.5272 5.18281 13.2317C5.37708 12.9385 5.42915 12.7588 5.4377 12.6497C5.44939 12.4988 5.3983 12.1129 4.36934 11.2756C4.10855 11.0635 3.46698 10.617 3.5002 10.2825C3.53398 9.9482 4.23847 9.77038 4.53633 9.6145C4.73445 9.51078 4.83248 9.3994 4.88985 9.29809C4.95163 9.18873 4.99851 9.03105 5.00606 8.79809C5.02204 8.29962 4.85433 7.63954 4.56172 6.84594C4.44077 6.5176 4.15909 5.78273 4.37715 5.50903C4.59561 5.23559 5.28293 5.46348 5.63008 5.50903C6.9854 5.68712 7.28061 5.36301 7.38692 5.18872C7.48108 5.03402 7.56761 4.76631 7.5959 4.31274C7.62386 3.86385 7.5915 3.30475 7.50801 2.62133C7.45225 2.16449 7.16575 1.42632 7.5959 1.26293ZM9.36445 5.64965C9.29451 5.85007 9.20668 6.04516 9.09492 6.22875C8.59715 7.04591 7.80965 7.4296 6.8586 7.52954C6.95868 7.97268 7.01917 8.42449 7.00508 8.86254C6.98987 9.33347 6.88901 9.82611 6.63106 10.2825C6.58635 10.3615 6.53581 10.4374 6.4836 10.511C7.11064 11.1896 7.49927 11.9331 7.43184 12.8039C7.38715 13.3796 7.14654 13.8894 6.84981 14.3372C6.79162 14.4249 6.72772 14.5118 6.66231 14.5998C6.68453 14.6203 6.7083 14.6396 6.72969 14.6614C7.21194 15.1524 7.27928 15.7738 7.20332 16.2805C7.18371 16.4111 7.15406 16.5422 7.11641 16.6721C7.16313 16.6784 7.21034 16.6847 7.25703 16.6936C8.2819 16.5366 8.90419 17.0493 9.08906 18.0891C9.35562 17.9741 9.60216 17.8857 9.83223 17.8284C10.3909 17.6892 10.931 17.7109 11.4338 18.0032C11.8422 18.2407 12.1452 18.6263 12.3439 18.8674C12.3516 18.8766 12.3607 18.8855 12.3684 18.8948C12.8226 18.4021 13.3812 18.0843 14.0676 18.0539C14.6627 18.0278 15.2178 18.2325 15.7141 18.5315C16.2425 17.9235 16.9617 17.5387 17.7609 17.387C18.2204 17.2998 18.7018 17.2888 19.1897 17.3479C18.6947 16.4184 18.1381 15.7267 17.4133 15.2629C16.497 14.6769 15.1576 14.3656 12.9924 14.6497C12.9953 14.6002 13.0002 14.5505 13.0002 14.5002C13.0002 13.2187 12.0358 12.1629 10.7932 12.0178C11.1554 10.7924 11.0576 9.60712 10.6711 8.40649C10.3769 7.49267 9.91844 6.58095 9.36445 5.64965Z" fill="black"/>
</svg>
