<svg width="128" height="187" viewBox="0 0 128 187" fill="none" xmlns="http://www.w3.org/2000/svg">
<path d="M107.424 41.0102C109.568 46.0107 100.757 60.1769 96.4242 66.5102C81.424 70.5104 50.5239 77.9107 46.9241 75.5107L46.8941 75.4907C42.3935 72.4902 35.4694 67.8739 36.9238 63.5107C37.4238 62.0107 40.4238 61.5117 46.9241 62.0107C44.9241 60.0107 31.9241 42.5107 35.4241 39.5107C38.9241 36.5107 53.9238 48.5117 58.9242 53.0107C58.9242 49.5117 57.9238 41.5117 59.9238 41.0102C63.353 40.1504 64.9238 42.0117 70.9242 46.0107C69.4242 43.0107 63.5971 22.2568 67.9238 19.0117C69.9238 17.5117 73.4238 21.0117 76.9238 24.0117C77.9238 17.0117 80.4242 -0.488537 84.4242 0.010452C88.4243 0.509456 90.9238 21.0107 92.4242 26.0104C94.9238 22.0107 98.4238 17.0107 101.424 18.5107C104.219 19.9081 100.924 35.5107 99.9238 44.0107C103.387 41.2259 106.424 38.677 107.424 41.0102Z" fill="#356633"/>
<path d="M54.9238 63.0116C45.3238 68.6116 45.9238 81.6783 47.4238 87.5116C36.924 84.5117 21.3089 81.0767 8.92375 96.0117C-8.07625 116.512 1.42377 147.012 18.9238 165.512C36.4238 184.012 70.3615 195.074 88.4238 177.012C99.9238 165.512 100.924 150.512 98.9238 139.012C113.424 139.012 114.924 137.012 121.924 131.512C128.924 126.012 132.424 103.512 111.424 78.0116C90.4238 52.5116 66.9238 56.0116 54.9238 63.0116Z" fill="#CD3433"/>
<path d="M51.9244 132.012C47.5774 127.954 48.4241 115.512 53.9249 111.512C62.2583 117.512 78.7248 130.412 77.9248 130.012C70.9241 137.512 59.4238 139.012 51.9244 132.012Z" fill="#A83636"/>
<circle cx="67.4238" cy="117.512" r="15" fill="#343434"/>
</svg>
