<svg width="19" height="19" viewBox="0 0 19 19" fill="none" xmlns="http://www.w3.org/2000/svg">
<path d="M8.44638 0.633545C8.3056 0.633545 8.16483 0.774317 7.88329 1.05586V2.18204H6.17547C5.63093 1.61895 5.63093 1.61895 5.06784 2.18204C4.50475 2.74513 4.50475 2.74513 5.06784 3.30822C5.63093 3.87131 5.63093 3.87131 6.15073 3.30822H7.88329V4.43439H9.00946V3.30822H10.7235C11.2796 3.87131 11.2795 3.87131 11.8426 3.30822C12.4057 2.74513 12.4057 2.74513 11.8426 2.18204C11.2795 1.61895 11.2796 1.61895 10.6987 2.18204H9.00946V1.05586C8.72792 0.774317 8.58715 0.633545 8.44638 0.633545ZM1.12622 3.3786V12.388H2.2524V3.3786H1.12622ZM3.37858 5.06787L2.81549 4.50478V11.2618L3.37858 10.6988V5.06787ZM8.44638 4.99748C7.3202 4.99748 6.74479 4.99748 6.71382 6.12366H3.94166V9.50219H6.21602C6.75711 10.0653 7.3202 10.6284 8.44638 10.6284C9.57255 10.6284 10.1356 10.0653 10.6987 9.50219C12.9511 9.50219 12.9511 9.50219 12.9511 10.6284V11.7545H16.3296V9.50219C16.3296 7.24984 15.2034 6.12366 12.9511 6.12366H10.1356C10.148 4.99748 9.57255 4.99748 8.44638 4.99748ZM12.388 12.3176V12.8807H16.8927V12.3176H12.388ZM14.6404 13.4438C14.6404 13.4438 13.2741 15.2619 13.5142 16.3296C13.6627 16.9899 13.9636 17.3854 14.6404 17.3854C15.3171 17.3854 15.618 16.9899 15.7665 16.3296C16.0067 15.2619 14.6404 13.4438 14.6404 13.4438Z" fill="black"/>
</svg>
