<svg width="17" height="19" viewBox="0 0 17 19" fill="none" xmlns="http://www.w3.org/2000/svg">
<path d="M10.9688 4.21875C10.6562 4.21875 10.3698 4.14323 10.1094 3.99219C9.85417 3.84115 9.64844 3.63802 9.49219 3.38281C9.34115 3.1224 9.26562 2.83333 9.26562 2.51562C9.26562 2.20312 9.34115 1.91927 9.49219 1.66406C9.64844 1.40365 9.85417 1.19792 10.1094 1.04688C10.3698 0.895833 10.6562 0.820312 10.9688 0.820312C11.2812 0.820312 11.5651 0.895833 11.8203 1.04688C12.0807 1.19792 12.2865 1.40365 12.4375 1.66406C12.5938 1.91927 12.6719 2.20312 12.6719 2.51562C12.6719 2.83333 12.5938 3.1224 12.4375 3.38281C12.2865 3.63802 12.0807 3.84115 11.8203 3.99219C11.5651 4.14323 11.2812 4.21875 10.9688 4.21875ZM8.09375 17.9688C6.95833 17.9688 5.96354 17.7318 5.10938 17.2578C4.26042 16.7839 3.59896 16.1198 3.125 15.2656C2.65104 14.4167 2.41406 13.4245 2.41406 12.2891C2.41406 11.7109 2.49219 11.1693 2.64844 10.6641C2.8099 10.1536 3.02604 9.6901 3.29688 9.27344C3.43229 9.07552 3.58333 8.95833 3.75 8.92188C3.91667 8.88542 4.06771 8.90885 4.20312 8.99219C4.33854 9.07031 4.42448 9.1901 4.46094 9.35156C4.4974 9.50781 4.45312 9.67969 4.32812 9.86719C4.10417 10.2057 3.92708 10.5781 3.79688 10.9844C3.66667 11.3906 3.60156 11.8255 3.60156 12.2891C3.60156 13.1849 3.78906 13.9714 4.16406 14.6484C4.53906 15.3203 5.0625 15.8438 5.73438 16.2188C6.41146 16.5938 7.20052 16.7812 8.10156 16.7812C8.9974 16.7812 9.78125 16.5938 10.4531 16.2188C11.1302 15.8438 11.6536 15.3203 12.0234 14.6484C12.3984 13.9714 12.5859 13.1849 12.5859 12.2891C12.5859 11.987 12.4896 11.7526 12.2969 11.5859C12.1042 11.4141 11.8594 11.3281 11.5625 11.3281H8.65625C8.28125 11.3281 7.96354 11.2292 7.70312 11.0312C7.44271 10.8333 7.26823 10.5729 7.17969 10.25C7.09115 9.92188 7.11458 9.5625 7.25 9.17188L8.13281 6.69531C8.1901 6.54427 8.1875 6.41406 8.125 6.30469C8.06771 6.19531 7.95573 6.11719 7.78906 6.07031L6.10938 5.625L3.23438 7.14844C3.03646 7.2526 2.83594 7.28906 2.63281 7.25781C2.42969 7.22135 2.26562 7.11458 2.14062 6.9375C2.01042 6.76562 1.96354 6.56771 2 6.34375C2.03646 6.11458 2.14844 5.94792 2.33594 5.84375L5.46875 4.07812C5.60938 3.99479 5.74219 3.94271 5.86719 3.92188C5.9974 3.89583 6.14062 3.90104 6.29688 3.9375L9.52344 4.75C10.0755 4.89062 10.4635 5.16667 10.6875 5.57812C10.9115 5.98438 10.9401 6.4375 10.7734 6.9375L10.0547 9.11719C10.0182 9.22656 10.0234 9.3099 10.0703 9.36719C10.1224 9.42448 10.1927 9.45312 10.2812 9.45312H11.3281C12.125 9.45312 12.7318 9.70312 13.1484 10.2031C13.5651 10.6979 13.7734 11.3932 13.7734 12.2891C13.7734 13.4245 13.5365 14.4167 13.0625 15.2656C12.5885 16.1198 11.9245 16.7839 11.0703 17.2578C10.2214 17.7318 9.22917 17.9688 8.09375 17.9688ZM13.7969 17.9688C13.5573 17.9688 13.3542 17.8854 13.1875 17.7188C13.0208 17.5521 12.9375 17.349 12.9375 17.1094C12.9375 16.8698 13.0208 16.6667 13.1875 16.5C13.3542 16.3333 13.5573 16.25 13.7969 16.25C14.0365 16.25 14.2396 16.3333 14.4062 16.5C14.5729 16.6667 14.6562 16.8698 14.6562 17.1094C14.6562 17.349 14.5729 17.5521 14.4062 17.7188C14.2396 17.8854 14.0365 17.9688 13.7969 17.9688Z" fill="black"/>
</svg>
